<svg xmlns="http://www.w3.org/2000/svg" viewBox="0 0 48 48" width="48px" height="48px"><path fill="#FFCC80" d="M13 22H8v-8.5c0-1.4 1.1-2.5 2.5-2.5h0c1.4 0 2.5 1.1 2.5 2.5V22zM20 22h-5V7.5C15 6.1 16.1 5 17.5 5h0C18.9 5 20 6.1 20 7.5V22zM27 22h-5V5.5C22 4.1 23.1 3 24.5 3h0C25.9 3 27 4.1 27 5.5V22zM34 22h-5V8.5C29 7.1 30.1 6 31.5 6h0C32.9 6 34 7.1 34 8.5V22zM32.1 43L27.1 38l10-10c1.4-1.4 3.6-1.4 4.9 0l0 0c1.4 1.4 1.4 3.6 0 4.9L32.1 43z"/><path fill="#FFCC80" d="M29,21c0,0.6-0.4,1-1,1s-1-0.4-1-1h-5c0,0.6-0.4,1-1,1s-1-0.4-1-1h-5c0,0.6-0.4,1-1,1s-1-0.4-1-1H8v16c0,4.4,3.6,8,8,8h11.2c3.7,0,6.8-3,6.8-6.8V21H29z"/><g><path fill="#F44336" d="M20.2 25.5H23.7V40.5H20.2z" transform="rotate(-45.001 22 33.01)"/><path fill="#F44336" d="M20.2 25.6H23.7V40.6H20.2z" transform="rotate(45.001 22 33.046)"/></g></svg>