<svg xmlns="http://www.w3.org/2000/svg" viewBox="0 0 48 48" width="48px" height="48px"><path fill="#BBDEFB" d="M28.904,7.782c0,0-14.891,14.891-14.946,14.946c-2.171,2.17-2.979,10.051-2.979,10.051l4.243,4.242c0,0,7.806-0.648,10.05-2.98c0.075-0.075,14.946-14.945,14.946-14.945c2.989-2.988,2.876-7.943-0.247-11.066C36.846,4.904,31.893,4.793,28.904,7.782z"/><path fill="#F44336" d="M10.979,32.779L10.979,32.779l-4.949,4.948c-1.171,1.172-1.171,3.071,0,4.243c1.172,1.172,3.071,1.172,4.243,0l4.949-4.949L10.979,32.779z"/><path fill="#F44336" d="M10.414 22.585H38.415V24.585H10.414z" transform="rotate(-45.001 24.414 23.585)"/><g><path fill="#1E88E5" d="M28.01 8.711H30.01V13.711H28.01z" transform="rotate(-45.001 29.01 11.211)"/><path fill="#1E88E5" d="M24.475 12.247H26.475V17.247H24.475z" transform="rotate(-45.001 25.474 14.747)"/><path fill="#1E88E5" d="M20.939 15.782H22.939V20.783H20.939z" transform="rotate(-44.992 21.938 18.283)"/><path fill="#1E88E5" d="M17.404 19.318H19.404V24.317H17.404z" transform="rotate(-45.02 18.402 21.816)"/></g></svg>