<svg xmlns="http://www.w3.org/2000/svg" viewBox="0 0 48 48" width="48px" height="48px"><path fill="#ff9800" d="M17.4,32.2C13.3,30.1,16,25,16,25l3-6l8,4l-3,6C24,29,21.4,34.3,17.4,32.2z"/><path fill="#ffb74d" d="M25.2,7.2c-4.6-4.6-14.1,8.2-11.1,11.2l3.4,3.4C20,24,25.9,25.1,29,22s2.5-8.4-0.4-11.4L25.2,7.2z"/><path fill="#4fc3f7" d="M40.2 18.8L37 22.1 30 17l5-5L40.2 18.8zM33 36c-.3-7.1-17-12-17-12s-4 3.9-4 12v8h19l-2-8H33z"/><path fill="#b3e5fc" d="M38.4,16.5L35,12l-5,5l1.1,0.8L38.4,16.5z"/><path fill="#e1f5fe" d="M34,13l6,7l-7-6L34,13z"/><path fill="#ffb74d" d="M34.9,21.5c0-0.1,0-0.2,0.1-0.4l3.6-3.8c0.6-0.6,1.4-0.9,2.1,0.2l2.9,4.9c0.5,0.6,0.5,1.1,0,1.7 L40.7,27c-0.1,0-0.2,0-0.4,0s-0.2,0-0.4,0L35,21.9C35,21.7,34.9,21.6,34.9,21.5z"/><path fill="#4fc3f7" d="M44,23v10c0,1.8-2.2,3-4,3s-3-1.2-3-3V23c0-1.8,1-3,4-3C42,20,44.1,21.1,44,23z"/><path fill="#4fc3f7" d="M22,36h17c2.8,0.1,4-1.4,4-3.1v-0.5c0-1.7-1.4-3.3-4-3.4H22c-3-0.1-5,1-5,3.3V33 C17.3,34.6,19.5,36,22,36z"/><path fill="#795548" d="M25 6.5c0 0 .3-2.8-5.6-2.5-5.2.3-10 3.2-9.1 7.3.2 1-.3 2-.3 2.8 0 4.7 4.4 6.7 7.7 7.8.9.4 1.6-1.7 1.6-1.7s-2.8-1.3-2.7-4.8c.7-2.8 2.6 1.4 3.2 1.3.6-.1 1-.7 1-.7s-1.2-3.5-2.4-5.2C20.5 8.3 25 6.5 25 6.5zM24.5 13C24.5 13 24.5 13 24.5 13c-.3 0-.5-.2-.5-.5 0-.9.5-2.5 2.5-2.5.3 0 .5.2.5.5S26.8 11 26.5 11c-1.4 0-1.5 1.3-1.5 1.5C25 12.8 24.8 13 24.5 13z"/><path fill="#039be5" d="M29,36h-8l9,4L29,36z"/></svg>