<svg xmlns="http://www.w3.org/2000/svg" viewBox="0 0 48 48" width="48px" height="48px"><path fill="#BBDEFB" d="M36,6c0,0-19.91,0-23.5,0S6,11.596,6,18.5S8.91,31,12.5,31S36,31,36,31"/><path fill="#BBDEFB" d="M6,18.5V42c0-0.552,0.448-1,1-1s1,0.448,1,1h1c0-0.552,0.448-1,1-1s1,0.448,1,1h1c0-0.552,0.448-1,1-1s1,0.448,1,1h1c0-0.552,0.448-1,1-1s1,0.448,1,1h1c0-0.552,0.448-1,1-1s1,0.448,1,1h1c0-0.552,0.448-1,1-1s1,0.448,1,1h1c0-0.552,0.448-1,1-1s1,0.448,1,1h1c0-0.552,0.448-1,1-1s1,0.448,1,1V18.5H6z"/><path fill="#90CAF9" d="M35.5 6A6.5 12.5 0 1 0 35.5 31A6.5 12.5 0 1 0 35.5 6Z"/><path fill="#37474F" d="M35.5 15.615A1.5 2.885 0 1 0 35.5 21.384999999999998A1.5 2.885 0 1 0 35.5 15.615Z"/><path fill="#42A5F5" d="M8 20c0 .552-.448 1-1 1s-1-.448-1-1 .448-1 1-1S8 19.448 8 20zM10 19c-.552 0-1 .448-1 1s.448 1 1 1 1-.448 1-1S10.552 19 10 19zM13 19c-.552 0-1 .448-1 1s.448 1 1 1 1-.448 1-1S13.552 19 13 19zM16 19c-.552 0-1 .448-1 1s.448 1 1 1c.552 0 1-.448 1-1S16.552 19 16 19zM19 19c-.552 0-1 .448-1 1s.448 1 1 1 1-.448 1-1S19.552 19 19 19zM22 19c-.552 0-1 .448-1 1s.448 1 1 1 1-.448 1-1S22.552 19 22 19zM25 19c-.552 0-1 .448-1 1s.448 1 1 1 1-.448 1-1S25.552 19 25 19zM28 19c-.552 0-1 .448-1 1s.448 1 1 1 1-.448 1-1S28.552 19 28 19zM29.051 20H29v11h6.5C32.175 31 29.437 26.195 29.051 20z"/></svg>