<svg xmlns="http://www.w3.org/2000/svg" viewBox="0 0 48 48" width="48px" height="48px"><path fill="#FFC107" d="M41,26.999c0,2.761-9,9-9,9l0,0H16l0,0c-1-1-9-6.239-9-9v-15c0-3.999,5-5,5-5S17,5,24,5s12,1.999,12,1.999s5,1.001,5,5V26.999z"/><path fill="#546E7A" d="M37,21c0,3-3,3-3,3H14c0,0-3,0-3-3s0-6,0-6c0-1.104,2-2,2-2s4-2.001,11-2.001S35,13,35,13s2,1,2,2C37,15,37,18,37,21z"/><path fill="#FF9800" d="M26.779,22.165c-1.534-1.535-4.024-1.535-5.559,0l-9.72,10.303c2.008,1.648,4.028,3.061,4.499,3.531h16c0,0,2.291-1.59,4.561-3.518L26.779,22.165z"/><path fill="#455A64" d="M24 27A8 8 0 1 0 24 43A8 8 0 1 0 24 27Z"/><path fill="#90A4AE" d="M24,29c-3.314,0-6,2.687-6,6s2.686,6,6,6s6-2.687,6-6S27.314,29,24,29z M24,37c-1.104,0-2-0.897-2-2s0.896-2,2-2s2,0.897,2,2S25.104,37,24,37z"/></svg>