<svg xmlns="http://www.w3.org/2000/svg" viewBox="0 0 48 48" width="48px" height="48px"><path fill="#C62828" d="M27,11V7.88c0-1.657-1.343-3-3-3V11H27z"/><path fill="#C5CAE9" d="M43,25L32,12c0,0-1-1-3-1H7.12C5.397,11,4,12.397,4,14.12v20.761C4,36.604,5.397,38,7.12,38H25h1.88H41c1.656,0,3-1.344,3-3v-7C44,26,43,25,43,25z"/><path fill="#455A64" d="M35 33A5 5 0 1 0 35 43 5 5 0 1 0 35 33zM14 33A5 5 0 1 0 14 43 5 5 0 1 0 14 33z"/><path fill="#263238" d="M35 36A2 2 0 1 0 35 40 2 2 0 1 0 35 36zM14 36A2 2 0 1 0 14 40 2 2 0 1 0 14 36z"/><path fill="#F44336" d="M24 11V4.88c-1.657 0-3 1.343-3 3V11H24zM16 13A6 6 0 1 0 16 25 6 6 0 1 0 16 13zM4 27v4h40v-3c0-.371-.042-.697-.098-1H4z"/><g><path fill="#FFF" d="M12 18H20V20H12z"/><path fill="#FFF" d="M15 15H17V23H15z"/></g><path fill="#455A64" d="M40.391 25L31.066 13.88 29 13.88 29 25z"/></svg>