<svg xmlns="http://www.w3.org/2000/svg" viewBox="0 0 48 48" width="48px" height="48px"><path fill="#039be5" d="M21,42H5c-0.552,0-1-0.448-1-1V10c0-0.552,0.448-1,1-1h16c0.552,0,1,0.448,1,1v31 C22,41.552,21.552,42,21,42z"/><path fill="#e0e0e0" d="M4.25,6.035C3.551,5.846,2.897,6.443,3.014,7.158C3.308,8.964,4,13.441,4,16c0,4,3.494,6,9.062,6 C18.701,22,22,20,22,16c0-2.559,0.691-7.036,0.986-8.842c0.117-0.714-0.538-1.312-1.236-1.122C20.885,6.27,19.912,7,18.5,7 c-2,0-2.5-1-5.5-1S9.5,7,7.5,7C6.088,7,5.115,6.27,4.25,6.035z"/><path fill="#039be5" d="M44,42H28c-0.552,0-1-0.448-1-1V10c0-0.552,0.448-1,1-1h16c0.552,0,1,0.448,1,1v31 C45,41.552,44.552,42,44,42z"/><path fill="#0288d1" d="M27,10v8.52c2.01,2.085,5.329,3.48,9,3.48c3.531,0,6.89-1.288,9-3.446V10c0-0.552-0.448-1-1-1H28 C27.448,9,27,9.448,27,10z"/><path fill="#4fc3f7" d="M28 9c-.552 0-1 .448-1 1v4c.008 3 4 6 9 6s9.096-3 9-6v-4c0-.552-.448-1-1-1L28 9zM21 42H5c-.552 0-1-.448-1-1v-4h18v4C22 41.552 21.552 42 21 42zM44 42H28c-.552 0-1-.448-1-1v-4h18v4C45 41.552 44.552 42 44 42z"/><path fill="#ff3d00" d="M39,24h-6v-6c0-0.552,0.448-1,1-1h4c0.552,0,1,0.448,1,1V24z"/><path fill="#ff6e40" d="M38,26h-4c-0.552,0-1-0.448-1-1v-1h6v1C39,25.552,38.552,26,38,26z"/><path fill="#bdbdbd" d="M17.983,19.905L18,19.875L19,14l-3.971,6.825c-0.013,0.002-0.026,0.004-0.039,0.007L13,12 l-1.99,8.831c-0.013-0.002-0.026-0.004-0.039-0.007L7,14l1,5.875l0.025,0.034C6.037,18.969,4.583,17.529,4,16v3.52 C6.01,21.604,9.329,23,13,23c3.531,0,6.89-1.288,9-3.446V16C21.418,17.527,19.967,18.966,17.983,19.905z"/></svg>