<svg xmlns="http://www.w3.org/2000/svg" viewBox="0 0 48 48" width="48px" height="48px"><path fill="#ffba57" d="M35 13c-2.206 0-4-1.794-4-4s1.794-4 4-4 4 1.794 4 4S37.206 13 35 13M35 15c-3.866 0-7 3.134-7 7v8l3 .987L32 43h6l1-12.013L42 30c0 0 0-6.322 0-8C42 18.134 38.866 15 35 15z"/><path fill="#f9a825" d="M29 30.326L31 21 31 30.987zM41 30.334L39 21 39 30.987z"/><path fill="#e0e0e0" d="M39 31L35 32 31 31 31 27 39 27z"/><path fill="#f9a825" d="M34 43L35 32 36 43z"/><path fill="#b0bec5" d="M16,28C8.444,28,6,16.21,6,10.5C6,8.57,7.57,7,9.5,7v2C8.673,9,8,9.673,8,10.5 C8,14.639,9.896,26,16,26s8-11.361,8-15.5C24,9.673,23.327,9,22.5,9V7c1.93,0,3.5,1.57,3.5,3.5C26,16.21,23.556,28,16,28z"/><path fill="#2196f3" d="M22.213,20c-1.242,3.27-3.221,6-6.213,6s-4.97-2.73-6.213-6H7.631c1.491,4.276,4.123,8,8.369,8 s6.878-3.724,8.369-8H22.213z"/><path fill="#2196f3" d="M25.5,38C19.71,38,15,33.29,15,27.5h2c0,4.687,3.813,8.5,8.5,8.5s8.5-3.813,8.5-8.5V22h2v5.5 C36,33.29,31.29,38,25.5,38z"/><path fill="#455a64" d="M35 17A3 3 0 1 0 35 23A3 3 0 1 0 35 17Z"/><path fill="#cfd8dc" d="M35 19A1 1 0 1 0 35 21A1 1 0 1 0 35 19Z"/><path fill="#455a64" d="M11 6A2 2 0 1 0 11 10 2 2 0 1 0 11 6zM21 6A2 2 0 1 0 21 10 2 2 0 1 0 21 6z"/></svg>