<svg xmlns="http://www.w3.org/2000/svg" viewBox="0 0 48 48" width="48px" height="48px"><path fill="#FFCC80" d="M41.1,30c1.6,0,2.9-1.3,2.9-3c0-1.7-1.3-3-2.9-3H39c1.1,0,3-1.1,3-3.1S40,18,39,18s-24,0-24,0l4-4.3c1.4-1.4,1.5-3.4-0.2-4.8c-1.4-1.2-3.6-0.9-4.8,0.3l-5.7,5.7C5,18,4,22.7,4,25.7v6.9c0,5.1,4.1,9.4,9.2,9.4c0,0,4.8,0,10.8,0l0,0l11.1,0c1.6,0,2.9-1.3,2.9-3c0-1.7-1.3-3-2.9-3h4c1.6,0,2.9-1.3,2.9-3c0-1.7-1.3-3-2.9-3L41.1,30z"/><path fill="#F2A25A" d="M25,26c-0.6,0-1-0.4-1-1s0.4-1,1-1l14,0c0,0,0,0,0,0L25,26z M39.6,30.1c-0.1,0-0.2,0-0.4,0h0L24,30c-0.6,0-1,0.4-1,1s0.4,1,1,1L39.6,30.1z M35.4,36c-0.1,0-0.2,0-0.4,0h0H22.4c-0.6,0-1,0.4-1,1s0.4,1,1,1L35.4,36z"/><path fill="#FFEBEE" d="M14.9,10c0.8-0.9,2.3-1,3.2-0.2c0.9,0.8,1,2.3,0.2,3.2C17.4,13.9,14.1,10.9,14.9,10 M38.9,18.9c-1.2,0-1.2,4,0,4c1.2,0,2.1-0.9,2.1-2C41,19.8,40.1,18.9,38.9,18.9 M40.9,25c-1.2,0-1.2,4,0,4c1.2,0,2.1-0.9,2.1-2C43,25.9,42.1,25,40.9,25 M38.9,31c-1.2,0-1.2,4,0,4c1.2,0,2.1-0.9,2.1-2C41,31.9,40.1,31,38.9,31 M34.9,37c-1.2,0-1.2,4,0,4c1.2,0,2.1-0.9,2.1-2C37,37.9,36.1,37,34.9,37"/><path fill="#2196F3" d="M32,13c0-1.7-3-7-3-7s-3,5.3-3,7s1.3,3,3,3S32,14.7,32,13z"/></svg>