<svg xmlns="http://www.w3.org/2000/svg" viewBox="0 0 48 48" width="48px" height="48px"><path fill="#ef840f" d="M15,27c0,2.2-1.8,4-4,4s-4-1.8-4-4s1.8-4,4-4S15,24.8,15,27"/><path fill="#ef840f" d="M41,27c0-2.2-1.8-4-4-4s-4,1.8-4,4s1.8,4,4,4S41,29.2,41,27"/><path fill="#ef840f" d="M10,19c0-12.7,28-10.3,28-2v13c0,8.3-8.2,15-14,15s-14-6.7-14-15V19z"/><path fill="#424242" d="M8,19.3c0.5-6,1.7-11.9,9-13.3l2-3h5c9.2,0,16,7.5,16,18v3.4L37,28c0,0,0,0.5,0-6 c0-10.5-14.75,1.5-21-8c-0.3,5.5-5,7-5,7v7l-3-3.6V21C8,20.4,7.9,19.9,8,19.3"/><path fill="#ffbc6c" d="M28.331,34.219l-5.546-5.546l-0.451-0.451l-3.778-0.783L15,31l-0.737-5.161 C14.112,24.784,13.208,24,12.142,24h0C10.959,24,10,24.959,10,26.142V33c-0.126,3.234,1.897,5.748,3.436,7.287l2.726,2.726 c2.546,2.546,6.699,2.649,9.243,0.105c0,0,2.419-2.403,5.422-5.406L28.331,34.219z"/><path fill="#ffbc6c" d="M22.191,29.377c-0.742,0.742-0.711,1.984,0.067,2.761c0.779,0.779,2.02,0.808,2.761,0.067 l8.327-8.327c0.741-0.741,0.711-1.982-0.068-2.761c-0.777-0.777-2.02-0.809-2.761-0.068L22.191,29.377z"/><path fill="#ffbc6c" d="M17.949,27.963c-0.742,0.742-0.711,1.984,0.067,2.761c0.779,0.779,2.02,0.808,2.761,0.067 l8.327-8.327c0.741-0.741,0.711-1.982-0.068-2.761c-0.777-0.777-2.02-0.809-2.761-0.068L17.949,27.963z"/><path fill="#ffbc6c" d="M25.072,37.81c-0.754,0.754-0.735,2.005,0.04,2.78c0.777,0.777,2.027,0.794,2.78,0.04l7.552-7.537 c0.753-0.753,0.734-2.004-0.041-2.78s-2.026-0.795-2.78-0.041L25.072,37.81z"/><path fill="#ffbc6c" d="M23.605,33.62c-0.741,0.741-0.711,1.984,0.067,2.761c0.778,0.778,2.02,0.808,2.761,0.067 l8.327-8.327c0.741-0.741,0.71-1.983-0.068-2.761c-0.778-0.778-2.02-0.809-2.761-0.068L23.605,33.62z"/><path fill="#fb8c00" d="M27.151,24.461l-4.532,4.495c-0.197,0.197-0.2,0.515-0.005,0.71c0.195,0.195,0.512,0.192,0.71-0.005 L27.151,24.461z"/><path fill="#fb8c00" d="M29.747,27.484c-0.004,0.002-0.013,0.008-0.013,0.008l-4.994,4.999 c-0.197,0.197-0.2,0.515-0.005,0.71s0.512,0.192,0.71-0.005L29.747,27.484z"/><path fill="#fb8c00" d="M31.868,31.02c-0.004,0.002-0.013,0.008-0.013,0.008l-4.994,4.999 c-0.197,0.197-0.2,0.515-0.005,0.71s0.512,0.192,0.71-0.005L31.868,31.02z"/><path fill="#e53935" d="M43.957,41.165L41.123,44L3.957,6.835L6.791,4L43.957,41.165z"/></svg>