<svg xmlns="http://www.w3.org/2000/svg" viewBox="0 0 48 48" width="48px" height="48px"><path fill="#FFB74D" d="M14,22c2.209,0,4,1.792,4,4c0,2.209-1.791,4-4,4s-4-1.791-4-4C10,23.792,11.791,22,14,22"/><path fill="#E1BEE7" d="M20,35H8c-0.553,0-1-0.447-1-1v-3c0-0.553,0.447-1,1-1h12c0.553,0,1,0.447,1,1v3C21,34.553,20.553,35,20,35z"/><path fill="#9C27B0" d="M43,34H20c-0.553,0-1-0.447-1-1v-9h22.317C42.872,24,44,25.134,44,26.696V33C44,33.553,43.553,34,43,34z"/><path fill="#FF9800" d="M9,42H4V18h5v15h30l0,0h5v9h-5v-4H9V42z"/><path fill="#CFD8DC" d="M39.018,6c0,0-13.967,0-14.018,0c-2,0-6,4.015-6,4.015v2.007c0,0,3.893,4.016,6,3.978c0.068-0.001,14.018,0,14.018,0C41.77,16,44,13.761,44,11C44,8.239,41.77,6,39.018,6z"/><path fill="#90A4AE" d="M25 6H27V9H25zM29 6H31V9H29zM33 6H35V9H33zM37 6H39V9H37z"/><g><path fill="#F44336" d="M21 10H39V12H21zM19 10h-4c-.553 0-1 .447-1 1s.447 1 1 1h4V10z"/></g></svg>