<svg xmlns="http://www.w3.org/2000/svg" viewBox="0 0 48 48" width="48px" height="48px"><path fill="#B3E5FC" d="M35 11A5 5 0 1 0 35 21 5 5 0 1 0 35 11zM25 8A3 3 0 1 0 25 14 3 3 0 1 0 25 8zM16 6A2 2 0 1 0 16 10 2 2 0 1 0 16 6z"/><path fill="#B3E5FC" d="M28 15A4 4 0 1 0 28 23A4 4 0 1 0 28 15Z"/><path fill="#00BCD4" d="M42,34c0,4.418-3.582,8-8,8H14c-4.418,0-8-3.582-8-8v-7c0-4.418,3.582-8,8-8h20c4.418,0,8,3.582,8,8V34z"/><path fill="#80DEEA" d="M24 23.5A13 7 0 1 0 24 37.5A13 7 0 1 0 24 23.5Z"/><path fill="#00ACC1" d="M17 29H31V32H17z"/></svg>