<svg xmlns="http://www.w3.org/2000/svg" viewBox="0 0 48 48" width="48px" height="48px"><path fill="#e9a437" d="M15.111,25.282c0,2.055-1.59,3.718-3.555,3.718S8,27.338,8,25.282s1.59-3.718,3.555-3.718	S15.111,23.227,15.111,25.282 M40,25.282C40,27.338,38.41,29,36.445,29c-1.965,0-3.555-1.662-3.555-3.718s1.59-3.718,3.555-3.718	C38.41,21.565,40,23.227,40,25.282"/><path fill="#ecb556" d="M11,18.957c0-11.221,26-7.304,26,0v8.817C37,35.079,31.181,41,24,41s-13-5.92-13-13.225V18.957z"/><path fill="#6c4922" d="M17.679,26.636c-0.678,0.678-1.469,1.109-2.218,1.284c0.017,0.019,0.029,0.039,0.047,0.057	c0.971,0.971,2.543,0.971,3.513,0.001s0.971-2.543,0-3.514c-0.018-0.018-0.039-0.029-0.057-0.047	C18.79,25.167,18.357,25.958,17.679,26.636z"/><path fill="#6c4922" d="M30.32,26.636c-0.678-0.678-1.109-1.469-1.284-2.219c-0.019,0.017-0.039,0.029-0.057,0.047	c-0.971,0.971-0.971,2.544,0,3.515s2.543,0.97,3.514-0.001c0.018-0.018,0.03-0.04,0.047-0.057	C31.789,27.746,30.999,27.314,30.32,26.636z"/><path fill="#444" d="M38.834,18.35c-0.416-5.249-2.256-10.416-8.706-11.716L28.366,4h-4.401C15.843,4,9,10.57,9,19.809	v2.985l2.641,3.163v-5.27l18.486-6.148l6.162,5.27v6.148l2.641-3.163v-2.985C38.93,19.314,38.893,18.827,38.834,18.35"/><circle cx="24" cy="35" r="2" fill="#f4511e"/><path fill="#bdbdbd" d="M24,39l1,7c0.079,0.552-0.305,1.064-0.857,1.143c-0.552,0.079-1.064-0.305-1.143-0.857 c-0.014-0.096-0.013-0.195,0-0.286L24,39z"/><path fill="#bdbdbd" d="M28,38l4.781,4.375c0.412,0.377,0.441,1.018,0.063,1.43s-1.018,0.441-1.43,0.063 c-0.078-0.072-0.145-0.157-0.195-0.244L28,38z"/><path fill="#bdbdbd" d="M20,38l-3.219,5.625C16.503,44.11,15.885,44.278,15.4,44c-0.485-0.278-0.653-0.896-0.376-1.381 c0.053-0.092,0.121-0.176,0.195-0.244L20,38z"/><circle cx="21" cy="42" r="1" fill="#bdbdbd"/><circle cx="28" cy="44" r="1" fill="#bdbdbd"/><circle cx="18" cy="47" r="1" fill="#bdbdbd"/></svg>