<svg xmlns="http://www.w3.org/2000/svg" viewBox="0 0 48 48" width="48px" height="48px"><path fill="#ffa726" d="M33.5,20C31.2,17.7,30,13.9,30,9c0-3.2,0-3,0-3H18c0,0,0-0.2,0,3c0,4.9-1.2,8.7-3.5,11	C12.1,20.2,9,22,9,25.4c0,4.5,5.1,4.6,6,4.6c1.2,0,6.1,4,8,4c0,0,0.7,0,1,0s1,0,1,0c1.9,0,6.8-4,8-4c0.9,0,6-0.1,6-4.6	C39,22,35.9,20.2,33.5,20z"/><path fill="#ffa726" d="M33.5,20C31.2,17.7,30,13.9,30,9c0-3.2,0-3,0-3H18c0,0,0-0.2,0,3c0,4.9-1.2,8.7-3.5,11	C12.1,20.2,9,22,9,25.4c0,4.5,5.1,4.6,6,4.6c1.2,0,6.1,4,8,4c0,0,0.7,0,1,0s1,0,1,0c1.9,0,6.8-4,8-4c0.9,0,6-0.1,6-4.6	C39,22,35.9,20.2,33.5,20z"/><path fill="#ffb74d" d="M26,9c0-3.2,0-3,0-3h-4c0,0,0-0.2,0,3c0,4.9-3,19-3,19s1.6,2,5,2s5-2,5-2S26,13.9,26,9z"/><path fill="#cc861e" d="M23,34c-3.3,0-6.4-3.1-8-4c0,0,0.7,0,1.8,0C19.9,30,21.3,34,23,34z M25,34c3.3,0,6.4-3.1,8-4	c0,0-0.7,0-1.8,0C28.1,30,26.7,34,25,34z"/><path fill="#ff5722" d="M18,35l4,4h-8L18,35z"/><path fill="#ff5722" d="M17,38h2v4h-2V38z"/><path fill="#ff5722" d="M30,35l4,4h-8L30,35z"/><path fill="#ff5722" d="M29,38h2v4h-2V38z"/></svg>