<svg xmlns="http://www.w3.org/2000/svg" viewBox="0 0 48 48" width="48px" height="48px"><path fill="#FF9800" d="M24 40L19 31 19 25 29 25 29 31z"/><path fill="#FFA726" d="M17 19c0 1.105-.895 2-2 2s-2-.895-2-2 .895-2 2-2S17 17.895 17 19M35 19c0 1.105-.895 2-2 2s-2-.895-2-2 .895-2 2-2S35 17.895 35 19"/><path fill="#FFB74D" d="M33,13c0-7.635-18-4.971-18,0v7c0,4.971,4.029,9,9,9s9-4.029,9-9V13z"/><path fill="#784719" d="M27 19c0 .552.448 1 1 1s1-.448 1-1-.448-1-1-1S27 18.448 27 19M19 19c0 .552.448 1 1 1s1-.448 1-1-.448-1-1-1S19 18.448 19 19"/><path fill="#424242" d="M24,4c-6.075,0-10,4.925-10,11v2.284L16,19v-5l12-4l4,4v5l2-1.741V15c0-4.025-1.038-8.015-6-9l-1-2H24z"/><g><path fill="#B3E5FC" d="M29 31l-5 9-5-9c0 0-11 1.986-11 13h32C40 33.025 29 31 29 31zM34 15c0 0-5-1-10-1s-10 1-10 1c0-4 1-10 1-10s2.376-2 9.25-2C31.125 3 33 5 33 5S34 11 34 15z"/></g><g><path fill="#F44336" d="M23 6H25V12H23z"/><path fill="#F44336" d="M21 8H27V10H21z"/></g></svg>