<svg xmlns="http://www.w3.org/2000/svg" viewBox="0 0 48 48" width="48px" height="48px"><g data-name="No yelling"><g data-name="surface57172"><path fill="#607d8b" d="M31.125,22.418v7.125L28.75,31.125l-.793,11.082H20.043L19.25,31.125l-2.375-1.582V22.418a7.125,7.125,0,0,1,14.25,0Z"/><path fill="#ffb74d" d="M25,10l2.58,1.77a3.963,3.963,0,0,1-3.17,2.21c-.11.01-.22.02-.33.02H24a4,4,0,0,1-3.98-3.59c-.01-.14-.02-.27-.02-.41s.01-.27.02-.41A4,4,0,0,1,24,6h.08a3.973,3.973,0,0,1,3.66,2.6Z"/><path fill="#37474f" d="M33.45,5.89,29.59,7.82A6.006,6.006,0,0,0,28.56,6.1l3.99-1.99Z"/><path fill="#37474f" d="M34.24,9v2H29.91a5.6,5.6,0,0,0,0-2Z"/><path fill="#37474f" d="M33.43,14.1l-.86,1.8-4.08-1.93a5.654,5.654,0,0,0,1.06-1.7Z"/></g><path fill="#37474f" d="M3.6,6.43,6.432,3.6,44.4,41.57,41.572,44.4Z"/></g></svg>