<svg xmlns="http://www.w3.org/2000/svg" viewBox="0 0 48 48" width="48px" height="48px"><path fill="#FCE4EC" d="M35 10A5 5 0 1 0 35 20 5 5 0 1 0 35 10zM25 7A3 3 0 1 0 25 13 3 3 0 1 0 25 7zM16 5A2 2 0 1 0 16 9 2 2 0 1 0 16 5z"/><path fill="#FCE4EC" d="M28 14A4 4 0 1 0 28 22A4 4 0 1 0 28 14Z"/><path fill="#FF80AB" d="M24 17A17 13 0 1 0 24 43A17 13 0 1 0 24 17Z"/><path fill="#F99DC7" d="M24 25A9 7 0 1 0 24 39A9 7 0 1 0 24 25Z"/><path fill="#F06292" d="M24 23A9 7 0 1 0 24 37A9 7 0 1 0 24 23Z"/><path fill="#EC407A" d="M24,25c4.534,0,8.272,2.609,8.897,6C32.958,30.673,33,30.341,33,30c0-3.866-4.028-7-9-7s-9,3.134-9,7c0,0.341,0.042,0.673,0.103,1C15.728,27.609,19.466,25,24,25z"/></svg>