<svg xmlns="http://www.w3.org/2000/svg" viewBox="0 0 48 48" width="48px" height="48px"><path fill="#29b6f6" d="M7 21L41 21 45 31 3 31z"/><path fill="#01579b" d="M36,24c-1.22,0-22.781,0-24,0c-1.657,0-3,0.895-3,2c0,1.105,1.343,2,3,2c1.219,0,22.78,0,24,0 c1.657,0,3-0.895,3-2C39,24.895,37.657,24,36,24z"/><path fill="#0288d1" d="M45,42H3V31h42V42z"/><path fill="#e0e0e0" d="M12,26v-2c0-8-3-18-3-18s4,1,6,1c4,0,5-3,9-3s5,3,9,3c2,0,6-1,6-1s-3,8-3,18v2H12z"/><path fill="#bdbdbd" d="M32 26L32 18 30 26 26 26 24 16 22 26 18 26 16 18 16 26 12 26 12 28 36 28 36 26z"/><path fill="#0277bd" d="M3 35H45V38H3z"/></svg>