<svg xmlns="http://www.w3.org/2000/svg" viewBox="0 0 48 48" width="48px" height="48px"><path fill="#f1cb83" d="M34.075 22h4.904v-8.548c0-1.354-1.098-2.452-2.452-2.452h0c-1.354 0-2.452 1.098-2.452 2.452V22zM27.075 22h4.883V7.442C31.958 6.093 30.865 5 29.517 5h0c-1.348 0-2.442 1.093-2.442 2.442V22zM20.075 22h4.842V5.421C24.917 4.084 23.833 3 22.496 3h0c-1.337 0-2.421 1.084-2.421 2.421V22zM13.075 22h4.904V8.452C17.979 7.098 16.881 6 15.527 6h0c-1.354 0-2.452 1.098-2.452 2.452V22zM15.013 42.963l4.95-4.95-9.988-9.988c-1.367-1.367-3.583-1.367-4.95 0l0 0c-1.367 1.367-1.367 3.583 0 4.95L15.013 42.963z"/><path fill="#f1cb83" d="M18.962,21c0.076,0.119,0.718,1.117,0.994,1c0.204-0.087,0.115-0.746,0.075-1h4.968 c0,0.552,0.445,1,0.994,1c0.549,0,0.994-0.448,0.994-1h4.968c0,0.552,0.445,1,0.994,1s0.994-0.448,0.994-1h4.968v16 c0,4.418-3.558,8-7.948,8H19.811c-3.72,0-6.736-3.035-6.736-6.78V21C15.037,21,16.999,21,18.962,21z"/><path fill="#37474f" d="M22 -4.284H26V52.285000000000004H22z" transform="rotate(-45.001 24 24)"/></svg>