<svg xmlns="http://www.w3.org/2000/svg" viewBox="0 0 48 48" width="48px" height="48px"><path fill="#546e7a" d="M14.6 8.8l-1.1-1.7C16.6 5.1 18.8 5 19 5h5v2h-5C19 7 17.2 7.1 14.6 8.8zM22 9h4v2h-4V9z"/><path fill="#bbdefb" d="M35,25v-3c0-4.4-3.6-8-8-8h-6c-4.4,0-8,3.6-8,8v3H35z"/><path fill="#e3f2fd" d="M18.7,43.7l-1.4-1.4c6.6-6.6,5.7-28,5.7-28.2l2-0.1C25,14.9,25.9,36.5,18.7,43.7z"/><path fill="#ff80ab" d="M13,22v22c0,0.6,0.4,1,1,1h20c0.6,0,1-0.4,1-1V22H13z"/><path fill="#b0bec5" d="M27 9V4c0-.6-.4-1-1-1h-4c-.6 0-1 .4-1 1v5H27zM28 14v-2c0-.6-.4-1-1-1h-6c-.6 0-1 .4-1 1v2H28z"/><path fill="#ff4081" d="M22.9,22c-0.4,6.9-1.6,16.3-5.6,20.3l1.4,1.4c4.5-4.5,5.8-14.5,6.2-21.7H22.9z"/></svg>