<svg fill="#000000" xmlns="http://www.w3.org/2000/svg" viewBox="0 0 50 50" width="50px" height="50px"><path d="M 22.8125 0 C 22.335938 0.0898438 21.992188 0.511719 22 1 L 22 3.6875 C 21.941406 3.882813 21.941406 4.085938 22 4.28125 L 22 6.53125 C 21.867188 6.808594 21.867188 7.128906 22 7.40625 L 22 9.53125 C 21.867188 9.808594 21.867188 10.128906 22 10.40625 L 22 12.8125 C 22 12.84375 22 12.875 22 12.90625 L 22 13 C 22 13.011719 22 13.019531 22 13.03125 C 22 13.050781 22 13.074219 22 13.09375 L 22.15625 16.5 L 22.15625 16.53125 C 22.15625 18.261719 21.929688 19.667969 21.59375 20.84375 C 21.5625 19.523438 21.527344 17.980469 21.5 17.5 C 21.375 15.1875 20.667969 13.304688 19.46875 12.125 C 18.871094 11.535156 18.125 11.164063 17.3125 11.0625 C 17.109375 11.035156 16.894531 11.023438 16.6875 11.03125 C 16.0625 11.054688 15.429688 11.242188 14.84375 11.59375 C 13.871094 12.179688 12.667969 13.390625 11.15625 15.125 C 9.644531 16.859375 7.925781 19.105469 6.28125 21.59375 C 2.996094 26.566406 0 32.5 0 37.6875 C 0 39.175781 -0.0234375 40.417969 0.0625 41.5 C 0.148438 42.582031 0.347656 43.578125 0.96875 44.375 C 1.589844 45.171875 2.566406 45.636719 3.78125 45.84375 C 4.996094 46.050781 6.507813 46.035156 8.53125 45.90625 L 11.15625 45.75 C 17.128906 45.371094 21.953125 40.320313 21.96875 34.40625 C 21.96875 34.394531 21.96875 34.386719 21.96875 34.375 C 21.96875 34.339844 22 30.644531 22 27.90625 C 23.054688 27.335938 24.144531 26.5625 25 25.46875 C 25.855469 26.5625 26.945313 27.335938 28 27.90625 C 28 30.644531 28.03125 34.339844 28.03125 34.375 C 28.03125 34.386719 28.03125 34.394531 28.03125 34.40625 C 28.046875 40.320313 32.871094 45.371094 38.84375 45.75 L 41.46875 45.90625 C 43.492188 46.035156 45.003906 46.050781 46.21875 45.84375 C 47.433594 45.636719 48.410156 45.171875 49.03125 44.375 C 49.652344 43.578125 49.851563 42.582031 49.9375 41.5 C 50.023438 40.417969 50 39.175781 50 37.6875 C 50 32.5 47.003906 26.566406 43.71875 21.59375 C 42.074219 19.105469 40.355469 16.859375 38.84375 15.125 C 37.332031 13.390625 36.128906 12.179688 35.15625 11.59375 C 34.375 11.125 33.5 10.960938 32.6875 11.0625 C 31.875 11.164063 31.128906 11.535156 30.53125 12.125 C 29.335938 13.304688 28.625 15.1875 28.5 17.5 C 28.46875 18.058594 28.441406 19.8125 28.40625 21.375 C 28.0625 20.160156 27.84375 18.613281 27.84375 16.53125 L 27.84375 16.5 L 28 13.15625 C 28.003906 13.113281 28.003906 13.074219 28 13.03125 C 28.007813 12.96875 28.007813 12.90625 28 12.84375 L 28 10.1875 C 28.027344 10.054688 28.027344 9.914063 28 9.78125 L 28 7.1875 C 28.027344 7.054688 28.027344 6.914063 28 6.78125 L 28 4.1875 C 28.027344 4.054688 28.027344 3.914063 28 3.78125 L 28 1 C 28 0.449219 27.550781 0 27 0 L 23 0 C 22.96875 0 22.9375 0 22.90625 0 C 22.875 0 22.84375 0 22.8125 0 Z M 24 2 L 26 2 L 26 3 L 24 3 Z M 24 5 L 26 5 L 26 6 L 24 6 Z M 24 8 L 26 8 L 26 9 L 24 9 Z M 24 11 L 26 11 L 26 12 L 24 12 Z M 16.78125 12.96875 C 17.234375 12.929688 17.632813 13.140625 18.0625 13.5625 C 18.75 14.238281 19.394531 15.667969 19.5 17.625 C 19.542969 18.410156 19.632813 22.613281 19.6875 24.59375 C 18.800781 25.71875 17.886719 26.488281 17.1875 27.34375 L 15.5 26.3125 L 14.40625 23.875 L 15.125 20.40625 C 15.179688 20.160156 15.113281 19.902344 14.945313 19.710938 C 14.78125 19.519531 14.535156 19.417969 14.28125 19.4375 C 14.25 19.4375 14.21875 19.4375 14.1875 19.4375 C 13.863281 19.503906 13.613281 19.765625 13.5625 20.09375 L 12.78125 23.78125 C 12.738281 23.945313 12.75 24.121094 12.8125 24.28125 L 13.65625 26.15625 L 10.28125 26.5 C 10.183594 26.511719 10.085938 26.546875 10 26.59375 L 7 28.15625 C 6.699219 28.253906 6.480469 28.519531 6.449219 28.835938 C 6.414063 29.148438 6.570313 29.453125 6.847656 29.613281 C 7.121094 29.769531 7.464844 29.75 7.71875 29.5625 L 10.5625 28.09375 L 14.65625 27.6875 L 16.59375 28.84375 L 14.9375 31.34375 L 10.375 31.46875 C 10.234375 31.464844 10.09375 31.496094 9.96875 31.5625 L 6.09375 33.84375 C 5.800781 33.957031 5.597656 34.230469 5.578125 34.546875 C 5.5625 34.859375 5.730469 35.15625 6.007813 35.300781 C 6.289063 35.445313 6.628906 35.414063 6.875 35.21875 L 10.5625 33.0625 L 13.875 32.96875 L 12.09375 35.6875 L 9.4375 36.53125 C 9.234375 36.597656 9.0625 36.746094 8.96875 36.9375 L 7.25 40.40625 C 7.050781 40.804688 7.210938 41.285156 7.609375 41.484375 C 8.007813 41.683594 8.488281 41.523438 8.6875 41.125 L 10.25 37.96875 L 12.84375 37.09375 C 13.019531 37.042969 13.175781 36.933594 13.28125 36.78125 L 15.09375 34 L 15.1875 36.03125 L 14.40625 38.78125 C 14.285156 39.210938 14.539063 39.660156 14.96875 39.78125 C 15.398438 39.902344 15.847656 39.648438 15.96875 39.21875 L 16.78125 36.375 C 16.808594 36.285156 16.820313 36.1875 16.8125 36.09375 L 16.625 32.28125 C 16.621094 32.136719 16.578125 31.996094 16.5 31.875 L 18.21875 29.28125 C 18.40625 29.246094 19.101563 29.089844 20 28.78125 C 19.992188 31.300781 19.96875 34.375 19.96875 34.375 C 19.96875 39.207031 15.957031 43.4375 11.03125 43.75 L 8.40625 43.90625 C 6.453125 44.03125 5.023438 44.035156 4.09375 43.875 C 3.164063 43.714844 2.78125 43.445313 2.53125 43.125 C 2.28125 42.804688 2.101563 42.257813 2.03125 41.34375 C 1.960938 40.429688 2 39.203125 2 37.6875 C 2 33.300781 4.753906 27.503906 7.9375 22.6875 C 9.527344 20.28125 11.238281 18.097656 12.6875 16.4375 C 14.136719 14.777344 15.417969 13.589844 15.875 13.3125 C 16.222656 13.101563 16.507813 12.992188 16.78125 12.96875 Z M 32.9375 12.96875 C 33.28125 12.921875 33.660156 13.03125 34.125 13.3125 C 34.582031 13.589844 35.863281 14.777344 37.3125 16.4375 C 38.761719 18.097656 40.472656 20.28125 42.0625 22.6875 C 45.246094 27.503906 48 33.300781 48 37.6875 C 48 39.203125 48.039063 40.429688 47.96875 41.34375 C 47.898438 42.257813 47.71875 42.804688 47.46875 43.125 C 47.21875 43.445313 46.835938 43.714844 45.90625 43.875 C 44.976563 44.035156 43.546875 44.03125 41.59375 43.90625 L 38.96875 43.75 C 34.042969 43.4375 30.03125 39.207031 30.03125 34.375 C 30.03125 34.375 30.007813 31.300781 30 28.78125 C 30.769531 29.042969 31.285156 29.164063 31.5625 29.21875 C 31.65625 29.324219 31.773438 29.410156 31.90625 29.46875 L 33.5 31.875 C 33.421875 31.996094 33.378906 32.136719 33.375 32.28125 L 33.1875 36.09375 C 33.179688 36.1875 33.191406 36.285156 33.21875 36.375 L 34.03125 39.21875 C 34.152344 39.648438 34.601563 39.902344 35.03125 39.78125 C 35.460938 39.660156 35.714844 39.210938 35.59375 38.78125 L 34.8125 36.03125 L 34.90625 34 L 36.71875 36.78125 C 36.824219 36.933594 36.980469 37.042969 37.15625 37.09375 L 39.75 37.96875 L 41.3125 41.125 C 41.511719 41.523438 41.992188 41.683594 42.390625 41.484375 C 42.789063 41.285156 42.949219 40.804688 42.75 40.40625 L 41.03125 36.9375 C 40.9375 36.746094 40.765625 36.597656 40.5625 36.53125 L 37.90625 35.6875 L 36.03125 32.84375 L 38.84375 32.6875 L 42.5 34.40625 C 42.90625 34.597656 43.386719 34.421875 43.578125 34.015625 C 43.769531 33.609375 43.59375 33.128906 43.1875 32.9375 L 39.34375 31.1875 C 39.226563 31.125 39.097656 31.09375 38.96875 31.09375 L 35.03125 31.3125 L 33.40625 28.84375 L 35.03125 27.875 L 39.28125 27.78125 L 42.21875 29.5625 C 42.597656 29.796875 43.09375 29.675781 43.328125 29.296875 C 43.5625 28.917969 43.441406 28.421875 43.0625 28.1875 L 39.96875 26.3125 C 39.839844 26.230469 39.6875 26.1875 39.53125 26.1875 L 36.15625 26.25 L 37.09375 24.46875 C 37.175781 24.304688 37.195313 24.117188 37.15625 23.9375 L 36.4375 20.25 C 36.402344 20.039063 36.285156 19.847656 36.105469 19.722656 C 35.929688 19.601563 35.710938 19.554688 35.5 19.59375 C 35.285156 19.636719 35.097656 19.761719 34.980469 19.945313 C 34.863281 20.128906 34.824219 20.351563 34.875 20.5625 L 35.53125 24 L 34.1875 26.5 L 34.15625 26.5 C 34.132813 26.53125 34.113281 26.5625 34.09375 26.59375 L 32.6875 27.40625 C 31.917969 26.429688 31.074219 25.695313 30.3125 24.84375 C 30.308594 24.835938 30.316406 24.820313 30.3125 24.8125 C 30.367188 22.925781 30.457031 18.433594 30.5 17.625 C 30.605469 15.667969 31.25 14.238281 31.9375 13.5625 C 32.28125 13.222656 32.59375 13.015625 32.9375 12.96875 Z M 24.03125 14 L 25.96875 14 L 25.84375 16.46875 C 25.84375 16.480469 25.84375 16.488281 25.84375 16.5 L 25.84375 16.53125 C 25.84375 22.277344 27.605469 24.863281 29.28125 26.6875 C 27.914063 26.023438 26.472656 25.03125 25.71875 23.625 C 25.71875 23.613281 25.71875 23.605469 25.71875 23.59375 C 25.707031 23.582031 25.699219 23.574219 25.6875 23.5625 C 25.6875 23.550781 25.6875 23.542969 25.6875 23.53125 C 25.660156 23.496094 25.628906 23.464844 25.59375 23.4375 C 25.574219 23.414063 25.554688 23.394531 25.53125 23.375 C 25.464844 23.320313 25.390625 23.28125 25.3125 23.25 C 25.273438 23.226563 25.230469 23.203125 25.1875 23.1875 C 25.175781 23.1875 25.167969 23.1875 25.15625 23.1875 C 25.074219 23.175781 24.988281 23.175781 24.90625 23.1875 C 24.875 23.1875 24.84375 23.1875 24.8125 23.1875 C 24.660156 23.21875 24.515625 23.296875 24.40625 23.40625 C 24.40625 23.417969 24.40625 23.425781 24.40625 23.4375 C 24.386719 23.445313 24.363281 23.457031 24.34375 23.46875 C 24.34375 23.480469 24.34375 23.488281 24.34375 23.5 C 24.332031 23.511719 24.324219 23.519531 24.3125 23.53125 C 24.3125 23.542969 24.3125 23.550781 24.3125 23.5625 C 24.257813 23.628906 24.21875 23.703125 24.1875 23.78125 C 23.375 25.167969 21.898438 26.140625 20.53125 26.78125 C 20.917969 26.351563 21.296875 25.867188 21.6875 25.3125 C 23.011719 23.421875 24.15625 20.65625 24.15625 16.53125 L 24.15625 16.5 C 24.15625 16.488281 24.15625 16.480469 24.15625 16.46875 Z"/></svg>