<svg fill="#000000" xmlns="http://www.w3.org/2000/svg" viewBox="0 0 50 50" width="50px" height="50px"><path d="M 33 1.25 L 32.1875 2.4375 C 32.1875 2.4375 31.648438 3.191406 31.125 4.09375 C 30.863281 4.542969 30.617188 5.019531 30.40625 5.5 C 30.195313 5.980469 30 6.421875 30 7 C 30 8.644531 31.355469 10 33 10 C 34.644531 10 36 8.644531 36 7 C 36 6.421875 35.804688 5.980469 35.59375 5.5 C 35.382813 5.019531 35.136719 4.542969 34.875 4.09375 C 34.351563 3.191406 33.8125 2.4375 33.8125 2.4375 Z M 41.5 3.75 L 40.6875 4.9375 C 40.6875 4.9375 40.023438 5.851563 39.375 6.96875 C 39.050781 7.527344 38.726563 8.128906 38.46875 8.71875 C 38.210938 9.308594 38 9.851563 38 10.5 C 38 12.421875 39.578125 14 41.5 14 C 43.421875 14 45 12.421875 45 10.5 C 45 9.851563 44.789063 9.308594 44.53125 8.71875 C 44.273438 8.128906 43.949219 7.527344 43.625 6.96875 C 42.976563 5.851563 42.3125 4.9375 42.3125 4.9375 Z M 33 4.875 C 33.066406 4.984375 33.058594 4.976563 33.125 5.09375 C 33.363281 5.503906 33.617188 5.941406 33.78125 6.3125 C 33.945313 6.683594 34 7.027344 34 7 C 34 7.566406 33.566406 8 33 8 C 32.433594 8 32 7.566406 32 7 C 32 7.027344 32.054688 6.683594 32.21875 6.3125 C 32.382813 5.941406 32.636719 5.503906 32.875 5.09375 C 32.941406 4.976563 32.933594 4.984375 33 4.875 Z M 41.5 7.375 C 41.671875 7.644531 41.6875 7.644531 41.875 7.96875 C 42.175781 8.488281 42.476563 9.050781 42.6875 9.53125 C 42.898438 10.011719 43 10.457031 43 10.5 C 43 11.339844 42.339844 12 41.5 12 C 40.660156 12 40 11.339844 40 10.5 C 40 10.457031 40.101563 10.011719 40.3125 9.53125 C 40.523438 9.050781 40.824219 8.488281 41.125 7.96875 C 41.3125 7.644531 41.328125 7.644531 41.5 7.375 Z M 17.6875 8 C 17.46875 8.039063 17.273438 8.148438 17.125 8.3125 C 17.125 8.3125 15.15625 10.417969 13.0625 12.6875 C 10.96875 14.957031 8.808594 17.289063 8.15625 18.125 C 7.429688 19.058594 6.550781 20.925781 5.6875 22.71875 C 4.824219 24.511719 4.09375 26.125 4.09375 26.125 C 3.929688 26.449219 3.957031 26.839844 4.164063 27.140625 C 4.367188 27.441406 4.722656 27.605469 5.085938 27.570313 C 5.449219 27.535156 5.761719 27.304688 5.90625 26.96875 C 5.90625 26.96875 6.621094 25.359375 7.46875 23.59375 C 8.316406 21.828125 9.417969 19.800781 9.75 19.375 C 10.15625 18.851563 12.441406 16.296875 14.53125 14.03125 C 16.113281 12.316406 16.957031 11.433594 17.59375 10.75 C 18.296875 12.246094 18.230469 13.988281 17.25 15.34375 C 17.242188 15.355469 17.226563 15.363281 17.21875 15.375 L 16.5625 16.15625 L 16.3125 15.90625 C 16.105469 15.683594 15.804688 15.570313 15.5 15.59375 C 15.171875 15.621094 14.882813 15.808594 14.71875 16.09375 C 14.71875 16.09375 13.351563 18.632813 11.875 21.34375 C 10.398438 24.054688 8.863281 26.84375 8.4375 27.8125 C 7.960938 28.894531 7.554688 30.925781 7.15625 32.875 C 6.757813 34.824219 6.4375 36.5625 6.4375 36.5625 C 6.359375 36.921875 6.484375 37.292969 6.761719 37.53125 C 7.042969 37.773438 7.429688 37.839844 7.769531 37.710938 C 8.113281 37.578125 8.359375 37.269531 8.40625 36.90625 C 8.40625 36.90625 8.730469 35.167969 9.125 33.25 C 9.519531 31.332031 10.066406 29.117188 10.28125 28.625 C 10.546875 28.019531 12.152344 24.984375 13.625 22.28125 C 14.738281 20.238281 15.328125 19.167969 15.78125 18.34375 C 16.839844 19.636719 17.203125 21.375 16.5625 22.9375 L 14.65625 27.59375 C 14.511719 27.976563 14.617188 28.410156 14.917969 28.683594 C 15.222656 28.960938 15.664063 29.023438 16.03125 28.84375 L 34.1875 19.34375 C 34.628906 19.121094 34.929688 19.148438 35.25 19.28125 C 35.570313 19.414063 35.882813 19.710938 36.03125 20 C 36.179688 20.289063 36.210938 20.695313 36.125 21.03125 C 36.039063 21.367188 35.886719 21.632813 35.40625 21.875 L 25.4375 26.90625 C 24.96875 27.167969 24.792969 27.753906 25.035156 28.230469 C 25.277344 28.710938 25.855469 28.910156 26.34375 28.6875 L 36.28125 23.65625 L 39.15625 22.21875 C 39.4375 22.078125 39.84375 22.035156 40.1875 22.125 C 40.53125 22.214844 40.832031 22.390625 41.0625 22.84375 C 41.292969 23.296875 41.257813 23.640625 41.125 23.96875 C 40.992188 24.296875 40.71875 24.609375 40.4375 24.75 C 40.4375 24.75 39.296875 25.320313 39 25.46875 C 38.019531 25.960938 36.605469 26.65625 34.25 27.84375 C 32.714844 28.617188 31.183594 29.375 30.0625 29.9375 C 29.527344 30.207031 29.121094 30.4375 28.8125 30.59375 C 28.796875 30.601563 28.765625 30.617188 28.75 30.625 L 28.71875 30.625 C 28.582031 30.695313 28.472656 30.746094 28.40625 30.78125 C 28.386719 30.789063 28.386719 30.804688 28.375 30.8125 L 28.34375 30.84375 L 28.3125 30.84375 C 28.308594 30.84375 28.28125 30.84375 28.28125 30.84375 C 28.28125 30.84375 29.179688 32.628906 29.1875 32.625 C 29.226563 32.605469 29.210938 32.628906 29.21875 32.625 L 29.25 32.625 L 29.3125 32.59375 C 29.386719 32.558594 29.503906 32.484375 29.65625 32.40625 C 29.964844 32.25 30.410156 32.03125 30.96875 31.75 C 32.089844 31.1875 33.621094 30.398438 35.15625 29.625 C 37.515625 28.4375 38.925781 27.742188 39.90625 27.25 C 40.257813 27.074219 40.648438 27 40.9375 27.0625 C 41.226563 27.125 41.503906 27.269531 41.8125 27.875 C 42.082031 28.40625 42.050781 28.636719 41.90625 28.9375 C 41.761719 29.238281 41.347656 29.679688 40.46875 30.125 L 36.875 31.9375 L 30.0625 35.34375 C 29.59375 35.605469 29.417969 36.191406 29.660156 36.667969 C 29.902344 37.148438 30.480469 37.347656 30.96875 37.125 L 37.78125 33.71875 C 38.238281 33.488281 38.859375 33.226563 39.3125 33.21875 C 39.765625 33.210938 40.007813 33.246094 40.375 33.96875 C 40.742188 34.691406 40.617188 34.921875 40.34375 35.28125 C 40.070313 35.640625 39.488281 35.988281 39.03125 36.21875 C 39.03125 36.21875 25.386719 43.292969 22.125 44.8125 C 17.980469 46.746094 12.375 45.71875 12.375 45.71875 C 11.832031 45.605469 11.300781 45.957031 11.1875 46.5 C 11.074219 47.042969 11.425781 47.574219 11.96875 47.6875 C 11.96875 47.6875 17.984375 48.949219 22.96875 46.625 C 26.425781 45.011719 39.898438 38.019531 39.9375 38 C 39.945313 37.996094 39.960938 37.972656 39.96875 37.96875 C 40.515625 37.691406 41.332031 37.296875 41.9375 36.5 C 42.554688 35.6875 42.800781 34.339844 42.15625 33.0625 C 41.914063 32.582031 41.554688 32.289063 41.1875 32 L 41.34375 31.90625 C 41.355469 31.90625 41.363281 31.90625 41.375 31.90625 C 42.46875 31.351563 43.285156 30.703125 43.71875 29.8125 C 44.152344 28.921875 44.050781 27.871094 43.59375 26.96875 C 43.261719 26.3125 42.769531 25.855469 42.25 25.53125 C 42.496094 25.246094 42.851563 25.085938 43 24.71875 C 43.324219 23.90625 43.320313 22.878906 42.84375 21.9375 C 42.367188 20.996094 41.535156 20.40625 40.6875 20.1875 C 39.839844 19.96875 38.976563 20.070313 38.25 20.4375 L 37.96875 20.59375 C 37.960938 20.363281 37.972656 20.132813 37.96875 19.90625 C 38.765625 19.035156 38.980469 17.824219 38.75 16.8125 C 38.574219 16.03125 38.132813 15.300781 37.4375 14.78125 C 36.742188 14.261719 35.773438 13.988281 34.75 14.21875 C 34.738281 14.230469 34.730469 14.238281 34.71875 14.25 L 18.1875 18.21875 C 18.097656 18.046875 17.980469 17.886719 17.875 17.71875 L 18.78125 16.625 C 18.792969 16.605469 18.804688 16.582031 18.8125 16.5625 C 20.367188 14.453125 20.539063 11.636719 19.21875 9.375 L 18.71875 8.5 C 18.515625 8.132813 18.101563 7.933594 17.6875 8 Z M 35.53125 16.15625 C 35.832031 16.144531 36.042969 16.21875 36.25 16.375 C 36.527344 16.582031 36.742188 16.933594 36.8125 17.25 C 36.859375 17.449219 36.859375 17.683594 36.8125 17.90625 C 36.574219 17.722656 36.316406 17.558594 36.03125 17.4375 C 35.230469 17.101563 34.21875 17.089844 33.28125 17.5625 C 33.269531 17.5625 33.261719 17.5625 33.25 17.5625 L 17.53125 25.78125 L 18.40625 23.6875 C 18.878906 22.539063 19.007813 21.296875 18.8125 20.125 L 35.1875 16.1875 C 35.308594 16.160156 35.429688 16.160156 35.53125 16.15625 Z"/></svg>