<?xml version="1.0"?><svg fill="#000000" xmlns="http://www.w3.org/2000/svg" viewBox="0 0 50 50" width="50px" height="50px">    <path d="M 25 1 C 20.589 1 17 4.589 17 9 C 17 13.411 20.589 17 25 17 C 29.411 17 33 13.411 33 9 C 33 4.589 29.411 1 25 1 z M 25 3 C 28.309 3 31 5.691 31 9 C 31 12.309 28.309 15 25 15 C 21.691 15 19 12.309 19 9 C 19 5.691 21.691 3 25 3 z M 24.984375 5.3183594 A 1.0001 1.0001 0 0 0 24 6.3320312 L 24 8 L 22.332031 8 A 1.0001 1.0001 0 1 0 22.332031 10 L 24 10 L 24 11.667969 A 1.0001 1.0001 0 1 0 26 11.667969 L 26 10 L 27.667969 10 A 1.0001 1.0001 0 1 0 27.667969 8 L 26 8 L 26 6.3320312 A 1.0001 1.0001 0 0 0 24.984375 5.3183594 z M 3 17 C 1.355 17 0 18.355 0 20 L 0 50 L 6 50 L 6 45 L 44 45 L 44 50 L 50 50 L 50 31 C 50 29.355 48.645 28 47 28 C 46.598 28 46.227 28.105 45.875 28.25 C 45.531 26.969 44.383 26 43 26 L 20 26 C 18.699 26 17.5985 26.85925 17.1875 28.03125 C 16.3475 26.79725 15.16025 25.55125 13.53125 24.78125 C 12.49225 24.29325 11.406 24.074 10.375 24 C 8.617 23.871 7.07 24.191 6 24.5 L 6 20 C 6 18.355 4.645 17 3 17 z M 3 19 C 3.555 19 4 19.445 4 20 L 4 25.71875 C 3.977 25.84375 3.977 25.96875 4 26.09375 L 4 32.8125 C 3.992 32.8745 3.992 32.938 4 33 L 4 37 L 4 37.09375 L 4 38 L 46 38 L 46 37.15625 C 46.004 37.10525 46.004 37.051 46 37 L 46 31 C 46 30.445 46.445 30 47 30 C 47.555 30 48 30.445 48 31 L 48 48 L 46 48 L 46 43 L 4 43 L 4 48 L 2 48 L 2 20 C 2 19.445 2.445 19 3 19 z M 9 26.03125 C 9.379 26.00825 9.801 26.00425 10.25 26.03125 C 11.074 26.07825 11.9265 26.23375 12.6875 26.59375 C 15.1215 27.74175 16.191 30.2845 16.625 31.4375 C 15.449 31.8125 12.78475 32.5315 10.34375 31.3125 L 10.3125 31.28125 C 7.8905 30.13625 6.85125 27.7115 6.40625 26.5625 C 7.02225 26.3665 7.859 26.10525 9 26.03125 z M 20 28 L 43 28 C 43.555 28 44 28.445 44 29 L 44 36 L 19 36 L 19 33 L 19 32.90625 L 19 32.28125 C 19.012 32.18725 19.012 32.093 19 32 L 19 29 C 19 28.445 19.445 28 20 28 z M 6 30.15625 C 6.488 30.81325 7.1025 31.43 7.8125 32 L 6 32 L 6 30.15625 z M 6 34 L 17 34 L 17 36 L 6 36 L 6 34 z"/></svg>