<svg fill="#000000" xmlns="http://www.w3.org/2000/svg" viewBox="0 0 50 50" width="50px" height="50px"><path d="M 25 2 C 18.66 2 12.199297 5.2814062 8.0292969 9.4414062 L 9.4492188 10.861328 L 17.34375 18.757812 A 5.009 5.009 0 0 0 17.339844 18.759766 L 18.830078 20.25 A 2.89 2.89 0 0 1 18.835938 20.248047 L 27 28.414062 L 27 28.419922 L 28.580078 30 L 29.289062 30.710938 A 1.014 1.014 0 0 1 29.236328 30.650391 L 29.347656 30.761719 A 1.014 1.014 0 0 1 29.289062 30.710938 L 31.279297 32.699219 A 2.973 2.973 0 0 0 31.283203 32.697266 L 39.164062 40.578125 C 39.164062 40.578125 39.164062 40.580078 39.164062 40.580078 L 40.292969 41.707031 L 40.583984 42 C 44.744984 37.83 48 31.34 48 25 A 23.029 23.029 0 0 0 25 2 z M 25 4 A 21.023 21.023 0 0 1 46 25 C 46 30.085695 43.656693 35.322976 40.511719 39.097656 L 32.705078 31.291016 A 2.973 2.973 0 0 0 33 30 L 33 23 A 5 5 0 0 0 28 18 L 20 18 A 5.009 5.009 0 0 0 19.445312 18.03125 L 10.929688 9.515625 C 14.698903 6.36487 19.913335 4 25 4 z M 24.060547 8 C 23.598523 7.993397 23.140216 8.0574284 22.705078 8.1875 C 20.964525 8.7077864 19.494141 10.328842 19.494141 12.5 C 19.494141 14.671158 20.964525 16.292214 22.705078 16.8125 C 24.445631 17.332786 26.564498 16.78456 27.755859 14.96875 A 1.0001 1.0001 0 1 0 26.083984 13.871094 C 25.367977 14.962394 24.272896 15.192122 23.277344 14.894531 C 22.281791 14.59694 21.494141 13.804444 21.494141 12.5 C 21.494141 11.195556 22.281791 10.40306 23.277344 10.105469 C 24.272896 9.8078777 25.367977 10.037609 26.083984 11.128906 A 1.0001 1.0001 0 1 0 27.755859 10.03125 C 26.862339 8.6693924 25.446619 8.0198089 24.060547 8 z M 33.84375 8.2441406 A 1.0001 1.0001 0 0 0 33.298828 8.3847656 L 30.701172 9.8847656 A 1.0001 1.0001 0 1 0 31.701172 11.615234 L 34.298828 10.115234 A 1.0001 1.0001 0 0 0 33.84375 8.2441406 z M 6.6894531 11.109375 A 22.988 22.988 0 0 0 38.900391 43.320312 L 37.470703 41.890625 A 20.9 20.9 0 0 1 25 46 A 20.993 20.993 0 0 1 8.109375 12.529297 L 6.6894531 11.109375 z M 33 12 A 1.0001 1.0001 0 1 0 33 14 L 36 14 A 1.0001 1.0001 0 1 0 36 12 L 33 12 z M 31.226562 14.242188 A 1.0001 1.0001 0 0 0 31.126953 14.244141 A 1.0001 1.0001 0 0 0 30.701172 16.115234 L 33.298828 17.615234 A 1.0001 1.0001 0 1 0 34.298828 15.884766 L 31.701172 14.384766 A 1.0001 1.0001 0 0 0 31.226562 14.242188 z M 21.414062 20 L 28 20 A 3.009 3.009 0 0 1 31 23 L 31 29.585938 L 29 27.585938 L 29 25 L 27 25 L 27 25.585938 L 21.414062 20 z M 15.900391 20.140625 A 4.958 4.958 0 0 0 15 23 L 15 30 A 3 3 0 0 0 19 32.830078 L 19 41 A 3.009 3.009 0 0 0 22 44 A 2.965 2.965 0 0 0 24 43.230469 A 2.965 2.965 0 0 0 26 44 A 3.009 3.009 0 0 0 29 41 L 29 33.240234 L 27 31.240234 L 27 41 A 1 1 0 0 1 25 41 L 25 31 L 23 31 L 23 41 A 1 1 0 0 1 21 41 L 21 30 L 21 25.240234 L 20.759766 25 L 19 25 L 19 30 A 1 1 0 0 1 17 30 L 17 23 A 3.065 3.065 0 0 1 17.349609 21.589844 L 15.900391 20.140625 z"/></svg>