<svg fill="#000000" xmlns="http://www.w3.org/2000/svg" viewBox="0 0 50 50" width="50px" height="50px"><path d="M 29.029297 1.9960938 A 1.0001 1.0001 0 0 0 28.761719 2.0292969 C 28.761719 2.0292969 27.52298 2.3366276 26.345703 3.3652344 C 25.748515 3.8870085 25.157395 4.6174947 24.716797 5.5703125 C 24.321395 5.1429491 23.877241 4.8158917 23.439453 4.5976562 C 22.20169 3.9806357 20.994141 4 20.994141 4 A 1.0001 1.0001 0 1 0 21.005859 6 C 21.005859 6 21.789639 6.00924 22.546875 6.3867188 C 23.134872 6.679834 23.675933 7.0919195 23.894531 8.0449219 C 17.245586 8.5058118 11.759772 13.076244 9.8183594 19.21875 C 7.6444603 19.763118 6 21.667632 6 24 C 6 26.324565 7.632399 28.222207 9.7949219 28.773438 C 11.417733 33.928193 15.531886 37.949821 20.763672 39.390625 C 21.626809 40.900755 23.147706 42 25 42 C 26.850213 42 28.367229 40.901496 29.230469 39.394531 C 34.46543 37.954069 38.581967 33.929999 40.205078 28.773438 C 42.366747 28.220524 44 26.323708 44 24 C 44 21.667632 42.35554 19.763118 40.181641 19.21875 C 38.236262 13.063695 32.731745 8.4879369 26.064453 8.0429688 C 26.268961 6.4143095 26.968833 5.4768217 27.662109 4.8710938 C 28.482333 4.1544504 29.238281 3.9707031 29.238281 3.9707031 A 1.0001 1.0001 0 0 0 29.029297 1.9960938 z M 24.876953 10.005859 A 1.0001 1.0001 0 0 0 24.914062 10.009766 A 1.0001 1.0001 0 0 0 25.021484 10.013672 A 1.0001 1.0001 0 0 0 25.044922 10.011719 A 1.0001 1.0001 0 0 0 25.121094 10.005859 C 25.122405 10.005871 25.123689 10.005848 25.125 10.005859 C 31.52209 10.062346 36.88673 14.403745 38.501953 20.291016 A 1.0001 1.0001 0 0 0 39.351562 21.019531 C 40.843134 21.193598 42 22.452439 42 24 C 42 25.547561 40.843134 26.806402 39.351562 26.980469 A 1.0001 1.0001 0 0 0 38.501953 27.708984 C 37.175524 32.541775 33.315584 36.337207 28.445312 37.572266 A 1.0001 1.0001 0 0 0 27.767578 38.15625 C 27.316662 39.235309 26.253615 40 25 40 C 23.746385 40 22.682471 39.234912 22.230469 38.154297 A 1.0001 1.0001 0 0 0 21.552734 37.572266 C 16.682603 36.338176 12.822549 32.54085 11.496094 27.707031 A 1.0001 1.0001 0 0 0 10.648438 26.978516 C 9.1584183 26.805293 8 25.547561 8 24 C 8 22.452439 9.1568665 21.193598 10.648438 21.019531 A 1.0001 1.0001 0 0 0 11.498047 20.291016 C 13.113435 14.403142 18.478996 10.061473 24.876953 10.005859 z M 18.023438 23.496094 A 1.0001 1.0001 0 0 0 17.683594 25.449219 L 20.683594 26.449219 A 1.0005646 1.0005646 0 1 0 21.316406 24.550781 L 18.316406 23.550781 A 1.0001 1.0001 0 0 0 18.023438 23.496094 z M 32.046875 23.996094 A 1.0001 1.0001 0 0 0 31.683594 24.050781 L 28.683594 25.050781 A 1.0005646 1.0005646 0 1 0 29.316406 26.949219 L 32.316406 25.949219 A 1.0001 1.0001 0 0 0 32.046875 23.996094 z M 25 32 A 2 2 0 0 0 23 34 A 2 2 0 0 0 25 36 A 2 2 0 0 0 27 34 A 2 2 0 0 0 25 32 z M 19.972656 41.988281 A 1.0001 1.0001 0 0 0 19.164062 42.451172 L 17.164062 45.498047 A 1.0001 1.0001 0 1 0 18.835938 46.595703 L 20.835938 43.548828 A 1.0001 1.0001 0 0 0 19.972656 41.988281 z M 29.988281 41.988281 A 1.0001 1.0001 0 0 0 29.167969 43.554688 L 31.167969 46.554688 A 1.0001 1.0001 0 1 0 32.832031 45.445312 L 30.832031 42.445312 A 1.0001 1.0001 0 0 0 29.988281 41.988281 z M 24.984375 42.986328 A 1.0001 1.0001 0 0 0 24 44 L 24 47 A 1.0001 1.0001 0 1 0 26 47 L 26 44 A 1.0001 1.0001 0 0 0 24.984375 42.986328 z"/></svg>