<svg fill="#000000" xmlns="http://www.w3.org/2000/svg" viewBox="0 0 50 50" width="50px" height="50px"><path d="M 42.0625 0.03125 C 40.046875 0.03125 38.039063 0.804688 36.5 2.34375 C 35.742188 3.105469 11.21875 27.625 10.59375 28.25 C 9.265625 29.578125 8.996094 31.503906 8.6875 33.25 C 8.378906 34.996094 8 36.5625 7.46875 37.09375 C 7.113281 37.449219 6.5 38.09375 6 38.59375 C 5.980469 38.613281 5.925781 38.605469 5.90625 38.625 C 5.882813 38.644531 5.863281 38.664063 5.84375 38.6875 C 5.785156 38.734375 5.734375 38.785156 5.6875 38.84375 C 5.652344 38.894531 5.621094 38.945313 5.59375 39 C 4.929688 39.664063 4.355469 40.207031 3.6875 40.875 C 2.363281 42.199219 1.359375 43.199219 1.1875 43.375 L 1.1875 43.40625 C -0.289063 44.898438 -0.296875 47.328125 1.1875 48.8125 C 1.933594 49.558594 2.921875 49.9375 3.90625 49.9375 C 4.886719 49.9375 5.878906 49.558594 6.625 48.8125 C 6.664063 48.773438 9.023438 46.414063 10.90625 44.53125 C 11.195313 44.4375 11.421875 44.21875 11.53125 43.9375 C 11.542969 43.90625 11.554688 43.875 11.5625 43.84375 C 12.109375 43.296875 12.53125 42.90625 12.90625 42.53125 C 13.410156 42.027344 14.96875 41.625 16.71875 41.3125 C 18.46875 41 20.453125 40.734375 21.78125 39.40625 C 22.355469 38.828125 46.886719 14.269531 47.65625 13.5 C 50.730469 10.425781 50.730469 5.417969 47.65625 2.34375 C 46.121094 0.804688 44.082031 0.03125 42.0625 0.03125 Z M 42.0625 2.03125 C 43.574219 2.03125 45.09375 2.59375 46.25 3.75 C 48.558594 6.058594 48.558594 9.78125 46.25 12.09375 C 45.441406 12.898438 20.980469 37.359375 20.34375 38 C 19.699219 38.644531 18.109375 39.035156 16.375 39.34375 C 14.640625 39.652344 12.765625 39.828125 11.5 41.09375 C 11.21875 41.375 10.882813 41.710938 10.5 42.09375 L 9.90625 41.5 L 35.0625 16.34375 C 35.375 16.046875 35.464844 15.582031 35.28125 15.191406 C 35.09375 14.796875 34.679688 14.570313 34.25 14.625 C 34.023438 14.65625 33.8125 14.769531 33.65625 14.9375 L 8.5 40.09375 L 7.90625 39.5 L 8.90625 38.5 C 10.183594 37.222656 10.351563 35.328125 10.65625 33.59375 C 10.960938 31.859375 11.355469 30.300781 12 29.65625 C 12.011719 29.65625 12.019531 29.65625 12.03125 29.65625 C 12.042969 29.644531 12.585938 29.101563 12.625 29.0625 L 13.28125 29.71875 C 13.679688 30.117188 14.320313 30.117188 14.71875 29.71875 C 15.117188 29.320313 15.117188 28.679688 14.71875 28.28125 L 14.0625 27.625 C 14.464844 27.222656 15.90625 25.78125 16.625 25.0625 L 18.28125 26.71875 C 18.679688 27.117188 19.320313 27.117188 19.71875 26.71875 C 20.117188 26.320313 20.117188 25.679688 19.71875 25.28125 L 18.0625 23.625 C 18.921875 22.765625 19.578125 22.109375 20.625 21.0625 L 21.28125 21.71875 C 21.679688 22.117188 22.320313 22.117188 22.71875 21.71875 C 23.117188 21.320313 23.117188 20.679688 22.71875 20.28125 L 22.0625 19.625 C 23.175781 18.511719 23.457031 18.230469 24.625 17.0625 L 26.28125 18.71875 C 26.679688 19.117188 27.320313 19.117188 27.71875 18.71875 C 28.117188 18.320313 28.117188 17.679688 27.71875 17.28125 L 26.0625 15.625 C 27.222656 14.464844 27.546875 14.144531 28.625 13.0625 L 29.28125 13.71875 C 29.679688 14.117188 30.320313 14.117188 30.71875 13.71875 C 31.117188 13.320313 31.117188 12.679688 30.71875 12.28125 L 30.0625 11.625 C 31.0625 10.625 31.839844 9.851563 32.625 9.0625 L 34.28125 10.71875 C 34.679688 11.117188 35.320313 11.117188 35.71875 10.71875 C 36.117188 10.320313 36.117188 9.679688 35.71875 9.28125 L 34.0625 7.625 C 34.695313 6.992188 36.335938 5.351563 36.625 5.0625 L 37.28125 5.71875 C 37.679688 6.117188 38.320313 6.117188 38.71875 5.71875 C 39.117188 5.320313 39.117188 4.679688 38.71875 4.28125 L 38.0625 3.625 C 39.199219 2.5625 40.617188 2.03125 42.0625 2.03125 Z M 6.5 40.90625 L 9.09375 43.5 C 7.402344 45.199219 5.347656 47.277344 5.21875 47.40625 C 5.21875 47.40625 5.1875 47.40625 5.1875 47.40625 C 4.828125 47.753906 4.367188 47.9375 3.90625 47.9375 C 3.433594 47.9375 2.957031 47.769531 2.59375 47.40625 C 1.867188 46.679688 1.867188 45.539063 2.59375 44.8125 C 2.59375 44.800781 2.59375 44.792969 2.59375 44.78125 C 2.554688 44.820313 3.792969 43.613281 5.125 42.28125 C 5.609375 41.796875 6 41.40625 6.5 40.90625 Z"/></svg>