<svg fill="#000000" xmlns="http://www.w3.org/2000/svg" viewBox="0 0 50 50" width="50px" height="50px"><path d="M 24.964844 1 A 1.0001 1.0001 0 0 0 24.382812 1.2128906 L 4.421875 16.835938 L 1.3828125 19.212891 A 1.0002305 1.0002305 0 1 0 2.6171875 20.787109 L 4 19.705078 L 4 46 A 1.0001 1.0001 0 0 0 5 47 L 45 47 A 1.0001 1.0001 0 0 0 46 46 L 46 19.705078 L 47.382812 20.787109 A 1.0002308 1.0002308 0 1 0 48.617188 19.212891 L 45.632812 16.878906 L 25.617188 1.2128906 A 1.0001 1.0001 0 0 0 24.964844 1 z M 25 3.2695312 L 44 18.138672 L 44 45 L 6 45 L 6 18.138672 L 25 3.2695312 z M 23 20 L 23 27 L 16 27 L 16 31 L 23 31 L 23 38 L 27 38 L 27 31 L 34 31 L 34 27 L 27 27 L 27 20 L 23 20 z"/></svg>