<?xml version="1.0"?><svg fill="#000000" xmlns="http://www.w3.org/2000/svg" viewBox="0 0 50 50" width="50px" height="50px">    <path d="M 24.722656 2 C 19.677505 2 15.693114 3.4882875 13.007812 6.2402344 C 10.322513 8.9921813 9 12.929426 9 17.595703 C 9 19.527552 9.8653364 23.251153 10.566406 25.457031 C 10.27051 25.707433 9.987981 25.86717 9.6992188 26.306641 C 9.2179482 27.039092 8.8605116 28.083614 9.0058594 29.320312 A 1.0001 1.0001 0 0 0 9.0078125 29.320312 C 9.2441518 31.325681 9.8747707 32.682682 10.488281 33.539062 C 10.926839 34.151232 11.183396 34.274487 11.419922 34.443359 C 11.732094 36.216536 12.854657 38.302413 14.527344 40.435547 C 16.295436 42.690349 18.608877 44.851992 21.152344 46.060547 C 22.068719 47.206796 23.424473 48 25 48 C 26.574664 48 27.929073 47.20738 28.845703 46.0625 C 31.382972 44.85231 33.682966 42.685789 35.439453 40.429688 C 37.098095 38.299262 38.209111 36.216739 38.521484 34.449219 C 38.764999 34.281091 39.01633 34.166997 39.457031 33.566406 C 40.080462 32.716791 40.721825 31.363198 40.958984 29.355469 C 41.104889 28.114655 40.739406 27.065294 40.253906 26.326172 C 39.961689 25.881302 39.675933 25.715384 39.376953 25.460938 C 40.078713 23.230643 41 19.786051 41 16 C 41 14.259898 40.639432 11.883151 39.462891 9.8125 C 38.360273 7.8719511 36.369162 6.2760604 33.544922 6.0761719 C 32.264995 4.1220031 29.487119 2 24.722656 2 z M 24.722656 4 C 29.218268 4 31.364459 6.090816 32.121094 7.4785156 A 1.0001 1.0001 0 0 0 33 8 C 35.443071 8 36.794447 9.167182 37.722656 10.800781 C 38.650865 12.434381 39 14.557102 39 16 C 39 19.707222 37.997552 23.347157 37.318359 25.427734 A 1.0001 1.0001 0 0 0 37.363281 26.158203 C 36.278089 27.117378 35.09821 27.963823 33.902344 28.716797 L 33.845703 28.677734 C 33.817092 28.718692 33.795418 28.761587 33.767578 28.802734 C 32.925581 29.326351 32.079007 29.813264 31.25 30.216797 C 28.851225 31.384439 26.577608 32 25.310547 32 C 23.938041 32 21.562871 31.409074 19.052734 30.287109 C 16.857899 29.306077 14.531867 27.932384 12.519531 26.267578 A 1.0001 1.0001 0 0 0 12.617188 25.412109 C 12.012033 23.667068 11 18.876148 11 17.595703 C 11 13.30298 12.189004 9.9430219 14.439453 7.6367188 C 16.689903 5.3304156 20.064808 4 24.722656 4 z M 32.447266 11.613281 A 1.0001 1.0001 0 0 0 32.40625 11.617188 A 1.0001 1.0001 0 0 0 32.359375 11.623047 A 1.0001 1.0001 0 0 0 32.347656 11.625 A 1.0001 1.0001 0 0 0 31.560547 12.248047 C 31.513792 12.340911 31.109302 13.124456 29.996094 14.039062 C 28.815491 15.009041 26.945341 16 24 16 C 22.125125 16 19.790526 16.01356 17.765625 16.746094 C 16.753175 17.112363 15.798678 17.677828 15.099609 18.556641 C 14.40054 19.435453 14 20.609456 14 22 A 1.0001 1.0001 0 1 0 16 22 C 16 20.973544 16.258835 20.314609 16.666016 19.802734 C 17.073197 19.29086 17.672764 18.906434 18.445312 18.626953 C 19.990413 18.067991 22.154875 18 24 18 C 27.404659 18 29.783728 16.803458 31.265625 15.585938 C 31.774674 15.167704 32.15242 14.756971 32.472656 14.375 C 33.440966 15.928429 35 18.896337 35 22 A 1.0001 1.0001 0 1 0 37 22 C 37 16.858155 33.751904 12.611433 33.404297 12.169922 A 1.0001 1.0001 0 0 0 32.447266 11.613281 z M 19.5 26 A 1.5 1.5 0 0 0 18 27.5 A 1.5 1.5 0 0 0 19.5 29 A 1.5 1.5 0 0 0 21 27.5 A 1.5 1.5 0 0 0 19.5 26 z M 30.5 26 A 1.5 1.5 0 0 0 29 27.5 A 1.5 1.5 0 0 0 30.5 29 A 1.5 1.5 0 0 0 32 27.5 A 1.5 1.5 0 0 0 30.5 26 z M 38.705078 27.640625 C 38.913832 28.027287 39.046676 28.493565 38.972656 29.123047 C 38.771628 30.821914 38.262584 31.814685 37.845703 32.382812 C 37.428634 32.951197 37.199219 33.044922 37.199219 33.044922 A 1.0001 1.0001 0 0 0 36.671875 33.824219 C 36.576706 34.731052 35.645248 36.726419 34.232422 38.673828 C 33.81652 35.880286 33.687667 32.783147 35.216797 30.25 C 36.417919 29.478147 37.601424 28.619155 38.705078 27.640625 z M 11.179688 27.75 C 12.137996 28.549263 13.151798 29.280975 14.189453 29.939453 C 15.841534 32.400184 15.818672 35.466947 15.439453 38.265625 C 14.183036 36.451824 13.359266 34.663777 13.271484 33.824219 A 1.0001 1.0001 0 0 0 12.759766 33.054688 C 12.759766 33.054688 12.530474 32.954619 12.115234 32.375 C 11.699995 31.795381 11.192848 30.788569 10.992188 29.085938 L 10.994141 29.085938 C 10.928461 28.527089 11.018442 28.101301 11.179688 27.75 z M 17.146484 31.578125 C 17.510448 31.757774 17.87645 31.952425 18.236328 32.113281 C 20.921691 33.313567 23.416053 34 25.310547 34 C 27.154486 34 29.547978 33.26903 32.126953 32.013672 C 32.203859 31.976237 32.282227 31.927072 32.359375 31.888672 C 31.516314 35.014229 32.084716 38.255612 32.544922 40.742188 C 31.136473 42.246567 29.501898 43.570553 27.902344 44.314453 A 1.0001 1.0001 0 0 0 27.494141 44.666016 C 26.954634 45.471519 26.047658 46 25 46 C 23.953105 46 23.047325 45.472729 22.507812 44.667969 A 1.0001 1.0001 0 0 0 22.097656 44.316406 C 20.366216 43.515335 18.606254 42.032553 17.117188 40.382812 C 17.578501 37.857105 18.073324 34.655691 17.146484 31.578125 z"/></svg>