<?xml version="1.0"?><svg fill="#000000" xmlns="http://www.w3.org/2000/svg" viewBox="0 0 50 50" width="50px" height="50px">    <path d="M 2.9609375 1.5390625 L 2.6601562 1.8398438 L 1.5507812 2.9609375 L 15 16.410156 L 17 18.410156 L 38.429688 39.839844 L 39.970703 41.380859 L 47.550781 48.960938 L 48.960938 47.539062 L 40.660156 39.240234 C 40.870156 38.340234 40.96 37.55 41 37 L 41 23 C 41 20.794 39.206 19 37 19 C 35.948759 19 34.99777 19.414841 34.283203 20.080078 C 33.628079 18.870269 32.534549 18 31 18 C 30.065315 18 29.122357 18.346866 28.382812 18.970703 C 28.196961 18.608955 27.972336 18.289128 27.703125 18.021484 C 27.023125 17.346484 26.104187 17.016 24.992188 17 C 24.309723 17.004935 23.617129 17.191864 23 17.533203 L 23 7 C 23 4.794 21.206 3 19 3 C 16.794 3 15 4.794 15 7 L 15 13.580078 L 2.9609375 1.5390625 z M 19 5 C 20.084 5 21 5.916 21 7 L 21 19.580078 L 17 15.580078 L 17 7 C 17 5.916 17.916 5 19 5 z M 25.007812 19 C 25.551813 18.988 25.991922 19.139453 26.294922 19.439453 C 26.755922 19.897453 27 20.783 27 22 L 29 22 C 29 20.533 30.196 20 31 20 C 32.582 20 33 21.962 33 23 L 35 23 C 35 21.916 35.916 21 37 21 C 38.084 21 39 21.916 39 23 L 39 36.929688 C 38.99 37.099688 38.969453 37.299531 38.939453 37.519531 L 23 21.580078 L 23 21 C 23 19.543 24.200812 19.006 25.007812 19 z M 15 19.820312 L 15 28.589844 L 10.710938 24.289062 C 10.610938 24.189063 10.479609 24.110547 10.349609 24.060547 C 10.341337 24.05756 10.332552 24.057453 10.324219 24.054688 C 8.7345252 22.926924 6.3751388 23.189314 4.7832031 24.78125 C 3.0841805 26.480273 2.8965785 29.052507 4.3007812 30.630859 L 4.2890625 30.640625 L 4.2597656 30.669922 L 13.210938 40.619141 C 14.940937 42.829141 17.069063 44.610625 19.539062 45.890625 C 23.079062 47.730625 26.440469 48.080078 28.480469 48.080078 C 29.210469 48.080078 29.779141 48.030234 30.119141 47.990234 C 31.989141 47.780234 34.319609 47.520781 36.599609 45.800781 C 37.479609 45.130781 38.189766 44.370078 38.759766 43.580078 L 37.320312 42.140625 C 36.830312 42.880625 36.210391 43.589219 35.400391 44.199219 C 33.550391 45.599219 31.610625 45.809766 29.890625 46.009766 C 28.770625 46.129766 24.790937 46.359375 20.460938 44.109375 C 18.250937 42.959375 16.340234 41.370078 14.740234 39.330078 L 5.8105469 29.410156 L 5.84375 29.378906 C 5.07775 28.611906 5.2392656 27.154312 6.1972656 26.195312 C 7.1552656 25.236312 8.6119063 25.074797 9.3789062 25.841797 L 9.4003906 25.820312 L 15.289062 31.710938 C 15.479063 31.900938 15.74 32 16 32 C 16.13 32 16.260859 31.979922 16.380859 31.919922 C 16.760859 31.769922 17 31.4 17 31 L 17 21.820312 L 15 19.820312 z"/></svg>