<svg fill="#000000" xmlns="http://www.w3.org/2000/svg" viewBox="0 0 50 50" width="50px" height="50px"><path d="M 25 -0.03125 C 19.957031 -0.03125 16.496094 1.183594 14.3125 2.4375 C 12.128906 3.691406 11.15625 5.0625 11.15625 5.0625 C 11.007813 5.269531 10.941406 5.527344 10.96875 5.78125 L 11.25 8.0625 C 4.289063 13.285156 1.570313 22.785156 0.46875 30.9375 C -0.636719 39.136719 -0.0625 46.09375 -0.0625 46.09375 C -0.0390625 46.367188 0.09375 46.621094 0.304688 46.796875 C 0.515625 46.972656 0.789063 47.058594 1.0625 47.03125 C 1.0625 47.03125 12.84375 46.113281 19.90625 48.46875 C 19.9375 48.480469 19.96875 48.492188 20 48.5 C 21.492188 49.433594 23.152344 50 25 50 C 26.871094 50 28.554688 49.425781 30.0625 48.46875 C 30.070313 48.464844 30.085938 48.472656 30.09375 48.46875 C 30.101563 48.464844 30.117188 48.472656 30.125 48.46875 C 37.195313 46.136719 48.90625 47.03125 48.90625 47.03125 C 49.464844 47.085938 49.964844 46.683594 50.03125 46.125 C 50.03125 46.125 50.769531 39.441406 49.6875 31.375 C 48.628906 23.484375 45.820313 14.15625 38.71875 8.375 L 39.03125 5.78125 C 39.058594 5.527344 38.992188 5.269531 38.84375 5.0625 C 38.84375 5.0625 37.871094 3.691406 35.6875 2.4375 C 33.503906 1.183594 30.042969 -0.03125 25 -0.03125 Z M 25 2.03125 C 29.714844 2.03125 32.78125 3.140625 34.65625 4.21875 C 36.125 5.0625 36.667969 5.707031 36.90625 6 L 36.59375 8.65625 C 36.59375 8.6875 36.59375 8.71875 36.59375 8.75 L 35.53125 17.59375 C 35.242188 17.664063 34.5 17.828125 33.5625 18 C 32.132813 18.257813 30.089844 18.539063 27.375 18.65625 C 27.363281 18.65625 27.355469 18.65625 27.34375 18.65625 C 27.117188 18.585938 26.875 18.597656 26.65625 18.6875 C 26.117188 18.703125 25.578125 18.71875 25 18.71875 C 21.050781 18.71875 18.253906 18.378906 16.46875 18.0625 C 15.082031 17.816406 14.792969 17.683594 14.53125 17.59375 L 13.09375 6 C 13.332031 5.707031 13.875 5.0625 15.34375 4.21875 C 17.21875 3.140625 20.285156 2.03125 25 2.03125 Z M 24 6 L 24 10 L 20 10 L 20 12 L 24 12 L 24 16 L 26 16 L 26 12 L 30 12 L 30 10 L 26 10 L 26 6 Z M 11.5625 10.5 L 12.5625 18.5625 C 12.609375 18.945313 12.859375 19.269531 13.21875 19.40625 C 13.21875 19.40625 14.214844 19.753906 16.125 20.09375 C 18.035156 20.433594 20.9375 20.78125 25 20.78125 C 22.851563 23.140625 18.324219 25.945313 11.0625 26 C 10.800781 25.929688 10.101563 25.773438 9.1875 26.0625 C 8.632813 26.238281 8.039063 26.609375 7.625 27.25 C 7.210938 27.890625 7 28.753906 7 29.8125 C 7 32.0625 8.582031 33.878906 10.65625 34.40625 C 12.003906 37.898438 13.675781 41.625 15.90625 44.59375 C 16.144531 44.910156 16.40625 45.203125 16.65625 45.5 C 10.207031 44.300781 3.292969 44.832031 1.96875 44.9375 C 1.882813 43.667969 1.578125 38.289063 2.53125 31.21875 C 3.539063 23.742188 6.054688 15.324219 11.5625 10.5 Z M 38.4375 10.84375 C 44.167969 16.175781 46.65625 24.441406 47.625 31.65625 C 48.554688 38.582031 48.144531 43.710938 48.03125 44.9375 C 46.714844 44.832031 39.816406 44.316406 33.375 45.5 C 33.621094 45.207031 33.859375 44.902344 34.09375 44.59375 C 36.324219 41.625 37.996094 37.898438 39.34375 34.40625 C 41.429688 33.886719 43 32.070313 43 29.8125 C 43 27.636719 42.003906 26.3125 40.9375 25.8125 C 40.296875 25.511719 39.742188 25.460938 39.34375 25.46875 C 39.152344 25.335938 38.207031 24.683594 37.0625 23.5 C 36.042969 22.445313 35.101563 21.117188 34.78125 19.875 C 35.933594 19.65625 36.75 19.46875 36.75 19.46875 C 37.15625 19.355469 37.449219 19.011719 37.5 18.59375 Z M 32.78125 20.21875 C 33.179688 22.089844 34.453125 23.691406 35.625 24.90625 C 37.039063 26.371094 38.4375 27.3125 38.4375 27.3125 C 38.648438 27.453125 38.90625 27.511719 39.15625 27.46875 C 39.15625 27.46875 39.628906 27.421875 40.0625 27.625 C 40.496094 27.828125 41 28.15625 41 29.8125 C 41 31.300781 39.898438 32.449219 38.5 32.59375 C 38.128906 32.640625 37.8125 32.894531 37.6875 33.25 C 36.34375 36.785156 34.621094 40.554688 32.5 43.375 C 31.539063 44.652344 30.515625 45.710938 29.40625 46.5 C 29.394531 46.5 29.386719 46.5 29.375 46.5 C 29.21875 46.558594 29.078125 46.65625 28.96875 46.78125 C 28.957031 46.789063 28.949219 46.804688 28.9375 46.8125 C 28.925781 46.824219 28.917969 46.832031 28.90625 46.84375 C 27.707031 47.585938 26.410156 48 25 48 C 23.566406 48 22.246094 47.578125 21.03125 46.8125 C 21 46.789063 20.96875 46.769531 20.9375 46.75 C 20.863281 46.675781 20.78125 46.613281 20.6875 46.5625 C 20.65625 46.539063 20.625 46.519531 20.59375 46.5 C 19.484375 45.710938 18.460938 44.652344 17.5 43.375 C 15.378906 40.554688 13.6875 36.785156 12.34375 33.25 C 12.210938 32.886719 11.882813 32.632813 11.5 32.59375 C 10.097656 32.449219 9 31.300781 9 29.8125 C 9 29.023438 9.164063 28.578125 9.3125 28.34375 C 9.460938 28.109375 9.617188 28.03125 9.8125 27.96875 C 10.207031 27.84375 10.71875 27.96875 10.71875 27.96875 C 10.808594 27.992188 10.90625 28.003906 11 28 C 20.09375 27.953125 25.496094 23.972656 27.5625 20.71875 C 29.582031 20.621094 31.335938 20.429688 32.78125 20.21875 Z"/></svg>