<svg fill="#000000" xmlns="http://www.w3.org/2000/svg" viewBox="0 0 50 50" width="50px" height="50px"><path d="M 28 0 C 26.101563 0 24.765625 1.238281 24.25 2.6875 C 23.628906 2.296875 22.90625 2 22 2 C 20.800781 2 19.671875 2.429688 18.96875 3.34375 C 18.265625 4.257813 18 5.480469 18 7 L 18 7.59375 C 17.4375 7.265625 16.792969 7 16 7 C 14.289063 7 13.085938 7.949219 12.5625 9.03125 C 12.039063 10.113281 12 11.253906 12 12 L 12 41 C 12 45.945313 16.054688 50 21 50 L 29.09375 50 C 31.886719 50 34.5 48.75 36.1875 46.5 L 47.71875 31.71875 L 47.78125 31.625 C 49.460938 29.859375 49.46875 27.066406 47.71875 25.40625 C 47.710938 25.398438 47.695313 25.414063 47.6875 25.40625 C 45.914063 23.65625 43.050781 23.601563 41.375 25.40625 C 41.363281 25.425781 41.351563 25.449219 41.34375 25.46875 L 38.09375 29.375 L 38.09375 7.90625 C 38.09375 7.886719 38.09375 7.863281 38.09375 7.84375 C 37.964844 5.402344 35.875 4 34 4 C 33.3125 4 32.628906 4.238281 32 4.59375 L 32 4 C 32 2.078125 30.460938 0 28 0 Z M 28 2 C 29.339844 2 30 3.125 30 4 L 30 23 L 32 23 L 32 8 C 32 7.265625 32.25 6.824219 32.625 6.5 C 33 6.175781 33.539063 6 34 6 C 34.914063 6 36.003906 6.570313 36.09375 7.90625 C 36.09375 7.917969 36.09375 7.925781 36.09375 7.9375 L 36.09375 32.09375 C 36.078125 32.523438 36.34375 32.914063 36.746094 33.066406 C 37.152344 33.214844 37.605469 33.085938 37.875 32.75 L 42.84375 26.78125 L 42.875 26.75 C 43.796875 25.792969 45.261719 25.792969 46.28125 26.8125 C 46.292969 26.824219 46.300781 26.832031 46.3125 26.84375 C 47.300781 27.761719 47.3125 29.25 46.28125 30.28125 C 46.257813 30.3125 46.238281 30.34375 46.21875 30.375 L 34.625 45.28125 C 34.613281 45.292969 34.605469 45.300781 34.59375 45.3125 C 33.28125 47.0625 31.300781 48 29.09375 48 L 21 48 C 17.144531 48 14 44.855469 14 41 L 14 12 C 14 11.347656 14.066406 10.476563 14.34375 9.90625 C 14.621094 9.335938 14.910156 9 16 9 C 17.089844 9 17.378906 9.335938 17.65625 9.90625 C 17.933594 10.476563 18 11.347656 18 12 L 18 24 L 20 24 L 20 7 C 20 5.71875 20.234375 4.949219 20.53125 4.5625 C 20.828125 4.175781 21.199219 4 22 4 C 22.917969 4 23.320313 4.253906 23.59375 4.59375 C 23.867188 4.933594 24 5.464844 24 6 L 24 22 L 26 22 L 26 4 C 26 3.125 26.660156 2 28 2 Z M 20.40625 28.96875 C 20.363281 28.976563 20.320313 28.988281 20.28125 29 C 19.90625 29.066406 19.605469 29.339844 19.5 29.703125 C 19.394531 30.070313 19.503906 30.460938 19.78125 30.71875 L 24.0625 35 L 19.78125 39.28125 C 19.382813 39.679688 19.382813 40.320313 19.78125 40.71875 C 20.179688 41.117188 20.820313 41.117188 21.21875 40.71875 L 25.5 36.4375 L 29.78125 40.71875 C 30.179688 41.117188 30.820313 41.117188 31.21875 40.71875 C 31.617188 40.320313 31.617188 39.679688 31.21875 39.28125 L 26.9375 35 L 31.21875 30.71875 C 31.542969 30.417969 31.628906 29.941406 31.433594 29.546875 C 31.242188 29.148438 30.808594 28.929688 30.375 29 C 30.152344 29.023438 29.941406 29.125 29.78125 29.28125 L 25.5 33.5625 L 21.21875 29.28125 C 21.011719 29.058594 20.710938 28.945313 20.40625 28.96875 Z"/></svg>