<svg fill="#000000" xmlns="http://www.w3.org/2000/svg" viewBox="0 0 50 50" width="50px" height="50px"><path d="M 29.005859 2.9960938 A 1.0001 1.0001 0 0 0 28.740234 3.0351562 C 28.740234 3.0351562 27.559848 3.3482114 26.394531 4.2363281 C 25.574834 4.8610407 24.733656 5.8379847 24.300781 7.1621094 C 23.721815 6.3095738 22.905601 5.7589308 22.175781 5.4609375 C 21.046605 4.9998826 20.007813 5 20.007812 5 A 1.0001 1.0001 0 1 0 19.992188 7 C 19.992188 7 20.684098 7.012055 21.419922 7.3125 C 21.881023 7.5007726 22.31039 7.749992 22.617188 8.1875 C 16.549747 9.107412 11.633964 13.474291 9.8183594 19.21875 C 7.6444603 19.763118 6 21.667632 6 24 C 6 26.324565 7.632399 28.222207 9.7949219 28.773438 C 11.337419 33.673079 15.119229 37.578426 19.980469 39.191406 L 20 43.005859 C 20.012715 45.509682 22.035481 48.00618 25.001953 48 C 27.931217 47.993786 29.988946 45.522628 30 43.007812 L 30 43.003906 C 30.000029 43.000106 30.014245 41.219837 30.015625 39.326172 C 30.015658 39.280584 30.015613 39.241004 30.015625 39.195312 C 34.879149 37.582147 38.662448 33.674315 40.205078 28.773438 C 42.366747 28.220524 44 26.323708 44 24 C 44 21.667632 42.35554 19.763118 40.181641 19.21875 C 38.240605 13.077437 32.756577 8.5073204 26.109375 8.0449219 C 26.347401 6.999109 26.954643 6.3221819 27.605469 5.8261719 C 28.440152 5.1900386 29.259766 4.9648438 29.259766 4.9648438 A 1.0001 1.0001 0 0 0 29.005859 2.9960938 z M 24.78125 10.009766 A 1.0001 1.0001 0 0 0 25.212891 10.009766 C 25.212891 10.009766 25.214844 10.009766 25.214844 10.009766 C 31.571958 10.106242 36.894356 14.43154 38.501953 20.291016 A 1.0001 1.0001 0 0 0 39.351562 21.019531 C 40.843134 21.193598 42 22.452439 42 24 C 42 25.547561 40.843134 26.806402 39.351562 26.980469 A 1.0001 1.0001 0 0 0 38.501953 27.708984 C 37.320974 32.011836 34.128495 35.487046 30.005859 37.070312 C 30.004667 36.924686 30.005379 36.741751 30.003906 36.605469 C 29.995206 35.807814 29.993282 35.265941 29.951172 34.888672 A 1.0001 1.0001 0 0 0 29.664062 34.292969 L 26.921875 31.550781 A 2 2 0 0 0 27 31 A 2 2 0 0 0 25 29 A 2 2 0 0 0 23 31 A 2 2 0 0 0 23.060547 31.482422 L 20.25 34.292969 A 1.0001 1.0001 0 0 0 19.957031 35.005859 L 19.96875 37.0625 C 15.857341 35.475469 12.674897 32.002785 11.496094 27.707031 A 1.0001 1.0001 0 0 0 10.648438 26.978516 C 9.1584188 26.805293 8 25.547561 8 24 C 8 22.452439 9.156867 21.193598 10.648438 21.019531 A 1.0001 1.0001 0 0 0 11.498047 20.291016 C 13.105313 14.432746 18.425871 10.107967 24.78125 10.009766 z M 19 22.019531 A 2 2 0 0 0 17 24.019531 A 2 2 0 0 0 19 26.019531 A 2 2 0 0 0 21 24.019531 A 2 2 0 0 0 19 22.019531 z M 31 22.019531 A 2 2 0 0 0 29 24.019531 A 2 2 0 0 0 31 26.019531 A 2 2 0 0 0 33 24.019531 A 2 2 0 0 0 31 22.019531 z M 24 33.371094 L 24 43 A 1.0001 1.0001 0 1 0 26 43 L 26 33.457031 L 27.970703 35.427734 C 27.981123 35.659673 27.997186 36.00676 28.003906 36.626953 C 28.012406 37.410767 28.016315 38.380682 28.015625 39.324219 C 28.01425 41.211292 28 42.992187 28 42.992188 A 1.0001 1.0001 0 0 0 28 42.996094 C 27.994972 44.405959 26.78129 45.996217 24.998047 46 C 23.164519 46.00382 22.007284 44.428318 22 42.994141 L 21.958984 35.412109 L 24 33.371094 z"/></svg>