<svg fill="#000000" xmlns="http://www.w3.org/2000/svg" viewBox="0 0 50 50" width="50px" height="50px"><path d="M 18 2 C 13.041635 2 9 6.0395307 9 10.998047 L 9 22 C 9 24.197334 10.802666 26 13 26 C 13.828461 26 14.599441 25.743682 15.240234 25.306641 C 15.787648 26.865532 17.261951 28 19 28 C 20.00249 28 20.897076 27.591338 21.601562 26.974609 C 22.298171 28.160915 23.53427 29 25 29 C 25.742658 29 26.401869 28.738341 27 28.380859 L 27 36 C 27 38.197334 28.802666 40 31 40 C 33.197334 40 35 38.197334 35 36 L 34.998047 18.119141 L 38.363281 20.892578 L 38.291016 20.828125 C 39.844926 22.382035 42.395309 22.382035 43.949219 20.828125 C 45.502729 19.274615 45.50193 16.725897 43.949219 15.171875 L 34.730469 5.3164062 A 1.0001 1.0001 0 0 0 34.707031 5.2929688 C 32.190395 2.7763572 28.613889 2.0030023 25.275391 2.0019531 L 18 2 z M 18 4 L 25.275391 4.0019531 C 28.298345 4.0029031 31.303659 4.7235229 33.287109 6.703125 C 33.288809 6.704795 33.291269 6.7053613 33.292969 6.7070312 L 42.511719 16.560547 A 1.0001 1.0001 0 0 0 42.535156 16.585938 C 43.325246 17.376027 43.325246 18.623974 42.535156 19.414062 C 41.745066 20.204152 40.497121 20.204152 39.707031 19.414062 A 1.0001 1.0001 0 0 0 39.634766 19.349609 L 34.730469 15.306641 A 1.0001 1.0001 0 0 0 33.984375 14.984375 A 1.0001 1.0001 0 0 0 32.998047 16 L 33 36 C 33 37.116666 32.116666 38 31 38 C 29.883334 38 29 37.116666 29 36 L 29 25 L 29 23 A 1.0001 1.0001 0 0 0 28.982422 22.800781 A 1.0001 1.0001 0 0 0 28.884766 22.519531 A 1.0001 1.0001 0 0 0 28.833984 22.433594 A 1.0001 1.0001 0 0 0 28.773438 22.351562 A 1.0001 1.0001 0 0 0 28.552734 22.152344 A 1.0001 1.0001 0 0 0 28.375 22.058594 A 1.0001 1.0001 0 0 0 28.083984 21.990234 A 1.0001 1.0001 0 0 0 27.984375 21.986328 A 1.0001 1.0001 0 0 0 27.884766 21.992188 A 1.0001 1.0001 0 0 0 27.787109 22.009766 A 1.0001 1.0001 0 0 0 27.423828 22.169922 A 1.0001 1.0001 0 0 0 27.34375 22.230469 A 1.0001 1.0001 0 0 0 27.271484 22.300781 A 1.0001 1.0001 0 0 0 27.0625 22.636719 A 1.0001 1.0001 0 0 0 27.001953 22.929688 A 1.0001 1.0001 0 0 0 27 23 L 27 25 C 27 26.116666 26.116666 27 25 27 C 23.883334 27 23 26.116666 23 25 L 23 24 L 23 23 A 1.0001 1.0001 0 0 0 22.996094 22.900391 A 1.0001 1.0001 0 0 0 22.982422 22.800781 A 1.0001 1.0001 0 0 0 22.833984 22.433594 A 1.0001 1.0001 0 0 0 22.773438 22.351562 A 1.0001 1.0001 0 0 0 22.552734 22.152344 A 1.0001 1.0001 0 0 0 22.183594 22.001953 A 1.0001 1.0001 0 0 0 22.083984 21.990234 A 1.0001 1.0001 0 0 0 21.689453 22.035156 A 1.0001 1.0001 0 0 0 21.507812 22.115234 A 1.0001 1.0001 0 0 0 21.34375 22.230469 A 1.0001 1.0001 0 0 0 21.207031 22.376953 A 1.0001 1.0001 0 0 0 21.033203 22.732422 A 1.0001 1.0001 0 0 0 21 23 L 21 24 C 21 25.116666 20.116666 26 19 26 C 17.883334 26 17 25.116666 17 24 L 17 22 A 1.0001 1.0001 0 0 0 15.001953 21.929688 A 1.0001 1.0001 0 0 0 15 22 C 15 23.116666 14.116666 24 13 24 C 11.883334 24 11 23.116666 11 22 L 11 10.998047 C 11 7.1205628 14.122365 4 18 4 z M 26.984375 41.986328 A 1.0001 1.0001 0 0 0 26.839844 42 L 6 42 A 1.0001 1.0001 0 1 0 6 44 L 26.101562 44 C 26.568451 46.274577 28.592847 48 31 48 C 33.407153 48 35.431549 46.274577 35.898438 44 L 44 44 A 1.0001 1.0001 0 1 0 44 42 L 35.167969 42 A 1.0001 1.0001 0 0 0 34.841797 42 L 27.154297 42 A 1.0001 1.0001 0 0 0 26.984375 41.986328 z M 28.181641 44 L 33.818359 44 C 33.408769 45.167075 32.314849 46 31 46 C 29.685151 46 28.591231 45.167075 28.181641 44 z"/></svg>