<svg fill="#000000" xmlns="http://www.w3.org/2000/svg" viewBox="0 0 50 50" width="50px" height="50px"><path d="M 25 0 C 21.101563 0 18.875 0.546875 17.53125 1.1875 C 16.859375 1.507813 16.410156 1.851563 16.125 2.15625 C 15.839844 2.460938 15.65625 2.84375 15.65625 2.84375 C 15.625 2.925781 15.605469 3.007813 15.59375 3.09375 L 14 16.875 C 13.984375 17.011719 13.992188 17.148438 14.03125 17.28125 C 14.027344 17.457031 14 17.625 14 17.8125 C 14 23.859375 18.953125 28.8125 25 28.8125 C 31.046875 28.8125 36 23.859375 36 17.8125 C 36 17.636719 35.972656 17.480469 35.96875 17.3125 C 36.011719 17.171875 36.023438 17.019531 36 16.875 L 34.40625 3.09375 C 34.394531 3.007813 34.375 2.925781 34.34375 2.84375 C 34.34375 2.84375 34.160156 2.460938 33.875 2.15625 C 33.589844 1.851563 33.140625 1.507813 32.46875 1.1875 C 31.125 0.546875 28.898438 0 25 0 Z M 25 2 C 28.703125 2 30.667969 2.542969 31.625 3 C 32.101563 3.230469 32.335938 3.425781 32.4375 3.53125 L 33.53125 13 C 33.339844 12.9375 33.136719 12.875 32.9375 12.84375 C 31.019531 12.523438 28.625 13 25 13 C 23.1875 13 21.667969 12.890625 20.375 12.8125 C 19.082031 12.734375 18.019531 12.683594 17.0625 12.84375 C 16.863281 12.875 16.660156 12.9375 16.46875 13 L 17.5625 3.53125 C 17.664063 3.425781 17.898438 3.230469 18.375 3 C 19.332031 2.542969 21.296875 2 25 2 Z M 24 4 L 24 7 L 21 7 L 21 9 L 24 9 L 24 12 L 26 12 L 26 9 L 29 9 L 29 7 L 26 7 L 26 4 Z M 17.90625 14.75 C 19.285156 14.6875 21.695313 15 25 15 C 28.777344 15 31.390625 14.605469 32.625 14.8125 C 33.242188 14.914063 33.421875 15.054688 33.625 15.40625 C 33.828125 15.757813 34 16.515625 34 17.8125 C 34 22.765625 29.953125 26.8125 25 26.8125 C 20.046875 26.8125 16 22.765625 16 17.8125 C 16 16.515625 16.171875 15.757813 16.375 15.40625 C 16.578125 15.054688 16.757813 14.914063 17.375 14.8125 C 17.527344 14.785156 17.710938 14.757813 17.90625 14.75 Z M 25 29.8125 C 18.785156 29.8125 13.15625 31.339844 9 33.59375 C 4.84375 35.847656 2 38.820313 2 42.09375 L 2 50 L 24.78125 50 C 24.914063 50.027344 25.054688 50.027344 25.1875 50 L 48 50 L 48 42.09375 C 48 38.820313 45.15625 35.847656 41 33.59375 C 38.667969 32.328125 35.855469 31.289063 32.75 30.625 C 32.578125 30.527344 32.382813 30.484375 32.1875 30.5 C 29.921875 30.050781 27.515625 29.8125 25 29.8125 Z M 25 31.8125 C 27.023438 31.8125 28.984375 31.96875 30.84375 32.28125 L 25 46.375 L 19.15625 32.28125 C 21.015625 31.96875 22.976563 31.8125 25 31.8125 Z M 17.1875 32.71875 L 23.5 48 L 4 48 L 4 42.09375 C 4 40.066406 6.117188 37.414063 9.9375 35.34375 C 11.96875 34.242188 14.441406 33.347656 17.1875 32.71875 Z M 32.8125 32.71875 C 35.558594 33.347656 38.03125 34.242188 40.0625 35.34375 C 43.882813 37.414063 46 40.066406 46 42.09375 L 46 48 L 26.5 48 Z"/></svg>