<svg fill="#000000" xmlns="http://www.w3.org/2000/svg" viewBox="0 0 50 50" width="50px" height="50px"><path d="M 27.3125 0 C 20.890625 0 16.089844 2.191406 12.96875 5.40625 C 9.871094 8.59375 8.429688 12.75 8.40625 16.71875 C 8.40625 16.71875 8.40625 16.78125 8.40625 16.78125 C 8.40625 16.792969 8.40625 16.800781 8.40625 16.8125 C 8.402344 16.875 8.308594 18.367188 8.8125 21.28125 C 8.824219 21.292969 8.832031 21.300781 8.84375 21.3125 C 8.855469 21.433594 8.886719 21.546875 8.9375 21.65625 C 9.117188 22.320313 9.332031 24.011719 9.46875 25.875 C 9.617188 27.921875 9.6875 30.226563 9.6875 32 C 9.6875 37.21875 6.660156 41.992188 5.5625 45.28125 C 5.382813 45.632813 5.425781 46.054688 5.671875 46.363281 C 5.917969 46.671875 6.320313 46.804688 6.703125 46.707031 C 7.082031 46.609375 7.371094 46.296875 7.4375 45.90625 C 8.339844 43.195313 11.6875 37.980469 11.6875 32 C 11.6875 30.171875 11.621094 27.824219 11.46875 25.71875 C 11.339844 23.929688 11.140625 22.605469 10.84375 21.5 C 11.261719 21.089844 11.554688 21.046875 11.9375 21.21875 C 12.398438 21.429688 13.007813 22.121094 13.34375 23.125 C 13.863281 24.683594 14.085938 27.558594 14.40625 29.375 C 14.464844 29.71875 14.699219 30.007813 15.027344 30.136719 C 15.351563 30.265625 15.722656 30.214844 16 30 C 18.355469 28.199219 22.070313 26.78125 25.25 25.875 C 28.414063 24.972656 31.164063 24.53125 31.40625 24.5 C 31.417969 24.5 31.425781 24.5 31.4375 24.5 C 31.761719 24.507813 32.117188 24.539063 32.34375 24.625 C 32.601563 24.722656 32.648438 24.753906 32.71875 25.03125 C 32.746094 25.144531 32.75 25.378906 32.65625 25.5625 C 32.5625 25.746094 32.425781 25.847656 32.4375 25.84375 C 32.226563 25.875 32.023438 25.890625 31.78125 25.9375 C 30.105469 26.265625 27.535156 26.992188 23.25 28.65625 C 22.730469 28.855469 22.472656 29.433594 22.671875 29.953125 C 22.871094 30.472656 23.449219 30.730469 23.96875 30.53125 C 28.183594 28.894531 30.6875 28.203125 32.1875 27.90625 C 32.414063 27.863281 32.574219 27.839844 32.75 27.8125 C 32.78125 27.804688 32.8125 27.792969 32.84375 27.78125 C 33.777344 27.632813 34.125 27.6875 34.59375 27.6875 C 34.847656 27.6875 35.214844 27.753906 35.4375 27.84375 C 35.660156 27.933594 35.707031 28 35.75 28.125 C 35.878906 28.617188 35.59375 29.230469 35.21875 29.34375 C 35.085938 29.371094 34.957031 29.421875 34.84375 29.5 C 34.761719 29.5 34.675781 29.492188 34.59375 29.5 C 34.582031 29.5 34.574219 29.5 34.5625 29.5 C 30.640625 30.042969 24.90625 32.6875 24.90625 32.6875 C 24.539063 32.800781 24.269531 33.121094 24.214844 33.5 C 24.160156 33.882813 24.332031 34.261719 24.652344 34.476563 C 24.972656 34.6875 25.386719 34.699219 25.71875 34.5 C 25.71875 34.5 31.53125 31.964844 34.8125 31.5 C 34.824219 31.5 34.832031 31.5 34.84375 31.5 C 35.21875 31.472656 35.609375 31.679688 35.71875 32.15625 C 35.722656 32.167969 35.714844 32.175781 35.71875 32.1875 C 35.738281 32.363281 35.675781 33.277344 34.0625 33.84375 C 34.042969 33.84375 34.019531 33.84375 34 33.84375 L 34 33.875 C 33.988281 33.875 33.980469 33.875 33.96875 33.875 C 33.957031 33.882813 33.9375 33.875 33.9375 33.875 C 33.925781 33.878906 33.917969 33.871094 33.90625 33.875 C 33.824219 33.898438 30.902344 34.785156 27.375 36.5 C 26.875 36.742188 26.664063 37.34375 26.90625 37.84375 C 27.148438 38.34375 27.75 38.554688 28.25 38.3125 C 31.476563 36.746094 34.066406 35.910156 34.375 35.8125 C 34.382813 35.808594 34.464844 35.8125 34.46875 35.8125 C 34.53125 35.796875 34.597656 35.777344 34.65625 35.75 C 34.667969 35.75 34.675781 35.75 34.6875 35.75 C 34.699219 35.75 34.707031 35.75 34.71875 35.75 C 34.761719 35.761719 34.808594 35.78125 34.90625 35.84375 C 35.125 35.984375 35.375 36.28125 35.40625 36.34375 C 35.414063 36.363281 35.425781 36.386719 35.4375 36.40625 C 35.488281 36.492188 35.519531 37.050781 34.96875 37.25 C 34.925781 37.269531 34.882813 37.289063 34.84375 37.3125 C 34.84375 37.3125 33.167969 38.128906 31.375 39.03125 C 30.480469 39.484375 29.574219 39.945313 28.8125 40.34375 C 28.050781 40.742188 27.503906 41.046875 27.15625 41.28125 C 27.144531 41.28125 27.136719 41.28125 27.125 41.28125 C 25.210938 42.664063 23.578125 44.507813 22.5625 45.4375 C 22.554688 45.445313 22.539063 45.460938 22.53125 45.46875 C 22.347656 45.621094 22.160156 45.769531 21.96875 45.90625 C 21.941406 45.925781 21.902344 45.917969 21.875 45.9375 C 21.71875 45.996094 21.578125 46.09375 21.46875 46.21875 C 19.617188 47.417969 17.71875 48.03125 17.71875 48.03125 C 17.183594 48.1875 16.875 48.746094 17.03125 49.28125 C 17.1875 49.816406 17.746094 50.125 18.28125 49.96875 C 18.28125 49.96875 20.359375 49.296875 22.5 47.90625 C 23.324219 48.015625 26.988281 48.417969 31.1875 47.0625 C 35.835938 45.5625 40.910156 41.679688 42.625 33.3125 C 42.972656 33.160156 43.378906 33.132813 43.65625 32.875 C 44.15625 32.414063 44.566406 31.8125 44.9375 31.125 C 45.679688 29.75 46.1875 27.984375 46.1875 26.1875 C 46.1875 24.984375 45.609375 24.070313 44.9375 23.46875 C 45.019531 22.882813 45.59375 18.6875 45.59375 16.09375 C 45.59375 13.109375 44.382813 9.171875 41.46875 5.875 C 38.554688 2.578125 33.917969 0 27.3125 0 Z M 27.3125 2 C 33.40625 2 37.40625 4.285156 39.96875 7.1875 C 42.53125 10.089844 43.59375 13.675781 43.59375 16.09375 C 43.59375 18.339844 43.054688 22.398438 42.96875 23.03125 C 42.570313 23.136719 42.304688 23.136719 41.625 23.5625 C 41.445313 23.675781 41.304688 23.914063 41.125 24.0625 C 40.65625 21.230469 39.578125 19.269531 38.0625 18 C 35.996094 16.265625 33.347656 15.859375 30.8125 15.625 C 28.277344 15.390625 25.796875 15.296875 23.96875 14.59375 C 22.140625 13.890625 20.878906 12.78125 20.375 9.84375 C 20.277344 9.398438 19.886719 9.074219 19.429688 9.058594 C 18.972656 9.042969 18.566406 9.34375 18.4375 9.78125 C 18.421875 9.84375 18.078125 10.4375 17.5625 11.15625 C 17.046875 11.875 16.394531 12.785156 15.71875 13.84375 C 14.707031 15.429688 13.699219 17.367188 13.25 19.625 C 13.09375 19.523438 12.921875 19.453125 12.75 19.375 C 12.15625 19.105469 11.476563 19.066406 10.8125 19.25 C 10.730469 19.273438 10.644531 19.3125 10.5625 19.34375 C 10.359375 17.671875 10.40625 16.875 10.40625 16.875 C 10.40625 16.855469 10.40625 16.832031 10.40625 16.8125 C 10.40625 13.308594 11.675781 9.59375 14.40625 6.78125 C 17.136719 3.96875 21.335938 2 27.3125 2 Z M 19.09375 12.5 C 19.996094 14.550781 21.515625 15.800781 23.25 16.46875 C 25.566406 17.355469 28.1875 17.367188 30.625 17.59375 C 33.0625 17.820313 35.253906 18.25 36.78125 19.53125 C 38.308594 20.8125 39.40625 23.042969 39.40625 27.5 C 39.414063 28.046875 39.859375 28.484375 40.40625 28.484375 C 40.953125 28.484375 41.398438 28.046875 41.40625 27.5 C 41.40625 26.265625 41.996094 25.683594 42.6875 25.25 C 42.984375 25.0625 43.257813 24.929688 43.5 24.84375 C 43.875 25.136719 44.1875 25.582031 44.1875 26.1875 C 44.1875 27.589844 43.769531 29.113281 43.1875 30.1875 C 42.898438 30.726563 42.558594 31.148438 42.28125 31.40625 C 42.003906 31.664063 41.820313 31.6875 41.8125 31.6875 C 41.316406 31.679688 40.890625 32.039063 40.8125 32.53125 C 39.320313 40.613281 34.828125 43.789063 30.59375 45.15625 C 28.410156 45.863281 26.328125 46.023438 24.8125 46.03125 C 25.832031 45.027344 26.980469 43.863281 28.25 42.9375 C 28.261719 42.929688 28.269531 42.914063 28.28125 42.90625 C 28.40625 42.828125 28.992188 42.503906 29.71875 42.125 C 30.464844 41.734375 31.390625 41.261719 32.28125 40.8125 C 34.019531 39.9375 35.574219 39.164063 35.65625 39.125 C 35.660156 39.125 35.75 39.09375 35.75 39.09375 L 35.75 39.0625 C 37.300781 38.425781 37.863281 36.71875 37.15625 35.4375 C 37.152344 35.429688 37.160156 35.414063 37.15625 35.40625 C 37 35.105469 36.792969 34.855469 36.5625 34.625 C 37.476563 33.746094 37.808594 32.679688 37.6875 31.84375 C 37.6875 31.832031 37.6875 31.824219 37.6875 31.8125 C 37.582031 31.292969 37.324219 30.839844 37 30.46875 C 37.714844 29.691406 37.96875 28.542969 37.65625 27.5 C 37.65625 27.488281 37.65625 27.480469 37.65625 27.46875 C 37.398438 26.691406 36.761719 26.234375 36.1875 26 C 35.648438 25.78125 35.121094 25.695313 34.6875 25.6875 C 34.75 25.328125 34.753906 24.953125 34.65625 24.5625 C 34.425781 23.640625 33.699219 23.003906 33.03125 22.75 C 32.363281 22.496094 31.753906 22.5 31.3125 22.5 C 31.269531 22.496094 31.230469 22.496094 31.1875 22.5 C 30.605469 22.574219 27.984375 23.027344 24.6875 23.96875 C 21.855469 24.777344 18.722656 26.019531 16.125 27.65625 C 15.917969 26.039063 15.789063 24.082031 15.25 22.46875 C 15.179688 22.261719 15.085938 22.070313 15 21.875 C 15.035156 19.207031 16.175781 16.867188 17.40625 14.9375 C 17.996094 14.015625 18.578125 13.21875 19.09375 12.5 Z"/></svg>