<svg fill="#000000" xmlns="http://www.w3.org/2000/svg" viewBox="0 0 50 50" width="50px" height="50px"><path d="M 0.99023438 -0.009765625 A 1.0001 1.0001 0 0 0 0.29296875 1.7070312 L 9.9355469 11.349609 A 1.0009552 1.0009552 0 0 0 9.9765625 11.390625 L 14.890625 16.304688 A 1.0001 1.0001 0 0 0 15.195312 16.609375 L 23.044922 24.458984 C 23.04292 24.459623 23.041064 24.460298 23.039062 24.460938 L 24.630859 26.060547 L 24.640625 26.060547 C 24.642069 26.06012 24.643087 26.059021 24.644531 26.058594 L 26.164062 27.578125 C 26.162573 27.578653 26.161647 27.579549 26.160156 27.580078 L 27.730469 29.150391 C 27.732104 29.149841 27.732741 29.148987 27.734375 29.148438 L 29.464844 30.878906 C 29.463505 30.879381 29.462276 30.880384 29.460938 30.880859 L 31.039062 32.460938 C 31.041044 32.460277 31.04294 32.459645 31.044922 32.458984 L 32.824219 34.238281 C 32.822048 34.239028 32.822488 34.239485 32.820312 34.240234 L 33.400391 34.820312 L 34.380859 35.800781 L 34.390625 35.810547 C 34.393186 35.809693 34.392011 35.80943 34.394531 35.808594 L 35.421875 36.835938 C 35.421538 36.837337 35.419922 36.838444 35.419922 36.839844 L 36.859375 38.279297 C 36.860295 38.278183 36.86041 38.276506 36.861328 38.275391 L 38.53125 39.945312 A 1.0001 1.0001 0 0 0 38.851562 40.265625 L 48.292969 49.707031 A 1.0001 1.0001 0 1 0 49.707031 48.292969 L 40.623047 39.208984 C 41.505947 37.546504 42.206108 35.589657 42.667969 33.308594 C 42.995011 33.157053 43.378014 33.113517 43.642578 32.869141 C 44.142506 32.40736 44.569713 31.812283 44.941406 31.125 C 45.684794 29.750435 46.199219 27.997135 46.199219 26.199219 C 46.199219 24.991201 45.61004 24.080097 44.935547 23.472656 C 45.015695 22.901233 45.599609 18.699543 45.599609 16.099609 C 45.599609 13.115659 44.375033 9.1610492 41.462891 5.8632812 C 38.550749 2.5655133 33.905374 -1.1842379e-15 27.300781 0 C 18.696652 0 13.090704 3.9497212 10.378906 8.9648438 L 1.7070312 0.29296875 A 1.0001 1.0001 0 0 0 0.99023438 -0.009765625 z M 27.300781 2 C 33.396188 2 37.400033 4.285268 39.962891 7.1875 C 42.525749 10.089732 43.599609 13.68356 43.599609 16.099609 C 43.599609 18.34458 43.047072 22.378777 42.960938 23.019531 C 42.561445 23.126554 42.291239 23.129045 41.617188 23.552734 C 41.44249 23.662544 41.295489 23.897873 41.121094 24.042969 C 40.649623 21.218709 39.582719 19.263247 38.070312 17.994141 C 36.003216 16.259577 33.354677 15.852975 30.818359 15.617188 C 28.282042 15.381398 25.795672 15.301644 23.966797 14.599609 C 22.137922 13.897575 20.889409 12.766182 20.384766 9.8300781 A 1.0001 1.0001 0 0 0 18.425781 9.7714844 C 18.407511 9.8491634 17.925942 10.682885 17.228516 11.648438 C 16.725496 12.344843 16.125214 13.176296 15.537109 14.123047 L 11.863281 10.449219 C 14.113239 5.7903381 18.97151 2 27.300781 2 z M 19.078125 12.429688 C 19.976582 14.511235 21.50071 15.794562 23.251953 16.466797 C 25.566828 17.355388 28.19413 17.38071 30.632812 17.607422 C 33.071495 17.834134 35.258503 18.246283 36.785156 19.527344 C 38.311809 20.808405 39.400391 23.044369 39.400391 27.5 A 1.0001 1.0001 0 0 0 41.400391 27.5 C 41.400391 26.264583 41.99159 25.67984 42.681641 25.246094 C 42.96811 25.066027 43.24399 24.948483 43.482422 24.861328 C 43.865978 25.155222 44.199219 25.589697 44.199219 26.199219 C 44.199219 27.601302 43.765206 29.098393 43.183594 30.173828 C 42.892787 30.711546 42.563353 31.143421 42.285156 31.400391 C 42.006959 31.65736 41.809115 31.699219 41.800781 31.699219 A 1.0001 1.0001 0 0 0 40.816406 32.519531 C 40.440303 34.56091 39.85989 36.273438 39.146484 37.732422 L 37.390625 35.976562 C 37.344214 35.788407 37.28045 35.608463 37.189453 35.449219 C 37.051603 35.170762 36.835652 34.892301 36.576172 34.638672 C 37.474405 33.779764 37.811718 32.705191 37.679688 31.800781 C 37.579688 31.290781 37.349297 30.830937 37.029297 30.460938 C 37.209297 30.250938 37.37 30.000469 37.5 29.730469 C 37.81 29.040469 37.870391 28.230469 37.650391 27.480469 C 37.287341 26.391319 36.179794 25.727743 34.683594 25.703125 C 34.756472 25.326799 34.763401 24.937294 34.669922 24.560547 C 34.439922 23.620547 33.660781 22.5 31.300781 22.5 C 31.260781 22.5 31.219687 22.499766 31.179688 22.509766 C 31.130313 22.517995 28.524122 22.92111 25.232422 23.818359 L 16.996094 15.582031 C 17.608098 14.549652 18.270027 13.620763 18.849609 12.818359 C 18.954359 12.673338 18.978646 12.563391 19.078125 12.429688 z M 8.8300781 13.070312 C 8.5400781 14.280312 8.4003906 15.520469 8.4003906 16.730469 C 8.4003906 16.790469 8.3005469 18.279531 8.8105469 21.269531 C 8.8143494 21.290234 8.8270709 21.306019 8.8320312 21.326172 C 8.8413502 21.367377 8.8447319 21.40895 8.859375 21.449219 C 9.359375 22.769219 9.6992188 28.07 9.6992188 32 C 9.6992188 35.86 8.0790625 39.440312 6.7890625 42.320312 C 6.2790625 43.450312 5.8407813 44.419297 5.5507812 45.279297 C 5.3807812 45.809297 5.6596875 46.370781 6.1796875 46.550781 C 6.2896875 46.580781 6.4 46.599609 6.5 46.599609 C 6.92 46.599609 7.3092187 46.329922 7.4492188 45.919922 C 7.6992188 45.149922 8.119375 44.220625 8.609375 43.140625 C 9.909375 40.250625 11.699219 36.29 11.699219 32 C 11.699219 28.96 11.479922 23.719141 10.919922 21.369141 C 11.179922 21.169141 11.429453 21.080859 11.689453 21.130859 C 12.219453 21.230859 12.939609 21.879141 13.349609 23.119141 C 13.729609 24.249141 13.940625 25.930156 14.140625 27.410156 C 14.230625 28.140156 14.319922 28.819141 14.419922 29.369141 C 14.479922 29.719141 14.709062 30.000859 15.039062 30.130859 C 15.359062 30.260859 15.729766 30.210234 16.009766 29.990234 C 17.769766 28.640234 20.149766 27.57 22.509766 26.75 L 20.939453 25.179688 C 19.269453 25.819688 17.610156 26.580703 16.160156 27.470703 C 16.150156 27.370703 16.129141 27.260391 16.119141 27.150391 C 15.919141 25.580391 15.69 23.800469 15.25 22.480469 C 15.178585 22.266223 15.096269 22.05973 15.007812 21.861328 C 15.018586 21.097405 15.112508 20.333504 15.310547 19.550781 L 13.689453 17.929688 C 13.494024 18.511726 13.34873 19.089663 13.236328 19.666016 C 12.858859 19.416321 12.457494 19.235959 12.039062 19.160156 C 11.688258 19.099862 11.151819 19.087174 10.554688 19.3125 C 10.359714 17.696033 10.400391 16.862584 10.400391 16.800781 C 10.400391 16.130781 10.450781 15.459062 10.550781 14.789062 L 8.8300781 13.070312 z M 31.369141 24.5 C 32.599141 24.51 32.690469 24.869062 32.730469 25.039062 C 32.80574 25.349557 32.582496 25.729719 32.447266 25.816406 C 31.512809 25.959919 30.204592 26.257262 28.28125 26.867188 L 26.869141 25.455078 C 29.226518 24.862707 31.045921 24.55387 31.369141 24.5 z M 34.339844 27.689453 C 34.429844 27.699453 34.519609 27.699219 34.599609 27.699219 C 35.099609 27.699219 35.660234 27.839844 35.740234 28.089844 C 35.820234 28.339844 35.789687 28.640625 35.679688 28.890625 C 35.619687 29.030625 35.480938 29.259844 35.210938 29.339844 C 35.100938 29.379844 35.000156 29.430234 34.910156 29.490234 C 34.790156 29.490234 34.680547 29.499766 34.560547 29.509766 C 33.659434 29.633448 32.635168 29.884336 31.601562 30.1875 L 29.900391 28.486328 C 32.700813 27.684228 33.837228 27.67324 34.339844 27.689453 z M 24.099609 28.339844 C 23.819609 28.439844 23.540234 28.559922 23.240234 28.669922 C 22.720234 28.869922 22.469922 29.450937 22.669922 29.960938 C 22.869922 30.480937 23.450937 30.729297 23.960938 30.529297 C 24.560937 30.299297 25.120391 30.090625 25.650391 29.890625 L 24.099609 28.339844 z M 34.810547 31.490234 C 35.190547 31.460234 35.620937 31.690625 35.710938 32.140625 C 35.741926 32.373042 35.613744 32.963971 34.875 33.460938 L 33.228516 31.814453 C 33.786894 31.673405 34.325405 31.55639 34.810547 31.490234 z M 27.400391 31.650391 C 25.990391 32.200391 24.990625 32.649453 24.890625 32.689453 C 24.390625 32.909453 24.160625 33.499766 24.390625 34.009766 C 24.610625 34.509766 25.200937 34.739766 25.710938 34.509766 C 25.740937 34.499766 27.139219 33.869453 28.949219 33.189453 L 27.410156 31.650391 L 27.400391 31.650391 z M 30.769531 35.009766 C 29.769531 35.399766 28.599375 35.9 27.359375 36.5 C 26.869375 36.74 26.660391 37.339844 26.900391 37.839844 C 27.140391 38.329844 27.740234 38.540781 28.240234 38.300781 C 29.760234 37.560781 31.190547 36.980781 32.310547 36.550781 L 30.769531 35.009766 z M 33.660156 37.900391 C 31.640156 38.900391 27.849375 40.799062 27.109375 41.289062 C 25.799375 42.239062 24.589141 43.440391 23.619141 44.400391 C 23.219141 44.800391 22.850547 45.169688 22.560547 45.429688 C 20.450547 47.169688 17.729219 48.039062 17.699219 48.039062 C 17.179219 48.209062 16.880781 48.770781 17.050781 49.300781 C 17.180781 49.730781 17.57 50 18 50 C 18.1 50 18.200781 49.990938 18.300781 49.960938 C 18.398975 49.928206 20.419332 49.272248 22.498047 47.927734 C 22.851806 47.967828 23.480955 48.029297 24.539062 48.029297 C 27.869062 48.029297 33.970781 47.299062 38.300781 42.539062 L 36.890625 41.130859 C 33.090199 45.392366 27.805576 46.049423 24.796875 46.044922 C 24.879235 45.963523 24.943077 45.904527 25.029297 45.820312 C 25.949297 44.910312 27.09 43.769688 28.25 42.929688 C 28.83 42.549688 32.500391 40.700625 35.150391 39.390625 L 33.660156 37.900391 z"/></svg>