<svg fill="#000000" xmlns="http://www.w3.org/2000/svg" viewBox="0 0 50 50" width="50px" height="50px"><path d="M 18.25 4 C 12.171875 4 7.996094 6.277344 5.460938 9.554688 C 2.921875 12.832031 2 17.003906 2 20.832031 C 2 26.199219 3.398438 28.566406 4.648438 30.613281 C 5.894531 32.660156 7 34.402344 7 39.667969 L 7 46 L 9 46 L 9 39.667969 C 9 34.09375 7.605469 31.632813 6.351563 29.574219 C 5.101563 27.515625 4 25.878906 4 20.832031 C 4 17.328125 4.867188 13.585938 7.039063 10.78125 C 9.214844 7.972656 12.660156 6 18.25 6 C 23.890625 6 27.519531 7.601563 29.792969 10.082031 C 32.066406 12.5625 33.039063 16.035156 33 19.988281 C 32.996094 20.253906 33.097656 20.503906 33.28125 20.691406 L 37.917969 25.523438 C 38.050781 25.804688 38.003906 26.054688 37.730469 26.207031 C 37.722656 26.214844 37.710938 26.21875 37.703125 26.222656 L 34.488281 28.140625 C 34.332031 28.234375 34.203125 28.367188 34.117188 28.53125 C 34.117188 28.53125 33.832031 29.628906 33.925781 31 L 32 31 C 30.832031 31 29.585938 30.988281 28.40625 31.265625 C 27.222656 31.546875 26.039063 32.21875 25.433594 33.484375 C 25.429688 33.488281 25.429688 33.488281 25.429688 33.488281 C 24.972656 34.449219 24.890625 35.464844 25.359375 36.25 C 25.824219 37.03125 26.617188 37.390625 27.4375 37.609375 C 29.003906 38.035156 30.972656 37.988281 32.78125 37.984375 C 32.753906 38.015625 32.746094 38.019531 32.71875 38.050781 C 32.402344 38.449219 32 39.125 32 40 C 32 41.777344 31.464844 42.613281 30.625 43.179688 C 29.789063 43.746094 28.480469 44 27 44 C 24.492188 44 22.40625 43.085938 22.40625 43.085938 C 22.097656 42.949219 21.738281 42.976563 21.453125 43.160156 C 21.171875 43.347656 21 43.660156 21 44 L 21 46 L 23 46 L 23 45.394531 C 23.992188 45.695313 25.339844 46 27 46 C 28.6875 46 30.378906 45.761719 31.75 44.835938 C 33.117188 43.910156 34 42.246094 34 40 C 34 39.6875 34.097656 39.53125 34.28125 39.308594 C 34.371094 39.195313 34.476563 39.085938 34.605469 38.933594 C 34.734375 38.78125 35 38.582031 35 38 C 35 36.84375 34.054688 36 33 36 C 31.117188 36 29.097656 35.988281 27.957031 35.679688 C 27.390625 35.527344 27.128906 35.3125 27.074219 35.21875 C 27.015625 35.128906 26.941406 34.96875 27.234375 34.34375 C 27.546875 33.699219 28.027344 33.410156 28.867188 33.214844 C 29.707031 33.015625 30.832031 33 32 33 L 35 33 C 35.328125 33 35.636719 32.835938 35.824219 32.566406 C 36.007813 32.296875 36.050781 31.953125 35.933594 31.644531 C 35.5 30.503906 35.71875 29.902344 35.820313 29.675781 L 38.703125 27.957031 C 39.914063 27.285156 40.339844 25.714844 39.671875 24.515625 C 39.632813 24.4375 39.578125 24.367188 39.519531 24.308594 L 34.972656 19.570313 C 34.941406 15.441406 33.882813 11.582031 31.269531 8.730469 C 28.5625 5.773438 24.277344 4 18.25 4 Z M 25.023438 18.996094 C 24.523438 18.976563 24.085938 19.332031 24 19.824219 C 23.914063 20.316406 24.207031 20.796875 24.683594 20.949219 L 30.683594 22.949219 C 31.207031 23.125 31.773438 22.839844 31.949219 22.316406 C 32.125 21.792969 31.839844 21.226563 31.316406 21.050781 L 25.316406 19.050781 C 25.222656 19.019531 25.125 19 25.023438 18.996094 Z M 47 28 C 46.449219 28 46 28.449219 46 29 C 46 29.550781 46.449219 30 47 30 C 47.550781 30 48 29.550781 48 29 C 48 28.449219 47.550781 28 47 28 Z M 44 30 C 43.449219 30 43 30.449219 43 31 C 43 31.550781 43.449219 32 44 32 C 44.550781 32 45 31.550781 45 31 C 45 30.449219 44.550781 30 44 30 Z M 41 32 C 40.449219 32 40 32.449219 40 33 C 40 33.550781 40.449219 34 41 34 C 41.550781 34 42 33.550781 42 33 C 42 32.449219 41.550781 32 41 32 Z M 47 32 C 46.449219 32 46 32.449219 46 33 C 46 33.550781 46.449219 34 47 34 C 47.550781 34 48 33.550781 48 33 C 48 32.449219 47.550781 32 47 32 Z M 38 34 C 37.449219 34 37 34.449219 37 35 C 37 35.550781 37.449219 36 38 36 C 38.550781 36 39 35.550781 39 35 C 39 34.449219 38.550781 34 38 34 Z M 44 34 C 43.449219 34 43 34.449219 43 35 C 43 35.550781 43.449219 36 44 36 C 44.550781 36 45 35.550781 45 35 C 45 34.449219 44.550781 34 44 34 Z M 41 36 C 40.449219 36 40 36.449219 40 37 C 40 37.550781 40.449219 38 41 38 C 41.550781 38 42 37.550781 42 37 C 42 36.449219 41.550781 36 41 36 Z M 47 36 C 46.449219 36 46 36.449219 46 37 C 46 37.550781 46.449219 38 47 38 C 47.550781 38 48 37.550781 48 37 C 48 36.449219 47.550781 36 47 36 Z M 44 38 C 43.449219 38 43 38.449219 43 39 C 43 39.550781 43.449219 40 44 40 C 44.550781 40 45 39.550781 45 39 C 45 38.449219 44.550781 38 44 38 Z M 47 40 C 46.449219 40 46 40.449219 46 41 C 46 41.550781 46.449219 42 47 42 C 47.550781 42 48 41.550781 48 41 C 48 40.449219 47.550781 40 47 40 Z"/></svg>