<svg fill="#000000" xmlns="http://www.w3.org/2000/svg" viewBox="0 0 50 50" width="50px" height="50px"><path d="M 24.964844 2 A 1.0001 1.0001 0 0 0 24.382812 2.2128906 L 1.3828125 20.212891 A 1.0002305 1.0002305 0 1 0 2.6171875 21.787109 L 4 20.705078 L 4 47 A 1.0001 1.0001 0 0 0 5 48 L 45 48 A 1.0001 1.0001 0 0 0 46 47 L 46 20.705078 L 47.382812 21.787109 A 1.0002308 1.0002308 0 1 0 48.617188 20.212891 L 25.617188 2.2128906 A 1.0001 1.0001 0 0 0 24.964844 2 z M 25 4.2695312 L 44 19.138672 L 44 46 L 6 46 L 6 19.138672 L 25 4.2695312 z M 25 12 C 22.802706 12 21 13.802706 21 16 C 21 18.197294 22.802706 20 25 20 C 27.197294 20 29 18.197294 29 16 C 29 13.802706 27.197294 12 25 12 z M 25 14 C 26.116414 14 27 14.883586 27 16 C 27 17.116414 26.116414 18 25 18 C 23.883586 18 23 17.116414 23 16 C 23 14.883586 23.883586 14 25 14 z M 25 21 C 21.064194 21 18 24.620799 18 28.904297 L 18 33.617188 L 20.052734 34.644531 L 20.884766 44 L 29.115234 44 L 29.947266 34.644531 L 32 33.617188 L 32 28.904297 C 32 24.620799 28.935806 21 25 21 z M 25 23 C 27.692194 23 30 25.559795 30 28.904297 L 30 32.382812 L 28.052734 33.355469 L 27.285156 42 L 22.714844 42 L 21.947266 33.355469 L 20 32.382812 L 20 28.904297 C 20 25.559795 22.307806 23 25 23 z"/></svg>