<svg fill="#000000" xmlns="http://www.w3.org/2000/svg" viewBox="0 0 50 50" width="50px" height="50px"><path d="M 25 -0.0351563 C 19.957031 -0.0351563 16.511719 1.183594 14.328125 2.4375 C 12.140625 3.691406 11.152344 5.078125 11.152344 5.078125 C 11.007813 5.285156 10.945313 5.539063 10.972656 5.792969 L 11.304688 8.425781 C 11.292969 8.441406 11.28125 8.460938 11.269531 8.476563 C 9.746094 10.980469 9 14.074219 9 17.59375 C 9 19.527344 9.867188 23.25 10.566406 25.457031 C 10.269531 25.707031 9.988281 25.867188 9.699219 26.308594 C 9.21875 27.039063 8.859375 28.082031 9.007813 29.320313 C 9.429688 32.898438 11.679688 34.152344 12.421875 34.519531 C 12.703125 36.191406 13.566406 38.261719 14.984375 40.375 C 16.5 42.636719 18.585938 44.824219 21.136719 46.046875 C 22.050781 47.203125 23.417969 48 25 48 C 26.582031 48 27.945313 47.203125 28.859375 46.046875 C 31.40625 44.824219 33.476563 42.632813 34.984375 40.371094 C 36.386719 38.257813 37.238281 36.191406 37.519531 34.523438 C 38.277344 34.160156 40.535156 32.925781 40.957031 29.355469 C 41.105469 28.113281 40.738281 27.066406 40.253906 26.328125 C 39.960938 25.882813 39.675781 25.714844 39.375 25.460938 C 40.078125 23.230469 41 19.785156 41 16 C 41 13.929688 40.492188 10.9375 38.679688 8.683594 L 39.027344 5.789063 C 39.054688 5.535156 38.992188 5.285156 38.847656 5.078125 C 38.847656 5.078125 37.859375 3.691406 35.671875 2.4375 C 33.488281 1.183594 30.042969 -0.0351563 25 -0.0351563 Z M 25 2.03125 C 29.714844 2.03125 32.769531 3.152344 34.644531 4.226563 C 36.125 5.078125 36.6875 5.710938 36.921875 6 L 35.53125 17.628906 C 34.71875 17.867188 30.859375 18.96875 25 18.96875 C 21.0625 18.96875 18.285156 18.582031 16.511719 18.203125 C 15.097656 17.90625 14.78125 17.738281 14.542969 17.640625 L 13.082031 5.992188 C 13.316406 5.707031 13.878906 5.078125 15.355469 4.226563 C 17.230469 3.152344 20.285156 2.03125 25 2.03125 Z M 24 6 L 24 10 L 20 10 L 20 12 L 24 12 L 24 16 L 26 16 L 26 12 L 30 12 L 30 10 L 26 10 L 26 6 Z M 38.277344 12.042969 C 38.785156 13.414063 39 14.898438 39 16 C 39 19.707031 37.996094 23.347656 37.316406 25.425781 C 37.175781 25.867188 37.351563 26.34375 37.742188 26.589844 C 37.914063 26.695313 38.304688 27 38.582031 27.421875 C 38.859375 27.847656 39.0625 28.375 38.972656 29.125 C 38.589844 32.34375 36.34375 32.984375 36.34375 32.984375 C 35.972656 33.109375 35.710938 33.4375 35.671875 33.824219 C 35.554688 34.929688 34.707031 37.171875 33.316406 39.261719 C 31.925781 41.351563 30.007813 43.335938 27.902344 44.3125 C 27.738281 44.390625 27.59375 44.515625 27.496094 44.667969 C 26.953125 45.472656 26.046875 46 25 46 C 23.953125 46 23.046875 45.472656 22.507813 44.667969 C 22.40625 44.515625 22.265625 44.394531 22.097656 44.316406 C 19.984375 43.335938 18.046875 41.351563 16.644531 39.261719 C 15.246094 37.171875 14.386719 34.925781 14.269531 33.824219 C 14.230469 33.441406 13.976563 33.117188 13.613281 32.988281 C 13.613281 32.988281 11.371094 32.316406 10.992188 29.085938 L 10.996094 29.085938 C 10.90625 28.332031 11.097656 27.820313 11.371094 27.40625 C 11.644531 26.992188 12.019531 26.699219 12.203125 26.589844 C 12.597656 26.339844 12.769531 25.851563 12.617188 25.410156 C 12.011719 23.667969 11 18.875 11 17.59375 C 11 15.582031 11.265625 13.773438 11.777344 12.183594 L 12.574219 18.5625 C 12.617188 18.914063 12.84375 19.21875 13.167969 19.371094 C 13.167969 19.371094 13.617188 19.558594 14.421875 19.800781 C 14.160156 20.449219 14 21.179688 14 22 C 13.996094 22.359375 14.183594 22.695313 14.496094 22.878906 C 14.808594 23.058594 15.191406 23.058594 15.503906 22.878906 C 15.816406 22.695313 16.003906 22.359375 16 22 C 16 21.261719 16.140625 20.71875 16.375 20.28125 C 18.296875 20.667969 21.109375 21.03125 25 21.03125 C 29.21875 21.03125 32.714844 20.425781 34.777344 19.964844 C 34.90625 20.632813 35 21.3125 35 22 C 34.996094 22.359375 35.183594 22.695313 35.496094 22.878906 C 35.808594 23.058594 36.191406 23.058594 36.503906 22.878906 C 36.816406 22.695313 37.003906 22.359375 37 22 C 37 21.121094 36.878906 20.28125 36.714844 19.46875 C 36.71875 19.464844 36.78125 19.449219 36.78125 19.449219 C 37.167969 19.324219 37.445313 18.988281 37.496094 18.585938 Z M 19.5 27 C 18.671875 27 18 27.671875 18 28.5 C 18 29.328125 18.671875 30 19.5 30 C 20.328125 30 21 29.328125 21 28.5 C 21 27.671875 20.328125 27 19.5 27 Z M 30.5 27 C 29.671875 27 29 27.671875 29 28.5 C 29 29.328125 29.671875 30 30.5 30 C 31.328125 30 32 29.328125 32 28.5 C 32 27.671875 31.328125 27 30.5 27 Z"/></svg>