<svg fill="#000000" xmlns="http://www.w3.org/2000/svg" viewBox="0 0 50 50" width="50px" height="50px"><path d="M 18 5 C 18 8.294472 18.544538 11.153336 14.142578 18.484375 C 13.242211 19.983565 11.980657 20.570398 10.660156 21.412109 C 9.9999058 21.832965 9.3199924 22.32618 8.8046875 23.076172 C 8.2897021 23.825699 7.9929058 24.807183 8 26.003906 C 8 26.003906 8 26.005859 8 26.005859 C 8.00154 27.804501 8.6413079 29.144015 9.6601562 29.912109 C 10.680235 30.681132 11.893249 30.903949 13.044922 31.085938 C 14.196594 31.267926 15.320217 31.401214 16.193359 31.722656 C 17.066501 32.044099 17.668475 32.467009 18.085938 33.40625 L 18.095703 33.427734 L 18.105469 33.447266 C 19.343914 35.924252 22.233333 37 25 37 C 27.766667 37 30.656017 35.924293 31.894531 33.447266 L 31.904297 33.427734 L 31.914062 33.40625 C 32.331525 32.467009 32.933499 32.044099 33.806641 31.722656 C 34.679783 31.401214 35.803406 31.267925 36.955078 31.085938 C 38.106751 30.903948 39.319765 30.681132 40.339844 29.912109 C 41.359853 29.143081 42 27.801923 42 26 C 42 24.803128 41.699379 23.824562 41.183594 23.076172 C 40.667808 22.327781 39.988455 21.834827 39.330078 21.414062 C 38.013325 20.572533 36.758722 19.985118 35.857422 18.484375 C 31.455462 11.153336 32 8.294472 32 5 L 30 5 C 30 8.091528 29.572538 11.904664 34.142578 19.515625 C 35.352278 21.529882 37.09841 22.361139 38.253906 23.099609 C 38.831654 23.468845 39.255785 23.805577 39.535156 24.210938 C 39.814527 24.616296 40 25.114372 40 26 C 40 27.391077 39.657031 27.922678 39.134766 28.316406 C 38.612501 28.710134 37.724781 28.940317 36.642578 29.111328 C 35.560376 29.282339 34.316686 29.403395 33.115234 29.845703 C 31.913783 30.288011 30.732974 31.137991 30.085938 32.59375 L 30.105469 32.552734 C 29.343984 34.075711 27.233333 35 25 35 C 22.766667 35 20.656017 34.075707 19.894531 32.552734 L 19.914062 32.59375 C 19.267027 31.137987 18.086217 30.288011 16.884766 29.845703 C 15.683314 29.403395 14.439624 29.282339 13.357422 29.111328 C 12.275219 28.940317 11.387499 28.710134 10.865234 28.316406 C 10.342969 27.922678 10 27.391077 10 26 L 10 25.996094 L 10 25.994141 C 9.99448 25.109374 10.175711 24.612742 10.453125 24.208984 C 10.730539 23.805227 11.157204 23.468754 11.736328 23.099609 C 12.894577 22.361321 14.646789 21.531435 15.857422 19.515625 C 20.427462 11.904705 20 8.091528 20 5 L 18 5 z M 17.984375 38 A 1.0001 1.0001 0 0 0 17.292969 38.292969 L 14.292969 41.292969 A 1.0001 1.0001 0 1 0 15.707031 42.707031 L 17 41.414062 L 17 47 A 1.0001 1.0001 0 1 0 19 47 L 19 41.414062 L 20.292969 42.707031 A 1.0001 1.0001 0 1 0 21.707031 41.292969 L 18.707031 38.292969 A 1.0001 1.0001 0 0 0 17.984375 38 z M 31.984375 38 A 1.0001 1.0001 0 0 0 31.292969 38.292969 L 28.292969 41.292969 A 1.0001 1.0001 0 1 0 29.707031 42.707031 L 31 41.414062 L 31 47 A 1.0001 1.0001 0 1 0 33 47 L 33 41.414062 L 34.292969 42.707031 A 1.0001 1.0001 0 1 0 35.707031 41.292969 L 32.707031 38.292969 A 1.0001 1.0001 0 0 0 31.984375 38 z"/></svg>