<svg id="Southamerica_Blank" width="355.74" height="588.59" version="1.0" xmlns="http://www.w3.org/2000/svg">
 <style>
 .country {
   fill:#ccc;
   stroke:white;
   stroke-width:1;
 }
 #Peru {}
 #FrenchGuiana {}
 #Bolivia {}
 #Brazil {}
 #Venezuela {}
 #Colombia {}
 #Argentina {}
 #Suriname {}
 #Ecuador {}
 #FalklandIslands {}
 #Paraguay {}
 #Guyana {}
 #Uruguay {}
 #Chile {}
 </style>
 <g id="Peru" class="country" transform="translate(-17.178 -5.4121)">
  <path d="m17.178 153.07c0.997-2.059 1.546-3.468 3.113-5.222 0.7-0.783 1.24-1.722 2.086-2.366 0.613-0.467 1.945-1.093 2.001-1.993 0.994 0.284 2.042 4.348 1.178 4.856-0.629 0.37-1.347 0.037-1.8 0.682-0.517 0.735-0.401 1.737 0.622 1.882-0.845 1.126-0.467 2.838 0.866 1.401 1.17-1.261 1.617-0.663 2.728 0.279 0.952 0.808 2.042-0.417 2.792 0.799 0.77 1.25 0.795 3.32 2.582 3.657 1.509 0.285 1.671 0.47 2.178-1.177 0.405-1.314 1.854-1.642 1.92-2.984 0.089-1.816 0.373-3.46 1.119-5.145 0.383-0.866 0.901-1.491 0.915-2.487 9e-3 -0.632 0.743-2.381 1.101-0.68301 0.241-0.39 0.288-0.8 0.141-1.229-0.058-0.553 0.75-1.151 1.045-1.542 0.768-1.021 1.729-1.778 2.888-2.309 2.522-1.156 5.474-1.581 7.776-3.179 4.842-3.362 8.195-8.395 9.248-14.131 0.394 0.417 0.873 0.583 1.439 0.5-0.713-1.66 0.033-3.129-0.958-4.546-0.39-0.55801-2.329-2.255-2.209-2.944 0.817 0.139 1.77 0.418 2.544-0.041 0.767-0.454 0.524-0.60201 1.389-0.281 1.492 0.553 2.596 1.145 3.626 2.386 1.339 1.615 2.096 2.211 2.737 4.276 0.268 0.861-0.065 1.565 1.122 1.668 1.151 0.1 0.85 0.56 1.646 1.271 1.544 1.381 2.681 0.64601 3.219 3.003 0.417 1.826 0.339 2.265 2.286 2.848 2.098 0.628 0.117 3.076 1.188 4.296 0.581 0.661 1.487 0.886 2.335 0.851 0.529-0.071 1.061-0.118 1.595-0.142 0.708 2e-3 1.535 0.418 2.163 0.396 1.443-0.054 3.152-1.094 3.778-2.353 0.661-1.329 2.487 1.212 3.277 1.273 1.191 0.092 3.03-1.631 3.878-1.01 0.677 0.496 1.274 1.248 1.926 1.695 0.626 0.43 2.098 0.313 2.483 0.722 1.574 1.67 1.598 2.272 0.368 4.22-0.985 1.56-2.899 4.229-3.172 6.044-0.327 2.171 2.174 0.471 3.113 1.291 0.758 0.66101 1.349 1.548 1.885 2.39 0.616 0.965 0.199 2.512-0.684 1.058-0.193 0.24001-0.386 0.48001-0.58 0.72001-1.122-1.524-3.609-2.516-5.024-0.72901-1.613 2.038-5.125 1.5-7.443 2.114-1.214 0.322-1.801 1.67-3.004 2.045-1.264 0.395-0.853 0.902-1.695 1.66-2.018 1.819-3.416 1.297-3.446 4.415-0.011 1.081 0.055 1.987-0.578 2.928-0.603 0.89501-1.323 1.792-1.083 2.939 0.249 1.19 1.275 2.882-0.055 3.8-1.119 0.77101-2.177 1.165-3.094 2.24-0.669 0.784-1.017 1.675-0.803 2.708 0.115 0.5 0.289 0.981 0.521 1.44-0.559 0.243-1.14 0.548-1.561 1.001-1.624 1.748 3.168 3.265 1.201 4.468 1.003 0.655 1.697 1.851 1.909 3.015 0.124 0.681 0.593 0.918 1.085 1.315 0.616 0.496 0.558 1.252 0.965 1.87 0.715 1.083 2.093 1.593 2.595 2.847 0.599 1.495-0.55 2.408-1.371 3.483 1.777 0.93 4.389 0.094 6.154 1.267 1.146 0.761 2.204 2.739 1.766 4.133 2.387 0.3 5.447 0.81701 7.57-0.636 1.34-0.917 3.087-4.232 4.891-4.254-0.211 0.867-0.885 0.911-0.355 1.807 0.562 0.95101-0.378 1.9-0.318 2.986 0.154 2.824 0.251 5.72 0.593 8.527 0.927-0.813 1.554 0.849 2.52 0.755 1.332-0.13 2.266-1.2 3.635-1.167 1.258 0.03 1.994-0.035 2.632 1.152 0.969 1.801 1.963 3.579 2.957 5.368 1.001 1.801 1.979 3.616 3.028 5.39 0.769 1.299 1.419 2.63 7e-3 3.844-1.227 1.055-0.9 2.434-0.763 3.901 0.148 1.594-0.377 3.972 0.177 5.416 0.336 0.87501 1.17 1.7 1.211 2.672 2e-3 0.06-0.833 2.366-0.9 2.427-0.876 0.792-1.539 2.085-1.946 3.19-0.744 2.019 1.39 2.333 1.395 3.902 3e-3 1.114-1.015 2.037-1.223 3.117-0.183 0.95 0.482 2.133 0.83 2.993 0.324 0.8 0.856 2.326 1.859 2.508 0.484 0.088 3.037 0.285 1.486 1.281-1.04 0.668-0.093 2.281-0.75 2.646-1.243 0.692-1.469 2.556-2.422 3.503-0.415 0.413-0.981 0.637-1.318 1.134-0.638 0.941 0.343 0.644 0.808 1.265 1.212 1.622-1.255 1.988-1.732 2.993-0.537 1.129 0.683 2.472-0.073 3.768-0.651 1.116-2.026 1.511-3.241 1.511-1.364 0-2.414-1.019-3.339-1.891-1.091-1.027-2.285-1.508-3.465-2.344-2.094-1.483-1.937-4.181-4.447-5.211-2.971-1.22-4.973-4.122-8.118-4.896-1.472-0.362-2.984-1.379-4.263-2.175-1.531-0.952-3.187-1.271-4.747-2.112-1.527-0.825-2.823-2.085-4.354-2.957-1.722-0.98-3.437-1.941-5.176-2.894-1.469-0.80501-2.354-2.651-3.51-3.84-1.532-1.576-3.691-2.404-4.762-4.36-0.604-1.104-1.373-2.43-2.433-3.095-0.927-0.582 0.304-2.806-1.32-2.526 0.019-0.281 0.09-0.548 0.216-0.8 0.242 0.144 0.482 0.291 0.72 0.44 0.64-3.198-0.743-4.856-2.346-7.476-1.456-2.38-2.445-4.897-4.486-6.832-0.612-0.581-1.237-0.887-1.07-1.682 0.192-0.91501-0.344-1.942-0.781-2.704-0.429-0.749-0.948-1.552-1.613-2.117-0.612-0.521-1.657-0.768-2.046-1.526-0.048-0.397-0.012-0.79101 0.107-1.18-0.121-0.863-0.668-1.851-1.061-2.615-0.753-1.465-1.781-2.763-2.616-4.179-0.787-1.334-1.229-2.932-1.786-4.369-1.3-3.356-3.396-5.94-4.338-9.185-1.287-4.429-5.048-7.125-6.755-11.5-1.953-5.004-5.991-8.57-10.887-10.634-0.431-0.18201-2.046-0.57001-2.101-1.167-0.076-0.832-0.251-2.22 0.944-2.072 2.126 0.264 1.319-1.746 0.631-2.793-0.971-1.477-1.937-2.094-1.988-3.931 0.197-0.23601 0.389-0.47601 0.576-0.72001-0.036-0.28-0.885-1.054-1.074-1.268-0.994-1.12-0.386-1.78-0.802-3.047"/>
 </g>
 <g id="FrenchGuiana" class="country" transform="translate(-17.178 -5.4121)">
  <path d="m220.8 94.097c1.288-0.06 2.316-2.268 2.755-3.237 0.818-1.809 0.012-3.822 1.246-5.47 1.463-1.953 0.119-3.393-1.127-4.948-1.292-1.613-1.24-4.493-1.364-6.461-0.144-2.293 0.19-3.596 1.863-5.193 0.623-0.595 1.399-1.252 1.599-2.131 0.259-1.139 0.553-2.562 2.168-1.952 1.048 0.396 1.767 1.244 2.881 1.549 1.203 0.331 2.664 0.312 3.682 1.126 1.194 0.95701 2.781 4.602 4.656 4.469-0.315 0.462-0.531 0.966-0.649 1.513 0.532-2.396 4.637 1.715 2.3 3.312 1.132-0.417 0.474-1.475 1.038-2.229 0.856-1.146 1.521 1.525 1.587 2.094 0.312 2.698-1.758 5.554-3.161 7.702-1.612 2.468-2.733 4.557-3.784 7.338-0.39 1.032-0.893 1.905-1.76 2.607-0.36 0.292-1.005 0.96401-1.479 1.089-0.781 0.207-1.396-0.418-2.231-0.024 0.344-0.98101-0.271-0.98501-1.008-0.75701-1.03 0.31901-1.91-0.1-2.889-0.431-0.494-0.167-2.415 1.225-2.722 1.59-0.57 0.677-3.224-1.159-3.601-1.556"/>
 </g>
 <g id="Bolivia" class="country" transform="translate(-17.178 -5.4121)">
  <path d="m109.56 208.94c1.907 0.124 3.823 0.289 5.725 0.432 0.872 0.065 0.425 0.21 0.555 0.73 0.235 0.94 1.591-0.023 1.972-0.188 0.44-0.191 1.315-0.373 1.598-0.819 0.435-0.686 0.574-1.656 1.226-2.193 1.444-1.189 2.594 0.728 3.379-1.189 0.683-1.669 2.805-1.748 4.116-2.673 1.221-0.862 1.84-2.643 3.356-3.085 1.809-0.527 3.83-1.384 5.75-1.117 2.125 0.296 1.655 0.488 3.064-0.838 3.055 2.112-0.221 6.135 0.667 8.849 0.222 0.68 0.784 1.069 1.02 1.67 0.264 0.673-0.384 1.367-0.541 1.979-0.467 1.827 1.316 2.811 1.72 4.172 0.291 0.98 0.199 0.866 1.043 1.585 0.523 0.446 0.392 1.557 0.875 1.837 0.65 0.377 1.138-0.086 1.704 0.61 0.663 0.815 1.302 0.886 2.07 1.478 0.105 0.081 0.426 1.057 0.599 1.246 0.514 0.565 1.146 0.666 1.863 0.834 0.974 0.229 1.511 0.627 2.468 0.095 0.785-0.436 1.576-0.23 2.289 0.267 0.579 0.403 1.061 0.93 1.659 1.309 0.826 0.522 0.985-0.562 1.645-0.37 1.245 0.362 1.281 2.699 2.896 2.88 1.411 0.158 2.392 1.276 3.791 1.352 1.94 0.105 2.224 2.98 3.845 3.397 1.333 0.34301 2.614 0.11801 3.927-0.083 1.865-0.285 3.751 1.198 5.298 2.074 2.533 1.435 0.914 2.8 1.828 4.877 1.007 2.289 1.39 4.308 1.885 6.743-0.625-0.018-1.249 5e-3 -1.87 0.07 0.078 1.774 2.339 2.8 2.637 4.707 0.223 1.425 0.068 3.097 0.692 4.424 0.791 1.681 3.87 1.109 5.384 1.259 2.849 0.282 5.806 0.696 8.637 0.049 0.041 1.269-0.701 2.044-0.797 3.189-0.079 0.945 0.305 2.141 0.55 3.054 0.388 1.442 2.072 3.687 3.64 3.979 0.799 0.149 1.219-0.384 1.58 0.624 0.274 0.765 0.638 1.469 0.943 2.225 0.803 1.986 1.844 3.092 1.384 5.246-0.231 1.083-1.139 2.945-0.765 4.054 0.526 1.561-0.588 2.89-1.192 4.393-0.815 2.026-0.857 2.954 0.791 4.344 1.225 1.033-0.74 1.674-1.594 2.303 0.591-1.953-0.693-3.297-2.226-4.275-1.609-1.027-3.714-2.879-5.563-3.295-5.124-1.152-11.162 1.537-16.126 2.415-2.37 0.418-3.658 0.376-4.042 2.956-0.32 2.144-2.154 3.571-2.503 5.651-0.328 1.958 0.727 3.795 0.327 5.817-0.567 2.868-0.782 5.812-1.476 8.652-1.439-1.152-1.178-2.235-3.185-2.158-1.546 0.059-3.319-0.11-4.764 0.46301-1.69 0.67-1.623-1.046-2.54 1.288-0.785 1.997-1.173 3.78-1.392 5.888-2.188-3.046-1.827-5.995-6.033-6.667-1.713-0.274-4.219 0.543-5.744-0.199-1.335-0.65-2.108-2.269-3.633-2.574-0.211 2.168-0.088 2.851-2.267 3.642-1.091 0.397-2.24 2.518-2.889 3.529-0.989 1.542-1.339 2.286-3.339 2.498-0.685 0.072-1.481 0.084-2.117-0.224-1.143-0.554-0.396-1.818-0.764-2.719-0.449-1.098-0.474-2.42-1.076-3.445-0.541-0.921-1.137-1.536-1.439-2.598-0.529-1.861-0.974-4.333-2.055-5.946-0.609-0.909-1.558-1.318-2.195-2.146-0.703-0.91301 0.125-1.835-0.336-2.771-0.392-0.794-1.467-0.848-1.87-1.652-0.451-0.9 0.611-1.512-0.603-2.637 2.14-1.293 1.964-1.091 0.457-3.124-0.219-0.296 0.615-1.564 0.764-1.821 0.751-1.301-0.047-1.708-1.059-2.526-1.985-1.605-2.836-3.045-3.487-5.493-0.294-1.108-1.999-3.941-0.924-4.966-3.285-0.659-2.456-5.902-5.11-6.479 0.121-0.666 0.613-1.022 1.123-1.386 0.782-0.557 1.03-1.467 1.57-2.229 0.468-0.661 0.807-1.265 1.44-1.774 0.096-0.077 0.032-1.27 0.083-1.471 0.161-0.639 1.931-2.359-0.052-2.411-1.463-0.039-1.875-0.391-2.53-1.834-0.434-0.955-1.284-2.487-1.076-3.567 0.198-1.03 1.645-2.469 1.128-3.542-0.812-1.688-2.081-1.999-1.029-4.091 0.678-1.35 1.381-2.363 1.835-3.7 0.539-1.586 0.86-1.522-0.072-3.201-0.856-1.543-0.224-2.783-0.377-4.438-0.124-1.334-0.937-4.07 0.071-5.203 1.001-1.126 1.922-1.892 1.059-3.363-2.443-4.166-5.041-8.384-7.276-12.655"/>
 </g>
 <g id="Brazil" class="country" transform="translate(-17.178 -5.4121)">
  <path d="m74.274 179.35c0.703-0.721 0.385-1.223 1.421-1.715 1.165-0.553-0.16-1.805 0.134-3.061 0.567-2.418 3.182-2.105 4.173-3.761 0.7-1.169 0.105-2.298-0.174-3.491-0.255-1.094 0.313-2.08 0.925-2.942 1.229-1.732-0.076-4.248 1.178-5.77 0.646-0.78501 2.022-0.83601 2.783-1.581 0.675-0.661 0.75-1.394 1.686-1.718 1.205-0.418 1.835-1.625 2.995-2.101 1.074-0.44 2.735-0.41 3.898-0.652 1.382-0.288 2.532-0.222 3.551-1.303 0.164-0.17301 1.632-1.78 1.955-1.239 0.302 0.506 0.891 0.376 1.481 0.294 0.676-0.094 1.404 0.939 1.787 1.459 0.194-0.24 0.387-0.479 0.58-0.72001 1.043 1.719 1.562-1.71 1.652-2.318 0.413-2.774 0.822-5.55 1.104-8.341 0.383-3.788 1.021-7.533 1.554-11.301 0.225-1.591 1.082-3.053 0.704-4.689-0.363-1.573-1.372-2.558-1.422-4.241-0.052-1.739-1.095-2.167-2.385-3.014-1.65-1.083-1.288-2.766-1.288-4.479 0-0.996-0.333-2.248 0.202-3.165 0.303-0.52 2.25-1.134 2.792-0.932 0.875 0.324 1.186-0.80401 2.334-0.195 1.177 0.625 1.588 0.271 1.495-1.088-0.146-2.131-3.402-3.482-5.234-2.243 0.183-1.483-0.511-3.916 0.145-5.259 0.644-1.319 2.978-0.5 3.896-0.5 2.195 0 4.378 0.012 6.569 0.102 0.388 0.016 1.653 0.144 1.77-0.462 0.061-0.314 0.276-1.861 0.772-1.822 0.847 0.066 0.458 2.881 1.994 1.849 0.993-0.667 1.542-1.832 2.386-2.653 1.163-1.132 2.376 0.753 2.86 1.666 0.917 1.728 0.79 2.823 0.599 4.688-0.045 0.439-0.216 1.426 0.583 1.279 1.118-0.206 1.272-0.233 2.152 0.654 1.075 1.083 2.079 2.37 3.497 3.025 1.905 0.87901 2.514-0.978 3.964-1.74 2.73-1.436 1.136 1.99 1.782 2.772 0.71-0.231 1.978-2.076 2.409-2.696 0.734-1.054 1.055-1.641 2.337-2.137 1.072-0.415 1.853-0.665 2.669-1.465 0.58-0.569 1.794-1.596 1.734-0.035 0.856-1.422 1.812-1.942 2.23-3.6 0.33-1.304 0.863-1.386 2.083-1.697 0.414-0.105 2.558-1.233 2.832-1.595 1.501-1.987-0.708-2.523-2.337-2.433-0.799 0.044-1.516-0.065-2.16-0.588-0.379-0.307 0.272-1.394 0.193-1.813-0.422-2.236-2.106-3.634-1.621-6.131 0.351-1.81-1.014-2.386-2.114-3.485-0.63-0.63-2.645-2.906-1.696-3.859 0.65 0.285 0.912 1.277 1.616 1.346 0.963 0.094 2.847-0.62701 3.259 0.785 0.334 1.143 0.668 1.398 1.779 0.843 1.089-0.545 2.304 1.213 3.206 0.356 1.568-1.49 2.656 3.378 4.695 2.857 1.3-0.332 0.088-2.916 0.636-3.775 0.401-0.627 1.48-0.308 2.066-1.009 0.853-1.021 1.721 0.237 2.64 0.143 1.531-0.159 4.425-1.005 4.937-2.384-0.033 0.087 2.094-1.114 1.908-1.156 0.983 0.224 1.572 0.188 2.266-0.68201 1.188-1.488 4.566-3.409 1.872-5.244 1.093-0.165 2.024 0.079 3.128-0.234 0.896-0.255 1.883-0.188 2.305 0.761 0.842 1.89-0.799 3.241-0.684 4.952 0.062 0.909 2.325 0.948 2.92 1.542 0.249 0.249-0.313 0.973-0.1 1.471 0.346 0.80801 0.755 1.537 1.203 2.271 0.496 0.813-2.083 2.843-2.263 3.515-0.18 0.669 0.084 1.461-0.092 2.184-0.323 1.326-1.11 2.58-1.27 3.939-0.236 2.016 0.573 3.284 1.428 4.934 0.396 0.76601-0.154 3.839 1.133 3.756-0.095 0.24-0.192 0.48-0.29 0.72 1.449 0.194 2.431 1.949 3.229 2.972 0.651 0.835 1.906 0.355 2.47 1.245 0.513 0.81 0.773 0.792 1.518 0.38 0.471-0.261 2.2-0.659 1.828-1.418-0.689-1.407 2.818-1.121 3.306-1.288 0.673-0.23 1.199-1.034 1.864-1.367 0.94-0.471 1.549 0.326 2.363-0.656 1.077-1.299 2.262-2.631 3.849-1.469 1.528 1.119 2.832-0.335 4.428 0.097 1.044 0.283 3.488 1.626 3.878-0.149 0.359-1.633-2.287-2.004-1.259-3.472 1.239-1.768 1.84-0.639 3.582-0.723 1.133-0.055 2.073-0.237 3.005-0.634 1.978-0.838 1.521-0.596 3.02 0.648 0.297 0.246 0.204-0.567 0.563-0.011 0.446 0.691 1.098 1.004 1.749 1.497 0.842 0.638 1.678 0.645 2.553 1.122 0.991 0.541 0.6-0.432 1.396-0.592 0.706-0.142 0.901-0.87301 1.474-1.191 0.49-0.272 1.106 0.379 1.627 0.426 0.642 0.058 3.053-0.486 2.589 0.83701 0.708-0.334 1.833 0.5 2.417-0.024 0.825-0.74101 1.863-1.254 2.483-2.208 0.875-1.346 1.595-2.938 2.003-4.49 1.077-4.101 3.959-7.068 6.557-10.342 0.091 0.577 0.335 1.082 0.73 1.513-0.329-0.936-1.115-2.094-0.29-3.024 2.186 1.354 2.469 3.532 2.23 5.904 0.124-0.698 0.191-1.459 0.79-1.944-0.083 3.135 0.242 6.407 1.349 9.356 0.452 1.206 2.308 4.864 0.951 5.979 1.048-0.346 1.223 0.786 1.553 1.473 0.643 1.338 2.162 0.80101 3.277 1.263 2.544 1.055 2.054 4.055-0.15 5.04 0.573-0.162 1.216-0.06 1.66 0.359-0.969 0.96901-2.651 1.839-3.042 3.248-0.202 0.72501-1.027 1.053-1.417 1.646-0.591 0.898-0.852 1.897-1.572 2.726-0.976 1.122-2.23 1.938-3.323 2.932-1.35 1.229-2.054 2.88-3.19 4.282-1.053 1.299-1.44 2.301-1.292 3.973 0.082 0.937-1.646 1.103-1.707 2.39-0.082 1.735-1.35 0.8-2.238 0.771-0.813-0.027-3.369 1.226-3.668 2.007 0.719-0.16701 4.602-0.90501 3.52 0.87 0.735-0.809 1.881-0.735 2.771-1.259 1.039-0.611 1.837-1.275 2.96-1.757 1.462-0.628 3.622-2.449 4.43-3.825 1.892 1.098 0.086 3.939 1.318 5.458 0.495 0.60901 0.018 2.24 0.834 2.481 0.681 0.2 1.86-0.196 1.447 0.992 1.598 0.31301 4.458-2.6 4.75 0.72001-0.143-1.023 0.867-1.213 1.632-1.36 0.382 0.012 0.654-0.159 0.816-0.514 0.297-0.791 1.145-0.497 1.801-0.646-0.852 2.674-1.646 4.421-1.52 7.199 1.22-1.575 0.499-5.002 2.547-5.968 1.363-0.642 1.588-0.833 2.395-2.149 1.332-2.175 1.696-0.56501 3.048 0.268-0.028-0.457-0.145-0.89101-0.35-1.3 0.753-0.052 1.49-0.223 2.23-0.36-0.76-0.382-1.613-0.066-2.38 0.07-0.194-1.051 0.55-1.095 1.139-1.659 0.893-0.85601-0.071-2.757 1.029-3.843 1.296-1.28 0.93-0.201 1.792-0.53801 0.606-0.236 1.875-1.764 2.02-0.22 1.194-1.165 1.261 0.462 2.37 0.069-0.477-0.41-0.588-1.027-0.29-1.58 0.681 0.199 2.306 0.596 1.95 1.65 0.236-0.128 0.476-0.248 0.72-0.36 0.097 0.267 0.193 0.534 0.29 0.80101 0.622-0.49401 0.72-0.49801 0.72 0.35 0.576-0.19 0.98-0.67601 1.01-1.29-0.362 0.93201 0.911 1.106 0.57 2.021 0.089-0.586 0.466-0.964 1.08-0.73-9e-3 0.619-0.416 1.087-1.01 1.23 1.028-0.597 1.964 0.864 2.95-0.07-0.132 1.354 0.868 0.553 1.16-0.15-0.413 1.64 0.963 0.961 0.86 2.021 0.386-0.15401 0.676-0.41701 0.87-0.79001-0.133 0.92801 1.024 0.589 1.22 1.439 0.246-0.234 0.486-0.474 0.72-0.72 0.047 0.539 0.241 1.019 0.58 1.44 0.238-0.192 0.475-0.385 0.71-0.58 0.123 0.72 0.407 1.063 1.08 0.359-0.525 0.375-0.663 0.972-0.28 1.51 0.149-0.554 0.576-0.98 1.149-1.08-0.813 0.732-0.524 2.293 0.221 2.961 0.325-0.609-0.066-1.635 0.756-1.953 1.494-0.58 0.825 0.493 1.544 0.72301-0.042-0.60101 0.316-1.072 0.86-1.29-0.25 0.472-0.37 0.976-0.36 1.51 1.709-1.025-0.224 2.034 1.59 0.931-0.25 0.229-0.49 0.47-0.72 0.72 0.583 0.202 1.116-0.084 1.439-0.57-0.491 1.064 1.239 0.482 0.49 1.909-0.669 1.275-0.354 2.337-2 2.841 0.592-0.372 1.055-0.04 1.22 0.57001 0.042-0.91501 1.049-2.321 1.893-1.134 0.902 1.271-0.678 1.668-1.175 2.623-0.424 0.814-1.178 3.324-0.887 4.207 0.322 0.97701-1.228 1.788-0.55 2.515 0.09-1.373 1.719-1.789 2.3-2.88 0.577-1.084 0.198-2.9 0.826-3.792 0.321-0.458 1.77-1.499 2.239-0.709 0.77 1.296-1.668 1.987-1.834 3.061 0.71-0.457 0.95-0.287 0.72 0.51 0.839-0.406 2.018-3.692 2.45-2.02 0.071-1.154 2.296-1.78 3.16-1.29-0.092-2.272 4.617 0.244 5.452 0.725 0.592 0.341 3.853 1.668 3.908 2.295 0.71-0.463 2.593 0.708 2.24-0.79 0.943 0.209 1.581 0.914 2.44 1.29 0.99 0.432 2.052 0.366 2.88 1.16-0.016-1.385 0.839-1.238 1.915-1.277 2.157-0.077 4.063-0.942 6.26-0.473 4.022 0.858 7.743 4.292 10.878 6.752 1.044 0.819 2.241 0.957 3.107 1.988 0.829 0.98801 1.47 2.092 2.255 3.106 0.885 1.144 2.07 1.654 2.882 2.778 0.867 1.2 2.461 1.332 3.415 2.573 0.958 1.246 2.354 0.742 3.447 1.815 1.265 1.243 3.487 0.74101 5.039 0.54701 3.568-0.44501 6.204 0.889 7.241 4.429 0.402 1.371 1.004 2.736 1.028 4.188 7e-3 0.438-0.365 1.171-0.027 1.339 0.387 0.191 0.602 0.722 0.756 1.09 0.648 1.549 1.747 4.999 0.913 6.633 0.23-0.351 0.443-0.71 0.64-1.08-0.156 1.638 1.041 3.611-0.64 4.82 0.266 0.064 0.529 0.137 0.79 0.22-0.673 1.355 0.393 2.987-0.43 4.215-0.852 1.272-0.216 2.986-0.883 4.322-0.776 1.551-1.045 3.293-1.764 4.868-0.79 1.733-2.512 2.864-3.183 4.665-0.25-0.17801-0.49-0.36801-0.72-0.57001 0.053 0.73001-0.175 1.639-0.87 0.43 0.121 0.46001 0.411 0.70101 0.87 0.72101-1.05 2.071-2.588 4.773-4.327 6.34-0.717 0.646-1.685 0.904-2.415 1.546-0.761 0.669-1.354 1.545-2.258 2.044 0.151-0.61501-0.243-1.048-0.8-1.22-0.069 0.669 0.771 0.88501 0.65 1.51-0.157 0.805-0.852 1.879-1.65 0.87 0.395 0.516 1.325 1.014 0.763 1.792-0.325 0.451-1.682 1.945-1.133 0.288-0.451 0.717-0.357 1.62-1 2.24 0.289-0.09 0.576-0.187 0.86-0.29-1.584 2.261-4.102 13.653-8.21 12.96 0.756-1.722-0.991-2.043-1.51-3.391-0.034 0.781-0.897 2.976-1.58 1.301 0.212 0.70101 1.296 0.98901 1.264 1.744-0.058 1.327-1.735 2.274-1.264 3.726-1.154-0.78-0.917 1.208-0.939 2.02 0.083-0.372 0.202-0.73201 0.359-1.079 0.387 1.01 0.396 1.885 0.36 2.949-0.28-0.222-0.543-0.462-0.79-0.72 0.625 0.529 1.184 2.239 0.94 3.03 0.196-0.504 0.386-1.011 0.57-1.521 0.099 3.029-0.866 5.774-0.429 8.848 0.375 2.637 1.522 5.398 1.653 8.027 0.232 4.668-2.698 9.016-1.4 13.804 0.725 2.67-0.964 2.998-2.108 5.005-1.319 2.313-1.521 5.187-1.191 7.782 0.235 1.852 1.332 5.583-0.86 6.546-2.067 0.909-0.407 4.955-2.864 5.287 1.745 1.544-1.21 3.478-2.207 4.428-0.854 0.81401-0.607 1.428-0.909 2.52-0.445 1.611-1.178 3.063-0.919 4.78 0.135 0.893 0.782 2.288 0.112 3.103-1.105 1.345-2.795 1.303-4.184 2.132-0.942 0.563-1.913 1.612-2.336 2.628-0.274 0.657 0.045 1.266 0.236 1.893 0.197 0.643-0.63 0.978-0.303 1.697-0.983-1.088-3.803-0.543-5.04-0.285-0.724 0.151-1.887 0.55-2.59 0.145-1.043-0.601-0.302-1.614-0.36-2.52-2.316 0.271-0.415 1.237-0.724 2.402-0.306 1.153-4.934 0.706-5.977 1.268 0.707-0.754 1.928-0.416 2.81-0.72-0.948-0.847-2.008-1.308-3.183-0.592-1.043 0.635-1.511 0.13-2.589 0.252-0.782 0.088-2.082 0.178-2.355 1.106-0.255 0.86501 1.079 1.246 1.578 1.614-1.137 0.928-2.651-0.048-3.395 1.049-0.64 0.944-1.667 1.056-2.552 1.671-0.782 0.542 0.181 1.377-0.603 1.891-1.084 0.711-2.931-1.302-4.471 0-0.162 0.137-1.229 2.097-1.612 1.613-0.334-0.42-0.071-1.037-0.908-0.89401 0.441 1.309-1.253 1.459-2.193 2.086-1.154 0.77-1.687 1.865-2.598 2.854-0.993 1.076-2.521 1.376-3.597 2.346-0.918 0.83-1.442 2.087-2.483 2.784 0.239 0.14801 0.479 0.29501 0.72 0.44001-0.808 0.836-1.614 1.81-2.09 2.88-0.074-0.545 0.069-1.024 0.43-1.439-0.752 0.322-1.531 0.115-2.23-0.221 0.325 1.494-0.506 2.358-1.94 1.15-0.015 0.86101 2.02 1.747 2.8 1.66-0.538 0.5-0.725 1.176-0.86 1.87-0.107 0.55401-1.227 0.378-1.58 0.65001 0.482-0.015 0.962 8e-3 1.44 0.07-0.217 0.681 0.064 1.379-0.134 2.057-0.233 0.797-1.081 0.934-1.306 0.033 0.278 0.589 0.15 1.39 0.803 1.67 0.854 0.366 0.355 2.177 0.557 2.87 0.322 1.104 1.691 2.721 1.08 4.1 1.056-0.251 0.948 0.995 0.08 1.15 0.951 0.726 0.208 3.801 0.969 5.073 0.713 1.192-0.552 4.154-0.609 5.367-0.378-0.277-0.691-0.614-0.94-1.011 0.259 0.617 0.236 1.35 1.01 1.591-0.804 1.134-2.082 1.811-3.112 2.707-1.097 0.95501-1.855 2.233-2.534 3.501-1.651 3.085-2.133 6.373-3.01 9.713-0.823 3.137-2.38 5.985-4.188 8.653-1.741 2.569-4.273 4.404-6.307 6.745 0.362-0.928-0.155-2.06-0.36-2.96 1.06 0.291 1.478 0.383 2.417-0.27 0.835-0.58 1.301-1.914 2.056-2.338 1.043-0.586 1.219-1.072 1.215-2.277-3e-3 -0.77701 0.135-2.139 1.083-1.016-0.355-1.143 0.181-1.577 0.853-2.374 0.551-0.654 0.667-1.405 0.546-2.234-0.087-0.602-0.726-2.616 0.61-1.371 0.033-0.313-0.396-2.244-0.893-2.073-0.316 0.108-2.045 1.411-2.057 1.793-0.475-0.538-0.747-1.179-1.452-1.43-0.832-0.296-0.672-1.48-1.429-1.88-0.066 1.97 0.868 1.892 1.65 3.31-1.653 0.404-0.451 2.314-0.57 3.38-0.115-0.526-0.331-1.005-0.649-1.439-0.237 0.681 0.407 1.555 0.066 2.125-0.151 0.253-0.682 0.206-0.608 0.599 0.311 1.639-1.084 2.514-2.246 3.177-0.917 0.523-0.55 1.667-0.813 2.528-0.221 0.72201-2.041 2.487-0.29 2.66-0.93 0.579-0.269 1.855 0.65 1.149 0.148 0.917-0.528 1.769-0.898 2.542-0.605 1.267-0.559 2.795-0.752 4.158-0.38 2.685-2.019 4.286-3.41 6.462-1.131 1.769-2.738 1.382-2.971-0.65801-0.102-0.895-0.441-1.918-0.415-2.801 0.034-1.118 1.313-2.059 1.756-3.021 0.704-1.529-1.204-2.1-2.214-2.568-1.176-0.545-1.764-1.504-2.368-2.594-1.322-2.387-3.594-2.386-5.533-3.953-1.022-0.827-1.577-2.145-2.845-2.677-0.509-0.085-1.015-0.182-1.52-0.29-0.575-0.275-0.794-0.957-1.37-1.22-0.889-0.40601-1.34 0.077-2.158-0.99501-0.87-1.14-1.674-2.365-3.162-2.755 0.573 1.239-2.352 3.177-2.491 0.71501-0.117-2.083-2.592-3.421-4.064-4.531-1.093-0.824-3.411-3.656-5.059-2.462-0.549 0.398-0.392 1.417-1.288 1.327-1.037-0.104-1.843 0.109-2.578-0.81 1.546-0.611 1.611-2.767 2.912-3.764 1.469-1.125 2.166-2.803 2.708-4.474 0.612-1.882 2.23-3.295 3.151-5.023 0.467-0.875 1.378-3.33 2.599-2.07 0.292-0.586 0.031-1.098-0.57-1.301 0.971-1.175 2.141-2.351 3.479-3.101 1.369-0.768 1.55-1.561 2.489-2.579 0.947-1.028 2.118-1.277 3.29-1.875 0.856-0.438 2.398-2.386 3.483-1.875 0.248-1.777 0.186-3.205 0.138-4.979-0.058-2.152-0.265-3.283-0.995-5.289-0.517-1.418-0.842-3.054-2.421-3.614-0.912-0.324-2.64-0.453-2.842 0.852-0.853-0.54-1.953-1.051-1.596-2.276 0.497-1.698 0.633-2.819 0.828-4.566 0.134-1.198-0.168-2.854 0.369-3.95 0.56-1.144-1.251-2.244 0.039-3.177-0.883-0.604-1.593-1.803-2.74-1.939-1.206-0.144-2.039 1.008-3.09 1.359-2.898 0.969-3.634-1.937-4.25-4.17-0.37-1.341-0.709-2.809-0.957-4.175-0.229-1.268-0.049-2.721-1.068-3.659-0.953-0.877-0.41-2.18-1.96-2.588-1.21-0.318-2.286-0.22-3.277-1.125-0.961-0.877-1.545-0.304-2.362 0.443-0.828 0.757-1.984 0.238-2.936 0.116-1.37-0.176-2.801-0.161-4.03-0.83-0.654-0.356-2.824 0.266-3.022-0.565-0.203-0.84901 0.081-1.742 0.031-2.598-0.047-0.799-0.589-1.929-0.287-2.706 0.531-1.369-0.035-2.614 0.246-3.935 0.215-1.014-1.573-1.426-0.609-2.568-0.833-0.052-1.002-0.892-1.068-1.561-0.106-1.072-0.672-1.328-1.257-2.147-1.315-1.84 3.289-1.883 1.419-3.327-2.262-1.746-1.496-3.095-0.427-5.542 0.289-0.661 1.336-1.905 0.986-2.536-0.593-1.069-0.171-1.986 0.103-3.18 0.221-0.96501 0.899-2.414 0.814-3.389-0.087-0.99501-1.129-1.714-1.51-2.59-0.464-1.064-0.542-3.328-1.813-3.452-1.705-0.167-3.698-1.423-4.26-3.144-0.374-1.145-0.839-2.518-0.874-3.729-0.035-1.21 0.868-2.226 0.827-3.496-2.433 0.556-4.97 0.293-7.423 0.042-1.557-0.159-5.15 0.313-6.271-0.93701-1.022-1.141-0.782-3.419-1.024-4.838-0.322-1.886-2.557-2.993-2.632-4.707 0.622-0.065 1.245-0.088 1.87-0.07-0.421-2.075-0.554-4.25-1.498-6.182-0.364-0.74501-0.849-1.276-0.662-2.151 0.212-0.994 0.365-1.626-0.406-2.441-2.549-2.692-6.367-3.401-9.808-2.62-0.961 0.218-2.658-2.334-3.125-2.961-0.511-0.68401-0.875-0.361-1.552-0.415-0.61-0.049-1.984-0.90401-2.414-1.333-0.382-0.382-1.056-0.032-1.51-0.347-0.693-0.482-1.069-1.423-1.559-2.083-0.637-0.857-0.9-0.698-1.766-0.312-1.019 0.455-1.43-0.661-2.122-1.115-1.797-1.183-2.451 0.144-4.275-0.285-2.09-0.49-2.294-0.652-3.431-2.249-0.536-0.753-2.41-2.005-3.293-2.097-0.866-0.09-0.602-1.322-1.12-1.897-0.377-0.417-1.236-0.343-1.229-0.995 0.014-1.419-1.324-2.249-1.482-3.858-0.086-0.87501 0.625-1.831 0.443-2.612-0.163-0.702-0.969-0.846-1.088-1.663-0.095-0.657-0.05-1.343-0.22-1.99-0.227-0.86001 0.721-1.458 0.865-2.235 0.276-1.487 0.075-4.009-1.3-4.96-0.334 0.314-0.618 1.119-1.171 1.075-1.384-0.111-2.449-0.097-3.844 0.063-1.528 0.175-4.131 0.225-5.065 1.702-1.348 2.13-3.299 2.125-5.064 3.564-0.52 0.42401-1.326 1.082-1.452 1.791-0.195 1.101-1.316 0.22-1.957 0.158-1.016-0.1-1.452 0.993-1.78 1.738-0.451 1.025-1.355 1.582-2.352 2.032-0.265 0.12-2.038 0.723-1.917-0.11 0.154-1.061-1.067-0.842-1.846-0.864-2.029-0.059-5.066-0.962-7-0.372-0.995 0.304-1.924 1.391-3.053 1.043-0.673-0.207-1.587-1.296-2.311-0.66-0.322-2.636-0.225-5.303-0.556-7.934-0.16-1.271 0.125-1.67 0.5-2.757 0.021-0.352-0.085-0.66701-0.32-0.94501-0.372-0.722 0.298-1.037 0.456-1.684-1.895 0.023-3.65 3.036-4.918 4.166-1.923 1.711-5.237 1.014-7.542 0.724 0.392-1.246-0.6-3.302-1.525-4.097-1.657-1.423-4.582-0.354-6.395-1.302 2.109-2.763 1.422-3.544-0.849-5.875-0.484-0.497-0.54-0.971-0.739-1.605-0.212-0.674-0.978-0.847-1.39-1.37-0.949-1.202-0.729-2.716-2.206-3.681 1.509-0.914-1.237-2.721-1.718-3.446"/>
  <g id="BrazilNorthIslands" class="part">
   <path d="m237.36 127.44c0.72-0.143 1.353-0.577 1.87-1.08-0.794-0.115-1.659 0.242-1.87 1.08"/>
   <path d="m239.09 128.44c0.584-0.65301 1.517-0.503 2.15-1.08-0.668-1.095-2.582-0.07-2.15 1.08"/>
   <path d="m241.32 127c1.971-0.483 6.736-5.188 5.597-7.432-1.163-2.29-3.39 0.793-3.684 2.014-0.215 0.896 0.174 1.854-0.726 2.447-0.975 0.64101-1.7 1.724-1.187 2.971"/>
   <path d="m245.21 118.44c0.746-0.499 2.766-1.862 1.8-2.96-1.04 0.545-1.453 1.933-1.8 2.96"/>
   <path d="m245.28 124.77c1.071-0.37501 1.916-1.916 1.22-2.949-0.013 1.16-1.233 1.802-1.22 2.949"/>
   <path d="m248.37 121.75c-0.823 0.275-1.43 1.022-1.58 1.87 0.999-0.242 1.23-1.35 2.021-1.87h-0.441"/>
   <path d="m247.29 118.94c0.323-0.708 0.469-1.507 1.3-1.8-1.119-1.111-1.579 1.022-1.3 1.8"/>
   <path d="m247.15 122.54c0.651-0.726 1.072-1.661 1.857-2.268 0.439-0.34 0.689-1.256-0.189-0.944-0.955 0.34-1.75 2.273-1.668 3.212"/>
   <path d="m247.65 119.01c0.58-0.174 1.042-0.644 0.79-1.29-0.514 0.23701-0.865 0.70201-0.79 1.29"/>
   <path d="m249.24 116.71c0.53-0.574 1.227-0.948 1.754-1.525 0.66-0.72501-0.457-0.99001-0.958-0.76101-1.025 0.46601-3.012 1.847-0.796 2.286"/>
   <path d="m248.3 119.23c0.611-0.324 1.908-0.783 1.44-1.729-0.933 0.069-1.053 1.091-1.44 1.729"/>
   <path d="m248.66 121.53c0.373-0.217 0.636-0.52601 0.79-0.93001-0.605-2e-3 -0.932 0.315-0.79 0.93001"/>
   <path d="m248.88 114.19c0.023 0.144 0.046 0.287 0.07 0.43101 0.565-0.071 1.045-0.31101 1.44-0.72001-0.537-0.396-1.131-0.213-1.51 0.289"/>
   <path d="m249.88 126.93c0.535 0.862 0.897 1.863 1.621 2.598 0.545 0.554 2.784 0.719 1.629 0.072 1.025 0.117 2.303-0.49 3.253-0.214 0.672 0.195 1.658 0.736 1.427-0.506 0.152 0.272 0.319 0.536 0.5 0.79 0.708-0.48 1.434-1.163 1.44-2.09 0.403 1.495 2.97 0.42601 3.79-1e-3 1.496-0.778 1.452-2.35 2.32-3.636 0.836-1.239 1.1-2.479 1.384-3.925 0.267-1.357 1.849-3.662-0.523-3.808-1.855-0.114-4.198-1.271-5.96-0.51-0.777 0.336 0.083 0.667-1.152 0.613-1.085-0.047-1.972-0.194-3.029-0.473-1.931-0.509-4.451-1.371-5.728 0.788-0.703 1.188-0.763 3.076 0.838 3.533-0.581-0.125-1.158-0.269-1.73-0.431-0.238 0.663 0.246 0.966 0.21 1.591-0.041 0.72-0.621 1.267-0.237 2.036 0.419 0.84 1.621-0.264 2.257-0.096-0.984 1.659-0.773 0.469-2.52 0.72 0.385 0.89401 0.253 2.005 0.21 2.949"/>
   <path d="m251.47 114.19c0.961 0.71201 0.946-0.32 0.632-0.952-0.725-1.457-1.497 0.094-0.632 0.952"/>
   <path d="m252.41 112.75c0.725-1.075 1.273-2.34 0.28-3.46-0.448 0.875-1.303 3.173-0.28 3.46"/>
   <path d="m252.19 95.897c0.167-0.24 0.333-0.48 0.5-0.72-0.801-0.23-0.968 0.011-0.5 0.72"/>
   <path d="m252.84 97.984c1.108-0.54701 0.535-1.509 0-2.231-1.084 0.502-0.504 1.552 0 2.231"/>
   <path d="m255.21 114.19c0.698 1.412 2.07-0.825 2.656-1.428 1.53-1.576-1.203-1.303-2.048-1.039-0.834 0.26-2.712 0.342-2.998 1.386-0.241 0.881 1.907 1.02 2.39 1.081"/>
   <path d="m253.84 111.24c0.404-0.326 2.35-1.811 1.615-2.435-1.174-0.99701-2.501 1.528-1.615 2.435"/>
   <path d="m253.92 112.24c0.454-0.192 0.837-0.479 1.15-0.86-0.607-0.092-1.014 0.302-1.15 0.86"/>
   <path d="m253.92 107.78c0.718-0.022 1.604-0.226 1.51-1.149-0.763-0.222-1.77 0.197-1.51 1.149"/>
   <path d="m255.64 106.19c0.456-0.269 0.529-0.625 0.22-1.069-0.435 0.275-0.508 0.631-0.22 1.069"/>
   <path d="m257.59 114.19c-1.031 1.581 1.511 1.277 2.314 1.008 1.417-0.475-1.086-2.228-2.314-1.008"/>
   <path d="m263.78 129.81c0.239-0.625 0.382-1.272 0.43-1.939-0.898 0.31501-1.375 1.316-0.43 1.939"/>
   <path d="m267.6 124.27c1.948 1.908 0.423-2.321 0 0"/>
   <path d="m273.36 120.16c0.76 0.347 0.029-0.752 0-0.79v0.79"/>
   <path d="m279.55 342.21c0.218 0.215 0.435 0.431 0.65 0.649 0.252-0.703 0.528-1.454-0.07-2.09-0.407 0.395-0.6 0.87601-0.58 1.441"/>
   <path d="m282.43 123.04c0.395-0.108 0.588-0.371 0.58-0.79-0.77-0.166-0.963 0.097-0.58 0.79"/>
  </g>
  <g id="BrazilSouthIslands" class="part">
   <path d="m282 354.96c0.651-0.90001 1.231-2.701 0.43-3.681-1.052 0.631-0.539 2.725-0.43 3.681"/>
  </g>
  <g id="BrazilSoutheastIslands" class="part">
   <path d="m302.73 321.62c0.104-0.66701-0.446-1.112-0.14-1.8-0.915-0.196-1.224 0.749-1.37 1.439 0.547-0.063 1.05 0.057 1.51 0.361"/>
   <path d="m309 315.14c0.591-0.086 1.108-0.452 1.44-0.93901-0.696-0.496-1.781 5e-3 -1.44 0.93901"/>
  </g>
  <g id="BrazilEastIslands" class="part">
   <path d="m304.1 134.56c0.217-0.24 0.433-0.48 0.65-0.72-0.767-0.07-0.984 0.169-0.65 0.72"/>
   <path d="m294.09 126.36c0.556-0.202 0.864-0.653 0.58-1.229-0.278 0.818-0.471 0.985-0.58 0.5v0.729"/>
   <path d="m295.82 128.66c0.263-0.097 0.527-0.193 0.79-0.29-0.688-0.45501-0.952-0.358-0.79 0.29"/>
   <path d="m297.41 140.76c0.469-0.945 0.824-1.887 0.79-2.96-1.143 0.48601-0.744 2.009-0.79 2.96"/>
   <path d="m343.41 231.62c1.083-2.827-1.857-0.52501 0 0"/>
   <path d="m344.42 227.88c0.549-0.523 1.896-1.392 0.79-2.16 0.182 0.886-0.833 1.308-0.79 2.16"/>
   <path d="m344.42 227.01c0.263-0.059 0.241-0.054 0 0"/>
   <path d="m356.09 210.52c0.294-0.409 0.484-0.862 0.57-1.359-0.211 0.444-0.401 0.897-0.57 1.359"/>
   <path d="m372.5 181.36c0.073 0.17 0.147 0.34 0.22 0.511 0.331-0.73901 0.257-0.90901-0.22-0.511"/>
   <path d="m365.52 198.43c-0.229-0.184-0.423-0.4-0.58-0.65001 0.193 0.21601 0.386 0.43301 0.58 0.65001"/>
  </g>
 </g>
 <g id="Venezuela" class="country" transform="translate(-17.178 -5.4121)">
  <path d="m79.674 34.841c1.97-2.324 2.956-4.818 3.577-7.748 0.596-2.809 1.535-4.847 2.999-7.303 1.193-2 3.256-2.59 4.4-4.688 1.304-2.39 3.956-2.129 6.087-3.444-0.868 2.118-3.57 0.649-4.824 2.159-1.068 1.286 0.428 4.349 1.8 4.896-1.241-0.062-0.044 2.691 0.076 3.211 0.368 1.599-1.169 3.218-2.234 4.226-1.387 1.312-2.063 2.907-1.204 4.629 0.333 0.66601 0.444 1.508 1.083 1.981 0.708 0.524 0.822 0.293 0.701 1.245-0.255 2.001 1.28 2.452 2.888 1.538 1.66-0.944 2.317-2.34 2.531-4.183 0.275-2.364-0.787-3.687-1.974-5.616-0.472-0.766-0.887-1.628-1.167-2.485-0.252-0.772 0.405-1.826-0.196-2.457 0.902 0.106 1.684-1.258 2.376-1.656 1.266-0.729 2.451-1.686 3.926-1.945 1.276-0.225 2.296-0.399 3.416-1.074 0.422-0.254 1.678-1.269 2.231-1.012-0.074-0.402-0.264-0.73801-0.57-1.009 0.55 0.224 2.228 1.628 2.8 0.96501 0.388-0.45-0.014-1.556-0.514-1.764-0.855-0.355-2.001 0.453-2.866 0.511 0.169-0.992-0.665-6.251 2.275-5.042 1.338 0.55 1.063 3.454 1.27 4.591 0.459 2.523 3.171 0.848 4.967 1.474 2.01 0.701 4.515 1.243 5.394 3.577 0.538 1.429-0.86 4.635 1.52 5.14 2.831 0.601 6.416-0.71 9.221-1.083 2.405-0.32 4.906-0.833 6.379 1.316 0.61 0.89001 1.464 1.617 2.484 1.976 0.831 0.293 1.693 0.487 2.543 0.712-0.09-0.024 2.79 0.588 1.456 0.588 2.264 1.227 3.341-1.427 5.131-1.593 1.088-0.101 1.337-1.234 2.24-1.656 1.245-0.58 2.665 0.528 3.938-0.206-1.096-1.157-3.672 0.082-4.4-1.368h1.889c0.886 0 1.146-0.546 1.791-0.576 0.318 0.11 0.626 0.242 0.925 0.397 0.882 0.16 1.798 0.051 2.672-0.097 3.734-0.63 7.559 0.074 11.233-0.661-0.574 1.164-2.413 0.945-3.47 1.501-1.658 0.873-3.611-0.513-5.17 0.803 0.502-0.501 1.023-0.434 1.22 0.287-0.616-0.051-1.059 0.336-1.15 0.93701 1.365-0.80501 2.412 0.013 2.382 1.614-0.024 1.268-2.15 0.419-2.812 0.402 0.477 1.779 3.405 0.527 3.1-1.08 0.789 0.112 1.125 1.017 1.189 1.698 0.085 0.90601 0.925 1.926 0.821 2.766 0.561-0.598 0.843-1.427 0.58-2.231 0.724 0.708 0.833 2.076 0.21 2.88 0.765-0.546 0.449-1.617 0.36-2.376 0.392 0.092 0.775 0.212 1.15 0.36-0.074-0.081-2.451-1.349-1.052-1.173 1.328 0.167 3.058 1.561 2.352 3.045 0.316-0.574 0.77-0.523 0.43-1.08 0.535-0.267 1.088-0.314 1.66-0.145-1.219-1.352 0.754-0.133 1.199 0.587 0.817 1.322 2.258 0.78 3.316 1.601 2.825 2.191-0.49 2.201-1.205 4.221 0.228-0.252 0.468-0.492 0.72-0.72 0.199 1.035-0.924 2.83-1.413 3.691-0.302 0.532-0.215 0.988-0.902 0.988-0.608 0-2.469-0.544-2.865 0 0.883 0.5 2.309 0.648 2.81 1.656 0.571-0.74401 1.376-1.272 1.51-0.072 0.827-0.91001 1.447-1.34 2.66-1.584 1.133-0.228 1.573 0.978 2.628-0.039 1.823-1.758 5.105 2.606 4.079 3.124-1.021 0.516-1.608 1.261-2.439 2.052-0.777 0.741-2.123 1.097-2.738 1.748-0.441 0.467-0.8 1.11-1.197 1.622-0.804 1.038 0.368 1.693 0.281 2.82-0.055 0.70101 0.207 1.48 1.02 1.035 0.972-0.531 1.652 0.748 0.917 1.456-0.809 0.779-2.012 1.054-2.795 1.836-0.375 0.375-1.027-0.169-1.413-0.207-0.344-0.034-0.54 0.638-0.873 0.768-3.03 1.184 0.051 3.062-1.553 4.839-0.408 0.45201-2.035 1.475-1.458 2.264 0.981 1.341 1.988 2.698 3.043 3.98 1.251 1.521 3.802 3.929 1.411 5.673-0.808 0.589-1.304 1.505-2.116 2.09-0.45 0.325-2.078 0.126-2.178 0.291-0.438 0.719-1.747 0.557-1.771 1.303-0.028 0.886-1.594 0.896-2.21 1.191-1.177 0.56401-2.624 1.304-3.926 0.65301-0.883-0.441-1.698 0.664-2.617 0.844-1.119 0.221-1.138 1.395-0.876 2.313 0.378 1.326-0.729 2.347-1.842 1.338-0.753-0.684-1.125-1.594-1.815-2.317-0.916-0.961-1.504 0.332-2.401 6e-3 -1.232-0.449-1.692-0.085-2.933-0.218-0.966-0.104-0.75 0.271-1.126-0.917-0.355-1.122-1.801-1.219-2.764-1.027-1.275 0.254-1.238-0.86201-2.23-1.296-0.829 0.83301 0.703 2.71 1.208 3.326 1.453 1.772 2.652 2.09 2.694 4.616 0.014 0.82 0.041 1.633 0.254 2.431 0.27 1.008 1.33 2.045 1.188 3.106-0.241 1.803-0.247 2.596 1.945 2.651 0.635 0.016 3.115-0.449 2.913 0.701-0.375 2.128-1.278 1.28-2.533 2.586-0.662 0.689-2.439 0.521-2.754 1.256-0.357 0.83401-0.099 1.666-0.673 2.474-0.512 0.72-1.191 1.289-1.652 2.052 0.076-1.976-2.667 0.831-3.542 1.15-1.293 0.473-2.221 1.04-3.03 2.165-0.542 0.754-1.672 2.722-2.578 3.018-0.596-0.721 0.172-1.627-0.02-2.41-0.324-1.324-2.269-0.039-2.781 0.33-2.932 2.11-4.839 0.139-6.752-2.374-0.894-1.174-1.132-2.872-1.544-4.247-0.472-1.579-1.627-3.774-1.555-5.427 0.056-1.301-3.2-5.625-4.768-4.446-0.05-1.46 2.091-2.943 3.106-3.742 1.771-1.395 0.59-2.879-0.659-4.308-2.759-3.153-1.818-9.028-1.809-12.814 3e-3 -1.354 0.603-1.692 1.476-2.564 0.588-0.587 0.042-1.71 0.336-2.419 0.321-0.772 1.512-1.219 1.421-2.165-0.129-1.33 1e-3 -1.597-1.416-2.144-1.548-0.598-4.244 0.754-5.975 0.896-1.142 0.094-2.266 0.09-3.399-0.09-1.707-0.271-1.43 0.54901-2.801 0.83901 0.258-0.055-1.709-0.41601-1.51-0.288-0.796-0.50901-1.447-2.138-1.949-2.903-0.709-1.082-1.38-2.148-2.028-3.265-0.332-0.57301-0.798-1.484-1.619-1.236-1.531 0.463-2.223-0.875-3.669-1.026-0.931-0.098-1.626 0.727-2.475 0.943-1.253 0.32-2.429-0.555-3.682-0.325-0.803 0.146-1.28-0.372-2.118 0.051-0.826 0.417-1.929-0.079-2.393-0.835-0.358-0.583-0.467-1.222-0.628-1.867-0.223-0.895-1.544-0.589-1.992-1.229-0.86-1.229 0.242-3.837 0.977-4.85 1.394-1.921-1.418-3.809-2.044-5.201-0.66-1.467 0.059-4.874-2.088-4.319 0.039-0.52-0.033-1.024-0.216-1.513-0.841 0.735-1.727 1.182-2.874 1.149"/>
  <path d="m171.69 40.889c-0.731-0.146-1.479-0.252-2.16-0.576 0.655-0.374 2.12-0.531 2.16 0.576"/>
  <path d="m172.41 39.017c0.434-0.656 1.124-1.483 2.021-1.08-0.297 0.971-1.258 0.798-2.021 1.08"/>
  <path d="m172.63 40.673c-0.193-0.216-0.387-0.432-0.58-0.647 0.52-0.028 1.026-0.124 1.52-0.288-0.035 0.564-0.376 0.903-0.94 0.935"/>
  <path d="m173.28 39.449-0.72-0.288c0.457-0.284 0.937-0.332 1.44-0.145-0.24 0.145-0.48 0.289-0.72 0.433"/>
  <path d="m174.21 39.665c-0.12-0.519 0.147-0.615 0.8-0.288-0.267 0.096-0.534 0.192-0.8 0.288"/>
  <path d="m174.43 37.289h-0.72c0.195-0.532 0.637-0.87 1.22-0.721-0.167 0.241-0.334 0.481-0.5 0.721"/>
  <path d="m174.79 35.417c-0.741-0.233-0.667-0.473 0.221-0.72-0.074 0.241-0.147 0.48-0.221 0.72"/>
  <path d="m174.93 35.777c-0.722 0.342-1.247 0.962-1.87 1.439 0.257-0.813 1.023-1.387 1.87-1.439"/>
  <path d="m175.08 35.345c0.12-0.331 0.359-0.523 0.72-0.576-0.24 0.192-0.479 0.383-0.72 0.576"/>
  <path d="m142.1 20.081-0.72-0.216c0.204-0.237 0.444-0.429 0.72-0.576 0.323 0.315 0.323 0.578 0 0.792"/>
  <path d="m151.39 20.297c-0.186-0.54-3.585-1.289-1.821-1.85 0.937-0.298 0.982 0.701 1.531 0.626 0.911-0.124 1.064-1.201 1.87-1.513 0.489 1.93 0.269 1.733-1.58 2.737"/>
  <path d="m160.96 23.537c0.388 0.458 0.701 0.962 0.94 1.512-0.461-0.327-0.933-0.91401-0.94-1.512"/>
  <path d="m169.96 10.361c-0.768-0.732-0.124-1.668 0.65-2.017 0.29 0.759 0.056 1.587-0.65 2.017"/>
  <path d="m167.3 27.353c0.842-1.256 3.108-1.125 3.625-2.606 0.318-0.91101 0.113-3.013-1.245-2.938 0.962-0.97301 2.597-1.168 3.887-1.287 2.629-0.241 0.408 1.407 0.573 2.943 0.154 1.428 1.032 2.739-0.816 3.417-1.948 0.713-4.084-0.293-6.024 0.471"/>
  <path d="m176.3 17.849c0.152-0.903 0.964-1.459 1.8-1.655 0.057 0.971-1.195 1.214-1.8 1.655"/>
  <path d="m107.25 6.1852c-0.12-0.24-0.24-0.479-0.36-0.72 0.795-0.313 1.129 0.837 1.229 1.368-0.315-0.182-0.605-0.398-0.869-0.648"/>
  <path d="m116.47 10.073c-1.237-0.304-2.921-1.372-2.95-2.809 0.665 0.1 2.768 2.149 2.95 2.809"/>
  <path d="m120.21 10.217c-0.163-0.412 0.081-1.47-0.445-1.681-0.443-0.179-0.638-0.129-0.485-0.76801 0.937 0.70801 2.108 1.24 0.93 2.449"/>
 </g>
 <g id="Colombia" class="country" transform="translate(-17.178 -5.4121)">
  <path d="m34.746 100.51c-0.264-0.072-0.528-0.144-0.792-0.216 0.281-1.72 2.127-2.263 3.528-1.44 0.759-1.468-1.129-2.852-0.381-4.349 0.958-1.921 3.111-1.823 4.917-2.13 0.343-0.058 0.223-0.889 0.69-0.608 0.343 0.206 1.122 0.387 1.127-0.218 0.01-1.207 1.589-2.708 0.631-3.494 1.717-0.046 2.034-2.256 2.54-3.428 0.4-0.92601 1.181-1.567 1.996-2.116-1.014-0.828 0.189-0.953 0.504-1.8-0.707 0.028-1.61 0.61101-1.872-0.432 0.554-0.144 0.96-0.551 0.936-1.152-0.545-0.191-1.651 1.267-1.764 0.144-0.118-1.178 0.554-1.412 1.476-1.873-1.447 0.014-0.786-1.912-0.588-2.704 0.387-1.555 0.047-3.639-0.103-5.223-0.114-1.199-0.646-2.343-0.729-3.538-0.045-0.654 2.047-0.911 1.692-2.438-0.212-0.914-2.315-3.013-0.919-3.542 1.255-0.475 0.178-3.138-0.367-3.746-1.099-1.227-1.234-3.062-2.421-4.096-0.781-0.68-1e-3 -1.537 0.453-2.159 0.548-0.749 0.021-1.726 0.677-2.362 0.361 0.42701 0.625 0.90701 0.792 1.44 1.536-1.075 3.721-3.175 3.011-5.261-0.728-2.137-2.086-2.59-0.779-4.604 0.743 0.961 1.551 2.273 2.192 3.341 0.661 1.102 2.284 1.438 0.832 2.779 1.95 2.238 0.993-4.18 0.717-4.867-0.396-0.99 4.167-3.272 4.75-4.072 0.733-1.007 1.257-2.697 2.482-3.228 0.694-0.3 2.338-0.129 2.728-0.908 0.555-1.107-0.52-1.507-0.294-2.189 0.401-1.213 0.568-2.737 1.281-3.815-1.059-0.108-0.772-0.459-0.053-0.827 0.657-0.336 0.403-1.24 0.385-1.804-0.042-1.324 2.188-1.695 2.188-2.158 0-0.69301 2.716-3.371 3.349-3.354 1.254 0.032 2.313 1.145 3.563 1.159-1.056-0.14-0.906 1.005-1.872 1.008 0.734 2.721 2.34-0.9 2.708-1.881 0.917-2.449 1.999-2.273 4.578-1.843 3.519 0.587 4.639-1.701 7.414-3.364 1.526-0.915 5.965-2.004 4.596-4.647 0.583-0.174 2.232-0.70001 1.296 0.504 1.08-0.165 0.4-1.238 1.584-1.776 1.426-0.647 2.679-0.648 3.897 0.37 4.155 3.473-4.79 4.88-6.13 6.59-0.716 0.91301-0.987 2.246-1.835 3.039-0.589 0.551-1.547 0.445-2.072 1.042-0.989 1.124-2.026 2.84-2.662 4.188-0.949 2.009-0.989 4.071-1.527 6.188-0.53 2.079-2.041 4.578-3.423 6.208 1.147 0.033 2.033-0.41401 2.88-1.152 0.183 0.488 0.255 0.99301 0.216 1.513 2.18-0.563 1.449 3.304 2.555 4.71 1.579 2.008 2.013 3.188 1.089 5.655-0.464 1.24-1.209 3.893 0.468 4.522 1.903 0.713 0.895 2.979 2.853 3.441 0.792 0.187 1.55-0.317 2.324-0.4 1.263-0.136 2.414 0.711 3.682 0.595 1.129-0.103 2.075-0.905 3.227-0.883 1.024 0.02 1.786 1.009 2.754 1.237 0.711 0.167 1.374-0.43 2.023 0.139 0.854 0.74801 1.432 2.116 2.062 3.043 0.584 0.86001 1.12 1.733 1.646 2.627 0.68 1.154 0.961 0.831 1.988 1.128 1.495 0.43301 2.87-0.751 4.819 0.031 0.596 0.23901 1.909-0.415 2.553-0.429 1.411-0.032 2.611 0.08 3.849-0.671 1.402-0.85 3.718 0.822 2.982 2.297-0.421 0.843-1.446 1.49-1.63 2.433-0.227 1.161 0.241 1.77-0.862 2.521-1.469 1.001-0.887 5.025-1.032 6.657-0.173 1.939 0.63 4.001 0.994 6.048 0.274 1.542 3.23 3.579 2.751 5.152-0.59 1.935-4.237 2.69-4.157 5.01 1.322-0.993 4.552 2.641 4.97 3.744-0.092 0.299-0.169 0.601-0.233 0.90701 0.171 0.561 0.705 1.116 0.706 1.717 2e-3 1.249 0.728 2.569 1.037 3.806 0.244 0.979 1.283 3.446 0.03 3.598-1.191 0.144-0.914-1.132-0.817-1.887 0.15-1.178-1.219-6.684-2.944-6.067-0.928 0.332-3.657 5.13-4.407 2.322-0.28-1.045-1.624-1.521-1.476-4e-3 0.167 1.705-1.999 1.081-3.159 1.081h-5.215c-1.15 0-2.392-0.677-3.523-0.178-1.69 0.744-0.345 4.538-0.518 5.938 1.369-0.92501 4.58-0.123 5.196 1.388 0.228 0.559 0.357 2.441-0.709 2.344-0.659-0.06-1.058-0.93601-1.768-0.809-1.567 0.28-4.307 0.711-4.422 2.54-0.14 2.228-0.336 5.346 1.588 6.803 0.971 0.73501 2.104 1.37 2.054 2.76-0.048 1.334 0.631 1.845 1.152 2.971 1.183 2.555-0.349 6.05-0.71 8.663-0.868 6.291-0.727 13.134-2.67 19.207-0.467-1.157-1.384-2.207-2.211-3.124-0.942-1.044-2.063-2e-3 -3.153-0.622-1.011-0.575 1.607-4.547 1.959-5.147 0.687-1.168 2.961-3.534 1.914-4.655-0.453-0.484-1.281-1.784-2.004-1.503-1.226 0.476-2.271-1.389-3.11-1.893-1.411-0.849-1.587-0.144-2.914 0.507-1.256 0.61701-2.549-0.451-3.53-1.091-1.149-0.75-3.157 1.687-4.479 2.202-0.799 0.312-2.381-0.171-3.4-0.039-1.406 0.184-2.077-0.103-3.183-0.96201-0.863-0.671-0.027-2.313-0.337-3.333-0.423-1.392-2.629-0.637-2.876-2.034-0.176-0.995-0.387-2.201-0.787-3.129-0.42-0.975-1.901-0.771-2.502-1.63-0.651-0.931-1.14-0.909-2.011-1.202-1.108-0.372-1.474-2.082-1.558-3.082-0.159-1.906-3.932-4.743-5.707-5.263-0.342-0.101-0.7-0.71101-1.003-0.229-0.328 0.521-0.32 0.742-1.019 0.424-1.041-0.474-2.642-1.035-3.519-1.721-0.681-0.533-4.122-4.657-4.496-1.822-0.194 1.473-5.463-0.262-6.616-0.46801-1.87-0.334-0.494-1.916-1.872-2.505-1.209-0.517-0.674-1.547-2.231-1.566-1.224-0.014-3.429-1.657-4.334-2.405-1.523-1.256-2.972-2.513-4.144-4.114"/>
  <path d="m43.17 91.937c0.506-0.32 0.362-0.56-0.432-0.72001 0.144 0.24001 0.288 0.48001 0.432 0.72001"/>
  <path d="m45.402 86.897c-0.236 0.222-0.452 0.462-0.648 0.721 0.745 0.238 0.961-2e-3 0.648-0.721"/>
  <path d="m46.05 78.041c0.198 0.279 0.414 0.543 0.647 0.792-0.215-0.264-0.431-0.528-0.647-0.792"/>
  <path d="m47.418 69.545 0.144-0.792c-0.048 0.264-0.097 0.528-0.144 0.792"/>
  <path d="m40.938 92.441c-0.193-0.257-0.313-0.545-0.36-0.864 0.489 0.06 0.956 0.498 0.36 0.864"/>
  <path d="m40.938 92.441c0.218 0.173 0.155 0.123 0 0"/>
  <path d="m43.746 91.793c-0.216-0.24-0.432-0.48-0.648-0.72001 0.537 0.088 0.527 0.27901 0.648 0.72001"/>
  <path d="m47.058 76.816c0.267 0.188 0.531 0.38 0.792 0.576-0.475 0.279-0.979 0.351-1.512 0.217 0.157-0.339 0.397-0.604 0.72-0.793"/>
  <path d="m47.489 77.105c0.096 0.072 0.192 0.145 0.288 0.217-0.17 0.027-0.266-0.046-0.288-0.217"/>
  <path d="m73.122 19.217 0.576-0.216-0.576 0.216"/>
 </g>
 <g id="Argentina" class="country" transform="translate(-17.178 -5.4121)">
  <path d="m126.12 367.41c0.137-0.722 0.965-0.898 1.13-1.569 0.224-0.915-0.312-2.269-0.27-3.251 0.119-2.793 1.672-3.945 2.687-6.316 0.66-1.541 0.65-3.124 1-4.731 0.171-0.78701 0.359-1.673 0.81-2.355s1.291-0.133 1.992-0.456c2.98-1.372-0.092-3.184-1.09-4.749-1.136-1.78 0.873-2.892 0.241-4.623-0.45-1.232-3.986-7.556-0.959-7.66-0.306-0.78101-1.928-2.616-1.69-3.385 0.561-1.811 1.733-3.083 3.448-3.845 1.516-0.673 3.96-1.274 4.684-2.95 0.727-1.685 0.604-3.946 0.894-5.739 0.115-0.709 0.604-1.867 0.301-2.576-0.207-0.485-1.475-1.229-1.357-1.742 0.132-0.57501 1.259-2.396 1.726-2.592 1.273-0.535 0.741-1.954 1.938-2.552 2.018-1.009 2.132-1.217 2.368-3.639 1.626 0.326 2.452 1.98 3.908 2.62 1.675 0.736 3.642-0.205 5.391 0.063 4.162 0.636 3.989 3.803 6.111 6.758 0.139-1.336 0.109-2.603 0.646-3.864 0.289-0.68001 0.761-3.104 1.457-3.381 0.53-0.211 1.525-0.103 2.147-0.257 1.145-0.28301 2.46-0.059 3.628-0.059 0.691 0 2.218-0.373 2.437 0.40901 0.296 1.056 2.417 2.314 3.191 3.088 0.893 0.893 1.52 1.015 2.077 2.177 0.438 0.915 1.009 1.827 1.634 2.624 1.446 1.843 3.868 3.143 5.754 4.492 1.081 0.77301 1.601 1.87 2.589 2.691 0.917 0.762 2.185 0.715 3.247 1.136 1.432 0.56801 2.369 0.94401 3.959 0.94401 1.206 0 2.065 1.094 3.061 1.605 2.582 1.328 4.6 3.836 7.453 4.754 0.839 0.271 1.839 0.356 2.512 0.98 0.979 0.91 1.403 0.378 2.405 0.977 0.967 0.578 2.249 0.667 2.974 1.584 0.512 0.648 1.08 1.236 1.586 1.892 0.999 1.293-0.895 2.658-1.149 4.155-0.38 2.229-2.375 2.817-1.914 5.439 0.422 2.4-1.362 3.141-1.883 5.182-0.259 1.017-0.618 0.655-0.07 1.87 1.468-0.571 3.038-0.581 4.567-0.285 2.705 0.523 5.244 2.111 7.893 1.253 0.831-0.269 1.226 1.005 2.083 0.393 0.824-0.588 1.704 0.761 2.377 1.019 0.469-0.98 0.542-2.333 1.87-2.52 1.017-0.143 1.539 1.018 2.42 0.90001 1.397-0.18601 1.177-1.871 1.519-2.803 0.393-1.07 2.659-0.96001 2.546-1.581-0.036-0.197 1.303-2.13 1.46-2.104 0.994 0.161 0.801-2.167 0.919-2.987 0.235-1.636 0.212-3.416-0.209-5.023-0.43-1.638 0.6-1.079 1.495-0.512 0.203-1.305 1.93-1.175 2.842-0.852 1.579 0.56 1.904 2.195 2.421 3.614 0.73 2.006 0.937 3.137 0.995 5.289 0.03 1.122 0.312 2.134 0.142 3.267-0.098 0.57001-0.191 1.141-0.28 1.712-0.357-0.137-0.697-0.101-1.019 0.11-1.193 0.676-1.964 1.576-3.263 2.106-0.649 0.266-2.791 1.011-2.867 1.878-0.117 1.319-1.573 1.439-2.465 2.013-0.519 0.333-0.611 1.055-1.058 1.495-0.652 0.643-1.483 1.119-2.069 1.828 0.601 0.203 0.862 0.715 0.57 1.301-1.324-1.368-3.936 4.077-4.679 5.138-1.295 1.851-1.635 5.623-4.055 6.597-1.089 0.438-1.009 1.91-1.54 2.777-0.281 0.45801-0.718 0.72901-1.247 0.81901 0.298 0.771 0.016 1.296-0.556 1.805-1.626 1.446 0.119 1.914 0.276 3.455 0.078 0.76501-0.544 0.61701-0.58 1.22-0.042 0.711 0.41 1.385 0.478 2.085 0.069 0.70301-0.068 1.477-0.383 2.109-0.638 1.279 0.646 0.468 0.537 1.701-0.138 1.562-1.032 1.855-0.739 3.557 0.251 1.459 1.125 2.006 0.651 3.485-0.428 1.334 0.479 2.974 1.145 4.087 1.16 1.941-1.45 1.232-1.348 2.358 0.134 1.472-0.739 2.966-0.048 4.449 0.387 0.83 3.513 5.321 0.997 5.189 1.141 0.92701 1.264 2.126 2.629 2.979 1.484 0.92801 2.961 1.644 4.547 2.378 2.588 1.199 6.22 3.229 4.816 6.428-1.011 2.305 2.042 6.9501 4.793 5.8051 1.085-0.453 1.564 2.81 1.792 3.394 0.681 1.749-0.491 3.717-1.206 5.286-0.658 1.443-2.344 3.492-2.394 5.086-0.053 1.69 0.111 2.189-1.449 3.303-2.826 2.015-6.069 3.048-9.434 3.727-4.061 0.819-7.996 2.01-12.162 2.199-1.608 0.073-2.957 0.041-4.536-0.102-1.801-0.163-3.02-1.309-4.747-1.533 0.24 0.467 0.563 0.867 0.966 1.202 0.445 0.407-0.046 1.289 0.207 1.795 0.142 0.282 3.424 2.711 1.347 1.903 0.957 0.699 1.413 1.193 1.624 2.385 0.152 0.86 0.283 2.285-1.044 1.575 0.197 0.868 0.445 1.7531 0.413 2.6511-0.025 0.727-0.771 1.358-0.231 2.007 0.394 0.474 0.941 0.803 1.396 1.212 0.693 0.622 0.334 1.629 1.302 1.11-0.59 3.534-4.185 4.07-7.161 4.338-3.947 0.355-7.177-2.311-11.059-2.898 1.607-0.313-0.078-0.897-0.593-0.631-0.678 0.35-1.085 1.219-1.114 1.952-0.081 2.116 2.5 3.651 2.895 5.734 0.321 1.689 0.36 3.781 2.237 4.499 0.958 0.366 3.59 0.571 2.846 2.195 0.4 0.099 4.097 0.512 3.848-0.448-0.203-0.784-1.91-0.815-2.488-1.132 1.23 0.188 1.888-1.08 3.03-1.149 1.177-0.071 2.392 1.568 2.59 2.59 0.184 0.946 1.38 2.337 0.72 3.31-0.457 0.673-2.14 0.883-2.866 0.794-1.209-0.147-1.013-1.521-1.613-2.119-0.983-0.979-2.331-1.375-3.534-0.569-3.186 2.133 2.071 3.87 3.913 3.404-0.154 1.005-1.226 1.334-2.033 1.666-1.594 0.657-1.528 1.38-2.145 2.799-0.641 1.477-0.743 1.979 0.275 3.3601 0.353 0.479 0.847 1.063 0.908 1.686-0.119 0.421-0.127 0.843-0.025 1.267 0.426 0.394 0.651 0.88 0.674 1.458-0.048 0.271 0.088 1.253-0.309 1.359-0.563 0.148-1.336 0.39-1.415 1.096-0.132 1.186 1.667 1.372 1.475 2.305-0.21 1.019-7.369-0.432-5.835 2.165-3.091-0.653-3.91 3.056-4.337 5.31-0.717 3.775 1.761 5.273 4.603 7.194 1.396 0.944 2.602 2.193 4.166 2.879 1.993 0.874 4.405-0.306 6.295 0.813 2.641 1.563 3.044 6.7941-1.076 6.2641 0.759 0.305 1.304-0.37 2.02-0.43 1.088-0.091 1.515 0.653 2.16 1.37-0.63 0.075-0.834 0.443-0.51 1-1.188-0.241-3.579 2.827-4.315 3.556-0.964 0.951-1.707 1.876-2.42 3.042-0.481 0.787-0.949 1.253-0.906 2.224 0.034 0.773 0.113 1.507-0.569 2.059 0.587 0.104 1.048-0.215 1.16-0.8 0.075 2.141 2.428 5.856-0.772 6.878-2.357 0.751-3.113-2.833-5.138-3.198 0.521 0.196 1.895 1.246 1.44 1.94-0.337 0.516-1.721 0.071-2.23 0.5 1.973-0.808 2.809 0.502 4.54 0.87-0.214 1.324-2.303 1.255-2.784 2.724-0.647 1.977 0.744 3.257-0.386 5.266 1.46-1.812 3.575 2.164 4.106 3.204 0.816 1.598-2.498 0.662-3.316 1.336 0.858-0.282 2.877 0.526 3.244 0.311 1.181-0.694 2.095 0.8921 2.995 1.6051 1.746 1.384 3.614 2.392 4.421 4.414-0.424-0.723-1.396-0.689-2.112-0.766-1.283-0.136-2.455-0.832-3.681-1.189-3.089-0.9-6.415-1.285-9.617-1.285h-4.258c-1.194 0-3.709 0.486-4.74-0.158-1.607-1.004-2.958-3.2521-5.042-3.5121 0.656-0.966 0.052-2.536-0.781-3.142-1.102-0.802-0.248-1.852-0.841-2.839-0.366-0.608-1.5-2.188-2.402-1.775-0.706 0.321-1.319-0.133-2.026 0.046-0.524 0.132-0.798 0.76-1.247 1.019-0.948 0.548-2.289-1.969-2.586-2.564-0.591-1.184-2.97-1.995-3.16-3.199-0.1-0.637-0.435-0.655-0.719-1.187-0.225-0.42-0.042-0.957-0.208-1.408-0.235-0.635-0.987-0.867-1.22-1.51-0.262-0.725-0.037-1.489-0.15-2.23 1.202 0.194 1.292-0.507 1.59-1.439 0.17-0.531-0.149-0.965 0.28-1.44 0.381-0.421 1.128-0.124 1.521-0.58 0.775-0.899-0.056-2.364-0.656-3.159-0.691-0.914 1.127-0.984 1.226-1.73 0.109-0.828-1.106-1.874-1.696-2.292-1.199-0.849-1.374-1.391-1.366-2.8351 5e-3 -0.992 0.245-4.51 1.982-4.243-0.351-0.79-1.319-0.866-1.278-1.697 0.026-0.533-0.521-0.961-0.286-1.518 0.167-0.395 0.593-0.593 0.784-0.98 0.784-1.591-1.914-4.062-3.03-4.875 0.978-0.046 1.564-1.91 0.49-2.215-0.767-0.218-2.012-1.984-1.192-2.739 0.697-0.643 0.914-0.213 1.403-1.253 0.414-0.88 0.556-0.9-0.229-1.661-0.69-0.67-1.453-1.289-2.237-1.846-1.111-0.791-2.681 0.041-3.693-1.067-0.859-0.941 4.718-0.538 5.168-1.168-0.249 0.348 0.025-1.833 0.14-1.511-0.845-2.373-4.677 0.048-5.615-2.276-0.235-0.378-0.465-0.76-0.688-1.146-0.16-0.621 0.797-1.174 0.383-1.765-0.527-0.753-1.843-1.1841-1.105-2.0171 0.922-1.041-3.644-1.86-1.993-3.34 0.883-0.792-0.227-1.432-1.034-1.57-1.537-0.263-2.132-0.84-2.61-2.326-0.365-1.135-0.404-2.487-0.799-3.561-0.3-0.814-1.521-1.507-0.358-2.329 0.721-0.509 1.981-0.098 1.071-1.322-0.776-1.045-2.465-2.495-2.317-3.917 0.255-2.461-2.272-4.745-2.697-6.972-0.172-0.903-0.109-2.102 0.301-2.912 0.654-1.293-1.192-1.612-1.398-2.707 1.715 0.577 0.608-1.9101 0.115-2.4791-0.994-1.146-0.708-1.722 0.675-1.771-0.878-0.856-0.427-3.349-0.833-4.537-0.624-1.821 1.202-2.174 2.308-3.178 1.204-1.093-1.408-2.845-1.774-4.19-0.463-1.7-3.098-3.779-2.83-5.457 0.18-1.127-0.95-3.862-1.476-4.941-0.563-1.158-0.855-3.708 0.062-4.712 0.495-0.542 0.941 0.039 1.237-0.618 0.222-0.495 0.171-1.213 0.547-1.63 0.297-0.33 1.085-0.534 1.126-1.027 0.098-1.1751-0.323-2.4201-0.776-3.4811-0.383-0.89596-0.849-1.754-1.285-2.625-0.107-0.215-0.986-0.797-0.987-0.893-7e-3 -0.787 0.969-0.44 1.067-1.332 0.097-0.87601-0.077-1.76-0.162-2.629-0.083-0.847 0.124-4.805 1.411-4.575 1.246 0.222-0.518-2.906-0.623-3.157-0.487-1.165 0.136-5.18-1.236-5.624-0.779-0.252-0.307 1.016-1.377-0.315-0.785-0.97701-0.562-1.448-0.395-2.534 0.131-0.852-0.486-1.163-1.064-1.584-0.748-0.545-0.504-1.061-0.742-1.83-0.522-1.686-2.222-2.733-2.709-4.432 1.61 0.741-0.178-1.461-0.794-1.775-1.472-0.75-1.965-3.167-2.028-4.617-0.077-1.781 1.28-1.121 0.892-3.017-0.284-1.391 1.125-3.93 0.13-5.061 2.434 1.626 1.515-2.577 1.186-3.474-0.482-1.31-2.756-4.781-1.98-6.041"/>
  <path d="m204.88 452.16c0.118-0.505-0.119-0.578-0.71-0.22 0.236 0.074 0.473 0.147 0.71 0.22"/>
  <path d="m206.11 453.67c0.063-0.854-0.814-1.272-1.51-0.87 0.455 0.374 0.958 0.664 1.51 0.87"/>
 </g>
 <g id="Suriname" class="country" transform="translate(-17.178 -5.4121)">
  <path d="m197.25 83.369c-0.823-0.489-2.572-3.461-2.561-4.441 0.015-1.435 2.396-4.097 1.748-5.394-1.203-2.407 1.989-2.513 3.589-2.654 0.916-0.081 2.138-2.179 0.544-2.631 1.624-1.947 0.981-6.21 4.51-5.722 1.111 0.154 7.061 0.672 6.5 2.625 0.777-1.534-0.432-2.602 2.041-2.592 0.915 4e-3 3.801-0.12 3.859 1.297 0.477-0.603 1.403-0.265 2.02-0.289-0.152-0.105-2.143-0.84-1.848-1.042 1.316-0.901 4.756 0.484 6.177 0.723 2.485 0.417 2.374 2.153 1.291 3.992-1.183 2.006-2.811 3.147-2.716 5.695 0.083 2.228-0.158 4.881 0.923 6.911 0.858 1.612 2.981 2.971 1.837 5.047-0.392 0.711-1.004 1.26-1.204 2.075-0.195 0.796 0.205 1.637 6e-3 2.475-0.37 1.562-1.462 3.418-2.58 4.551-0.399 0.404-2.837-1.158-3.115-1.507-0.967-1.217-3.044 0.259-4.435 0.513-1.122 0.205-1.316 0.453-2.321-0.096-1.057-0.577-0.86-0.021-1.446 0.616-1.478 1.605 0.368 1.522 0.683 3.29 0.398 2.231-3.256 0.991-4.127 0.439-0.635-0.402-1.642-0.483-2.131-1.031-0.549-0.614-0.713-1.467-1.054-2.192-0.66-1.405-2.527-3.637-2.529-5.166 0-0.577-0.231-3.746-0.974-3.843-0.531-0.069-1.451 0.678-1.884 0.111-0.423-0.55501-0.14-1.292-0.803-1.76"/>
 </g>
 <g id="Ecuador" class="country" transform="translate(-17.178 -5.4121)">
  <path d="m19.409 133.19c1.541 0.497 1.571-1.807 1.484-2.736-0.069-0.747-0.391-1.307-0.644-2.001-0.428-1.174 0.886-2.051 0.418-3.184-0.511-1.242-1.892-2.9 0.397-3.124 0.955-0.093 1.326-0.477 1.512-1.405 0.241-1.207 0.883-0.93 1.872-1.08-1.672-0.162-1.842-2.333-0.829-3.347 1.541-1.542 2.577-2.628 2.706-4.928 0.037-0.65601-0.941-3.636-0.322-4.007 0.692-0.414 3.387-2.436 3.414-0.458-0.429-1.188 1.045-1.728 1.9-2.02 0.899-0.308 2.825-1.511 2.996-0.36101 0.369-0.936 0.748-1.932 1.368-2.736 2.029 1.854 5.128 5.262 8.123 5.242 0.932-6e-3 0.971 1.128 1.864 1.41 1.196 0.378 0.145 2.767 2.224 2.742 1.56-0.018 2.783 0.73901 4.421 0.76301 0.541 8e-3 1.725 0.699 1.959-0.257 0.074-0.303-0.48-0.60201-0.073-0.80201 1.511-0.742 2.648 0.55201 3.516 1.603 1.342 1.624 3.158 1.668 4.822 2.765-0.87 0.21-1.729 0.067-2.592-0.08-0.104 0.599 1.778 2.401 2.137 2.883 1.076 1.442 0.297 2.897 1.031 4.607-0.566 0.083-1.046-0.083-1.439-0.5-1.053 5.736-4.405 10.769-9.248 14.131-2.322 1.612-5.317 2.068-7.877 3.196-1.295 0.571-2.033 1.416-2.864 2.513-0.315 0.314-0.588 0.661-0.819 1.042-0.169 0.604 0.198 0.941-0.289 1.509-0.49-2.327-1.502 2.202-1.632 2.432-0.787 1.389-1.557 3.356-1.47 4.978 0.104 1.945-1.316 1.872-1.8 3.397-0.496 1.561-0.391 1.849-1.877 1.809-1.797-0.049-2.241-2.039-2.807-3.35-0.73-1.692-1.542-0.376-2.654-0.986-0.778-0.426-1.636-2.032-2.621-1.047-1.337 1.339-2.74 0.97-1.338-0.89301-1.027-0.146-1.245-1.455-0.493-2.072 0.448-0.367 1.256-0.135 1.752-0.53 0.788-0.62701-0.357-4.5-1.259-4.888 1.125-0.584 2.049-0.272 2.737-1.562 0.596-1.116 0.72-2.399 1.084-3.594 0.449-1.471 0.478-1.539-6e-3 -2.905-0.463-1.309-0.627-2.588 0.288-3.75-1.617 0.781-0.587 2.574-0.827 3.903-0.393 2.175-1.892 0.237-0.325 0.127-0.784-0.051-0.852-0.709-0.576-1.29-0.523 0.52801-2.34 2.731-1.944 3.53-1.187-0.814-2.054-2.102-3.324-2.785-0.888-0.478-1.897-0.74901-2.076-1.904"/>
  <g id="EcuadorIslands" class="part">
   <path d="m27.905 137.08c0.272-0.487 0.248-0.967-0.072-1.44-0.173 0.49-0.149 0.97 0.072 1.44"/>
   <path d="m28.266 135.86c-0.098-0.251-0.218-0.491-0.36-0.72 0.12 0.24 0.24 0.481 0.36 0.72"/>
   <path d="m29.274 106.41c0.106 0.153 0.154 0.323 0.144 0.51-0.048-0.17-0.097-0.34-0.144-0.51"/>
   <path d="m26.754 137.3c-0.797 0.087-1.639 0.67601-1.935 1.433-0.106 0.273 0.14 2.144 0.719 1.678 0.199-0.16 0.586-1.144 0.583-1.389-4e-3 -0.417 1.149-0.826 1.424-1.293-0.264-0.142-0.527-0.286-0.791-0.429"/>
  </g>
 </g>
 <path d="m201.31 391.16c-0.065-0.273-0.158-0.537-0.28-0.791 0.094 0.264 0.187 0.528 0.28 0.791"/>
 <g id="FalklandIslands" class="country" transform="translate(-17.178 -5.4121)">
  <path d="m250.17 561.52c0.427-0.138 0.559-0.394 0.394-0.767-0.676-0.942-0.963 0.994-0.963-0.744-1.503 0.225-0.044 1.253 0.569 1.511"/>
  <path d="m254.71 556.84c0.097 0.193 0.193 0.387 0.29 0.58-1.631 0.621-2.934-0.909-4.54-0.79 0.736 0.653 1.36 0.357 1.905 1.231 0.425 0.682 2.124 1.187 2.845 1.429-1.206-0.352-2.286-0.044-3.45 0.29 0.836 1.2241 1.979-0.758 2.95 0.3601-0.593-0.146-0.865 0.126-0.72 0.72-0.191-0.265-0.384-0.528-0.58-0.79-0.036 0.723-0.9 2.084 0.51 1.22-0.439 1.082-2.68 0.952-3.6 1.22 0.374 0.179 3.57 1.553 1.58 0.36 0.439-0.062 1.75 1.458 2.036 0.903 0.451-0.877 1.897-0.504 1.274-1.903 2.014 0.66 2.714-1.58 3.639-2.8991 0.316-0.451 0.733-1.002 0.778-1.573 0.051-0.644-1.459-1.379-1.177 0.083-0.885-0.4-2.82-0.919-3.74-0.441"/>
  <path d="m252.76 556.63c0.398 0.215 0.809 0.238 1.229 0.07-0.155-0.601-0.642-0.875-1.229-0.65 0.265 0.196 0.531 0.39 0.8 0.58h-0.8"/>
  <path d="m254.35 555.98c0.222 0.203 0.486 0.3 0.79 0.29-0.263-0.097-0.527-0.194-0.79-0.29"/>
  <path d="m255.57 555.55c0.416 0.617 1.661 0.554 2.24 0.29-0.734-0.203-1.503-0.112-2.24-0.29"/>
  <path d="m259.24 563.9c0.513-0.456-0.153-0.783-0.57-0.721 0.191 0.241 0.381 0.481 0.57 0.721"/>
  <path d="m259.03 562.75c0.994 0.478 1.731 1.646 2.95 1.58-0.5-0.324-0.774-0.863-0.5-1.44 0.735 0.282 1.431 0.704 2.23 0.79 0.015-0.933-0.951-1.391-1.66-1.72 0.877-0.096 1.438 0.485 2.23 0.487 0.542 2e-3 0.859-0.359 1.44-0.207-0.029-0.984-1.909-1.203-2.44-1.87 1.029 0.614 2.206 0.723 3.371 0.591 0.736-0.083 1.799-0.96 0.729-1.161 1.09 0.171 2.239-0.077 3.24-0.5101-0.291 0.072-2.788-1.026-3.09-1.29 0.753-0.401 1.521 0.107 2.3-0.08-0.687-0.532-3.89-2.472-3.96-0.21 0.612 0.073 1.178 0.397 1.58 0.86-0.853 0.027-3.507-1.659-1.65-1.44-0.766-1.379-2.994-1.276-4.32-1.149 0.434 0.607 0.088 1.162-0.51 1.439 0.562 0.042 0.909 0.35 0.79 0.94-0.27-0.136-0.533-0.282-0.79-0.44 0.238 0.815 1.425 0.944 1.37 1.8801-1.177-1.4531-3.477 1.428-2.59 2.66-0.24 0.097-0.48 0.193-0.72 0.29"/>
  <path d="m266.59 561.96c0.203 0.203 0.443 0.347 0.72 0.43-0.24-0.144-0.48-0.286-0.72-0.43"/>
 </g>
 <g id="Paraguay" class="country" transform="translate(-17.178 -5.4121)">
  <path d="m171.26 306.64c0.699-2.861 1.094-5.846 1.435-8.769 0.188-1.619-0.046-3.119-0.154-4.726-0.104-1.555 0.708-2.919 1.375-4.263 0.951-1.917 0.862-4.666 3.304-5.028 3.025-0.448 6.107-1.078 9.029-1.982 4.753-1.47 8.173-1.119 12.472 1.277 1.71 0.953 4.04 2.205 4.173 4.422 0.08 1.33 1.106 5.402 2.497 5.83-0.893 1.058 0.548 1.442 0.79 2.229 0.183 0.598-2e-3 2.485-0.1 3.166-0.158 0.478-0.248 0.968-0.271 1.471 0.084 0.666 0.561 1.324 0.335 2.019-0.268 0.828-0.34 1.954-0.248 2.813 0.055 0.51 5.223 1.3 6 1.315 1.141 0.021 2.249 0.616 3.361 0.561 1.076-0.055 1.545-2.069 2.621-1.302 1.054 0.75 1.731 1.133 3.034 1.313 0.972 0.134 2.038 0.667 2.224 1.732 0.189 1.086 1.086 1.823 1.24 3.105 0.198 1.644 1.075 3.08 1.265 4.715 0.216 1.865 0.667 5.648 3.219 5.4 1.421-0.138 2.383-1.204 3.739-1.467 1.255-0.244 2.208 1.259 3.1 1.87-0.553 0.4-0.606 0.943-0.313 1.518 0.573 1.125-0.04 1.736 0.256 2.814 0.311 1.132-0.136 2.319-0.342 3.424-0.198 1.066 0.111 2.023-0.454 2.995-0.979 1.682-0.087 5.349 0.098 7.248 0.062 0.63 0.081 4.227-0.783 4.391-0.424 0.08-1.965 1.921-1.788 2.329 0.179 0.413-1.413 0.363-1.644 0.48-0.458 0.232-0.711 0.96901-0.907 1.396-0.179 0.392-1.119 3.149-1.888 2.448-1.915-1.746-3.023-0.26601-3.896 1.556-0.569-0.217-1.005-1.149-1.644-1.149-0.828 0-1.273 0.434-2.072-0.042-0.781-0.466-1.273 0.309-2.043 0.332-0.738 0.022-1.464-0.393-2.16-0.58-2.333-0.62701-4.677-1.639-7.145-1.387-1.169 0.12-1.877 0.94-2.284-0.47-0.078-0.268 0.872-2.292 1.135-2.465 2.49-1.64-0.204-6.074 2.144-7.228 1.088-0.535 1.357-2.77 1.948-3.872 1.067-1.988-0.504-3.49-2.156-4.59-1.347-0.89701-3.144-0.81001-4.283-1.769-0.676-0.57-1.537-0.775-2.383-0.937-1.039-0.198-1.755-1.031-2.635-1.536-1.97-1.13-3.665-2.108-5.469-3.553-1.976-1.582-3.806-1.213-6.022-2.099-1.374-0.54901-4.341-0.89101-4.802-2.629-0.455-1.708-4.339-3.013-5.639-4.184-1.375-1.238-2.217-2.7-3.162-4.253-1.066-1.75-2.923-2.274-4.107-3.889"/>
 </g>
 <g id="Guyana" class="country" transform="translate(-17.178 -5.4121)">
  <path d="m169.82 62.777c1.451-1.594 2.248-2.179 1.743-4.34-0.355-1.518 0.26-2.229 1.721-2.341 0.656-0.051-0.02-0.94 0.933-0.656 1.006 0.302 1.301-0.334 2.187-0.6 0.718-0.215 1.576-0.70801 1.91-1.416 0.273-0.578-0.323-1.642-1.047-1.383-1.806 0.645-0.694-0.96801-1.456-1.965-0.692-0.907 0.199-1.849 0.779-2.564 0.729-0.9 0.756-0.547 1.8-1.08 1.401-0.716 2.01-2.454 3.239-3.157 1.689-0.968 0.475-1.539-0.289-2.891 1.176 1.375 2.745 2.283 4.1 3.456-0.655-1.004-2.009-1.242-2.52-2.376 1.665 0.753 3.407 1.846 4.639 3.211 0.993 1.101 2.253 3.235 3.485 3.953 1.373 0.8 1.729 3.376 1.243 4.73-0.364 1.015-0.89 1.709-1.018 2.825-0.111 0.965-0.135 2.017-0.708 2.85 1.904-0.349 0.466-5.006 3.401-3.964 2.203 0.782 4.91 2.354 5.448 4.899 1.435-1.292 2.451 1.376 2.652 2.403 0.351 1.788-0.332 4.485-1.492 5.877 1.928 0.546-0.217 1.51 0.28 2.52-1.185 0.229-5.308-0.055-4.663 2.158 0.586 2.011-1.026 3.322-1.338 5.296-0.21 1.328 1.204 3.96 2.175 4.859 0.992 0.918 0.329 2.021 1.815 2.231 0.311 0.044 1.118-0.341 1.308-0.044 0.612 0.959 0.691 2.149 0.86 3.24 0.314 2.036 2.432 3.695 2.432 5.697 0 2.034 2.301 1.972 3.03 3.204-2.463 1.577-4.856-1.6-7.214 0.338-0.395 0.32401-0.63 0.76401-0.983 1.123-0.649 0.661-1.47 0.375-2.256 0.648-1.442 0.501-1.506 1.218-3.206 1.24-0.528 7e-3 -0.83 0.418-1.172 0.75501-0.261 0.044-0.501 0.14-0.72 0.288 0.064 0.299 0.103 0.601 0.117 0.907-0.374 0.749-2.458 1.082-3.217 0.822-0.528-0.181-0.187-0.792-0.937-0.798-0.597-5e-3 -1.793-0.45-2.019-1.063-0.363-0.99101-1.782-2.528-2.875-2.675 0.098-0.239 0.195-0.479 0.29-0.72-1.011 0.065-0.894-0.84201-0.771-1.533 0.213-1.202-0.101-1.665-0.826-2.54-1.202-1.45-1.146-4.214-0.773-5.933 0.287-1.325 1.269-2.541 1.275-3.94 5e-3 -1.211 0.342-1.121 1.042-2.143 0.439-0.64 1.375-1.764 0.962-2.527-0.332-0.611-1.2-1.464-1.2-2.193 0-0.702 0.37-1.373-0.439-1.725-0.56-0.243-1.984-0.265-2.327-0.842-0.323-0.54201 0.805-2.172 0.916-2.802 0.185-1.05 0.047-2.264-0.788-3.018-1.247-1.125-3.193 0.646-4.704-0.101-1.797-0.887-4.009-4.438-4.824-6.2"/>
 </g>
 <g id="Uruguay" class="country" transform="translate(-17.178 -5.4121)">
  <path d="m217.13 378.43c0.649-0.91501 1.859-1.738 1.36-3.029 0.963 0.702 1.947 1.228 3.138 0.616 0.655-0.336 0.671-1.363 1.519-1.479 1.556-0.211 3.089 1.691 4.133 2.592 1.37 1.182 3.983 2.194 4.227 4.22 0.088 0.732-0.05 1.949 0.993 1.691 0.752-0.187 2.08-0.887 1.62-1.881 1.269 0.33201 3.718 4.315 4.747 3.944 0.961-0.347 1.144 0.416 1.923 0.902 1.035 0.645 2.058 0.646 2.979 1.587 0.672 0.68801 1.236 1.522 2.053 2.056 1.064 0.695 2.363 0.809 3.349 1.661 1.808 1.562 2.354 3.56 4.615 4.681 2.558 1.268 1.338 2.006 0.122 3.902-0.885 1.38-0.267 4.982 1.112 5.873 0.882 0.568-0.571 3.94-1.167 4.945-0.499 0.84101-2.151 4.372-3.612 3.068 0.771 0.97901-0.94 1.497-1.567 1.75-1.785 0.721-2.388 0.772-4.31 0.368-1.536-0.323-3.18-1.104-4.686-0.345-0.639 0.321-1.337 0.738-2.069 0.804-1.115 0.1-1.047-0.678-1.768-1.066-1.249-0.671-2.829-0.426-4.035-1.157-1.663-1.009-2.32-2.045-4.445-1.937-1.366 0.069-2.459 0.647-3.463-0.469-1.347-1.499-3.388-2.486-4.469-4.201-0.754-1.196-1.942-6.309-0.229-6.78 1.771-0.488 0.456-2.544-0.06-3.477-0.368-0.665-0.643-1.399-0.934-2.099-0.245-0.58701 0.542-1.074 0.251-1.899-0.253-0.72-1.534-2.816-0.914-3.537 1.375-1.597-0.404-2.551 0.182-3.627 0.407-0.748-0.107-4.227 0.062-4.347 1.263-0.89701-0.371-2.146-0.657-3.33"/>
 </g>
 <g id="Chile" class="country" transform="translate(-17.178 -5.4121)">
  <path d="m109.05 272.95c1.585-0.898 3.479-0.089 4.11-2.311 0.291-1.023-1.113-2.525-0.309-3.389 0.191-0.124 0.397-0.157 0.62-0.1 0.644-8e-3 1.21-1.069 1.559-1.481 8e-3 1.25 1.333 1.804 1.673 2.913 0.331 1.077 0.998 1.482 2.067 1.696-0.991 0.944 0.461 3.587 0.803 4.579 0.889 2.583 1.406 4.099 3.608 5.88 1.991 1.61 1.111 2.125 0.252 4.159-0.149 0.354 1.46 1.369 1.454 2.055-9e-3 0.858-1.326 0.93-1.867 1.257 1.079 0.999 0.203 2.076 0.87 3.17 0.332 0.544 1.173 0.395 1.51 0.93 0.46 0.732-0.085 0.799 0 1.521 0.257 2.19 3.241 3.234 3.485 5.76 0.297 3.059 2.346 5.617 3.205 8.49 0.659 2.199 0.647 5 3.787 4 3.246-1.034 3.436 0.987 3.116 3.648-0.245 2.043 0.339 5.316-1.403 6.829-1.759 1.526-4.874 1.136-6.076 3.383-0.446 0.834-1.581 1.247-1.674 2.287-0.083 0.933 1.461 2.559 1.819 3.474-2.273 0.078-0.715 3.696-0.236 4.75 0.419 0.922 0.922 1.802 1.258 2.762 0.517 1.477-0.869 1.806-0.78 3.146 0.124 1.869 3.224 3.941 2.779 5.524-0.269 0.95501-1.908 1.444-2.7 1.049-0.959-0.478-1.162 2.429-1.276 2.89-0.7 2.8-1.549 4.845-3.045 7.284-1.29 2.103 0.216 4.511-0.569 6.727-0.391 1.104-1.389 1.257-0.985 2.65 0.339 1.17 1.171 2.132 1.509 3.294 0.197 0.675 0.209 1.385 0.408 2.059 0.181 0.613 0.738 0.89001 0.924 1.446 0.376 1.124-1.024 2.315-2.037 1.639 0.839 0.953-0.22 2.859-0.22 3.945 0 0.75501 0.754 1.89 0.015 2.539-0.542 0.476-0.944 0.363-1.003 1.349-0.101 1.671 1.087 3.372 1.896 4.754 0.394 0.672 1.236 0.445 1.679 1.074 0.384 0.545 0.179 1.153-0.567 0.80901 0.546 1.904 2.611 3.105 2.958 5.044 0.139 0.777 0.163 1.486 0.968 1.889 1.069 0.535 0.178 1.648 0.394 2.498 0.569 2.244 2.757 0.23 2.729 2.784-0.022 2.023 0.014 3.653 1.121 5.415 0.172 0.274 0.892 2.149-0.099 1.868-0.923-0.262-0.818 0.183-0.793 0.94701 0.027 0.858-0.381 1.651-0.517 2.489-0.165 1.014 0.11 1.995 0.148 3.004 0.041 1.065-0.716 0.84901-0.858 1.492-0.184 0.828 0.281 0.5 0.593 1.126 0.985 1.975 1.458 4.018 2.298 5.983 0.27 0.6311-0.031 1.0721-0.673 1.1441-0.596 0.066-0.688 1.036-0.846 1.468-0.373 1.02-2.33 0.699-1.896 2.125 0.264 0.865-0.391 1.645-0.084 2.533 0.292 0.847 0.982 1.552 1.072 2.471 0.147 1.502 0.585 2.897 0.876 4.332 0.327 1.615 1.961 2.516 2.623 3.938 0.435 0.936 0.55 2.017 1.215 2.843 0.315 0.392 1.318 1.196 1.048 1.824-0.587 1.367-3.169 1.271-2.712 3.186 0.285 1.193 0.079 4.053 0.945 4.897-0.996 0.035-1.656 0.153-1.039 1.284 0.25 0.457 2.335 3.6681 0.249 2.9661 0.208 1.105 1.288 1.151 1.563 1.963 0.22 0.649-0.427 1.327-0.553 1.927-0.405 1.91 1.19 3.092 1.722 4.896 0.438 1.485 0.689 3.362 1.307 4.726 0.612 1.35 1.729 2.388 2.511 3.629-0.577 0.545-1.877 0.293-2.085 1.231-0.183 0.823 1.003 2.133 1.119 3.116 0.131 1.113 0.683 3.396 1.656 4.063 0.879 0.602 2.976 0.184 3.051 1.67 0.064 1.288-1.88 0.339 0.056 1.916 0.389 0.316 0.968 0.758 1.32 1.148 0.785 0.87-0.468 0.579-0.217 1.176 0.241 0.5701 1.07 0.7901 1.404 1.3171 0.521 0.822-0.689 1.347-0.282 2.079 0.518 0.931 0.635 1.844 1.673 2.042 1.4 0.267 3.246-0.271 4.318 0.846 0.283 0.295 0.243 1.849-0.029 2.094-1.026 0.926-2.837-0.013-3.989 0.032-2.507 0.098 0.187 1.621 1.293 1.719 2.365 0.208 5.077 2.681 3.312 4.921-0.233 0.297-0.76-0.06-0.995 0.301-0.411 0.631 0.497 1.574 0.635 2.149 0.127 0.526 0.896 0.478 1.19 0.865 0.481 0.633-0.253 1.761-0.97 1.794 1.018 0.742 3.861 3.322 3.034 4.788-0.388 0.688-1.257 0.854-0.781 1.809 0.135 0.271 0.012 1.207 0.324 1.348 0.535 0.241 0.987 0.575 1.232 1.126-1.103-0.169-2.018 2.751-1.963 3.575 0.064 0.951-0.217 1.8491 0.416 2.6701 0.547 0.711 2.862 2.246 2.584 3.298-0.171 0.647-1.217 0.57-1.397 1.17-0.302 1.005 1.912 1.865 1.05 3.257-0.45 0.726-1.66 0.568-1.967 1.373-0.396 1.033 0.278 2.682-1.603 2.377 0.156 1.015 0.124 2.06 0.717 2.947 0.49 0.734 1.292 2.331 1.384 3.166 0.129 1.18 2.433 1.954 3.09 2.887 0.637 0.903 0.985 2.479 2.075 2.974 0.749 0.341 0.934-0.12 1.492-0.516 0.661-0.469 1.25-0.164 1.974-0.157 1.557 0.016 1.697-0.264 2.686 1.251 0.688 1.055 0.104 2.414 1.099 2.991 0.869 0.504 1.393 2.412 0.826 3.247 1.496 0.187 3.92 2.1431 4.774 3.2821 0.982 1.312 5.345 0.388 6.762 0.388 5.875 0 11.437 1.219 17.114 2.671-1.476 0.027-2.815-0.606-4.24-0.87-2.598-0.481-1.282 0.933-2.09 2.02-0.712 0.958-2.142 0.052-2.978 0.977-1.009 1.116-2.835 0.901-4.152 1.323 0.873 1.157 0.945 2.602 1.239 3.963 0.287 1.328 1.11 2.075 1.733 3.209 1.659 3.018-2.296 1.996-3.803 1.685-1.809-0.375-5.922-1.509-6.616-3.499-0.697-2 3.181-0.854 1.547 0.473 0.93 0.025 0.641-1.107 1-1.595 0.258-0.351 2.295 1.442 1.3 2.395 1.575-0.539-1.296-2.968 1.665-3.493 0.511-0.09 0.624-1.486 0.625-1.849 3e-3 -1.025-1.719-0.809-2.29-1.357 0.041 1.067-1.492 2.046-2.23 2.59-1.253 0.923-2.372-0.507-3.6 0.29 0.894-0.172 1.593 0.603 2.229 1.08-0.52 0.115-1.023 0.064-1.51-0.15 0.195 0.545 0.122 1.052-0.22 1.521 0.909 0.119 1.615 0.761 2.24 1.369-2.175 0.551-5.865-1.812-7.42-3.17 1.073 0.512 2.579 0.458 3.74 0.431-0.187-0.967-2.469-1.04-2.55-2.927-0.049-1.132 1.932-1.592 1.55-0.174 1.261-0.37 1.449-0.251 2.331-1.315 0.894-1.077 3.255 0.522 4.499-0.334-0.798-1.037-6.075-1.788-6.33 0-0.709-0.251-1.217-0.556-0.07-1.011-0.678 0.023-3.406 0.061-2.81 1.37 0.482-0.465 0.986-0.488 1.51-0.069-0.205 0.551-0.661 0.974-1.22 1.149 0.374 0.627 1.521 2.155 0.057 2.282-0.907 0.079-2.921-1.066-1.137-1.562-0.894 0.279-1.586-0.47-2.23-0.94 0.503 0.077 1.007 0.077 1.51 0-0.275-0.128-0.542-0.271-0.8-0.43 0.993-0.603-0.117-1.783 1.23-1.44-1.058-0.387-1.058-0.553 0-0.5-0.503-0.164-1.006-0.164-1.51 0 0.53 0.373 0.662 0.972 0.28 1.51-0.246-0.508-0.721-0.878-1.29-0.939 0.026 0.603-0.321 1.118-0.86 1.37 0.311-0.697 0.094-0.961-0.65-0.79 1.633-1.34-2.303-3.803-2.6-5.04 0.685 0.772 1.894 1.529 2.962 1.479 0.493-0.022 2.396-1.729 1.868 0.251 0.758-0.452 2.197 0.316 1.08-1.01 0.391 1.698-0.65-0.537-0.65-1.37 0.847 0.075 1.589 0.942 2.207 1.44 1.147 0.924 0.426 1.738-0.267 2.66 0.703-0.458 1.493-0.124 2.24-0.07-0.982-0.493-0.242-1.672-1.126-2.201-0.54-0.322-2.345-1.689-0.743-1.899-0.974-0.764-1.407-1.9801-2.497-2.6311-1.167-0.697-2.608-0.721-3.633-1.688-0.189 0.213-0.332 0.453-0.43 0.72 0.91-0.101 5.346 1.063 5.225 2.3001-0.098 1.016-4.649-1.3541-5.295-1.2901 0.459 0.631 1.137 0.495 1.697 0.9381 0.599 0.474 0.214 1.351 1.184 1.363-0.37 0.415-0.61 0.895-0.721 1.439-0.676-0.994-1.183-2.197-2.16-2.9501 0.772 0.9861 1.919 2.3321 1.87 3.6701-1.114-0.982-2.577-1.379-3.16-2.88 0.495 0.372 0.998 0.732 1.51 1.08-0.39-0.685-1.596-1.134-1.37-2.0901-0.467 5e-3 -0.977 0.4681-1.44 0.3601-0.463-0.1071-0.36-0.7901-0.945-0.8951-0.613-0.109-1.401-1.65-1.505-2.196 1.264 0.307 2.036 1.412 3.02 2.16-0.985-1.116-1.594-2.541-2.73-3.529 1.564 1.408 0.373-0.362-0.36-0.511-0.072 0.24-0.146 0.48-0.22 0.721-0.6-0.152-1.126-0.439-1.58-0.86 1.011 1.633-1.391-1.059-1.768-1.394-0.462-0.411 0.687-0.617 0.847-0.643 0.323-0.053 0.647-0.068 0.974-0.049 1.243 0.096-1.185-1.421 0.667-0.365-0.648-0.546-0.6-1.68 0.43-1.66-0.844 0.026-1.775-0.796-1.149-1.649-0.808 0.717-0.066 2.239-0.585 3.1-0.611 1.013-3.142-2.443-3.665-2.74 0.545 0.184 1.048 0.446 1.51 0.79-1.509-1.363 0.127-0.358 0.87-0.43-0.939-0.828-3.007-0.758-3.39-1.94 0 1.668-1.873-0.802-2.88-0.869 1.022-2.026 4.292 1.104 5.91 0.869-1.429-0.329-4.382-1.189-4.61-2.96 1.184-0.063 2.011 1.172 3.24 0.721-0.773 0.047-0.946-0.543-0.649-1.15-0.706 1.726-4.189-0.923-1.73-1.37-0.557 0.143-2.543-0.482-1.407-1.148 1.496-0.876 2.629 0.729 3.928 1.148-0.947-0.577-1.995-1.206-2.8-1.72-0.42-0.269-1.116-0.332-1.08-1.01 0.035-0.658 0.749-0.803 1.22-0.511-0.781-0.371-2.175-3.26-0.58-2.439-0.539-0.351-1.042-0.304-1.51 0.14 0.378 0.361 0.426 3.275 0.149 3.74-1.104-1.076-2.856-3.002-2.768-4.641 0.021-0.382-1.31-1.078-0.694-1.558 0.459-0.357 1.562-0.389 2.092-0.202-0.233-0.172-3.927-0.564-2.579-1.811 0.563-0.521 2 0.229 2.579 0.441-0.604-0.322-0.851-0.915-0.43-1.511-0.497 0.062-3.338-0.177-1.52-0.8-1.772 0.809-2.724-2.482-4.46-1.939-0.267-1.93 2.612 0.328 3.09 0.79-0.33-0.5-0.687-0.98-1.07-1.44 1.348-0.206 2.352 0.465 3.578 0.855 0.521 0.166 1.089-9e-3 1.562 0.33 0.66 0.474 1.493 0.22 2.05 0.685 0.256-0.439 0.209-0.846-0.14-1.22-0.309 1.591-2.715-0.584-2.81-1.44 0.914 0.719 1.982 0.503 3.03 0.79-0.388-0.148-0.789-0.213-1.204-0.195-0.822-0.081-1.211-0.952-1.826-1.385-0.547-0.386-1.051-0.203-1.51-0.7901-0.364-0.466-0.111-1.07-0.57-1.52 0.633 0.846 0.838 2.8541-0.802 2.4631-1.397-0.333-4.301-0.062-5.318-1.0941 0.624-0.159 0.843-0.617 0.43-1.149 1.431-0.38 2.048 1.314 3.311 1.58-1.117-0.214-0.449-1.354 0.43-1.01-0.159-1.315-0.91-0.039-1.717-0.471-0.554-0.297-0.809-1.04-1.522-1.04-0.734 0 0.304-3.374 1.51-1.439-0.211-0.587 3e-3 -0.958 0.65-0.931-0.086-0.361-0.229-0.697-0.43-1.01-0.126 0.918-1 1.202-1.44 0.29 0.47-0.161 0.95-0.281 1.44-0.359-0.475-0.662-1.477-0.791-2.126-1.216-1.355-0.885-1.669-1.335-3.274-0.444 0.577-0.188 1.154 0.032 1.51 0.51-1.201-0.297-2.437-0.52-3.535-1.119-1.928-1.052-0.56-1.517-1.285-2.771-0.699 1.383-3.512 1.57-3.601 2.81 1.31-2.103 3.414 3.175 0.455 0.856-1.944-1.524-0.202-5.499 2.136-4.536-0.696-0.103-0.923-0.569-0.5-1.15 1.191 0.932 0.592-1.275 1.79 0-0.96-0.733 0.334-1.637-0.79-2.3 0.653 2.755-2.789 0.478-0.72 0.57-0.743-0.101-1.602-0.299-1.8-1.15 0.964 0.355 1.866-0.611 2.918-0.411 0.908 0.173 1.082 1.137 1.982 1.201-1.299-0.888 0.094-1.247 0.823-1.342 0.876-0.113 0.61 0.99 1.557 1.062-0.52 0.703 0.594 2.016 0.28 0.5 2.145 0.971-1.073 2.379-2.3 1.8 0.825 0.499 3.494 0.927 4.46 0.86-0.543-0.248-0.89-0.766-0.859-1.37 0.621 0.41 1.37 0.609 1.654 1.385 0.306 0.834-0.585 1.526-0.145 2.365 1.422-0.188 1.84-3.629 1.59-4.68-0.236 0.773-0.423 1.581-0.94 2.229 0.107-1.532-1.999-5.385 1.01-5.33-0.852-0.467-1.715 0.188-2.16 0.87-0.152-0.695-0.63-1.584-0.43-2.31 0.229-0.829 1.158-0.841 1.43-1.65 0.54 0.653 1.33 0.902 2.054 1.274 0.933 0.479 1.182-0.535 0.412-0.466-0.621 0.055-1.006-0.234-1.499-0.544-0.916-0.574-1.941-0.068-2.837-0.555 1.577-1.182-2.183-2.401 0.771-2.734 2.121-0.239 3.054-3.232 1.97-4.896-0.748 1.229-5.327-1.224-5.224-2.413 0.194-0.247 0.449-0.26 0.764-0.037-1.327-1.398 1.35-2.3031 0.5-3.4601-0.238 0.871-1.031 0.892-1.066-0.051-0.043-1.186-0.817-0.733-1.348-1.839-0.459-0.957 0.042-1.34 0.25-2.168 0.119-0.48-0.85-1.888 0.584-1.552-3e-3 -0.874-0.573-0.994-1.052-1.574-0.395-0.479-0.255-1.115-0.562-1.621-1.14-1.881 0.295-0.789 1.463-1.055-1.125-0.152-2.283-1.4-2.59-2.45 1.606-0.57 2.397 0.797 3.17 1.939-0.162-1.503-1.216-3.028-1.95-4.31-1.462 1.371-3.563-0.627-1.773-1.81 1.133-0.75 2.686-1.295 1.204-2.73 0.893 3.946-2.192 1.072-3.96 0.646-1.351-0.324-0.417 1.818-1.162 2.308-1.112 0.731-5.268-0.496-3.019-1.514-3.951-0.084-4.495-6.269-4.926-8.985-0.191-1.205-0.98-3.951-0.427-5.147 0.554-1.1961 1.377-0.143 1.134-1.6741-0.169-1.065 0.268-2.074-1e-3 -3.147-0.406-1.617-0.855-2.498-1.996-4.165-1.161-1.697-2.578-3.263-3.159-5.282-0.358-1.246-5e-3 -2.127-0.961-3.199-0.642-0.721-1.274-1.38-1.743-2.233-0.39-0.711 0.149-1.098-0.111-1.633-0.467-0.961-0.985-1.634-0.839-2.764 0.83 0.616 2.326 1.011 2.766-0.276 0.547-1.6-1.098-2.822-0.536-4.403 0.029 0.568 0.37 0.886 0.94 0.859-0.02-0.401-0.109-0.787-0.266-1.157-0.19-0.727 0.415-1.529 0.406-2.292-0.019-1.517-0.875-2.5231 0.046-3.9561 0.746-1.16-0.608-1.845-0.048-3.225 0.424-1.045 1.227-2.819 1.373-3.91 0.355-2.653-0.773-5.457-0.65-8.069 0.068-1.449 1.416-2.689 1.349-3.978-0.058-1.129-0.953-2.451-1.382-3.492-0.363-0.88101 0.205-2.057 0.539-2.861 0.361-0.869-0.258-2.277-0.365-3.13-0.077-0.616 0.299-1.132-0.148-1.696-0.469-0.592-0.894-1.182-1.142-1.903-0.55-1.596-0.774-3.078-1.449-4.672-1.224-2.892-2.579-6.034-3.11-9.144-0.27-1.579 0.053-1.736 1.152-2.533 0.858-0.622 9e-3 -2.012 0.59-2.816 0.552-0.764-1.233-4.957-1.854-5.467-0.781-0.643-1.771-2.503-1.224-3.528 0.763-1.429 0.868-2.706 1.355-4.24 0.31-0.973-0.401-2.675-0.384-3.744 0.029-1.735 1.338-2.786 0.663-4.545-1.011-2.635 0.389-5.909 0.409-8.704 0.019-2.44-1.5-4.452-1.384-6.766 0.067-1.333 1.485-1.563 1.436-2.837-0.065-1.699-1.292-3.366-1.651-5.046-0.375-1.757-0.079-3.489-0.333-5.235-0.127-0.879-0.452-1.474-0.211-2.387 0.197-0.746 0.511-1.504 0.348-2.295-0.193-0.93501-1.609-0.37201-1.841-1.401-0.245-1.083 0.119-2.261 0.219-3.341 1.697 1.521 1.609-3.441 1.593-4.17-0.092-4.222 0.765-9.078-0.806-13.042-1.683-4.246-0.571-8.913-2.157-13.238-0.661-1.801-1.386-3.97-1.714-5.854-0.216-1.184 0.345-3.592-1.035-4.23"/>
  <g id="IslandsChile" class="part">
   <path d="m203.01 567.14c1.457 1.315 3.289 2.216 4.399 3.891-1.003-1.848-3.31 1.374 0.507 1.411 1.429 0.014 1.863 1.604 2.776 2.421 1.12 1.003 2.766 1.252 3.815 2.187 2.776 2.474 6.803 3.631 10.167 5.165 1.532 0.698 3.759 1.574 5.459 1.524 0.837-0.024 1.666-0.196 2.506-0.158 1.183 0.053 0.917 1.292 0.61 2.28-0.949-0.524-2.064 0.384-3.184-0.048-1.222-0.472-2.906 1.098-4.439 0.77-1.721-0.369-3.221-0.786-5.007-0.84-1.991-0.06-4.54 0.034-6.41-0.747-1.203-0.501-1.929 0.734-2.96-0.788-0.947-1.398-1.482-3.148-2.241-4.656-2.05-4.079-4.268-8.188-5.998-12.412"/>
   <path d="m237.43 585.79c0.981-1.218 3.125-0.88 4.46-1.37-1.813-0.462-3.503 0.147-5.18 0.79 0.219 0.219 0.46 0.412 0.72 0.58"/>
   <path d="m131.59 475.92c-0.711-0.545-0.893-0.142-1.244 0.412-0.432 0.681-1.859-0.778-2.426-0.772 1.247 1.271 0.116 2.978 0.762 4.022 1.074 1.738 0.902 4.304 1.756 6.037 0.366 0.742-0.437 1.202-0.105 2.018 0.321 0.792 1.322 1.023 2.061 1.222 0.64 0.172 1.295 0.363 1.954 0.448 1.359 0.175 0.207-1.824 0.123-2.227 2.093-0.248-2e-3 -1.697-0.65-2.31 0.48 0.076 0.96 0.076 1.44 0-0.26-0.474-4.179-3.032-2.021-3.021-1.636-0.964 0.074-1.525 0.87-2.16-1.037-1.033-2.043-2.264-2.52-3.669"/>
   <path d="m128.92 491.4c0.263-0.168 0.506-0.361 0.73-0.58-0.48-0.326-0.96-0.326-1.44 0 0.237 0.194 0.473 0.387 0.71 0.58"/>
   <path d="m131.3 502.34c0.235-0.591-0.113-0.934-0.72-0.72 0.219 0.261 0.459 0.501 0.72 0.72"/>
   <path d="m132.53 500.25c-0.071-0.437-0.071-0.592-0.58-0.72 0.193 0.241 0.386 0.48 0.58 0.72"/>
   <path d="m133.61 482.83c0.128-0.619-0.112-0.643-0.72-0.07 0.24 0.023 0.48 0.047 0.72 0.07"/>
   <path d="m134.61 482.11c-0.158-0.684-0.833-1.091-1.51-0.87 0.566 0.181 1.07 0.471 1.51 0.87"/>
   <path d="m134.76 500.4c-0.306-0.724-1.051-0.684-1.521-0.15 0.507 0.049 1.014 0.1 1.521 0.15"/>
   <path d="m134.18 495.28c-0.364-0.149-0.304-0.396-0.79-0.141 0.263 0.048 0.527 0.094 0.79 0.141"/>
   <path d="m134.69 499.1c0.336-0.351 0.43-0.757 0.28-1.22-0.421 0.471-0.925 0.588-1.51 0.351 0.205 0.524 0.646 0.891 1.23 0.869"/>
   <path d="m134.47 495.57c-0.232-0.086-0.472-0.109-0.72-0.07 0.24 0.024 0.48 0.047 0.72 0.07"/>
   <path d="m134.54 497.01c-0.201-0.185-0.441-0.23-0.72-0.14 0.24 0.047 0.481 0.093 0.72 0.14"/>
   <path d="m135.41 493.92c-0.079-0.545 0.172-1.0471 0.79-1.0801-0.81 0.2491-1.676-0.184-2.31 0.5701 0.549 0.046 1.056 0.216 1.52 0.51"/>
   <path d="m135.91 501.76c0.171-0.777-0.773-1.118-1.37-1.08 0.341 0.508 0.797 0.868 1.37 1.08"/>
   <path d="m135.19 476.2c0.033-0.41-0.16-0.673-0.58-0.79 0.193 0.264 0.386 0.527 0.58 0.79"/>
   <path d="m136.34 485.85c-0.407-0.376-0.887-0.52-1.44-0.43 0.481 0.139 0.961 0.281 1.44 0.43"/>
   <path d="m136.56 501.33c0.77-0.316 1.342-1.059 2.229-1.08-0.712-0.656-1.89-0.937-2.818-0.653-1.568 0.478-0.435 1.461 0.589 1.733"/>
   <path d="m136.63 497.23c0.044-0.329 0.141-0.643 0.29-0.94-0.516-0.207-1.046-0.254-1.59-0.14 0.299 0.521 0.732 0.88 1.3 1.08"/>
   <path d="m135.41 497.66c0.263 0.073 0.527 0.146 0.79 0.22-0.263-0.073-0.526-0.147-0.79-0.22"/>
   <path d="m136.34 508.96c-0.237-0.177-0.5-0.297-0.79-0.36 0.263 0.12 0.526 0.24 0.79 0.36"/>
   <path d="m136.56 494.28c-0.184-0.218-0.424-0.291-0.72-0.221 0.24 0.074 0.48 0.148 0.72 0.221"/>
   <path d="m137.13 499.17c0.097-0.217 0.193-0.433 0.29-0.649-0.493-0.164-0.996-0.284-1.51-0.36 0.217 0.514 0.667 0.902 1.22 1.009"/>
   <path d="m137.13 496.15c-0.143-0.429-0.43-0.719-0.86-0.87-0.03 0.574 0.286 0.893 0.86 0.87"/>
   <path d="m137.28 498.16c0.442-0.651-0.424-0.699-0.8-0.36 0.266 0.12 0.533 0.24 0.8 0.36"/>
   <path d="m136.77 509.18c0.24 0.047 0.48 0.094 0.72 0.141 0.029-0.487-0.017-0.968-0.14-1.44-0.643 0.182-0.941 0.687-0.58 1.299"/>
   <path d="m136.56 502.92c0.88 0.365 1.971-0.181 2.8-0.439-0.911-0.744-2.234-0.691-2.8 0.439"/>
   <path d="m137.78 505.51c0.156-0.624-0.399-1.099-0.94-1.229 0.016 0.584 0.381 1.058 0.94 1.229"/>
   <path d="m137.71 497.3c0.086-0.768-0.177-0.814-0.79-0.14 0.263 0.047 0.527 0.093 0.79 0.14"/>
   <path d="m137.57 507.96c-0.177-0.256-0.371-0.499-0.58-0.729 0.193 0.243 0.386 0.486 0.58 0.729"/>
   <path d="m137.71 506.3c0.179-0.718-0.061-0.814-0.72-0.29 0.24 0.097 0.479 0.193 0.72 0.29"/>
   <path d="m138.36 495.57c0.31-0.812-0.575-1.356-1.23-1.44 0.338 0.541 0.749 1.02 1.23 1.44"/>
   <path d="m138 498.38c0.401-0.46 0.231-0.699-0.51-0.72 0.169 0.24 0.34 0.48 0.51 0.72"/>
   <path d="m138.21 501.76c0.101-0.259 0.101-0.522 0-0.79-0.275 0.15-0.515 0.344-0.72 0.58 0.24 0.07 0.479 0.14 0.72 0.21"/>
   <path d="m138.57 509.54c0.985-0.489 1.284-2.512-0.14-2.59-1.562-0.086-0.044 2.009 0.14 2.59"/>
   <path d="m139.58 502.92c-0.611 0.319-1.309 0.373-1.939 0.64 0.177 1.454 3.022 1.397 4.03 1.23-0.141-0.953-1.101-1.884-2.091-1.87"/>
   <path d="m140.23 506.01c0.457-0.05 0.913-0.097 1.37-0.14-0.429-0.836-2.084-1.233-2.88-0.79 0.423 0.44 0.927 0.749 1.51 0.93"/>
   <path d="m139.94 502.56c0.441-0.79-0.384-1.492-1.15-1.229 0.234 0.548 0.618 0.958 1.15 1.229"/>
   <path d="m139.87 500.76c0.313-0.073 0.627-0.146 0.94-0.22-1.078-2.102-2.719-0.429-0.94 0.22"/>
   <path d="m139.65 478.65c0.143-0.542-0.097-0.662-0.72-0.36l0.72 0.36"/>
   <path d="m144.26 534.23c1.286-1.348-3.186-6.053-4.9-5.11 0.297 0.417 1.396 0.927 1.471 1.415 0.128 0.836 1.159 0.694-0.101 1.185 0.671 0.275 1.461-0.548 1.762 0.226 0.286 0.732 1.056 1.919 1.768 2.284"/>
   <path d="m140.09 507.88c0.385-0.697 1.241-0.45 1.8-0.21-0.382-1.119-2.477-1.145-1.8 0.21"/>
   <path d="m140.52 501.55h0.5c2e-3 -0.617-0.315-0.927-0.93-0.72 0.143 0.24 0.286 0.48 0.43 0.72"/>
   <path d="m141.09 506.66c0.075-0.649-0.188-0.723-0.79-0.22 0.263 0.074 0.526 0.147 0.79 0.22"/>
   <path d="m141.38 494.63c-0.116-0.782-0.195-1.459-1.08-0.93 0.112 0.537 0.526 0.908 1.08 0.93"/>
   <path d="m141.6 509.11c1.083-0.672-0.506-1.698-1.3-1.15 0.26 0.536 0.728 0.968 1.3 1.15"/>
   <path d="m141.17 526.96c0.238-0.462 0.141-0.8451-0.29-1.1501-0.218 0.206-0.388 0.4461-0.51 0.7211 0.266 0.143 0.533 0.285 0.8 0.429"/>
   <path d="m141.53 534.16c0.995 0.221 1.609-0.546 1.08-1.44-0.651-1.104-1.274-0.32-2.17-0.069 0.197 0.872 1.095 0.942 1.8 1.149-0.237 0.12-0.474 0.24-0.71 0.36"/>
   <path d="m142.03 510.76c0.121-0.637 0.185-1.655-0.79-1.51 0.111 0.583 0.374 1.086 0.79 1.51"/>
   <path d="m141.89 535.03c0.635-0.161 1.19-0.555 1.649-1.01-0.859-0.272-1.443 0.663-2.3 0.289 0.2 0.257 0.417 0.497 0.651 0.721"/>
   <path d="m142.17 526.53c0.292-0.7191 0.052-0.9091-0.72-0.5701 0.24 0.19 0.479 0.3801 0.72 0.5701"/>
   <path d="m145.84 500.68c-0.164-0.282-0.354-0.545-0.57-0.79 1.068-0.288 0.842-1.36-0.159-1.458-0.329 0.024-0.639-0.04-0.93-0.193-0.858-0.701-0.691 0.319-1.791-0.288-0.224 0.613 0.151 1.049 0.72 1.22-0.467 0.354-0.994 0.521-1.58 0.5 0.196 0.735 0.713 1.729 1.65 1.521-1.625 0.294 0.044 0.98 0.617 1.057 0.908 0.12 1.578-0.982 2.043-1.569"/>
   <path d="m143.97 528.91c0.242-0.788-0.069-1.67-0.79-2.09-0.326 0.479-0.326 0.96 0 1.439-0.522-0.45-1.786-0.675-1.51 0.431 0.762-0.756 1.5 0.084 2.3 0.22"/>
   <path d="m144.48 532.08c2.259-1.674-1.065-2.973-2.59-2.74 0.67 1.069 1.579 1.99 2.59 2.74"/>
   <path d="m145.34 537.48c-0.087-1.217-2.331-2.311-3.31-1.66 0.281 1.48 2.623 0.396 3.31 1.66"/>
   <path d="m143.9 529.41c-0.24-0.607-0.947-0.723-1.51-0.65 0.541 0.129 1.044 0.346 1.51 0.65"/>
   <path d="m144.05 509.4c0.045-0.374-0.396-2.749-1.005-2.525-1.8 0.661 0.33 1.966 1.005 2.525"/>
   <path d="m143.11 511.34c0.209-0.449 0.546-0.763 1.01-0.939-0.744-0.889-1.942 0.156-1.01 0.939"/>
   <path d="m143.4 537.55c0.119-0.492-0.121-0.589-0.72-0.29 0.24 0.097 0.48 0.193 0.72 0.29"/>
   <path d="m143.33 509.47c-0.089-0.364-0.306-0.631-0.649-0.8 0.216 0.267 0.433 0.533 0.649 0.8"/>
   <path d="m142.82 505.87c0.263-0.05 0.527-0.101 0.79-0.15-0.264 0.05-0.527 0.1-0.79 0.15"/>
   <path d="m143.83 504.28c-0.155-0.294-0.372-0.534-0.649-0.721 0.216 0.241 0.433 0.481 0.649 0.721"/>
   <path d="m143.47 521.28c0.36-0.209 0.526-0.522 0.5-0.94-0.816-0.089-0.983 0.225-0.5 0.94"/>
   <path d="m144.76 513.21c0.331-1.055-0.588-1.964-1.51-1.08 0.582 0.25 1.085 0.61 1.51 1.08"/>
   <path d="m144.33 539.06c-0.218-0.958 1.525-1.708-0.21-2.229 0.134 0.959-1.683 1.939 0.21 2.229"/>
   <path d="m144.69 511.7c-0.187-0.457-0.52-0.743-1-0.86 0.072 0.56 0.43 0.88 1 0.86"/>
   <path d="m145.34 536.76c0.263-0.12 0.527-0.239 0.79-0.359-0.41-0.762-1.219-1.204-2.08-1.16 0.45 0.489 0.88 0.995 1.29 1.519"/>
   <path d="m144.69 528.62c-0.172-0.276-0.363-0.539-0.57-0.79 0.189 0.264 0.38 0.527 0.57 0.79"/>
   <path d="m145.27 535.39c0.021-0.499-0.195-0.858-0.65-1.08-0.301 0.603 0.052 0.984 0.65 1.08"/>
   <path d="m148.08 534.16c1.32-0.287-2.461-4.025-2.95-4.601 0.087 0.505 0.18 1.009 0.28 1.511 0.223 0.553 0.779 0.846 0.94 1.439-0.547-1.314-2.073-0.535-1.334 0.674 0.556 0.909 2.212 0.59 3.064 0.977"/>
   <path d="m145.56 541.36c-0.203-0.204-0.443-0.348-0.72-0.431 0.24 0.144 0.48 0.288 0.72 0.431"/>
   <path d="m151.39 545.18c0.668 0.294 1.581 0.343 2.16 0-0.179-0.229-0.372-0.446-0.58-0.649 1.313 0.914 0.778-1.322-0.28-1.51 1.958 0.377-0.851-2.111-0.51-0.141-0.169-1.685-0.261-4.123-1.627-5.358-0.517-0.467-0.211-1.203-0.956-1.438-0.51-0.161-1.087-2.839-1.087-0.913-0.776-3.075-3.575 1.297-1.51 0.36-1.648 0.424-0.103 1.455 0.65 0.72-0.521 0.674 0.784 2.732 0.93 3.46-0.42-0.404-0.9-0.717-1.439-0.939 1.006 2.031-1.766-0.878 0 1.229-0.328-0.473-0.854-0.771-1.44-0.65 0.521 0.439 1.001 0.919 1.44 1.44-0.778-0.481-1.328-1.257-2.16-1.66-0.122 1.349 1.298 1.581 1.932 2.489 0.687 0.985 1.777 2.48 3.108 2.551 0.069-0.975-0.999-1.343-1.08-2.229-0.083-0.908 0.876-0.954 0.94-1.801 0.843 0.108 1.093 1.118-0.15 0.86-0.018 0.601 0.388 1.01 0.94 1.16-0.267 0.137-0.53 0.28-0.79 0.43 0.241 0.56 0.995 0.646 1.454 0.935 0.996 0.627-0.77 1.321 0.847 1.006-0.254 0.229-0.517 0.445-0.792 0.648"/>
   <path d="m145.7 534.6c0.787-0.45 0.456-0.81-0.36-0.72 0.121 0.24 0.24 0.479 0.36 0.72"/>
   <path d="m149.01 544.39c-0.545-1.499-2.104-2.235-3.601-2.38 0.202 0.783 0.938 1.853 1.8 1.011 0.088 1.022 1.251 0.752 1.801 1.369"/>
   <path d="m145.7 527.32c0.182-0.354 0.43-0.286 0.22-0.79-0.073 0.264-0.146 0.527-0.22 0.79"/>
   <path d="m148.08 539.13c0.319-1.243-1.766-2.948-2.234-1.606-0.187 0.536 1.918 1.305 2.234 1.606"/>
   <path d="m146.71 538.99c-0.177-0.23-0.417-0.327-0.72-0.29 0.24 0.097 0.479 0.194 0.72 0.29"/>
   <path d="m147.43 531.21c1.076-0.764-0.305-1.552-1.08-1.51 0.364 0.501 0.723 1.004 1.08 1.51"/>
   <path d="m147.5 528.19c0.854-0.261 1.854-0.06 2.52-0.79-1.205-0.624-2.405-0.147-3.67-0.29 0.107 0.591 0.549 1.014 1.15 1.08"/>
   <path d="m149.59 532.29c0.18-0.709-0.879-1.07-1.3-1.37-0.432 0.938 0.74 1.067 1.3 1.37"/>
   <path d="m151.39 547.7c0.251-0.542 0.611-0.999 1.08-1.37-0.838 0.543-1.576 0.484-1.37-0.57-0.378 0.183-0.7 0.126-0.965-0.171-0.604-0.466-1.325 0.095-1.985 0.021 0.538 0.443 2.445 0.697 2.3 1.66-0.959 0.215-0.827-1.043-1.8-0.87 0.027 0.421 0.05 1.005 0.392 1.321 0.595 0.553 1.818-0.19 1.128 1.059 0.567-0.126 1.028-0.53 1.22-1.08"/>
   <path d="m151.1 532.51c-0.291-0.549-0.874-0.921-1.51-0.79 0.477 0.313 0.98 0.577 1.51 0.79"/>
   <path d="m151.61 551.8c0.224-0.718-0.396-1.327-0.73-1.87 0.564 0.29 1.021 0.081 1.08-0.569-0.798 0.191-1.494-0.459-2.23 0.14 0.7 0.241 0.792 0.749 0.22 1.22 0.907-0.036 0.738 1.081 1.66 1.079"/>
   <path d="m151.68 528.48c-0.056-0.407-0.295-0.624-0.72-0.65 0.24 0.216 0.48 0.433 0.72 0.65"/>
   <path d="m152.18 548.49c-0.197-0.194-0.437-0.218-0.72-0.07 0.24 0.023 0.48 0.047 0.72 0.07"/>
   <path d="m152.9 541.94c0.217-0.17 0.433-0.341 0.65-0.511-0.353-0.479-0.861-0.85-1.44-1 0.214 0.529 0.477 1.033 0.79 1.511"/>
   <path d="m152.9 529.27c-0.223-0.153-0.463-0.273-0.72-0.36 0.24 0.119 0.48 0.239 0.72 0.36"/>
   <path d="m153.62 551.95c0.099-0.639-0.104-1.408-0.93-1.3 0.055 0.572 0.424 1.049 0.93 1.3"/>
   <path d="m153.69 545.9c0.263-0.167 0.527-0.333 0.79-0.5-0.263 0.167-0.527 0.333-0.79 0.5"/>
   <path d="m154.13 549.36c0.319-0.292 0.509-0.651 0.57-1.08-0.637 0.08-0.94 0.495-0.57 1.08"/>
   <path d="m156.14 552.6c0.028-0.563-1.594-2.258-2.16-1.729-1.054 0.984 1.527 1.704 2.16 1.729"/>
   <path d="m156.86 554.47c0.427-0.671 1.234-1.154 2.02-0.72-1.217-0.816-1.347-2.573-3.17-2.31 0.423 0.477 0.806 0.983 1.15 1.52-0.762-0.145-1.522-0.318-2.3-0.36 0.063 0.829 1.541 1.767 2.229 1.07 0.024 0.267 0.047 0.533 0.071 0.8"/>
   <path d="m155.21 558.79c1.057-0.279 0.526-1.781 0.64-2.52-0.541 0.417-1.023 0.18-1.22-0.431 0.03 0.897-0.065 2.226 0.58 2.951"/>
   <path d="m155.13 554.9c0.251-0.124 0.492-0.268 0.72-0.431-0.24 0.144-0.48 0.288-0.72 0.431"/>
   <path d="m159.17 552.23c0.03-0.852-1.208-1.307-1.81-1.58 1.351 0 0.365-0.249-0.138-0.779-0.567-0.6-1.128-0.918-1.942-0.511 0.623 0.36 0.813 0.979 1.22 1.52 0.68 0.903 1.787 0.796 2.67 1.35"/>
   <path d="m156.64 557.49c0.85-0.235 1.286-1.118 1.52-0.21-0.042-0.313-0.042-0.627 0-0.94 0.268 0.16 0.531 0.327 0.79 0.5-0.717-1.182-1.642-2.518-2.74-0.569 0.61 0.197 0.847 0.678 0.43 1.219"/>
   <path d="m157.58 560.95c0.86-0.259 0.178-1.217-0.29-1.4401-0.13 0.5251-0.033 1.0061 0.29 1.4401"/>
   <path d="m159.17 555.26c0.143-0.814-0.895-0.855-1.16-1.51-0.693 0.894 0.575 1.244 1.16 1.51"/>
   <path d="m159.45 562.82c0.435-0.937 0.276-3.8181-1.29-3.6011 0.231 0.4981 0.495 0.9781 0.79 1.4401-1.322-0.273-0.183 1.675 0.5 2.161"/>
   <path d="m160.17 555.33c0.17-0.047 0.34-0.093 0.51-0.14-0.6-0.74-1.148-1.548-1.95-2.091 0.456 0.759 0.923 1.512 1.44 2.231"/>
   <path d="m160.17 562.96c0.467-0.55 0.759-2.585-0.5-2.229-0.019 0.784 0.397 1.467 0.5 2.229"/>
   <path d="m161.76 564.48c0.782-0.965-1.069-0.706-1.521-0.801 0.517 0.249 1.023 0.515 1.521 0.801"/>
   <path d="m162.12 557.28c-0.041-0.708-0.647-1.252-1.37-1.09 0.325 0.497 0.808 0.894 1.37 1.09"/>
   <path d="m160.82 562.39c0.496-0.099 0.879-0.362 1.15-0.79-0.62-0.175-1.065 0.172-1.15 0.79"/>
   <path d="m163.99 561.45c0.013-0.993-2.224-1.9381-3.03-1.8701 0.913 0.8061 1.93 1.3651 3.03 1.8701"/>
   <path d="m161.04 563.4c0.016-0.243 0.016-0.487 0-0.73v0.73"/>
   <path d="m162.19 556.63c0.217-0.146 0.433-0.293 0.65-0.439-0.269-0.645-0.795-0.815-1.3-0.28 0.187 0.265 0.404 0.505 0.65 0.719"/>
   <path d="m164.28 560.16c0.167-0.12 0.333-0.24 0.5-0.36-0.789-0.4441-1.224-1.2941-2.02-1.7291 0.354 1.213 0.241 1.5751 1.52 2.0891"/>
   <path d="m164.06 556.63c0.026-0.571-0.292-0.911-0.86-0.939-0.026 0.571 0.292 0.911 0.86 0.939"/>
   <path d="m166.01 565.05c0.41-0.067 0.72-0.284 0.93-0.649-0.854-0.481-2.649-2.402-3.67-1.29 0.881-0.269 1.595 0.421 2.3 0.79-1.766-0.506-0.026 0.962 0.44 1.149"/>
   <path d="m174.43 572.68c0.64 0.182 1.287 0.209 1.939 0.08-1.115-0.288-1.916-1.203-3.02-1.52 2.252 2.196-3.08-2.156-0.72 0.069-1.555-1.17-3.133-1.205-4.907-1.665-1.389-0.36-2.542-1.878-4.093-1.494 1.877 0.854 3.188 2.048 5.157 2.646 0.993 0.304 2.042 0.125 3.02 0.519 0.815 0.329 1.611 1.745 2.624 1.365"/>
   <path d="m164.85 562.96c-0.227-0.397-0.257-0.519-0.79-0.36 0.263 0.12 0.527 0.24 0.79 0.36"/>
   <path d="m165.86 560.3c-0.06-0.7181-0.964-0.9161-1.51-1.0101 0.475 0.3791 0.978 0.7161 1.51 1.0101"/>
   <path d="m168.02 563.68c-0.27-1.426-2.392-2.345-3.67-2.449 0.801 1.307 2.571 1.49 3.67 2.449"/>
   <path d="m165.79 561.02c-0.328-0.299-0.068-0.555-0.72-0.36 0.24 0.119 0.481 0.239 0.72 0.36"/>
   <path d="m167.95 565.05c0.167-0.047 0.333-0.093 0.5-0.14-0.476-0.986-1.666-1.542-2.729-1.44 0.727 0.552 1.6 0.896 2.229 1.58"/>
   <path d="m166.58 561.88c0.515-0.401 0.349-0.641-0.5-0.72 0.167 0.24 0.334 0.48 0.5 0.72"/>
   <path d="m167.09 563.54c0.12-0.519-0.147-0.615-0.8-0.29 0.266 0.097 0.533 0.193 0.8 0.29"/>
   <path d="m168.88 567.86c1.012-0.562 0.593-2.711-0.709-2.477-1.014 0.183 0.713 2.073 0.709 2.477"/>
   <path d="m170.25 572.18c-0.546-1e-3 -0.771-0.123-0.79 0.58 0.277-0.175 0.54-0.368 0.79-0.58"/>
   <path d="m170.83 571.03c0.167 0.267 0.407 0.433 0.72 0.5-0.24-0.167-0.479-0.333-0.72-0.5"/>
   <path d="m173.13 569.73c-0.196-0.986-1.581-0.885-2.23-0.5 0.797-0.275 1.602-0.021 2.23 0.5"/>
   <path d="m171.26 562.24c0.573-0.208 0.941-0.676 0.649-1.29-0.533 0.231-0.86 0.702-0.649 1.29"/>
   <path d="m173.06 574.99c0.17-0.24 0.34-0.479 0.51-0.72-0.892-0.246-1.062-6e-3 -0.51 0.72"/>
   <path d="m174.93 573.33c-0.363 0.029-0.723 0.079-1.08 0.15 0.187 0.242 0.38 0.479 0.58 0.71-0.497-0.145-1-0.262-1.51-0.351 0.644 0.236 2.969 1.028 2.01-0.509"/>
   <path d="m181.99 579.45c0.753-0.534 1.678-0.978 2.59-1.15-0.775-0.273-0.907-1.564 0.141-1.08-0.271-1.502-1.809-0.761-2.382-1.679-0.424-0.68-1.701-1.319-1.578-0.051-0.315-0.609-1.42-1.693-1.51-0.29-0.412-0.564-1.711-2.33-2.59-1.65 0.135 0.245 0.279 0.485 0.43 0.721-0.503-0.088-1.007-0.088-1.51 0 0.989 0.498 1.84 1.139 2.95 1.359-1.107 0.072-2.923-1.529-3.67-0.07 0.594-0.157 0.96 0.09 0.94 0.721 1.865-0.837 1.326 0.383 2.063 1.481 0.382 0.568 1.115 0.802 1.479 0.113 0.501-0.948 1.611-0.989 2.579-0.585-0.245 0.235-0.484 0.476-0.72 0.72 0.259 0.198 0.523 0.392 0.79 0.58-0.485 0.222-0.988 0.389-1.51 0.5 0.533-0.01 1.036 0.11 1.508 0.36"/>
   <path d="m179.11 579.45c0.027-0.906-0.966-0.953-1.51-0.5 0.605-0.144 1.108 0.023 1.51 0.5"/>
   <path d="m185.16 578.95c-0.146 0.023-0.293 0.047-0.439 0.07 0.425 0.551 0.261 0.937-0.431 1.01 1.017 1.039 2.383-0.63 0.87-1.08"/>
   <path d="m185.59 581.9c0.205-0.451 0.18-0.688 0.79-0.58-0.503-0.403-1.006-0.403-1.51 0 0.22 0.219 0.459 0.413 0.72 0.58"/>
   <path d="m185.81 577.15c-0.26 0.036-0.5 0.129-0.72 0.279 0.24-0.092 0.48-0.186 0.72-0.279"/>
   <path d="m188.61 577.87c-0.635-0.22-1.081 0.394-1.407-0.305-0.286-0.61-1.587 0.641-2.043 0.665 0.359 1.194 3.545 1.273 3.09 2.81 1.966 0.037 0.049-1.433-0.43-2.02 0.397 0.456 0.877 0.575 1.44 0.359-0.37-0.437-0.586-0.939-0.65-1.509"/>
   <path d="m187.1 580.82c-0.244-0.24-0.508-0.457-0.79-0.65 0.263 0.217 0.527 0.434 0.79 0.65"/>
   <path d="m187.24 582.26c-0.215-0.136-0.452-0.209-0.71-0.22 0.237 0.073 0.474 0.147 0.71 0.22"/>
   <path d="m187.68 581.97c0.289-0.74 0.049-0.906-0.72-0.5 0.24 0.167 0.48 0.333 0.72 0.5"/>
   <path d="m191.42 578.44c-0.73-0.343-1.804-0.466-2.59-0.28 0.174 0.135 2.246 3.953 2.23 1.149-0.021 1.694 1.919 0.072 1.58 1.73 0.557-0.118 1.087-0.312 1.59-0.58-0.373-0.524-2.118-2.641-1.73-0.65-0.562-0.251-0.98-0.756-1.08-1.369"/>
   <path d="m190.13 584.56c-0.081-0.505-8e-3 -0.713-0.65-0.72 0.217 0.24 0.433 0.479 0.65 0.72"/>
   <path d="m191.21 580.31c0.06 0.443 0.056 0.596 0.57 0.73-0.19-0.243-0.38-0.487-0.57-0.73"/>
   <path d="m197.18 580.24c-0.274-0.889-1.182-1.406-1.58-2.23 0.459 0.464 0.939 0.487 1.439 0.07-1.129-0.537-1.019-2.188-2.09-2.73-1.58-0.799-0.836 1.367-0.14 1.87-0.516-0.178-1.023-0.154-1.521 0.07 0.935 1.519 2.113 2.57 3.892 2.95"/>
   <path d="m196.89 586.15c0.073-0.193 0.146-0.387 0.22-0.58-0.997 0.128-1.874-0.491-2.88-0.21 0.096 0.268 0.24 0.508 0.43 0.72 0.599-0.827 1.608-0.549 2.23 0.07"/>
   <path d="m197.97 579.6c0.206-0.883-0.034-0.979-0.72-0.29 0.24 0.096 0.48 0.193 0.72 0.29"/>
   <path d="m201.36 588.23c0.238-0.641 0.438-1.201 1.22-0.721-0.377-1.027-1.979-0.79-2.81-0.93 0.592 0.029 1.089-0.312 1.3-0.86-0.649-0.058-1.09 0.644-1.717 0.534-0.696-0.122-1.398-0.336-2.103-0.104 0.683 1.692 3.308 0.31 4.11 2.081"/>
   <path d="m198.91 580.6c0.148-0.923-0.981-0.74-1.439-0.43 0.478 0.148 0.958 0.291 1.439 0.43"/>
   <path d="m200.21 585.21c-0.574-0.094-1.08 0.05-1.52 0.43 0.589 0.15 1.095 8e-3 1.52-0.43"/>
   <path d="m203.52 585.86c-0.193 0.24-0.387 0.479-0.58 0.72 0.62-0.058 0.552-0.219 0.58-0.72"/>
   <path d="m204.53 588.52c-0.167-0.267-0.406-0.434-0.72-0.5 0.24 0.167 0.48 0.333 0.72 0.5"/>
   <path d="m204.67 588.74c-0.263-0.047-0.527-0.094-0.79-0.141 0.263 0.048 0.526 0.094 0.79 0.141"/>
   <path d="m204.6 586.87c1.274-0.162 2.766 0.058 3.81-0.87-1.083-0.246-3.558-0.638-4.46 0.15 0.188 0.266 0.405 0.506 0.65 0.72"/>
   <path d="m204.38 587.59c0.339 0.685 2.255 0.931 2.88 0.79-0.674 1.339 2.7 2.216 3.529 1.73-0.498-0.376-1.005-0.737-1.523-1.085-1.926-1.287 1.401-0.609-0.787-1.295 0.889-0.31 2.042 0.828 3.035 0.894 0.95 0.063 1.615 1.163 1.215 1.696 0.794-0.516 3.028 0.076 3.914 0.293 1.03 0.254 1.218 1.553 2.496 1.227-0.807-0.939-1.453-1.743-2.66-2.17-0.918-0.324-2.374-0.139-3.03-1 0.782 0.674 2.074 0.387 2.96 0.14-1.808-1.243-4.5-0.195-6.05-1.939 1.416 0.55 1.885 0.351 3.283 0.374 1.097 0.019 0.468-1.069-0.284-1.195-1.106-0.186-2.272 0.153-3.322 0.475-0.595 0.181-3.929-0.355-2.847 1.137-0.465-1.231-2.099-0.777-2.809-0.072"/>
   <path d="m205.17 589.03c-0.682 0.103-0.585 0.292 0.29 0.569-0.097-0.189-0.194-0.379-0.29-0.569"/>
   <path d="m207.41 589.89c-0.155-0.442-0.158-0.61-0.72-0.5 0.24 0.167 0.481 0.333 0.72 0.5"/>
   <path d="m208.84 590.32c-0.168-0.248-0.405-0.392-0.71-0.431 0.236 0.144 0.473 0.288 0.71 0.431"/>
   <path d="m223.03 587.37c-1.135-1.509-7.188-2.837-8.5-0.86 1.103-0.548 1.323 0.921 1.917 1.459 0.514 0.465 3.773 0.441 2.043 0.631 0.505 0.063 1.012 0.087 1.521 0.07 0.405-0.089-0.09-0.479 0.099-0.64 0.589-0.503 1.153 0.826 1.485 0.981 0.93 0.436 1.734-0.854 1.435-1.641"/>
   <path d="m220.94 591.62c0.167-0.217 0.333-0.434 0.5-0.65-0.8-0.301-0.967-0.084-0.5 0.65"/>
   <path d="m222.81 593.92c0.023-0.19 0.046-0.38 0.07-0.57-0.531-0.131-1.035-0.061-1.51 0.21 0.526-0.067 1.006 0.053 1.44 0.36"/>
   <path d="m224.11 592.99c-0.172-0.5451-0.509-0.9551-1.01-1.2301-0.221 0.232-0.388 0.499-0.5 0.8 0.501 0.149 1.005 0.293 1.51 0.4301"/>
   <path d="m222.88 586.51c0.076 0.627 1.047 0.55 1.45 0.57-0.453-0.268-0.936-0.459-1.45-0.57"/>
   <path d="m224.76 588.45c-0.392 0.021-0.705 0.191-0.94 0.51 0.453 0.259 0.933 0.329 1.44 0.21-0.167-0.24-0.334-0.479-0.5-0.72"/>
   <path d="m225.12 593.85c0.119-0.492-0.121-0.589-0.72-0.29 0.24 0.096 0.481 0.193 0.72 0.29"/>
   <path d="m226.13 594c-0.15-0.298-0.367-0.537-0.65-0.72 0.217 0.241 0.433 0.48 0.65 0.72"/>
   <path d="m226.84 588.88c0.573-0.556 0.114-1.032-0.57-0.72 0.165 0.26 0.355 0.5 0.57 0.72"/>
   <path d="m139.72 509.76c-0.07-0.267-0.14-0.533-0.21-0.8 0.979 0.097 1.048 0.363 0.21 0.8"/>
   <path d="m158.01 556.7c0.071 0.188 0.121 0.381 0.149 0.58-0.049-0.193-0.099-0.386-0.149-0.58"/>
   <path d="m158.01 556.7c-0.072-0.252-0.07-0.243 0 0"/>
   <path d="m173.42 563.54c-0.023-0.264-0.046-0.526-0.07-0.79 0.181 0.243 0.324 0.506 0.43 0.79h-0.36"/>
   <path d="m193.65 572.61c-0.517-0.673-1.31-2.112-0.72-2.95 0.202 0.967 1.667 0.887 1.51-0.15-0.084-0.554-1.771-1.123-2.23-1.29 0.825-0.771 1.907 0.167 2.758 0.364 1.855 0.429 1.016-1.762 1.58-2.558 0.604-0.853 2.29 1.098 2.926 1.261 1.136 0.291 2.027-1.043 3.062-0.401 1.14 0.707 1.215 2.283 1.919 3.313 0.974 1.428 1.67 3.027 2.349 4.609 1.575 3.667 3.908 7.062 5.206 10.831-0.7-0.42-1.531-0.508-2.23-0.93 0.408 0.407 0.888 0.694 1.44 0.86-1.038 1.11-3.541 0.42-4.734-0.021-0.611-0.227-1.304-1.245-1.99-1.045-0.912 0.267-1.073 0.513-1.847-0.225 0.172 0.309 0.342 0.619 0.51 0.93-0.529-0.551-2.904 0.56-2.09-1.01-0.14 0.768-2.644 1.169-3.31 0.87 0.457-0.391 0.937-0.751 1.439-1.08-0.887-0.518-2.113 0.539-2.96 0.72-0.042-0.576-0.278-1.056-0.71-1.439-0.326 1.807-1.613-0.307-2.24-0.65 0.997 1.354-1.015 0.861-1.7 0.747-0.546-0.092-1.193 0.499-1.68 0.333-0.514-0.175-0.693-1.134-1.149-1.44 0.871-0.063 1.485 0.638 2.3 0.79-0.051-0.572-0.402-0.965-1.01-0.859 0.585-0.219 1.092-0.099 1.52 0.359-1.641-1.554 3.171 0.087 3.663-0.533 0.415-0.524-0.041-1.379 1.23-1.029 0.872 0.239-0.017 2.645 1.437 2.283-0.472-0.327-0.771-0.854-0.65-1.44 1.251-0.021 2.493 1.565 3.75 1.01-1.207-0.67-2.529-1.021-3.635-1.877-0.965-0.746-2.271-0.162-2.995-1.363 2.028 0.327 4.296 0.937 5.98 2.16-0.638-0.4-0.846-1.277 0.199-1.115 0.933 0.145 1.604 1.092 2.321 1.615-0.25-0.552-0.633-0.984-1.149-1.3 0.94-0.346 1.951 0.927 2.589 0.506 1.017-0.67 2.464 0.927 1.65 1.944 0.271-0.585 0.807-0.854 1.37-0.43-0.866-0.908-0.09-0.953 0.65-0.86-2.652-2.271-8.018-1.505-10.048-4.707-1.438-2.269 4.071-1.789 3.408-3.846-0.827-2.566-6.054 1.658-7.689-0.957"/>
   <path d="m202.87 564.69c0.146 0.079 0.243 0.199 0.29 0.359-0.096-0.12-0.193-0.239-0.29-0.359"/>
   <path d="m211.72 584.92c0.24 0.193 0.48 0.387 0.72 0.58-0.551 0.261-0.557-0.198-0.72-0.58"/>
  </g>
 </g>
</svg>
