<svg xmlns="http://www.w3.org/2000/svg" viewBox="0 0 128 128" width="128px" height="128px"><path fill="#E5E5E5" d="M108.9,50.1c0,14.7-12.1,26.7-26.9,26.7c-14.8,0-26.9-12-26.9-26.7l0,0C68.4,68.3,95.6,68.3,108.9,50.1L108.9,50.1z"/><path fill="#454B54" d="M55.3 118.2c-.1 0-.2 0-.2 0-16.3-.1-29.6-13.6-29.6-29.9v-6.6c0-1.7 1.3-3 3-3s3 1.3 3 3v6.6c0 13.1 10.6 23.8 23.6 23.9 6.4.1 12.4-2.4 16.9-6.9 4.6-4.5 7.1-10.6 7.1-17v-.8c0-1.7 1.3-3 3-3s3 1.3 3 3v.8c0 8.1-3.1 15.6-8.9 21.3C70.6 115.1 63.2 118.2 55.3 118.2zM82 79.8c-16.5 0-29.9-13.3-29.9-29.7V18c0-3.9 3.1-7 7-7 1.7 0 3 1.3 3 3s-1.3 3-3 3c-.6 0-1 .4-1 1v32.1c0 13.1 10.7 23.7 23.9 23.7s23.9-10.6 23.9-23.7V18c0-.6-.4-1-1-1-1.7 0-3-1.3-3-3s1.3-3 3-3c3.9 0 7 3.1 7 7v32.1C111.9 66.5 98.5 79.8 82 79.8z"/><path fill="#454B54" d="M94.6 18.1L94.6 18.1c-2.2 0-4-1.8-4-4.2 0-1 .3-1.9.9-2.6.7-1 1.9-1.5 3.1-1.5 1.7 0 3 1.3 3 3 0 .4-.1.8-.2 1.1.2.4.2.8.2 1.2C97.6 16.8 96.2 18.1 94.6 18.1zM69.4 18.1c-1.7 0-3-1.3-3-3 0-.4.1-.8.2-1.2-.1-.4-.2-.7-.2-1.1 0-1.7 1.3-3 3-3 2.2 0 4 1.8 4 4.1 0 1-.3 1.9-.9 2.6C71.8 17.6 70.6 18.1 69.4 18.1z"/><path fill="#FFF" d="M28.4 53A9.3 9.4 0 1 0 28.4 71.8A9.3 9.4 0 1 0 28.4 53Z"/><path fill="#454B54" d="M28.4,74.8c-6.8,0-12.3-5.6-12.3-12.4S21.7,50,28.4,50s12.3,5.6,12.3,12.4S35.2,74.8,28.4,74.8z M28.4,56c-3.5,0-6.3,2.9-6.3,6.4s2.8,6.4,6.3,6.4s6.3-2.9,6.3-6.4S31.9,56,28.4,56z"/></svg>