<svg xmlns="http://www.w3.org/2000/svg" viewBox="0 0 128 128" width="128px" height="128px"><path fill="#fff" d="M115 106V90c0-16.5-13.5-30-30-30H56V49H38v11H7v18h25v7c0 8.3 6.7 15 15 15 8.3 0 15-6.7 15-15v-7h24c6.1 0 11 4.9 11 11v17c-3.3 0-6 2.7-6 6s2.7 6 6 6h18c3.3 0 6-2.7 6-6S118.3 106 115 106zM17 14A7 7 0 1 0 17 28 7 7 0 1 0 17 14zM47 14A7 7 0 1 0 47 28 7 7 0 1 0 47 14zM77 14A7 7 0 1 0 77 28 7 7 0 1 0 77 14z"/><path fill="#444b54" d="M71,63H56c-1.7,0-3-1.3-3-3v-8H41v8c0,1.7-1.3,3-3,3H7c-1.7,0-3-1.3-3-3s1.3-3,3-3h28v-8c0-1.7,1.3-3,3-3h18 c1.7,0,3,1.3,3,3v8h12c1.7,0,3,1.3,3,3S72.7,63,71,63z"/><path fill="#71c2ff" d="M77,11c-4.5,0-8.3,2.9-9.5,7H56.5c-1.3-4.1-5.1-7-9.5-7s-8.3,2.9-9.5,7H26.5c-1.3-4.1-5.1-7-9.5-7 c-5.5,0-10,4.5-10,10s4.5,10,10,10c4.5,0,8.3-2.9,9.5-7h10.9c1,3.1,3.4,5.6,6.5,6.5V37c0,1.7,1.3,3,3,3s3-1.3,3-3v-6.5 c3.1-1,5.6-3.4,6.5-6.5h10.9c1.3,4.1,5.1,7,9.5,7c5.5,0,10-4.5,10-10S82.5,11,77,11z M17,25c-2.2,0-4-1.8-4-4s1.8-4,4-4s4,1.8,4,4 S19.2,25,17,25z M47,25c-2.2,0-4-1.8-4-4s1.8-4,4-4s4,1.8,4,4S49.2,25,47,25z M77,25c-2.2,0-4-1.8-4-4s1.8-4,4-4s4,1.8,4,4 S79.2,25,77,25z"/><path fill="#444b54" d="M118,103.5V90c0-18.2-14.8-33-33-33c-1.7,0-3,1.3-3,3s1.3,3,3,3c14.9,0,27,12.1,27,27v13h-3c-1.7,0-3,1.3-3,3 s1.3,3,3,3h6c1.7,0,3,1.3,3,3s-1.3,3-3,3H97c-1.7,0-3-1.3-3-3s1.3-3,3-3c1.7,0,3-1.3,3-3V89c0-7.7-6.3-14-14-14H62 c-1.7,0-3,1.3-3,3v7c0,6.6-5.4,12-12,12s-12-5.4-12-12v-7c0-1.7-1.3-3-3-3H7c-1.7,0-3,1.3-3,3s1.3,3,3,3h22v4c0,9.9,8.1,18,18,18 s18-8.1,18-18v-4h21c4.4,0,8,3.6,8,8v14.5c-3.5,1.2-6,4.6-6,8.5c0,5,4,9,9,9h18c5,0,9-4,9-9C124,108.1,121.5,104.8,118,103.5z"/></svg>