<svg xmlns="http://www.w3.org/2000/svg" viewBox="0 0 128 128" width="128px" height="128px"><path fill="#FFF" d="M64,17c-19.7,0-35.8,16-35.9,35.6c0,7.4,2.3,14.6,6.6,20.7c0.1,0.1,0.1,0.2,0.2,0.2l0.1,0.1l27.5,36.6c0.4,0.5,0.9,0.8,1.5,0.8c0.6,0,1.1-0.3,1.5-0.8l27.6-36.8c0.1,0,0.2-0.1,0.2-0.2c4.3-6.1,6.6-13.2,6.6-20.6C99.8,33,83.8,17,64,17z"/><path fill="#FFF" d="M64 29A22.5 22.5 0 1 0 64 74A22.5 22.5 0 1 0 64 29Z"/><path fill="#454B54" d="M64,114c-1.5,0-2.8-0.7-3.8-1.8c0,0-0.1-0.1-0.1-0.1L32.8,75.6c-0.2-0.2-0.3-0.4-0.4-0.6c-4.7-6.7-7.1-14.4-7.1-22.4C25.3,31.3,42.7,14,64,14c21.4,0,38.8,17.4,38.8,38.7c0,7.9-2.4,15.5-6.9,22.1c-0.2,0.3-0.4,0.6-0.7,0.9L67.9,112c0,0-0.1,0.1-0.1,0.1C66.9,113.3,65.5,114,64,114z M37.3,71.7c0,0,0.1,0.1,0.1,0.1L64,107.3l26.7-35.6c0.1-0.1,0.2-0.2,0.2-0.3c3.8-5.5,5.9-12,5.9-18.7C96.8,34.7,82.1,20,64,20C46,20,31.2,34.6,31.2,52.7c0,6.7,2.1,13.2,6,18.8C37.3,71.6,37.3,71.6,37.3,71.7z"/><g><path fill="#ED97A0" d="M59 35.2H69V67.7H59z"/></g><g><path fill="#ED97A0" d="M47.7 46.5H80.2V56.5H47.7z"/></g></svg>