<svg xmlns="http://www.w3.org/2000/svg" viewBox="0 0 128 128" width="128px" height="128px"><path fill="#fcf7cb" d="M110.5,102.9l-8,8.1l-18-18.2c0,0,0,0,0-0.1l8-8.1L110.5,102.9L110.5,102.9z"/><path fill="#454b54" d="M102.5,114L102.5,114c-0.8,0-1.6-0.3-2.1-0.9l-18-18.2c-1.1-1.2-1.2-3.1,0-4.2l8-8.1 c1.1-1.1,3.1-1.1,4.3,0l18,18.2c1.1,1.2,1.2,3.1,0,4.2l-8,8.1C104.1,113.7,103.3,114,102.5,114z M88.6,92.7l13.8,14l3.8-3.8 l-13.8-14L88.6,92.7z"/><path fill="#fff" d="M55.3,17c-20.9,0-37.8,17.1-37.8,38.2s16.9,38.2,37.8,38.2S93,76.3,93,55.2S76.1,17,55.3,17z M55.3,83.8C39.6,83.8,27,71,27,55.2s12.7-28.6,28.3-28.6s28.3,12.8,28.3,28.6S70.9,83.8,55.3,83.8z"/><path fill="#e5e5e5" d="M55.3,83.8C39.6,83.8,27,71,27,55.2s12.7-28.6,28.3-28.6s28.3,12.8,28.3,28.6S70.9,83.8,55.3,83.8z"/><path fill="#454b54" d="M55.3,96.4c-22.5,0-40.8-18.5-40.8-41.2S32.8,14,55.3,14S96,32.5,96,55.2S77.8,96.4,55.3,96.4z M55.3,20c-19.2,0-34.8,15.8-34.8,35.2s15.6,35.2,34.8,35.2S90,74.6,90,55.2S74.5,20,55.3,20z"/><path fill="#454b54" d="M88.4,91.3c-0.7,0-1.3-0.3-1.9-0.8L80.1,84c-1-1-1-2.7,0-3.7s2.7-1,3.7,0l6.4,6.5c1,1,1,2.7,0,3.7 C89.8,91.1,89.1,91.3,88.4,91.3z"/><path fill="#fff" d="M36.6 51.1c-.3 0-.6 0-.9-.2-1.4-.5-2.1-2-1.6-3.4 3.2-9 11.7-15.1 21.2-15.1 1.4 0 2.6 1.2 2.6 2.6s-1.2 2.6-2.6 2.6c-7.3 0-13.8 4.6-16.2 11.6C38.7 50.4 37.7 51.1 36.6 51.1zM35.5 57.8c-1.4 0-2.6-1.2-2.6-2.6v-.4c0-1.4 1.2-2.6 2.6-2.6 0 0 0 0 .1 0 1.4 0 2.6 1.2 2.6 2.7v.3C38.1 56.6 36.9 57.8 35.5 57.8z"/><path fill="#454b54" d="M52.8 75.7c-.9 0-1.9-.4-2.4-1.3L45.8 68c-1-1.3-.7-3.2.7-4.2 1.3-1 3.2-.7 4.2.7l4.6 6.4c1 1.3.7 3.2-.7 4.2C54 75.5 53.4 75.7 52.8 75.7zM67.8 66.7c-.3 0-.7-.1-1-.2-1.6-.6-2.4-2.3-1.8-3.8l3.4-9.4c.6-1.6 2.3-2.4 3.8-1.8 1.6.6 2.4 2.3 1.8 3.8l-3.4 9.4C70.2 65.9 69 66.7 67.8 66.7zM58.8 51.5c-.1 0-.2 0-.3 0l-8.7-1c-1.6-.2-2.8-1.7-2.6-3.3s1.7-2.8 3.3-2.6l8.7 1c1.6.2 2.8 1.7 2.6 3.3C61.6 50.4 60.3 51.5 58.8 51.5z"/></svg>