<svg xmlns="http://www.w3.org/2000/svg" viewBox="0 0 128 128" width="128px" height="128px"><path fill="#C7D7E2" d="M93.5 54.199999999999996A4.6 4.6 0 1 0 93.5 63.4 4.6 4.6 0 1 0 93.5 54.199999999999996zM45 99.9l67.3 3.2c0 0 0-9.8 0-10 0-6.4-5.1-11.5-11.4-11.5-.6 0-1.2.1-1.8.2.3-.8.5-1.6.5-2.5 0-3.8-3.1-6.9-6.9-6.9-2.1 0-3.9.9-5.2 2.4-3.3-3.5-8-5.6-13.1-5.6-6.7 0-12.5 3.6-15.7 9-1.6-1.6-3.8-2.5-6.3-2.5-2.2 0-4.2.8-5.8 2.1-1.2 1-2.2 2.3-2.7 3.8L45 99.9z"/><path fill="#454B54" d="M111.3,91.3c-1.1,0-2.2-0.6-2.7-1.7c-1.4-3-4.4-4.9-7.6-4.9c-0.4,0-0.8,0-1.4,0.1c-1.1,0.2-2.1-0.2-2.8-1.1s-0.9-2-0.5-3c0.2-0.5,0.3-0.9,0.3-1.4c0-2.2-1.7-3.9-3.9-3.9c-1.1,0-2.2,0.5-2.9,1.3c-0.6,0.6-1.3,1-2.2,1c-0.8,0-1.7-0.3-2.2-0.9c-2.9-3-6.8-4.7-11-4.7c-5.4,0-10.3,2.8-13.1,7.5c-0.5,0.8-1.3,1.3-2.2,1.4c-0.9,0.1-1.8-0.2-2.5-0.8c-1.2-1.1-2.6-1.7-4.2-1.7c-1.6,0-3.2,0.6-4.3,1.8c-1.2,1.2-3.1,1.2-4.2,0c-1.2-1.2-1.2-3.1,0-4.2c2.3-2.3,5.4-3.6,8.6-3.6c2,0,3.8,0.5,5.5,1.4c4-4.9,10-7.8,16.4-7.8c4.9,0,9.5,1.6,13.2,4.6c1.5-0.9,3.3-1.4,5.1-1.4c5.2,0,9.5,4.1,9.8,9.3c4.9,0.6,9.3,3.7,11.5,8.2c0.7,1.5,0.1,3.3-1.4,4C112.1,91.2,111.7,91.3,111.3,91.3z"/><path fill="#454B54" d="M57.8,82.8c-0.4,0-0.9-0.1-1.3-0.3c-1.5-0.7-2.1-2.5-1.4-4c3.5-7.5,11.1-12.3,19.3-12.3c7.5,0,14.3,3.9,18.2,10.3c0.9,1.4,0.4,3.3-1,4.1c-1.4,0.9-3.3,0.4-4.1-1c-2.8-4.7-7.7-7.4-13.1-7.4c-5.9,0-11.3,3.5-13.8,8.8C60,82.1,58.9,82.8,57.8,82.8z"/><g><path fill="#FFF" d="M69.8 74.7A4.6 4.6 0 1 0 69.8 83.89999999999999A4.6 4.6 0 1 0 69.8 74.7Z"/></g><g><path fill="#FFF" d="M91.3 83A2.3 2.3 0 1 0 91.3 87.6A2.3 2.3 0 1 0 91.3 83Z"/></g><g><path fill="#C7D7E2" d="M79.4,46.4c-3.8,3.8-10,3.8-13.8,0c-3.8-3.8-2.9-9.4,0-13.9c4.3-6.8,6.9-10.9,6.9-10.9s2.9,4.7,6.9,10.9C82.9,37.9,83.2,42.6,79.4,46.4z"/></g><g><path fill="#F0D6BF" d="M105.7,95.9l-20.3,6.9l0,0c0.6-1,1-2.1,0.9-3.4c-0.2-2.8-2.7-4.9-5.6-4.9H66.2c-5.6-8.1-20.9-8.1-20.9-8.1H33.1v24.4l28.8,9c0,0,8.7,2.5,14.9,0c5.3-2.1,26.6-13.3,33.3-16.9c1.3-0.7,3.1-2.7,2.1-5l0,0C111.3,96.1,109.8,94.8,105.7,95.9z"/><path fill="#454B54" d="M80.9,108.2H59.8c-1.7,0-3-1.3-3-3s1.3-3,3-3h21.2c1.3,0,2.4-1,2.4-2.3c0-1.7,1.3-3,3-3s3,1.3,3,3C89.3,104.5,85.6,108.2,80.9,108.2z"/><path fill="#454B54" d="M70.1,124c-4.8,0-8.8-1.2-9.1-1.2l-28.8-9c-1.3-0.4-2.1-1.6-2.1-2.9V86.6c0-1.7,1.3-3,3-3h12.2c0.7,0,15.4,0.1,22.3,8.1h13.1c4.4,0,8.2,3.3,8.6,7.6c0.2,1.8-0.3,3.6-1.3,5.2c-0.7,1.1-2,1.7-3.3,1.4l0,0c-0.9-0.2-1.7-0.9-2.1-1.8c-0.4-0.9-0.2-1.9,0.3-2.8c0.2-0.3,0.4-0.8,0.4-1.5c-0.1-1.2-1.3-2.1-2.6-2.1H66.2c-1,0-1.9-0.5-2.5-1.3c-3.9-5.6-14.6-6.8-18.4-6.8h-9.2v19.2l26.7,8.3c0,0,7.7,2.2,12.9,0.1c4.1-1.7,19.7-9.8,33-16.8c0.1-0.1,0.9-0.7,0.7-1.1c-0.2-0.5-0.4-1-2.8-0.4L95,102.7c-1.6,0.5-3.3-0.3-3.8-1.9s0.3-3.3,1.9-3.8l11.6-3.9c0,0,0.1,0,0.1,0c6.6-1.8,9.1,1.6,10,3.8c1.6,3.7-0.6,7.3-3.5,8.8c-8.3,4.4-28.3,14.9-33.5,17C75.4,123.7,72.6,124,70.1,124z"/><path fill="#FFF" d="M30.1,114.9c1.7,0,3-1.3,3-3V85.8c0-1.7-1.4-3.1-3.2-3.1H15.6c-0.4,0,0,32.2,0,32.2H30.1z"/><path fill="#454B54" d="M30.1,117.9H15.6c-1.7,0-3-1.3-3-3s1.3-3,3-3h14.5V85.8c0-0.1-0.1-0.1-0.2-0.1H15.6c-1.7,0-3-1.3-3-3s1.3-3,3-3h14.3c3.4,0,6.2,2.7,6.2,6.1v26.1C36.1,115.2,33.4,117.9,30.1,117.9z"/></g></svg>