<svg xmlns="http://www.w3.org/2000/svg" viewBox="0 0 128 128" width="128px" height="128px"><path fill="none" stroke="#444b54" stroke-linecap="round" stroke-linejoin="round" stroke-miterlimit="10" stroke-width="6" d="M109 124H19c-5.5 0-10-4.5-10-10V54c0-5.5 4.5-10 10-10h90c5.5 0 10 4.5 10 10v60C119 119.5 114.5 124 109 124zM47.8 32.6C51.3 28 56.8 25 63 25h2c10.5 0 19 8.5 19 19v0"/><path fill="#71c2ff" d="M82,77H71V66c0-1.7-1.3-3-3-3h-8c-1.7,0-3,1.3-3,3v11H46c-1.7,0-3,1.3-3,3v8c0,1.7,1.3,3,3,3h11v11 c0,1.7,1.3,3,3,3h8c1.7,0,3-1.3,3-3V91h11c1.7,0,3-1.3,3-3v-8C85,78.3,83.7,77,82,77z"/></svg>