<svg xmlns="http://www.w3.org/2000/svg" viewBox="0 0 128 128" width="128px" height="128px"><path fill="#fff" d="M63.1,3.8c7.7,9.6,18.7,16,31,17.7l4,0.6c4.4,0.6,7.4,4.6,6.8,9c-0.6,4.4-4.6,7.4-9,6.8l-4-0.6c-1.3-0.2-2.6-0.4-3.9-0.7c-3.6-0.7-7.2-1.9-10.6-3.2l0,0c-3.1-1.2-6.4,1.1-6.4,4.4L71,94c0,3.9-3.1,7-7,7h0c-3.9,0-7-3.1-7-7l0-29.4c0-2.9-2.1-5.4-4.9-5.9l-28.9-5.2c-4.8-0.9-8.2-5-8.2-9.8l0-39.9v-3l48.1,0V3.8z"/><path fill="#f2b630" d="M81,110c0,9.4-7.6,17-17,17s-17-7.6-17-17"/><path fill="#444b54" d="M64 104c-5.5 0-10-4.5-10-10V64.6c0-1.5-1-2.7-2.5-3l-28.9-5.2C16.5 55.3 12 49.9 12 43.7V3.8c0-1.7 1.3-3 3-3s3 1.3 3 3v39.9c0 3.4 2.4 6.3 5.7 6.9l28.9 5.2c4.3.8 7.4 4.5 7.4 8.9V94c0 2.2 1.8 4 4 4s4-1.8 4-4V37.9c0-2.5 1.3-4.9 3.4-6.3 2.1-1.4 4.8-1.7 7.1-.8 3.6 1.4 7 2.4 10.1 3.1 1.2.2 2.5.5 3.7.6l4 .6c2.7.4 5.3-1.5 5.6-4.3.2-1.3-.2-2.6-1-3.7-.8-1.1-2-1.8-3.3-1.9l-4-.6c-13-1.8-24.8-8.5-33-18.8-1-1.3-.8-3.2.5-4.2 1.3-1 3.2-.8 4.2.5 7.2 9.1 17.6 15 29.1 16.6l4 .6c2.9.4 5.5 1.9 7.3 4.3 1.8 2.3 2.5 5.2 2.1 8.1-.8 6-6.4 10.2-12.4 9.4l-4-.6c-1.3-.2-2.7-.4-4.1-.7-3.5-.7-7.2-1.8-11.1-3.4-.7-.3-1.3 0-1.6.2-.2.2-.7.6-.7 1.4V94C74 99.5 69.5 104 64 104zM109 113H4c-1.7 0-3-1.3-3-3s1.3-3 3-3h105c1.7 0 3 1.3 3 3S110.7 113 109 113z"/><g><path fill="#444b54" d="M124 107A3 3 0 1 0 124 113A3 3 0 1 0 124 107Z"/></g></svg>