<svg xmlns="http://www.w3.org/2000/svg" viewBox="0 0 128 128" width="128px" height="128px"><path fill="#fff" d="M40,89c-7.5,2.6-12.7,10-11.9,18.5c0.7,8.4,7.5,15.4,15.9,16.3C54.8,125.1,64,116.6,64,106 c0-7.8-5-14.5-12-17V10c0-3.3-2.7-6-6-6h0c-3.3,0-6,2.7-6,6V89z"/><path fill="#71c2ff" d="M108.1,33.9l-12-12c-0.1-0.1-0.3-0.3-0.5-0.4c-0.1,0-0.1-0.1-0.2-0.1c-0.1-0.1-0.2-0.1-0.3-0.2 c-0.1,0-0.2-0.1-0.3-0.1c-0.1,0-0.2-0.1-0.3-0.1c-0.4-0.1-0.8-0.1-1.2,0c-0.1,0-0.2,0.1-0.3,0.1c-0.1,0-0.2,0.1-0.3,0.1 c-0.1,0-0.2,0.1-0.3,0.2c-0.1,0-0.1,0.1-0.2,0.1c-0.2,0.1-0.3,0.2-0.5,0.4l-12,12c-1.2,1.2-1.2,3.1,0,4.2c0.6,0.6,1.4,0.9,2.1,0.9 s1.5-0.3,2.1-0.9l6.9-6.9V74c0,1.7,1.3,3,3,3s3-1.3,3-3V31.2l6.9,6.9c0.6,0.6,1.4,0.9,2.1,0.9s1.5-0.3,2.1-0.9 C109.3,36.9,109.3,35.1,108.1,33.9z"/><path fill="#444b54" d="M40 39c1.7 0 3-1.3 3-3v-5c0-1.7-1.3-3-3-3s-3 1.3-3 3v5C37 37.7 38.3 39 40 39zM40 59c1.7 0 3-1.3 3-3v-5c0-1.7-1.3-3-3-3s-3 1.3-3 3v5C37 57.7 38.3 59 40 59z"/><path fill="#444b54" d="M55,87V11c0-5-4-9-9-9s-9,4-9,9v5c0,1.7,1.3,3,3,3s3-1.3,3-3v-5c0-1.7,1.3-3,3-3s3,1.3,3,3v78 c0,1.3,0.8,2.4,2,2.8c6,2.1,10,7.8,10,14.1c0,4.3-1.8,8.3-5,11.2c-3.2,2.9-7.4,4.2-11.7,3.7c-6.9-0.8-12.6-6.6-13.2-13.6 c-0.6-6.8,3.5-13.2,9.9-15.5c1.2-0.4,2-1.6,2-2.8V71c0-1.7-1.3-3-3-3s-3,1.3-3,3v16c-7.8,3.7-12.7,12-11.9,20.8 c0.9,9.9,8.6,17.9,18.5,19c0.8,0.1,1.6,0.1,2.3,0.1c5.2,0,10.2-1.9,14-5.3c4.4-4,7-9.7,7-15.7C67,97.9,62.3,90.5,55,87z"/><path fill="#71c2ff" d="M94 86A3 3 0 1 0 94 92A3 3 0 1 0 94 86Z"/></svg>