<svg xmlns="http://www.w3.org/2000/svg" viewBox="0 0 128 128" width="128px" height="128px"><path fill="#fff" d="M74,124v-11c0-3.9,1.5-7.6,4.1-10.4l27.1-28.7c3.8-4,3.6-10.3-0.4-14.1s-10.3-3.6-14.1,0.4L77.2,74.4c1.3-1.8,2.6-3.5,4-5.2l25.1-29c4-4.6,3.5-11.5-1.1-15.5c-4.6-4-11.5-3.5-15.5,1.1l-25.1,29c-0.6,0.7-1.2,1.4-1.8,2.2c1.7-3.1,3.6-6.2,5.7-9.1L87,21.3c3.5-5,2.2-11.8-2.7-15.3c-5-3.5-11.8-2.2-15.3,2.7L50.4,35.3c-1,1.5-2,3-3,4.5l10.3-19.8c2.8-5.4,0.7-12-4.7-14.8c-5.4-2.8-12-0.7-14.8,4.7L27.9,29.8c-7,13.4-11.6,27.9-13.6,42.8V127"/><path fill="#fff" d="M14.5,124C9,100.6,18.1,81,33.2,64.1l4.2-4.7c3.3-3.7,9-4.1,12.7-0.8s4.1,9,0.8,12.7L46.6,76c-11.3,12.7-10.4,25-2.9,38H74v13H15L14.5,124z"/><path fill="#fff" d="M14.5,124C9,100.6,18.1,81,33.2,64.1l4.2-4.7c3.3-3.7,9-4.1,12.7-0.8s4.1,9,0.8,12.7L46.6,76c-11.3,12.7-10.4,25-2.9,38H74v13H15L14.5,124z"/><path fill="#444b54" d="M74,127c-1.7,0-3-1.3-3-3v-11c0-4.7,1.8-9.1,5-12.5l27.1-28.7c2.7-2.8,2.5-7.2-0.3-9.9c-1.4-1.3-3.1-2-5-1.9c-1.9,0.1-3.6,0.8-4.9,2.2L79.4,76.5c-1.1,1.1-2.9,1.3-4.1,0.3c-1.2-1-1.5-2.8-0.6-4c1.4-1.9,2.8-3.8,4.2-5.4l25.1-29c2.9-3.3,2.5-8.4-0.8-11.3c-3.3-2.9-8.4-2.5-11.3,0.8l-25.1,29c-0.5,0.6-1.1,1.3-1.6,1.9l-0.2,0.2c-1,1.2-2.7,1.5-4,0.6c-1.3-0.9-1.7-2.6-0.9-3.9c1.8-3.3,3.8-6.4,5.8-9.4l18.5-26.6c1.2-1.8,1.7-3.9,1.3-6s-1.5-3.9-3.3-5.2c-1.8-1.2-3.9-1.7-6-1.3c-2.1,0.4-3.9,1.5-5.2,3.3L52.9,37.1C52,38.4,51,39.8,50,41.5c-0.9,1.4-2.6,1.8-4,1c-1.4-0.8-1.9-2.6-1.2-4l10.3-19.8c1-1.9,1.2-4.1,0.5-6.1c-0.6-2-2-3.7-3.9-4.7c-1.9-1-4.1-1.2-6.1-0.5c-2,0.6-3.7,2-4.7,3.9L30.5,31.2c-6.8,13.1-11.3,27.2-13.3,41.9c-0.2,1.6-1.7,2.8-3.4,2.6c-1.6-0.2-2.8-1.7-2.6-3.4c2.1-15.4,6.8-30.1,14-43.8L35.6,8.5c1.7-3.3,4.6-5.8,8.2-6.9s7.4-0.8,10.7,0.9c3.3,1.7,5.8,4.6,6.9,8.2c0.3,0.9,0.5,1.8,0.6,2.8L66.5,7c2.1-3.1,5.3-5.1,9-5.8c3.7-0.7,7.4,0.2,10.5,2.3c3.1,2.1,5.1,5.3,5.8,9c0.5,3,0.1,5.9-1.2,8.6c5.1-3.2,11.8-2.8,16.5,1.3c5.8,5,6.5,13.9,1.5,19.7L98.4,54c3.2,0.1,6.2,1.3,8.6,3.5c5.2,4.9,5.4,13.2,0.5,18.4l-27.1,28.7c-2.1,2.3-3.3,5.2-3.3,8.3v11C77,125.7,75.7,127,74,127z"/><path fill="#fff" d="M41.3,114l46.5,0c5.1,0,9.2-4.1,9.2-9.2l0-91.7C97,8.1,92.9,4,87.8,4L40.2,4C35.1,4,31,8.1,31,13.2l0.3,90.9C31.3,109.5,35.8,114,41.3,114z"/><path fill="#71c2ff" d="M37.4,59.4c3.3-3.7,9-4.1,12.7-0.8c3.7,3.3,4.1,9,0.8,12.7L46.6,76c-3.1,3.6-5.3,7.1-6.7,10.6c1.3,0.3,2.7,0.4,4.1,0.4c12.2,0,22-9.8,22-22s-9.8-22-22-22c-5,0-9.5,1.6-13.2,4.4l0.1,19.4c0.8-0.9,1.5-1.8,2.3-2.7L37.4,59.4z" opacity=".2"/><path fill="#71c2ff" d="M64 96A5 5 0 1 0 64 106A5 5 0 1 0 64 96Z"/><path fill="#444b54" d="M14.5,127c-1.4,0-2.6-0.9-2.9-2.3c-5-21.7,1.3-42.2,19.4-62.6l4.2-4.7c2.1-2.4,5.1-3.8,8.3-4c3.2-0.2,6.3,0.9,8.7,3c2.4,2.1,3.8,5.1,4,8.3c0.2,3.2-0.9,6.3-3,8.7L48.9,78c-9.4,10.6-10.2,21.3-2.6,34.5c0.8,1.4,0.3,3.3-1.1,4.1c-1.4,0.8-3.3,0.3-4.1-1.1c-9-15.6-8-28.8,3.3-41.5l4.2-4.7c1.1-1.2,1.6-2.7,1.5-4.3c-0.1-1.6-0.8-3.1-2-4.1c-1.2-1.1-2.7-1.6-4.3-1.5c-1.6,0.1-3.1,0.8-4.1,2l-4.2,4.7c-16.7,18.8-22.6,37.6-18,57.2c0.4,1.6-0.6,3.2-2.2,3.6C14.9,127,14.7,127,14.5,127z"/><g><path fill="#71c2ff" d="M87.5,117H55.3c-1.7,0-3-1.3-3-3s1.3-3,3-3h32.2c3.4,0,6.2-2.8,6.2-6.2V13.2c0-3.4-2.8-6.2-6.2-6.2H39.9c-3.4,0-6.2,2.8-6.2,6.2v34.7c0,1.7-1.3,3-3,3s-3-1.3-3-3V13.2C27.7,6.5,33.1,1,39.9,1h47.7c6.7,0,12.2,5.5,12.2,12.2v91.7C99.7,111.5,94.2,117,87.5,117z"/></g></svg>