<svg xmlns="http://www.w3.org/2000/svg" viewBox="0 0 128 128" width="128px" height="128px"><path fill="#fff" d="M64,14c-8.3,0-15,6.7-15,15v53c0,6.5,4.2,12.1,10,14.1V109c0,2.8,2.2,5,5,5c2.8,0,5-2.2,5-5V96.1 C74.8,94,79,88.5,79,82V29C79,20.7,72.3,14,64,14z"/><path fill="#454b54" d="M53.7 55.3h-4c-1.7 0-3-1.3-3-3s1.3-3 3-3h4c1.7 0 3 1.3 3 3S55.3 55.3 53.7 55.3zM53.7 67.3h-4c-1.7 0-3-1.3-3-3s1.3-3 3-3h4c1.7 0 3 1.3 3 3C56.7 66 55.3 67.3 53.7 67.3zM53.7 43.3h-4c-1.7 0-3-1.3-3-3s1.3-3 3-3h4c1.7 0 3 1.3 3 3S55.3 43.3 53.7 43.3zM53.7 79.3h-4c-1.7 0-3-1.3-3-3s1.3-3 3-3h4c1.7 0 3 1.3 3 3S55.3 79.3 53.7 79.3z"/><path fill="#98bed8" d="M64,67c-1.7,0-3-1.3-3-3V29c0-1.7,1.3-3,3-3c1.7,0,3,1.3,3,3v35C67,65.7,65.7,67,64,67z"/><path fill="#f1c0c3" d="M64,92c-1.7,0-3-1.3-3-3V64c0-1.7,1.3-3,3-3c1.7,0,3,1.3,3,3v25C67,90.7,65.7,92,64,92z"/><path fill="#454b54" d="M64,117c-4.4,0-8-3.6-8-8V98.1c-6.1-3-10-9.2-10-16.1V29c0-9.9,8.1-18,18-18s18,8.1,18,18v53 c0,6.9-3.9,13.1-10,16.1V109C72,113.4,68.4,117,64,117z M64,17c-6.6,0-12,5.4-12,12v53c0,5.1,3.2,9.6,8,11.3c1.2,0.4,2,1.6,2,2.8 V109c0,1.1,0.9,2,2,2s2-0.9,2-2V96.1c0-1.3,0.8-2.4,2-2.8c4.8-1.7,8-6.2,8-11.3V29C76,22.4,70.6,17,64,17z"/></svg>