<svg xmlns="http://www.w3.org/2000/svg" viewBox="0 0 128 128" width="128px" height="128px"><path fill="#FFF" d="M76,102.3c-1.5,5.3-7.7,8.3-12.2,8.9v0.1c-0.7,0-1.9-0.1-2-0.1c-4.3-0.8-8.3-3.7-9.7-8.8l-22.2,9h0 c0,0.8,0.1,1.5,0.3,2.2C39.7,120.1,51.4,124,64,124c12.9,0,24.8-4.1,34.6-11c-0.1-0.6-0.2-1.2-0.4-1.7l0,0L76,102.3z"/><path fill="#E4EBF1" d="M77.5,98.8C77.5,98.8,77.5,98.8,77.5,98.8c-0.2,0-0.2,0-0.3,0c-0.1,0-0.2,0-0.3,0c0,0-0.1,0-0.1,0 c0,0-0.1,0-0.1,0.1c0,0-0.1,0-0.1,0L64,104.1L51.5,99c-0.3-0.1-0.6-0.2-1-0.2v-0.6c4.3-2.6,9.1-7.3,13.5-15.7 c0.5,0.9,0.9,1.8,1.4,2.6c4,6.8,8.2,10.8,12.1,13.1V98.8z"/><path fill="#F7EBDE" d="M76,96.5v6.5l0,0c-3.5,12-20.5,12-23.9,0l0,0l0-6.5"/><path fill="#F7EBDE" d="M96.3,54.4C96.3,28,83.2,14.5,64,14.5S31.7,28,31.7,54.4c-6.2,0.5-4.8,14.6,2.2,13.8 c2,5.7,4.2,10.4,6.5,14.4C48.4,96,57.4,99.9,64,99.9c8.5,0,21.1-6.6,30-31.8C101.1,68.9,102.5,54.8,96.3,54.4z"/><path fill="#454B54" d="M64 102.9c-5.6 0-16.4-2.5-26.1-18.9-2.5-4.3-4.8-9.3-6.8-14.9-.6-1.6.3-3.3 1.8-3.8 1.6-.6 3.3.3 3.8 1.8 1.9 5.2 4 9.9 6.3 13.9 8.2 13.9 16.6 16 20.9 16 5 0 17.6-2.9 27.2-29.8.6-1.6 2.3-2.4 3.8-1.8 1.6.6 2.4 2.3 1.8 3.8C86 99.6 70.3 102.9 64 102.9zM96.3 57.4c-1.7 0-3-1.3-3-3 0-23.4-10.7-36.9-29.3-36.9-13.2 0-22.4 6.7-26.7 19.3-1.6 4.7-2.4 10.1-2.6 16.2 0 1.6-1.4 2.9-3 2.9 0 0 0 0-.1 0-1.7 0-3-1.4-2.9-3.1.1-6.7 1.1-12.7 2.9-18C36.7 19.8 48.2 11.5 64 11.5c22.1 0 35.3 16 35.3 42.9C99.3 56 97.9 57.4 96.3 57.4z"/><path fill="#454B54" d="M30 115c-1.2 0-2.3-.7-2.8-1.9-.6-1.5.1-3.3 1.6-3.9l22.1-9c1.5-.6 3.3.1 3.9 1.6.6 1.5-.1 3.3-1.6 3.9l-22.1 9C30.7 115 30.3 115 30 115zM98.1 115c-.4 0-.8-.1-1.1-.2l-22.1-9c-1.5-.6-2.3-2.4-1.6-3.9.6-1.5 2.4-2.3 3.9-1.6l22.1 9c1.5.6 2.3 2.4 1.6 3.9C100.4 114.3 99.2 115 98.1 115z"/><path fill="#454B54" d="M64 115L64 115c-7.1 0-12.9-4.4-14.8-11.2-.5-1.6.5-3.3 2.1-3.7 1.6-.5 3.3.5 3.7 2.1 1.5 5.1 5.6 6.9 9.1 6.9s7.6-1.8 9.1-6.9l5.8 1.7C76.9 110.6 71.1 115 64 115zM33.4 71.2c-2.5 0-4.8-1.2-6.4-3.5-2.4-3.4-2.9-8.6-1.2-12.2 1.1-2.4 3.2-4 5.8-4.1 1.7-.1 3.1 1.1 3.2 2.8.1 1.7-1.1 3.1-2.8 3.2-.2 0-.4 0-.8.7-.8 1.6-.4 4.6.7 6.2.7.9 1.3 1 1.8.9 1.6-.2 3.1 1 3.3 2.6.2 1.6-1 3.1-2.6 3.3C34 71.1 33.7 71.2 33.4 71.2zM94.6 71.2c-.3 0-.6 0-.9 0-1.6-.2-2.8-1.7-2.6-3.3.2-1.6 1.7-2.8 3.3-2.6.5.1 1.1 0 1.8-.9 1.1-1.6 1.5-4.5.7-6.2-.3-.7-.6-.7-.8-.7-1.7-.1-2.9-1.6-2.8-3.2.1-1.7 1.6-2.9 3.2-2.8 2.5.2 4.6 1.7 5.8 4.1 1.7 3.6 1.2 8.9-1.2 12.2C99.4 69.9 97.1 71.2 94.6 71.2z"/><path fill="#FFF" d="M96.3,54.4H31.7L33,28.6c0.4-8,7-14.3,15-14.3h32c8,0,14.6,6.3,15,14.3L96.3,54.4z"/><path fill="#454B54" d="M96.3,57.4C96.3,57.4,96.3,57.4,96.3,57.4H31.7c-0.8,0-1.6-0.3-2.2-0.9c-0.6-0.6-0.9-1.4-0.8-2.2L30,28.5 c0.5-9.6,8.4-17.1,18-17.1h32c9.6,0,17.5,7.5,18,17.1l1.3,25.4c0,0.2,0,0.3,0,0.5C99.3,56,98,57.4,96.3,57.4z M34.9,51.4h58.3 L92,28.8c-0.3-6.4-5.6-11.4-12-11.4H48c-6.4,0-11.7,5-12,11.4L34.9,51.4z"/><g><path fill="#454B54" d="M76.3,42.4H51.7c-1.7,0-3-1.3-3-3s1.3-3,3-3h24.6c1.7,0,3,1.3,3,3S77.9,42.4,76.3,42.4z"/></g><g><path fill="#FFF" d="M64 32.5A7 7 0 1 0 64 46.5A7 7 0 1 0 64 32.5Z"/></g><g><path fill="#454B54" d="M64,49.5c-5.5,0-10-4.5-10-10s4.5-10,10-10s10,4.5,10,10S69.5,49.5,64,49.5z M64,35.5c-2.2,0-4,1.8-4,4 s1.8,4,4,4s4-1.8,4-4S66.2,35.5,64,35.5z"/></g><g><path fill="#CE938E" d="M76,96.5v6.5l0,0c-3.5,12-20.5,12-23.9,0l0,0l0-6.5"/><path fill="#CE938E" d="M96.3,54.4C96.3,28,83.2,14.5,64,14.5S31.7,28,31.7,54.4c-6.2,0.5-4.8,14.6,2.2,13.8 c2,5.7,4.2,10.4,6.5,14.4C48.4,96,57.4,99.9,64,99.9c8.5,0,21.1-6.6,30-31.8C101.1,68.9,102.5,54.8,96.3,54.4z"/><path fill="#FFF" d="M57,72.9c-4.8,4.6-9.1,10.7-12.9,14.9C51,97,58.4,99.9,64,99.9c5.6,0,13-2.9,19.9-12.1 c-3.8-4.2-8.1-10.3-12.9-14.9C67.1,69.1,60.9,69.1,57,72.9z"/><path fill="#454B54" d="M64 102.9c-5.6 0-16.4-2.5-26.1-18.9-2.5-4.3-4.8-9.3-6.8-14.9-.6-1.6.3-3.3 1.8-3.8 1.6-.6 3.3.3 3.8 1.8 1.9 5.2 4 9.9 6.3 13.9 8.2 13.9 16.6 16 20.9 16 5 0 17.6-2.9 27.2-29.8.6-1.6 2.3-2.4 3.8-1.8 1.6.6 2.4 2.3 1.8 3.8C86 99.6 70.3 102.9 64 102.9zM96.3 57.4c-1.7 0-3-1.3-3-3 0-23.4-10.7-36.9-29.3-36.9-13.2 0-22.4 6.7-26.7 19.3-1.6 4.7-2.4 10.1-2.6 16.2 0 1.6-1.4 2.9-3 2.9 0 0 0 0-.1 0-1.7 0-3-1.4-2.9-3.1.1-6.7 1.1-12.7 2.9-18C36.7 19.8 48.2 11.5 64 11.5c22.1 0 35.3 16 35.3 42.9C99.3 56 97.9 57.4 96.3 57.4z"/><path fill="#454B54" d="M30 115c-1.2 0-2.3-.7-2.8-1.9-.6-1.5.1-3.3 1.6-3.9l22.1-9c1.5-.6 3.3.1 3.9 1.6.6 1.5-.1 3.3-1.6 3.9l-22.1 9C30.7 115 30.3 115 30 115zM98.1 115c-.4 0-.8-.1-1.1-.2l-22.1-9c-1.5-.6-2.3-2.4-1.6-3.9.6-1.5 2.4-2.3 3.9-1.6l22.1 9c1.5.6 2.3 2.4 1.6 3.9C100.4 114.3 99.2 115 98.1 115z"/><path fill="#454B54" d="M64 115L64 115c-7.1 0-12.9-4.4-14.8-11.2-.5-1.6.5-3.3 2.1-3.7 1.6-.5 3.3.5 3.7 2.1 1.5 5.1 5.6 6.9 9.1 6.9s7.6-1.8 9.1-6.9l5.8 1.7C76.9 110.6 71.1 115 64 115zM33.4 71.2c-2.5 0-4.8-1.2-6.4-3.5-2.4-3.4-2.9-8.6-1.2-12.2 1.1-2.4 3.2-4 5.8-4.1 1.7-.1 3.1 1.1 3.2 2.8.1 1.7-1.1 3.1-2.8 3.2-.2 0-.4 0-.8.7-.8 1.6-.4 4.6.7 6.2.7.9 1.3 1 1.8.9 1.6-.2 3.1 1 3.3 2.6.2 1.6-1 3.1-2.6 3.3C34 71.1 33.7 71.2 33.4 71.2zM94.6 71.2c-.3 0-.6 0-.9 0-1.6-.2-2.8-1.7-2.6-3.3.2-1.6 1.7-2.8 3.3-2.6.5.1 1.1 0 1.8-.9 1.1-1.6 1.5-4.5.7-6.2-.3-.7-.6-.7-.8-.7-1.7-.1-2.9-1.6-2.8-3.2.1-1.7 1.6-2.9 3.2-2.8 2.5.2 4.6 1.7 5.8 4.1 1.7 3.6 1.2 8.9-1.2 12.2C99.4 69.9 97.1 71.2 94.6 71.2z"/></g><g><path fill="#FFF" d="M96.3,54.4H31.7L33,28.6c0.4-8,7-14.3,15-14.3h32c8,0,14.6,6.3,15,14.3L96.3,54.4z"/></g><g><path fill="#ED97A0" d="M61 27.3H67V42.3H61z"/></g><g><path fill="#ED97A0" d="M56.5 31.8H71.5V37.8H56.5z"/></g><g><path fill="#454B54" d="M96.3,57.4c-1.6,0-2.9-1.2-3-2.9L92,28.8c-0.3-6.4-5.6-11.4-12-11.4H48c-6.4,0-11.7,5-12,11.4l-1.3,25.7 c-0.1,1.7-1.5,2.9-3.1,2.8c-1.7-0.1-2.9-1.5-2.8-3.1L30,28.5c0.5-9.6,8.4-17.1,18-17.1h32c9.6,0,17.5,7.5,18,17.1l1.3,25.7 c0.1,1.7-1.2,3.1-2.8,3.1C96.4,57.4,96.3,57.4,96.3,57.4z"/></g></svg>