<svg xmlns="http://www.w3.org/2000/svg" viewBox="0 0 128 128" width="128px" height="128px"><path fill="#98BED8" d="M116,89.2v3H16v-50c0-5.5,4.5-10,10-10h70l0,0C108.9,48.3,116,68.4,116,89.2z"/><polygon fill="#FFF" points="63.9,52.4 53.6,52.4 53.6,42 44.3,42 44.3,52.4 33.9,52.4 33.9,61.6 44.3,61.6 44.3,72 53.6,72 53.6,61.6 63.9,61.6"/><path fill="#FFF" d="M110,57.2H93c-5.5,0-10-4.5-10-10v-15h13L110,57.2z"/><path fill="#454B54" d="M109,60.2H93c-7.2,0-13-5.8-13-13v-15c0-1.7,1.3-3,3-3s3,1.3,3,3v15c0,3.9,3.1,7,7,7h16 c1.7,0,3,1.3,3,3S110.7,60.2,109,60.2z"/><path fill="#454B54" d="M116,95.2H16c-1.7,0-3-1.3-3-3v-50c0-7.2,5.8-13,13-13c1.7,0,3,1.3,3,3s-1.3,3-3,3c-3.9,0-7,3.1-7,7v47 h94c0-20-6.9-39.5-19.3-55.1c-1-1.3-0.8-3.2,0.5-4.2s3.2-0.8,4.2,0.5C111.7,46.9,119,67.8,119,89.2v3 C119,93.8,117.7,95.2,116,95.2z"/><path fill="#454B54" d="M104,35.2H83c-1.7,0-3-1.3-3-3v-7h-4v7c0,1.7-1.3,3-3,3H25.6c-1.7,0-3-1.3-3-3s1.3-3,3-3H70v-7 c0-1.7,1.3-3,3-3h10c1.7,0,3,1.3,3,3v7h18c1.7,0,3,1.3,3,3S105.7,35.2,104,35.2z"/><path fill="#454B54" d="M116,95.2H12c-1.7,0-3-1.3-3-3s1.3-3,3-3h104c1.7,0,3,1.3,3,3S117.7,95.2,116,95.2z"/><circle cx="31.9" cy="96.2" r="9.6" fill="#FFF"/><g><circle cx="95.9" cy="96.2" r="9.6" fill="#FFF"/></g><g><path fill="#454B54" d="M31.9,108.8c-7,0-12.6-5.7-12.6-12.6S25,83.6,31.9,83.6s12.6,5.7,12.6,12.6S38.8,108.8,31.9,108.8z M31.9,89.6c-3.7,0-6.6,3-6.6,6.6s3,6.6,6.6,6.6c3.7,0,6.6-3,6.6-6.6S35.5,89.6,31.9,89.6z"/></g><g><path fill="#454B54" d="M95.9,108.8c-7,0-12.6-5.7-12.6-12.6S89,83.6,95.9,83.6s12.6,5.7,12.6,12.6S102.8,108.8,95.9,108.8z M95.9,89.6c-3.7,0-6.6,3-6.6,6.6s3,6.6,6.6,6.6c3.7,0,6.6-3,6.6-6.6S99.5,89.6,95.9,89.6z"/></g></svg>