<svg xmlns="http://www.w3.org/2000/svg" viewBox="0 0 128 128" width="128px" height="128px"><path fill="#fff" d="M22 24H97.4V121H22z"/><path fill="#454b54" d="M97.4,124H22c-1.7,0-3-1.3-3-3V24c0-1.7,1.3-3,3-3h75.4c1.7,0,3,1.3,3,3v97 C100.4,122.7,99.1,124,97.4,124z M25,118h69.4V27H25V118z"/><path fill="#d1ecf0" d="M36.2 87.9H83.30000000000001V121H36.2zM36.2 53.6H55V74.2H36.2z"/><path fill="#454b54" d="M55,77.3H36.2c-1.7,0-3-1.3-3-3V53.6c0-1.7,1.3-3,3-3H55c1.7,0,3,1.3,3,3v20.6 C58,75.9,56.7,77.3,55,77.3z M39.2,71.3H52V56.6H39.2V71.3z"/><path fill="#d1ecf0" d="M64.4 53.6H83.2V74.2H64.4z"/><path fill="#454b54" d="M83.3 77.3H64.4c-1.7 0-3-1.3-3-3V53.6c0-1.7 1.3-3 3-3h18.8c1.7 0 3 1.3 3 3v20.6C86.3 75.9 84.9 77.3 83.3 77.3zM67.4 71.3h12.8V56.6H67.4V71.3zM83.3 124H36.2c-1.7 0-3-1.3-3-3V87.9c0-1.7 1.3-3 3-3h47.1c1.7 0 3 1.3 3 3V121C86.3 122.7 84.9 124 83.3 124zM39.2 118h41.1V90.9H39.2V118z"/><path fill="#454b54" d="M59.7,124c-1.7,0-3-1.3-3-3V87.9c0-1.7,1.3-3,3-3s3,1.3,3,3V121C62.7,122.7,61.4,124,59.7,124z"/><path fill="#fff" d="M97 24H112.4V121H97z"/><path fill="#e6e7e7" d="M112.4 39.5L97 39.5 97 121 112.4 121 112.4 39.5"/><path fill="#454b54" d="M112.4,124H97c-1.7,0-3-1.3-3-3V24c0-1.7,1.3-3,3-3h15.4c1.7,0,3,1.3,3,3v97 C115.4,122.7,114.1,124,112.4,124z M100,118h9.4V27H100V118z"/><path fill="#98bed8" d="M17.3 24L117.1 24 117.1 39.5 17.3 39.5 17.3 24"/><path fill="#7c9bb1" d="M117.1 24L102.3 24 102.3 39.5 117.1 39.5 117.1 24"/><path fill="#454b54" d="M117.1,42.5H17.3c-1.7,0-3-1.3-3-3V24c0-1.7,1.3-3,3-3h99.8c1.7,0,3,1.3,3,3v15.5 C120.1,41.1,118.8,42.5,117.1,42.5z M20.3,36.5h93.8V27H20.3V36.5z"/><path fill="#454b54" d="M102.1,42.5c-1.7,0-3-1.3-3-3V24c0-1.7,1.3-3,3-3s3,1.3,3,3v15.5C105.1,41.1,103.8,42.5,102.1,42.5z"/><path fill="#fff" d="M63.7 14A9.5 9.5 0 1 0 63.7 33A9.5 9.5 0 1 0 63.7 14Z"/><path fill="#454b54" d="M76.2,26.5c-1.7,0-3-1.3-3-3c0-5.2-4.3-9.5-9.5-9.5s-9.5,4.3-9.5,9.5c0,1.7-1.3,3-3,3s-3-1.3-3-3 C48.2,15,55.2,8,63.7,8s15.5,7,15.5,15.5C79.2,25.2,77.9,26.5,76.2,26.5z"/><path fill="#ed97a0" d="M65.7 18.2L65.7 22.1 62.3 22.1 62.3 18.2 58.8 18.2 58.8 29.6 62.3 29.6 62.3 25.6 65.7 25.6 65.7 29.6 69.2 29.6 69.2 18.2z"/></svg>