<svg xmlns="http://www.w3.org/2000/svg" viewBox="0 0 128 128" width="128px" height="128px"><path fill="#FFF" d="M94.5,114h-61c-5.5,0-10-4.5-10-10V24c0-5.5,4.5-10,10-10h61c5.5,0,10,4.5,10,10v80C104.5,109.5,100,114,94.5,114z"/><path fill="#ED97A0" d="M47.7 38H80.2V48H47.7z"/><path fill="#ED97A0" d="M59 26.7H69V59.2H59z"/><path fill="#C7D7E2" d="M88.5 79h-51c-1.7 0-3-1.3-3-3s1.3-3 3-3h51c1.7 0 3 1.3 3 3S90.2 79 88.5 79zM64 94H37.5c-1.7 0-3-1.3-3-3s1.3-3 3-3H64c1.7 0 3 1.3 3 3S65.7 94 64 94z"/><path fill="#454B54" d="M94.5,117h-61c-7.2,0-13-5.8-13-13V24c0-7.2,5.8-13,13-13h61c7.2,0,13,5.8,13,13v80C107.5,111.2,101.7,117,94.5,117z M33.5,17c-3.9,0-7,3.1-7,7v80c0,3.9,3.1,7,7,7h61c3.9,0,7-3.1,7-7V24c0-3.9-3.1-7-7-7H33.5z"/></svg>