<svg xmlns="http://www.w3.org/2000/svg" viewBox="0 0 128 128" width="128px" height="128px"><path fill="#fff" d="M123,103.3v3H23v-60c0-5.5,4.5-10,10-10h70l0,0C115.9,52.5,123,82.6,123,103.3z"/><path fill="#ff697b" d="M23,106.3h100v-3c0-11-2-31.8-5.8-42H90.1h-10H23V106.3z"/><path fill="#fff" d="M102.9 65.9A7.5 7.5 0 1 0 102.9 80.9A7.5 7.5 0 1 0 102.9 65.9Z"/><path fill="#fff" d="M117.2,76.3H23c-1.7,0-3-1.3-3-3s1.3-3,3-3h94.2c1.7,0,3,1.3,3,3S118.8,76.3,117.2,76.3z"/><path fill="#f8e390" d="M23 84.3H120.2V90.3H23z"/><path fill="#fff" d="M117,61.3h-17c-5.5,0-10-4.5-10-10v-15h13L117,61.3z"/><path fill="#444b54" d="M115,64.3h-15c-7.2,0-13-5.8-13-13v-15c0-1.7,1.3-3,3-3s3,1.3,3,3v15c0,3.9,3.1,7,7,7h15c1.7,0,3,1.3,3,3S116.7,64.3,115,64.3z"/><path fill="#444b54" d="M123,109.3c-1.7,0-3-1.3-3-3v-3c0-19.4-6.5-48.1-18.5-64H90c-1.7,0-3-1.3-3-3v-7h-4v7c0,1.7-1.3,3-3,3H33c-3.9,0-7,3.1-7,7v60c0,1.7-1.3,3-3,3s-3-1.3-3-3v-60c0-7.2,5.8-13,13-13h44v-7c0-1.7,1.3-3,3-3h10c1.7,0,3,1.3,3,3v7h10c0.9,0,1.8,0.4,2.3,1.1C115.6,47.3,126,75,126,103.3v3C126,108,124.7,109.3,123,109.3z"/><path fill="#ff697b" d="M85 16.3c-1.7 0-3-1.3-3-3v-7c0-1.7 1.3-3 3-3s3 1.3 3 3v7C88 15 86.7 16.3 85 16.3zM95 19.3c-.7 0-1.4-.3-2-.8-1.2-1.1-1.3-3-.2-4.2l4.5-5c1.1-1.2 3-1.3 4.2-.2 1.2 1.1 1.3 3 .2 4.2l-4.5 5C96.6 19 95.8 19.3 95 19.3zM75.5 19.3c-.8 0-1.6-.3-2.2-1l-4.5-5c-1.1-1.2-1-3.1.2-4.2 1.2-1.1 3.1-1 4.2.2l4.5 5c1.1 1.2 1 3.1-.2 4.2C76.9 19 76.2 19.3 75.5 19.3z"/><path fill="#444b54" d="M123 109.3H19c-1.7 0-3-1.3-3-3s1.3-3 3-3h104c1.7 0 3 1.3 3 3S124.7 109.3 123 109.3zM102.9 123h-84c-1.7 0-3-1.3-3-3s1.3-3 3-3h84c1.7 0 3 1.3 3 3S104.5 123 102.9 123zM3.9 123c-.2 0-.4 0-.6-.1-.2 0-.4-.1-.6-.2-.2-.1-.4-.2-.5-.3-.2-.1-.3-.2-.4-.4-.1-.1-.3-.3-.4-.4-.1-.2-.2-.3-.3-.5C1 121 1 120.8.9 120.6c0-.2-.1-.4-.1-.6 0-.2 0-.4.1-.6 0-.2.1-.4.2-.6.1-.2.2-.3.3-.5.1-.2.2-.3.4-.4.1-.1.3-.3.4-.4.2-.1.3-.2.5-.3.2-.1.4-.1.6-.2.4-.1.8-.1 1.2 0 .2 0 .4.1.6.2.2.1.3.2.5.3.2.1.3.2.4.4s.3.3.4.4c.1.2.2.3.3.5.1.2.1.4.2.6 0 .2.1.4.1.6 0 .2 0 .4-.1.6 0 .2-.1.4-.2.6-.1.2-.2.4-.3.5-.1.2-.2.3-.4.4-.1.1-.3.3-.4.4-.2.1-.3.2-.5.3-.2.1-.4.1-.6.2C4.3 123 4.1 123 3.9 123z"/><g><path fill="#fff" d="M38.9 100.80000000000001A9.6 9.6 0 1 0 38.9 120A9.6 9.6 0 1 0 38.9 100.80000000000001Z"/></g><g><path fill="#fff" d="M102.9 100.80000000000001A9.6 9.6 0 1 0 102.9 120A9.6 9.6 0 1 0 102.9 100.80000000000001Z"/></g><g><path fill="#444b54" d="M38.9,123c-7,0-12.6-5.7-12.6-12.6s5.7-12.6,12.6-12.6s12.6,5.7,12.6,12.6S45.8,123,38.9,123z M38.9,103.8c-3.7,0-6.6,3-6.6,6.6s3,6.6,6.6,6.6c3.7,0,6.6-3,6.6-6.6S42.5,103.8,38.9,103.8z"/></g><g><path fill="#444b54" d="M102.9,123c-7,0-12.6-5.7-12.6-12.6s5.7-12.6,12.6-12.6c7,0,12.6,5.7,12.6,12.6S109.8,123,102.9,123z M102.9,103.8c-3.7,0-6.6,3-6.6,6.6s3,6.6,6.6,6.6s6.6-3,6.6-6.6S106.5,103.8,102.9,103.8z"/></g></svg>