<svg xmlns="http://www.w3.org/2000/svg" viewBox="0 0 128 128" width="128px" height="128px"><path fill="#444b54" d="M27 49.5H16c-1.7 0-3-1.3-3-3s1.3-3 3-3h11c1.7 0 3 1.3 3 3S28.7 49.5 27 49.5zM23.3 73c-1 0-2-.5-2.6-1.5-.8-1.4-.3-3.3 1.1-4.1l8.7-5c1.4-.8 3.3-.3 4.1 1.1.8 1.4.3 3.3-1.1 4.1l-8.7 5C24.3 72.9 23.8 73 23.3 73zM32 31c-.5 0-1-.1-1.5-.4l-8.7-5c-1.4-.8-1.9-2.7-1.1-4.1.8-1.4 2.7-1.9 4.1-1.1l8.7 5c1.4.8 1.9 2.7 1.1 4.1C34 30.4 33 31 32 31zM4 43.5A3 3 0 1 0 4 49.5 3 3 0 1 0 4 43.5zM112 49.5h-11c-1.7 0-3-1.3-3-3s1.3-3 3-3h11c1.7 0 3 1.3 3 3S113.6 49.5 112 49.5zM96 31c-1 0-2-.5-2.6-1.5-.8-1.4-.3-3.3 1.1-4.1l8.7-5c1.4-.8 3.3-.3 4.1 1.1.8 1.4.3 3.3-1.1 4.1l-8.7 5C97 30.9 96.5 31 96 31zM104.7 73c-.5 0-1-.1-1.5-.4l-8.7-5c-1.4-.8-1.9-2.7-1.1-4.1.8-1.4 2.7-1.9 4.1-1.1l8.7 5c1.4.8 1.9 2.7 1.1 4.1C106.7 72.4 105.7 73 104.7 73zM124 43.5A3 3 0 1 0 124 49.5 3 3 0 1 0 124 43.5z"/><path fill="#b8e4ff" d="M74,86.7V14c0-5.5-4.5-10-10-10h0c-5.5,0-10,4.5-10,10v72.7c-6.1,3.5-10.2,10.2-10,17.7 c0.2,10.3,8.6,19,18.9,19.5c11.5,0.6,21.1-8.6,21.1-20C84,96.6,80,90.2,74,86.7z"/><path fill="#444b54" d="M64,127c-0.4,0-0.8,0-1.3,0c-11.9-0.6-21.5-10.5-21.8-22.5c-0.2-8.4,4.2-16.2,11.5-20.4 c1.4-0.8,3.3-0.3,4.1,1.1c0.8,1.4,0.3,3.3-1.1,4.1c-5.4,3.1-8.6,8.9-8.5,15.1c0.2,8.8,7.2,16.1,16.1,16.6 c4.7,0.2,9.2-1.4,12.6-4.6c3.4-3.2,5.3-7.6,5.3-12.3c0-6-3.3-11.7-8.5-14.7c-0.9-0.5-1.5-1.5-1.5-2.6V14c0-3.9-3.1-7-7-7 s-7,3.1-7,7v60c0,1.7-1.3,3-3,3s-3-1.3-3-3V14c0-7.2,5.8-13,13-13s13,5.8,13,13v71c6.2,4.3,10,11.4,10,19c0,6.4-2.5,12.3-7.2,16.7 C75.5,124.8,69.9,127,64,127z"/><path fill="#fff" d="M60 77.2c-1.7 0-3-1.3-3-3V44c0-1.7 1.3-3 3-3s3 1.3 3 3v30.2C63 75.8 61.7 77.2 60 77.2zM50 107.3c-1.6 0-3-1.3-3-2.9-.1-6.2 3.1-12 8.5-15.1 1.4-.8 3.3-.3 4.1 1.1.8 1.4.3 3.3-1.1 4.1-3.5 2-5.6 5.8-5.5 9.8C53 105.9 51.7 107.3 50 107.3 50 107.3 50 107.3 50 107.3zM60 27c-.2 0-.4 0-.6-.1-.2 0-.4-.1-.6-.2-.2-.1-.3-.2-.5-.3-.2-.1-.3-.2-.5-.4-.1-.1-.3-.3-.4-.4-.1-.2-.2-.3-.3-.5s-.1-.4-.2-.6c0-.2-.1-.4-.1-.6 0-.8.3-1.6.9-2.1.1-.1.3-.3.5-.4.2-.1.3-.2.5-.3.2-.1.4-.1.6-.2.4-.1.8-.1 1.2 0 .2 0 .4.1.6.2.2.1.4.2.5.3.2.1.3.2.5.4.6.6.9 1.3.9 2.1 0 .2 0 .4-.1.6 0 .2-.1.4-.2.6s-.2.4-.3.5c-.1.2-.2.3-.4.4-.1.1-.3.3-.5.4-.2.1-.3.2-.5.3-.2.1-.4.1-.6.2C60.4 27 60.2 27 60 27z"/></svg>