<svg xmlns="http://www.w3.org/2000/svg" viewBox="0 0 128 128" width="128px" height="128px"><path fill="#98BED8" d="M116,84.2v3H16v-50c0-5.5,4.5-10,10-10h70l0,0C108.9,43.3,116,63.4,116,84.2z"/><path fill="#FFF" d="M63.9 47.4L53.6 47.4 53.6 37 44.3 37 44.3 47.4 33.9 47.4 33.9 56.6 44.3 56.6 44.3 67 53.6 67 53.6 56.6 63.9 56.6zM110 52.2H93c-5.5 0-10-4.5-10-10v-15h13L110 52.2z"/><path fill="#454B54" d="M109,55.2H93c-7.2,0-13-5.8-13-13v-15c0-1.7,1.3-3,3-3s3,1.3,3,3v15c0,3.9,3.1,7,7,7h16c1.7,0,3,1.3,3,3S110.7,55.2,109,55.2z"/><path fill="#454B54" d="M116,90.2H16c-1.7,0-3-1.3-3-3v-50c0-7.2,5.8-13,13-13h70c0.9,0,1.8,0.4,2.3,1.1C111.7,41.9,119,62.8,119,84.2v3C119,88.8,117.7,90.2,116,90.2z M19,84.2h94c0-19.5-6.5-38.6-18.5-54H26c-3.9,0-7,3.1-7,7V84.2z"/><path fill="#454B54" d="M104 30.2H41c-1.7 0-3-1.3-3-3s1.3-3 3-3h63c1.7 0 3 1.3 3 3S105.7 30.2 104 30.2zM116 90.2H12c-1.7 0-3-1.3-3-3s1.3-3 3-3h104c1.7 0 3 1.3 3 3S117.7 90.2 116 90.2z"/><path fill="#FFF" d="M31.9 81.60000000000001A9.6 9.6 0 1 0 31.9 100.8A9.6 9.6 0 1 0 31.9 81.60000000000001Z"/><g><path fill="#FFF" d="M95.9 81.60000000000001A9.6 9.6 0 1 0 95.9 100.8A9.6 9.6 0 1 0 95.9 81.60000000000001Z"/></g><g><path fill="#454B54" d="M31.9,103.8c-7,0-12.6-5.7-12.6-12.6s5.7-12.6,12.6-12.6s12.6,5.7,12.6,12.6S38.8,103.8,31.9,103.8z M31.9,84.6c-3.7,0-6.6,3-6.6,6.6s3,6.6,6.6,6.6c3.7,0,6.6-3,6.6-6.6S35.5,84.6,31.9,84.6z"/></g><g><path fill="#454B54" d="M95.9,103.8c-7,0-12.6-5.7-12.6-12.6s5.7-12.6,12.6-12.6c7,0,12.6,5.7,12.6,12.6S102.8,103.8,95.9,103.8z M95.9,84.6c-3.7,0-6.6,3-6.6,6.6s3,6.6,6.6,6.6s6.6-3,6.6-6.6S99.5,84.6,95.9,84.6z"/></g></svg>