<svg xmlns="http://www.w3.org/2000/svg" viewBox="0 0 128 128" width="128px" height="128px"><path fill="#d3e7ee" d="M40,89c-7.5,2.6-12.7,10-11.9,18.5c0.7,8.4,7.5,15.4,15.9,16.3C54.8,125.1,64,116.6,64,106 c0-7.8-5-14.5-12-17V10c0-3.3-2.7-6-6-6h0c-3.3,0-6,2.7-6,6V89z"/><path fill="#444b54" d="M108.1 74.9c-1.2-1.2-3.1-1.2-4.2 0L97 81.8V39c0-1.7-1.3-3-3-3s-3 1.3-3 3v42.8l-6.9-6.9c-1.2-1.2-3.1-1.2-4.2 0-1.2 1.2-1.2 3.1 0 4.2l12 12c.1.1.3.3.5.4.1 0 .2.1.2.1.1.1.2.1.3.2.1 0 .2.1.3.1.1 0 .2.1.3.1.2 0 .4.1.6.1s.4 0 .6-.1c.1 0 .2-.1.3-.1.1 0 .2-.1.3-.1.1 0 .2-.1.3-.2.1 0 .2-.1.2-.1.2-.1.3-.2.5-.4l12-12C109.3 77.9 109.3 76.1 108.1 74.9zM40 39c-1.7 0-3-1.3-3-3v-5c0-1.7 1.3-3 3-3s3 1.3 3 3v5C43 37.7 41.7 39 40 39zM40 59c-1.7 0-3-1.3-3-3v-5c0-1.7 1.3-3 3-3s3 1.3 3 3v5C43 57.7 41.7 59 40 59z"/><path fill="#444b54" d="M46 127c-.8 0-1.6 0-2.3-.1-9.9-1.1-17.7-9.1-18.5-19C24.3 99 29.2 90.8 37 87V71c0-1.7 1.3-3 3-3s3 1.3 3 3v18c0 1.3-.8 2.4-2 2.8-6.4 2.3-10.5 8.6-9.9 15.5.6 7 6.3 12.8 13.2 13.6 4.3.5 8.5-.8 11.7-3.7 3.2-2.8 5-6.9 5-11.2 0-6.3-4-12-10-14.1-1.2-.4-2-1.6-2-2.8V11c0-1.7-1.3-3-3-3s-3 1.3-3 3v5c0 1.7-1.3 3-3 3s-3-1.3-3-3v-5c0-5 4-9 9-9s9 4 9 9v76c7.3 3.4 12 10.8 12 19 0 6-2.6 11.7-7 15.7C56.1 125.1 51.1 127 46 127zM94 21A3 3 0 1 0 94 27 3 3 0 1 0 94 21z"/></svg>