<svg xmlns="http://www.w3.org/2000/svg" viewBox="0 0 100 100" width="100px" height="100px"><path fill="#f3cbca" d="M34.153,31c-2.181,0-10.989,1.515-19.972,18.311C9.047,58.913,8,68.134,8,74.958	c0,6.096,4.94,10.99,10.461,10.99c0,0,0.633,0.052,1.693,0.052C25.549,85.999,42,84.661,42,68.348V38.852	C42,34.263,39.154,31,34.153,31L34.153,31z"/><path fill="#f3cbca" d="M65.847,31c-5,0-7.847,3.263-7.847,7.852v29.496C58,84.661,74.451,85.999,79.846,86	c1.059,0,1.693-0.052,1.693-0.052C87.06,85.948,92,81.055,92,74.958c0-6.824-1.047-16.045-6.182-25.647	C76.836,32.515,68.028,31,65.847,31L65.847,31z"/><path fill="#f05b6c" d="M17.5,67.5c2-5.5,4.95-7,8-7c0.86,0,1.44,0.15,1.84,0.29c0.05-0.22,0.1-0.46,0.15-0.69	c0.34-1.72,0.85-3.25,1.47-4.6C21.49,55.52,17.5,60.01,17.5,67.5z"/><path fill="#f05b6c" d="M33,45.5c-1.3-2.61-1.5-7-1.5-7s-2,3-2,7c0,1.87,0.69,3.74,2.08,5.76c1.06-1.32,2.2-2.39,3.29-3.27	C34.24,47.37,33.5,46.49,33,45.5z"/><path fill="#f05b6c" d="M71.04,55.5c0.62,1.35,1.13,2.88,1.47,4.6c0.05,0.23,0.1,0.47,0.15,0.69	c0.4-0.14,0.98-0.29,1.84-0.29c3.05,0,6,1.5,8,7C82.5,60.01,78.51,55.52,71.04,55.5z"/><path fill="#f05b6c" d="M68.5,38.5c0,0-0.2,4.39-1.5,7c-0.5,0.99-1.24,1.87-1.87,2.49c1.09,0.88,2.23,1.95,3.29,3.27	c1.39-2.02,2.08-3.89,2.08-5.76C70.5,41.5,68.5,38.5,68.5,38.5z"/><path fill="#f05b6c" d="M65.2,55.62c-1.03,0.96-2.7,3.09-2.7,6.88c0,6,3,8,3,8c0-7.78,1.9-9.44,3.23-10.4L65.2,55.62z"/><path fill="#f05b6c" d="M38,62.5c0,6.2-3.09,8.33-3.22,8.42C34.69,70.97,34.6,71,34.5,71c-0.08,0-0.16-0.02-0.24-0.06	C34.1,70.85,34,70.68,34,70.5c0-7.38-1.7-9.02-2.95-9.94c1.02-2.23,2.48-3.91,4.13-5.27C36.3,56.33,38,58.57,38,62.5z"/><path fill="#f27c7c" d="M45.5,14v21.5c0,3.31-2.84,6.828-9.208,11.406c-3.104,2.23-7.392,6.025-8.802,13.191	c-1.145,5.82-4.744,9.429-6.99,11.403c2.538-0.46,7.5-2.443,10.028-9.665c2.13-6.086,7.257-8.421,11.603-10.819	C48.5,47.5,50,45.5,50,45.5s1.5,2,7.869,5.516c4.346,2.399,9.473,4.733,11.603,10.819C72,69.057,76.962,71.04,79.5,71.5	c-2.246-1.975-5.846-5.583-6.99-11.403c-1.41-7.166-5.698-10.96-8.802-13.19C57.34,42.328,54.5,38.81,54.5,35.5V14"/><path fill="#1f212b" d="M42.511,50.801c-0.129,0.072-0.247,0.141-0.381,0.214C41.759,51.22,41,51.636,41,51.639v16.708	C41.001,83.374,26.421,84.999,20.154,85c-0.998,0-1.605-0.048-1.692-0.052c-5.128,0-9.461-4.575-9.461-9.99	c0-9.312,1.983-17.547,6.063-25.175C24.307,32.499,33.173,32,34.153,32C38.376,32,41,34.625,41,38.852V43	c0,0.038,0.017,0.07,0.021,0.106c0.761-0.705,1.418-1.385,1.979-2.046v-2.209C43,33.475,39.527,30,34.153,30	c-1.8,0-11.264,0.908-20.854,18.84C9.061,56.766,7,65.31,7,74.958c0,6.498,5.245,11.987,11.375,11.986c0.001,0,0.004,0,0.005,0	C18.408,86.947,19.066,87,20.154,87C25.513,86.999,43,85.651,43,68.348V51.64C43,51.279,42.798,50.977,42.511,50.801z"/><path fill="#1f212b" d="M86.7,48.84C77.111,30.908,67.646,30,65.847,30C60.473,30,57,33.475,57,38.852v2.209	c0.56,0.66,1.218,1.34,1.978,2.046C58.983,43.07,59,43.038,59,43v-4.148C59,34.625,61.624,32,65.847,32	c0.98,0,9.847,0.499,19.09,17.783C89.017,57.412,91,65.647,91,74.958c0,5.415-4.333,9.99-9.542,9.993	c-0.006,0-0.614,0.048-1.611,0.048C73.579,84.999,59,83.374,59,68.348V51.64c0-0.003-0.002-0.005-0.002-0.008	c-0.38-0.206-0.758-0.411-1.129-0.616c-0.133-0.073-0.252-0.142-0.381-0.214C57.202,50.977,57,51.279,57,51.64v16.708	C57,85.651,74.487,86.999,79.846,87c1.066,0,1.72-0.051,1.695-0.052C87.752,86.947,93,81.457,93,74.958	C93,65.31,90.939,56.766,86.7,48.84z"/><path fill="#1f212b" d="M79.5,72c-0.029,0-0.059-0.002-0.089-0.008C77.191,71.589,71.734,69.81,69,62	c-1.889-5.397-6.149-7.709-10.269-9.944l-1.104-0.603c-4.757-2.625-6.845-4.428-7.627-5.212c-0.783,0.785-2.871,2.587-7.627,5.213	l-1.104,0.602C37.149,54.291,32.889,56.603,31,62c-2.734,7.81-8.192,9.589-10.411,9.992c-0.22,0.042-0.441-0.072-0.54-0.274	c-0.098-0.202-0.049-0.445,0.12-0.593C22.579,69.006,25.909,65.549,27,60c1.445-7.341,5.829-11.221,9-13.5c6.224-4.474,9-7.867,9-11	V14h1v21.5c0,3.487-2.904,7.13-9.416,11.812c-3.034,2.181-7.227,5.889-8.603,12.882c-0.964,4.904-3.7,8.316-5.615,10.25	c2.405-0.951,5.756-3.246,7.691-8.773c2.016-5.762,6.648-8.275,10.735-10.493l1.097-0.599c6.144-3.391,7.698-5.361,7.712-5.38	c0.095-0.124,0.252-0.188,0.4-0.197c0.156,0.001,0.304,0.074,0.398,0.199c0.013,0.017,1.567,1.987,7.711,5.377l1.097,0.599	c4.087,2.218,8.719,4.731,10.736,10.493c1.935,5.527,5.286,7.822,7.69,8.773c-1.916-1.934-4.651-5.345-5.615-10.25	c-1.376-6.994-5.569-10.701-8.603-12.881C56.904,42.63,54,38.987,54,35.5V14h1v21.5c0,3.132,2.776,6.525,9,11	c3.172,2.279,7.556,6.158,9,13.5c1.091,5.549,4.42,9.006,6.83,11.125c0.169,0.148,0.218,0.391,0.12,0.593	C79.866,71.893,79.689,72,79.5,72z"/><path fill="#1f212b" d="M42.855,52.329l-0.967-1.751c4.762-2.629,6.764-4.403,7.403-5.044c0.376-0.376,1.04-0.376,1.416,0	c0.639,0.641,2.641,2.415,7.403,5.043l-0.967,1.751C53.32,50.217,51.161,48.61,50,47.603C48.839,48.61,46.68,50.217,42.855,52.329z"/><path fill="#1f212b" d="M42,42.428c-0.245,0-0.49-0.089-0.683-0.27c-0.403-0.377-0.424-1.01-0.047-1.414	C43.132,38.753,44,37.086,44,35.5V14c0-0.552,0.448-1,1-1s1,0.448,1,1v21.5c0,2.125-1.039,4.226-3.27,6.611	C42.534,42.321,42.267,42.428,42,42.428z"/><path fill="#1f212b" d="M58,42.428c-0.267,0-0.534-0.106-0.73-0.317C55.039,39.726,54,37.625,54,35.5V14c0-0.552,0.448-1,1-1	s1,0.448,1,1v21.5c0,1.586,0.868,3.253,2.73,5.245c0.377,0.403,0.356,1.036-0.047,1.414C58.49,42.338,58.245,42.428,58,42.428z"/><rect width="10" height="1" x="45" y="28" fill="#1f212b"/><path fill="#1f212b" d="M49.5,36h-4c-0.276,0-0.5-0.224-0.5-0.5s0.224-0.5,0.5-0.5h4c0.276,0,0.5,0.224,0.5,0.5	S49.776,36,49.5,36z"/><path fill="#1f212b" d="M55.5,22h-3c-0.276,0-0.5-0.224-0.5-0.5s0.224-0.5,0.5-0.5h3c0.276,0,0.5,0.224,0.5,0.5	S55.776,22,55.5,22z"/><path fill="#1f212b" d="M50.5,22h-6c-0.276,0-0.5-0.224-0.5-0.5s0.224-0.5,0.5-0.5h6c0.276,0,0.5,0.224,0.5,0.5	S50.776,22,50.5,22z"/><path fill="#1f212b" d="M52.5,36h-1c-0.276,0-0.5-0.224-0.5-0.5s0.224-0.5,0.5-0.5h1c0.276,0,0.5,0.224,0.5,0.5	S52.776,36,52.5,36z"/><path fill="#1f212b" d="M37.5,63c-0.276,0-0.5-0.224-0.5-0.5c0-0.333-0.014-0.652-0.039-0.959	c-0.022-0.275,0.182-0.517,0.458-0.54c0.278-0.021,0.517,0.183,0.54,0.458C37.985,61.792,38,62.139,38,62.5	C38,62.776,37.776,63,37.5,63z"/><path fill="#1f212b" d="M17.5,68c-0.029,0-0.058-0.002-0.087-0.008C17.174,67.95,17,67.743,17,67.5	c0-7.923,4.359-12.479,11.958-12.5l0.003,1c-6.12,0.017-9.859,3.08-10.752,8.702C19.962,61.543,22.366,60,25.5,60	c0.732,0,1.384,0.104,1.996,0.318l-0.331,0.943C26.844,61.149,26.322,61,25.5,61c-3.482,0-5.875,2.12-7.53,6.671	C17.897,67.871,17.707,68,17.5,68z"/><path fill="#1f212b" d="M31.58,51.76c-0.006,0-0.012,0-0.019,0c-0.158-0.006-0.304-0.086-0.393-0.216	C29.709,49.424,29,47.447,29,45.5c0-4.104,1.999-7.15,2.084-7.277c0.12-0.18,0.34-0.262,0.55-0.205	c0.208,0.058,0.356,0.243,0.366,0.459c0.002,0.043,0.211,4.316,1.448,6.8c0.535,1.058,1.341,1.931,1.773,2.357	c0.102,0.1,0.156,0.239,0.149,0.381c-0.007,0.143-0.075,0.275-0.186,0.365c-1.243,1.003-2.294,2.048-3.214,3.193	C31.875,51.691,31.731,51.76,31.58,51.76z M31.152,40.246C30.618,41.461,30,43.336,30,45.5c0,1.571,0.533,3.187,1.626,4.922	c0.748-0.87,1.575-1.686,2.508-2.473c-0.485-0.526-1.119-1.309-1.581-2.223c0-0.001-0.001-0.002-0.001-0.002	C31.732,44.077,31.337,41.797,31.152,40.246z"/><path fill="#1f212b" d="M82.5,68c-0.207,0-0.396-0.129-0.469-0.329C80.375,63.12,77.982,61,74.5,61	c-0.822,0-1.344,0.149-1.665,0.262c-0.131,0.047-0.277,0.036-0.4-0.03s-0.213-0.18-0.249-0.315	c-0.059-0.226-0.108-0.452-0.158-0.678c-0.324-1.633-0.806-3.143-1.443-4.53c-0.071-0.155-0.058-0.335,0.034-0.479	C70.711,55.086,70.87,55,71.04,55h0.001C78.641,55.021,83,59.577,83,67.5c0,0.243-0.174,0.45-0.413,0.492	C82.558,67.998,82.528,68,82.5,68z M74.5,60c3.134,0,5.538,1.543,7.291,4.702c-0.855-5.381-4.319-8.418-9.98-8.683	c0.515,1.253,0.914,2.589,1.19,3.985c0.012,0.054,0.023,0.107,0.035,0.159C73.492,60.053,73.976,60,74.5,60z"/><path fill="#1f212b" d="M68.42,51.76c-0.151,0-0.295-0.068-0.39-0.187c-0.92-1.146-1.972-2.19-3.214-3.193	c-0.111-0.09-0.178-0.222-0.186-0.365c-0.007-0.142,0.047-0.281,0.149-0.381c0.433-0.426,1.24-1.3,1.774-2.359	c1.235-2.48,1.445-6.754,1.447-6.797c0.01-0.216,0.157-0.401,0.366-0.459c0.208-0.057,0.43,0.025,0.55,0.205	C69.001,38.35,71,41.396,71,45.5c0,1.947-0.709,3.924-2.168,6.043c-0.089,0.13-0.235,0.21-0.393,0.216	C68.432,51.76,68.426,51.76,68.42,51.76z M65.865,47.949c0.933,0.787,1.761,1.603,2.508,2.473C69.467,48.687,70,47.071,70,45.5	c0-2.171-0.618-4.044-1.152-5.258c-0.185,1.551-0.58,3.833-1.4,5.481C66.985,46.64,66.35,47.423,65.865,47.949z"/><path fill="#1f212b" d="M65.5,71c-0.097,0-0.194-0.028-0.277-0.084C65.091,70.828,62,68.696,62,62.5	c0-4.063,1.826-6.318,2.915-7.301c0.189-0.172,0.478-0.173,0.669-0.001c1.548,1.389,2.727,2.916,3.604,4.668	c0.109,0.218,0.044,0.484-0.153,0.627C67.9,61.322,66,62.708,66,70.5c0,0.185-0.102,0.354-0.264,0.441	C65.662,70.98,65.581,71,65.5,71z M65.258,56.257C64.294,57.258,63,59.214,63,62.5c0,3.699,1.192,5.807,2.015,6.821	c0.162-6.203,1.618-8.199,3.088-9.374C67.375,58.59,66.438,57.376,65.258,56.257z"/><path fill="#1f212b" d="M34.5,71c-0.081,0-0.161-0.02-0.235-0.059C34.102,70.854,34,70.685,34,70.5	c0-7.803-1.964-9.229-3.02-9.996c-0.198-0.144-0.263-0.411-0.153-0.629c0.883-1.753,2.074-3.267,3.64-4.626	c0.193-0.168,0.48-0.163,0.667,0.011c0.794,0.735,1.862,2.045,2.444,4.105c0.075,0.266-0.079,0.542-0.345,0.617	c-0.263,0.076-0.542-0.078-0.617-0.345c-0.443-1.566-1.194-2.64-1.84-3.324c-1.189,1.093-2.131,2.291-2.863,3.641	c1.17,0.907,2.887,2.768,3.069,9.369c0.363-0.446,0.797-1.103,1.167-2.011c0.104-0.256,0.394-0.379,0.652-0.274	c0.255,0.104,0.378,0.396,0.274,0.652c-0.931,2.285-2.242,3.188-2.297,3.226C34.695,70.971,34.598,71,34.5,71z"/></svg>