<svg xmlns="http://www.w3.org/2000/svg" viewBox="0 0 100 100" width="100px" height="100px"><path fill="#f15b6c" d="M63 21L54 21 54 12 47 12 47 21 38 21 38 28 47 28 47 37 54 37 54 28 63 28z"/><path fill="#39c2d8" d="M82,68H41V48h34.695C79.177,48,82,50.823,82,54.305V68z"/><path fill="#d38b5d" d="M92,86h-8V76c0-0.552-0.447-1-1-1H17c-0.553,0-1,0.448-1,1v10H8V34.99C8,32.79,9.79,31,12.01,31 c2.2,0,3.99,1.79,3.99,3.99V61v6c0,0.099,0.03,0.189,0.056,0.28C16.023,67.347,16,67.42,16,67.5c0,0.276,0.224,0.5,0.5,0.5h4 c0.276,0,0.5-0.224,0.5-0.5S20.776,67,20.5,67H18v-5h22v5h-8.5c-0.276,0-0.5,0.224-0.5,0.5s0.224,0.5,0.5,0.5h52 c0.276,0,0.5-0.224,0.5-0.5c0-0.08-0.023-0.153-0.056-0.22C83.971,67.189,84,67.099,84,67V56.941V48.99c0-2.2,1.79-3.99,4.01-3.99 c2.2,0,3.99,1.79,3.99,3.99V86z"/><path fill="#fefdef" d="M17 61H41V68H17z"/><path fill="#1f212b" d="M54,38h-7c-0.553,0-1-0.448-1-1v-8h-8c-0.553,0-1-0.448-1-1v-7c0-0.552,0.447-1,1-1h8v-8 c0-0.552,0.447-1,1-1h7c0.553,0,1,0.448,1,1v8h8c0.553,0,1,0.448,1,1v7c0,0.552-0.447,1-1,1h-8v8C55,37.552,54.553,38,54,38z M48,36h5v-8c0-0.552,0.447-1,1-1h8v-5h-8c-0.553,0-1-0.448-1-1v-8h-5v8c0,0.552-0.447,1-1,1h-8v5h8c0.553,0,1,0.448,1,1V36z"/><path fill="#1f212b" d="M87.99,43C84.687,43,82,45.687,82,48.99v1.819C80.291,48.495,77.646,47,74.674,47H41 c-0.553,0-1,0.448-1,1v7.158C35.892,39.85,21.945,38.176,18,38.014V34.99c0-3.303-2.688-5.99-6.01-5.99C8.687,29,6,31.687,6,34.99 V87c0,0.552,0.447,1,1,1h10c0.553,0,1-0.448,1-1V77h64v10c0,0.552,0.447,1,1,1h10c0.553,0,1-0.448,1-1V48.99 C94,45.687,91.312,43,87.99,43z M42,49h32.674C78.714,49,82,52.563,82,56.941V67H42v-6V49z M38.888,59.956 c-4.434-0.298-20.288-2.582-20.871-19.959C22.006,40.104,36.725,41.75,38.888,59.956z M30.169,60H18V49.116 C20.682,55.068,25.634,58.279,30.169,60z M92,86h-8V76c0-0.552-0.447-1-1-1H17c-0.553,0-1,0.448-1,1v10H8V34.99 C8,32.79,9.79,31,12.01,31c2.2,0,3.99,1.79,3.99,3.99V61v6c0,0.099,0,0.42,0,0.5c0,0.276,0.224,0.5,0.5,0.5h4 c0.276,0,0.5-0.224,0.5-0.5S20.776,67,20.5,67H18v-5h22v5h-8.5c-0.276,0-0.5,0.224-0.5,0.5s0.224,0.5,0.5,0.5h52 c0.276,0,0.5-0.224,0.5-0.5c0-0.08-0.023-0.153-0.056-0.22C83.971,67.189,84,67.099,84,67V56.941V48.99c0-2.2,1.79-3.99,4.01-3.99 c2.2,0,3.99,1.79,3.99,3.99V86z"/><path fill="#1f212b" d="M27.5,67h-3c-0.276,0-0.5,0.224-0.5,0.5s0.224,0.5,0.5,0.5h3c0.276,0,0.5-0.224,0.5-0.5 S27.776,67,27.5,67z"/><path fill="#78cdd4" d="M38.888,59.956c-4.434-0.298-20.288-2.582-20.871-19.959C22.006,40.104,36.725,41.75,38.888,59.956z"/></svg>