<svg xmlns="http://www.w3.org/2000/svg" viewBox="0 0 100 100" width="100px" height="100px"><path fill="#fefdef" d="M82,81H18c-2.761,0-5-2.239-5-5V27c0-2.761,2.239-5,5-5h64c2.761,0,5,2.239,5,5v49	C87,78.761,84.761,81,82,81z"/><path fill="#1f212b" d="M82,82H18c-3.309,0-6-2.691-6-6V27c0-3.309,2.691-6,6-6h64c3.309,0,6,2.691,6,6v49	C88,79.309,85.309,82,82,82z M18,23c-2.206,0-4,1.794-4,4v49c0,2.206,1.794,4,4,4h64c2.206,0,4-1.794,4-4V27c0-2.206-1.794-4-4-4H18	z"/><path fill="#1f212b" d="M77.5,76h-55c-2.481,0-4.5-2.019-4.5-4.5v-16c0-0.276,0.224-0.5,0.5-0.5s0.5,0.224,0.5,0.5v16	c0,1.93,1.57,3.5,3.5,3.5h55c1.93,0,3.5-1.57,3.5-3.5v-8c0-0.276,0.224-0.5,0.5-0.5s0.5,0.224,0.5,0.5v8	C82,73.981,79.981,76,77.5,76z"/><path fill="#1f212b" d="M87,38H75v-2h12V38z M69,38H31v-2h38V38z M25,38H13v-2h12V38z"/><path fill="#f27c7c" d="M30.5,42.5h-5c-0.552,0-1-0.448-1-1v-9c0-0.552,0.448-1,1-1h5c0.552,0,1,0.448,1,1v9	C31.5,42.052,31.052,42.5,30.5,42.5z M74.5,42.5h-5c-0.552,0-1-0.448-1-1v-9c0-0.552,0.448-1,1-1h5c0.552,0,1,0.448,1,1v9	C75.5,42.052,75.052,42.5,74.5,42.5z"/><path fill="#1f212b" d="M74.5,43h-5c-0.827,0-1.5-0.673-1.5-1.5v-9c0-0.827,0.673-1.5,1.5-1.5h5c0.827,0,1.5,0.673,1.5,1.5v9	C76,42.327,75.327,43,74.5,43z M69.5,32c-0.275,0-0.5,0.225-0.5,0.5v9c0,0.275,0.225,0.5,0.5,0.5h5c0.275,0,0.5-0.225,0.5-0.5v-9	c0-0.275-0.225-0.5-0.5-0.5H69.5z M30.5,43h-5c-0.827,0-1.5-0.673-1.5-1.5v-9c0-0.827,0.673-1.5,1.5-1.5h5	c0.827,0,1.5,0.673,1.5,1.5v9C32,42.327,31.327,43,30.5,43z M25.5,32c-0.275,0-0.5,0.225-0.5,0.5v9c0,0.275,0.225,0.5,0.5,0.5h5	c0.275,0,0.5-0.225,0.5-0.5v-9c0-0.275-0.225-0.5-0.5-0.5H25.5z"/><path fill="#1f212b" d="M61,23c-0.553,0-1-0.447-1-1v-3c0-2.757-2.243-5-5-5H45c-2.757,0-5,2.243-5,5v3c0,0.553-0.447,1-1,1	s-1-0.447-1-1v-3c0-3.859,3.141-7,7-7h10c3.859,0,7,3.141,7,7v3C62,22.553,61.553,23,61,23z"/><path fill="#1f212b" d="M81.5,59c-0.276,0-0.5-0.224-0.5-0.5v-4c0-0.276,0.224-0.5,0.5-0.5s0.5,0.224,0.5,0.5v4	C82,58.776,81.776,59,81.5,59z"/><circle cx="50" cy="57" r="12.5" fill="#f15b6c"/><polygon fill="#fefdef" points="57.5,54.5 52.5,54.5 52.5,49.5 47.5,49.5 47.5,54.5 42.5,54.5 42.5,59.5 47.5,59.5 47.5,64.5 52.5,64.5 52.5,59.5 57.5,59.5"/><path fill="#1f212b" d="M52.5,65h-5c-0.276,0-0.5-0.224-0.5-0.5V60h-4.5c-0.276,0-0.5-0.224-0.5-0.5v-5	c0-0.276,0.224-0.5,0.5-0.5H47v-4.5c0-0.276,0.224-0.5,0.5-0.5h5c0.276,0,0.5,0.224,0.5,0.5V54h4.5c0.276,0,0.5,0.224,0.5,0.5v5	c0,0.276-0.224,0.5-0.5,0.5H53v4.5C53,64.776,52.776,65,52.5,65z M48,64h4v-4.5c0-0.276,0.224-0.5,0.5-0.5H57v-4h-4.5	c-0.276,0-0.5-0.224-0.5-0.5V50h-4v4.5c0,0.276-0.224,0.5-0.5,0.5H43v4h4.5c0.276,0,0.5,0.224,0.5,0.5V64z"/><path fill="#1f212b" d="M50,70c-7.168,0-13-5.832-13-13s5.832-13,13-13s13,5.832,13,13S57.168,70,50,70z M50,45	c-6.617,0-12,5.383-12,12s5.383,12,12,12s12-5.383,12-12S56.617,45,50,45z"/></svg>