<svg xmlns="http://www.w3.org/2000/svg" viewBox="0 0 100 100" width="100px" height="100px"><path fill="#ead6c7" d="M68,74c-4.325-1.622-7.188-2.659-8.907-3.27c-0.286-0.102-0.54-0.191-0.764-0.27	C57.528,70.178,57,69.425,57,68.576v-3.034c4.442-2.889,8-7.543,8-9.542c0-1,0-4,0-4c2,0,2.381-1.898,3-4c0.57-1.935,1-4,1-5	c0-1.875-3.257-2.5-3.257-2.5h-0.121c-0.031-1.75-0.325-9.907-2.871-15c0,0-6.25-2-12.75-2s-12.75,2-12.75,2	c-2.553,5.107-2.932,13.284-2.989,15.014C33.508,40.611,31,41.277,31,43c0,1,0.43,3.065,1,5c0.619,2.102,1,4,3,4c0,0,0,3,0,4	c0,1.999,3.558,6.653,8,9.542v3.034c0,0.849-0.528,1.602-1.329,1.884c-0.224,0.079-0.478,0.169-0.764,0.27	C39.188,71.341,36.325,72.378,32,74c-8,3-8,11-8,11h52C76,85,76,77,68,74z"/><path fill="#f27c7c" d="M68,74c-3.426-1.285-5.923-2.198-7.672-2.828L50,81.5L39.672,71.172	C37.923,71.802,35.426,72.715,32,74c-8,3-8,11-8,11h52C76,85,76,77,68,74z"/><path fill="#f05b6c" d="M60.337,71.154l-10.33,10.33l-10.33-10.33c0.47-0.16,0.88-0.31,1.24-0.44	c0.28-0.1,0.54-0.19,0.76-0.27c0.55-0.19,0.97-0.61,1.17-1.12l6.81,6.81l7.36-7.35c0.01,0.08,0.03,0.15,0.04,0.22	c0.15,0.66,0.62,1.21,1.28,1.44c0.22,0.08,0.48,0.17,0.76,0.27C59.457,70.844,59.867,70.994,60.337,71.154z"/><path fill="#1f212b" d="M52,43.125c0,0-0.5-1.125-2-1.125s-2,1-2,1v-2h4V43.125z"/><path fill="#1f212b" d="M43,40c-0.799,0-1.482,0.589-1.803,1.435C41.378,41.178,41.662,41,42,41c0.552,0,1,0.448,1,1	s-0.448,1-1,1c-0.502,0-0.899-0.376-0.971-0.857C41.015,42.26,41,42.378,41,42.5c0,1.381,0.895,2.5,2,2.5s2-1.119,2-2.5	S44.105,40,43,40z"/><path fill="#1f212b" d="M57,40c-0.799,0-1.482,0.589-1.803,1.435C55.378,41.178,55.662,41,56,41c0.552,0,1,0.448,1,1	s-0.448,1-1,1c-0.502,0-0.899-0.376-0.971-0.857C55.015,42.26,55,42.378,55,42.5c0,1.381,0.895,2.5,2,2.5s2-1.119,2-2.5	S58.105,40,57,40z"/><path fill="#1f212b" d="M60.314,35.751L61,34.441c-1.277-0.298-2.64-0.443-4-0.441c-1.73,0.003-3.456,0.247-5,0.723	L52.865,36c1.268-0.417,2.7-0.622,4.135-0.625C58.128,35.372,59.259,35.491,60.314,35.751z"/><path fill="#1f212b" d="M43,35.375c1.435,0.003,2.867,0.208,4.135,0.625L48,34.723c-1.544-0.476-3.27-0.719-5-0.723	c-1.36-0.003-2.723,0.143-4,0.441l0.686,1.31C40.741,35.491,41.872,35.372,43,35.375z"/><path fill="#1f212b" d="M50,56c-1.978,0-2.863-1.151-2.9-1.2c-0.165-0.221-0.12-0.534,0.101-0.7	c0.219-0.165,0.53-0.121,0.697,0.097C47.93,54.237,48.555,55,50,55c1.454,0,2.077-0.771,2.104-0.805	c0.169-0.216,0.483-0.257,0.699-0.09c0.217,0.167,0.262,0.476,0.098,0.694C52.863,54.849,51.978,56,50,56z"/><path fill="#1f212b" d="M50,68c-2.106,0-4.526-0.85-7-2.458l0.545-0.838C45.855,66.206,48.088,67,50,67	s4.145-0.794,6.455-2.296L57,65.542C54.526,67.15,52.106,68,50,68z"/><path fill="#1f212b" d="M66.5,85.5h-9c-0.276,0-0.5-0.224-0.5-0.5v-3.5c0-0.276,0.224-0.5,0.5-0.5h9	c0.276,0,0.5,0.224,0.5,0.5V85C67,85.276,66.776,85.5,66.5,85.5z M58,84.5h8V82h-8V84.5z"/><path fill="#1f212b" d="M76,86H24c-0.553,0-1-0.447-1-1c0-0.087,0.099-8.73,8.648-11.937c4.5-1.688,7.339-2.713,8.928-3.275	l0.751-0.268c0.333-0.116,0.575-0.39,0.645-0.719C41.991,68.712,42,68.645,42,68.58v-2.506c-4.242-2.913-8-7.609-8-10.074v-3.131	c-1.781-0.508-2.328-2.404-2.819-4.106l-0.14-0.479C30.561,46.658,30,44.3,30,43c0-2.503,4.468-3.277,6.388-3.494l0.225,1.988	c-2.371,0.269-4.463,1.051-4.614,1.519c0.002,0.84,0.405,2.823,0.961,4.704l0.143,0.491C33.727,50.371,34.051,51,35,51	c0.553,0,1,0.447,1,1v4c0,1.491,3.24,5.9,7.546,8.702C43.829,64.887,44,65.202,44,65.54v3.04c0,0.207-0.023,0.416-0.072,0.642	c-0.215,1.006-0.954,1.844-1.93,2.183l-0.75,0.268c-1.585,0.562-4.412,1.582-8.896,3.265c-5.64,2.114-6.953,6.963-7.259,9.063	h49.822c-0.29-2.102-1.575-6.93-7.267-9.063c-4.484-1.683-7.312-2.703-8.893-3.264l-0.769-0.273	c-0.961-0.334-1.682-1.143-1.912-2.158C56.024,69.01,56,68.79,56,68.58v-3.04c0-0.338,0.171-0.653,0.454-0.838	C60.76,61.9,64,57.491,64,56v-4c0-0.553,0.447-1,1-1c0.949,0,1.273-0.629,1.898-2.792l0.143-0.491C67.597,45.836,68,43.853,68,43	c-0.149-0.457-2.241-1.239-4.612-1.506l0.225-1.988C65.532,39.723,70,40.497,70,43c0,1.3-0.561,3.658-1.041,5.283l-0.14,0.479	c-0.491,1.702-1.038,3.599-2.819,4.106V56c0,2.465-3.758,7.161-8,10.074v2.506c0,0.067,0.01,0.146,0.027,0.228	c0.074,0.328,0.312,0.597,0.631,0.708l0.77,0.273c1.585,0.562,4.424,1.587,8.924,3.274C76.901,76.27,77,84.913,77,85	C77,85.553,76.553,86,76,86z"/><path fill="#1f212b" d="M47.968,44.935c-0.186,2.191-1.176,4.845-4.832,5.061C37.979,49.988,37,47.882,37,44v-1.82	c0-1.023,0.769-1.878,1.786-1.991C39.801,40.078,40.899,40,42,40c2.07,0,4.65,0.465,5.569,1.483	C47.727,41.921,48.113,43.206,47.968,44.935z M48.445,40.973C47.259,39.432,44,39,42,39c-3.996,0-7.985,0.993-8,0.993l0,0	l0.325,1.929C35.741,41.573,36,43,36,44c0,4,1,6.996,7.163,6.996c4.549-0.252,5.613-3.765,5.801-5.977	C49.167,42.608,48.444,40.981,48.445,40.973z"/><path fill="#1f212b" d="M50,61c-4.696,0-7.724-2.23-7.85-2.325c-0.166-0.124-0.199-0.358-0.075-0.524	c0.124-0.165,0.358-0.2,0.525-0.076C42.629,58.097,45.565,60,50,60s7.371-1.903,7.4-1.925c0.167-0.124,0.401-0.089,0.525,0.076	c0.124,0.166,0.09,0.4-0.075,0.524C57.724,58.77,54.696,61,50,61z"/><path fill="#1f212b" d="M52.431,41.483C53.35,40.465,55.93,40,58,40c1.101,0,2.199,0.078,3.214,0.19	C62.231,40.302,63,41.157,63,42.18V44c0,3.882-0.979,5.988-6.135,5.996c-3.656-0.216-4.646-2.87-4.832-5.061	C51.887,43.206,52.273,41.921,52.431,41.483z M51.036,45.019c0.188,2.212,1.251,5.724,5.801,5.977C63,50.996,64,48,64,44	c0-1,0.259-2.427,1.675-2.078L66,39.993l0,0c-0.015,0-4.004-0.993-8-0.993c-2,0-5.259,0.432-6.445,1.973	C51.556,40.981,50.833,42.608,51.036,45.019z"/><path fill="#bb7a54" d="M50,18.5c-16,0-19.5,10-19.5,16c0,7,4,10,4,10c0-9,5-13,5-16c0.467,3.726,9,5,9,5v-3c0,0,6.5,6,14,6	c3,4,3,8,3,8s4-4,4-11C69.5,23.5,58,18.5,50,18.5z"/><path fill="#1f212b" d="M34.5,45c-0.106,0-0.212-0.034-0.3-0.1c-0.172-0.128-4.2-3.232-4.2-10.4C30,31.745,30.964,18,50,18	c8.385,0,20,5.387,20,15.5c0,7.125-3.978,11.184-4.146,11.354c-0.144,0.143-0.359,0.185-0.544,0.108	c-0.187-0.077-0.309-0.259-0.31-0.461c0-0.038-0.043-3.761-2.754-7.503C56.239,36.895,50.988,33.181,49,31.581V33.5	c0,0.146-0.063,0.284-0.174,0.379c-0.109,0.095-0.25,0.135-0.4,0.116c-0.312-0.047-6.656-1.027-8.769-3.87	c-0.287,0.759-0.731,1.577-1.237,2.506C36.977,35.286,35,38.921,35,44.5c0,0.189-0.107,0.362-0.276,0.447	C34.653,44.982,34.576,45,34.5,45z M50,19c-18.084,0-19,12.912-19,15.5c0,4.762,1.916,7.602,3.027,8.848	c0.246-5.184,2.12-8.631,3.514-11.195C38.356,30.655,39,29.471,39,28.5c0-0.264,0.205-0.482,0.469-0.499	c0.297-0.019,0.495,0.176,0.527,0.437c0.318,2.54,5.439,3.998,8.004,4.471V30.5c0-0.199,0.117-0.378,0.3-0.458	c0.182-0.081,0.394-0.045,0.539,0.09C48.902,30.191,55.289,36,62.5,36c0.157,0,0.306,0.074,0.4,0.2	c2.071,2.762,2.759,5.504,2.986,7.044C67.007,41.724,69,38.338,69,33.5C69,24.039,57.966,19,50,19z"/><path fill="#fefdef" d="M50,24.5c11.5,0,18.5,4.5,18.5,4.5V18.5c0,0-4.5-9-18.5-9s-18.5,9-18.5,9V29	C31.5,29,38.5,24.5,50,24.5"/><path fill="#1f212b" d="M31.5,29.5c-0.082,0-0.165-0.021-0.239-0.061C31.1,29.351,31,29.183,31,29V18.5	c0-0.078,0.019-0.154,0.053-0.224C31.1,18.184,35.854,9,50,9s18.9,9.184,18.947,9.276C68.981,18.346,69,18.422,69,18.5V29	c0,0.183-0.1,0.351-0.26,0.438c-0.161,0.087-0.357,0.08-0.511-0.018C68.161,29.376,61.202,25,50,25	c-11.224,0-18.161,4.376-18.229,4.42C31.688,29.474,31.594,29.5,31.5,29.5z M50,24c9.476,0,15.87,2.975,18,4.132v-9.505	C67.458,17.668,62.72,10,50,10s-17.458,7.668-18,8.627v9.505C34.13,26.975,40.524,24,50,24z"/><polygon fill="#f05b6c" points="53.5,15.5 51.5,15.5 51.5,13.5 48.5,13.5 48.5,15.5 46.5,15.5 46.5,18.5 48.5,18.5 48.5,20.5 51.5,20.5 51.5,18.5 53.5,18.5"/><path fill="#1f212b" d="M51.5,21h-3c-0.276,0-0.5-0.224-0.5-0.5V19h-1.5c-0.276,0-0.5-0.224-0.5-0.5v-3	c0-0.276,0.224-0.5,0.5-0.5H48v-1.5c0-0.276,0.224-0.5,0.5-0.5h3c0.276,0,0.5,0.224,0.5,0.5V15h1.5c0.276,0,0.5,0.224,0.5,0.5v3	c0,0.276-0.224,0.5-0.5,0.5H52v1.5C52,20.776,51.776,21,51.5,21z M49,20h2v-1.5c0-0.276,0.224-0.5,0.5-0.5H53v-2h-1.5	c-0.276,0-0.5-0.224-0.5-0.5V14h-2v1.5c0,0.276-0.224,0.5-0.5,0.5H47v2h1.5c0.276,0,0.5,0.224,0.5,0.5V20z"/><path fill="#1f212b" d="M50,77c-0.128,0-0.256-0.049-0.354-0.146l-7.153-7.153c-0.195-0.195-0.195-0.512,0-0.707	s0.512-0.195,0.707,0l6.8,6.799l2.146-2.146c0.195-0.195,0.512-0.195,0.707,0s0.195,0.512,0,0.707l-2.5,2.5	C50.256,76.951,50.128,77,50,77z"/><path fill="#1f212b" d="M50,82c-0.128,0-0.256-0.049-0.354-0.146L39.333,71.54l0.707-0.707l9.96,9.96l9.975-9.974	l0.707,0.707L50.354,81.854C50.256,81.951,50.128,82,50,82z"/><path fill="#1f212b" d="M54.5,72.5c-0.128,0-0.256-0.049-0.354-0.146c-0.195-0.195-0.195-0.512,0-0.707l1-1	c0.195-0.195,0.512-0.195,0.707,0s0.195,0.512,0,0.707l-1,1C54.756,72.451,54.628,72.5,54.5,72.5z"/></svg>