<svg xmlns="http://www.w3.org/2000/svg" viewBox="0 0 100 100" width="100px" height="100px"><path fill="#bb7a54" d="M75.5,47.5c0-1.875-0.861-3.548-2.208-4.648c0.122-0.433,0.208-0.88,0.208-1.352c0-2.761-2.239-5-5-5	s-9,0-9,0s0,17.094,0,19.5c0,2.485,2.015,4.5,4.5,4.5c1.965,0,3.618-1.268,4.232-3.023C70.607,57.354,72.5,55.406,72.5,53	c0-0.1-0.023-0.193-0.029-0.291C74.279,51.675,75.5,49.732,75.5,47.5z"/><path fill="#1f212b" d="M64,61c-2.757,0-5-2.243-5-5V36.5c0-0.276,0.224-0.5,0.5-0.5h9c3.033,0,5.5,2.468,5.5,5.5	c0,0.375-0.047,0.755-0.146,1.176C75.222,43.909,76,45.649,76,47.5c0,2.214-1.142,4.281-3,5.473c0,0.01,0,0.019,0,0.027	c0,2.543-1.914,4.656-4.415,4.948C67.805,59.786,66.002,61,64,61z M60,37v19c0,2.206,1.794,4,4,4c1.687,0,3.198-1.08,3.759-2.688	c0.067-0.191,0.244-0.324,0.446-0.334C70.333,56.867,72,55.12,72,53c0-0.034-0.006-0.067-0.011-0.101	c-0.007-0.053-0.014-0.104-0.018-0.158c-0.012-0.19,0.085-0.371,0.251-0.466C73.936,51.295,75,49.466,75,47.5	c0-1.657-0.738-3.21-2.025-4.261c-0.154-0.126-0.219-0.332-0.165-0.523C72.94,42.257,73,41.871,73,41.5c0-2.481-2.019-4.5-4.5-4.5	H60z"/><path fill="#ead6c7" d="M68,74c-4.325-1.622-7.188-2.659-8.907-3.27c-0.286-0.102-0.54-0.191-0.764-0.27	C57.528,70.178,57,69.425,57,68.576v-3.034c4.442-2.889,8-7.543,8-9.542c0-1,0-4,0-4c2,0,2.381-1.898,3-4c0.57-1.935,1-4,1-5	c0-1.875-3.5-2.5-3.5-2.5l0.125-13c0,0-9.125-2-15.625-2s-15.625,2-15.625,2v13.014C33.621,40.611,31,41.277,31,43	c0,1,0.43,3.065,1,5c0.619,2.102,1,4,3,4c0,0,0,3,0,4c0,1.999,3.558,6.653,8,9.542v3.034c0,0.849-0.528,1.602-1.329,1.884	c-0.224,0.079-0.478,0.169-0.764,0.27C39.188,71.341,36.325,72.378,32,74c-8,3-8,11-8,11h52C76,85,76,77,68,74z"/><path fill="#1f212b" d="M50,56c-1.977,0-2.863-1.151-2.9-1.2c-0.166-0.221-0.121-0.534,0.1-0.7	c0.22-0.164,0.532-0.121,0.697,0.097C47.93,54.237,48.555,55,50,55c1.454,0,2.078-0.771,2.104-0.805	c0.169-0.215,0.481-0.257,0.699-0.09c0.217,0.167,0.262,0.476,0.097,0.694C52.863,54.849,51.977,56,50,56z"/><path fill="#1f212b" d="M50,68c-2.106,0-4.527-0.85-7-2.458l0.545-0.838C45.855,66.206,48.087,67,50,67	s4.145-0.794,6.455-2.296L57,65.542C54.527,67.15,52.106,68,50,68z"/><path fill="#f27c7c" d="M68,74c-3.426-1.285-5.923-2.198-7.672-2.828L50,81.5L39.672,71.172	C37.923,71.802,35.426,72.715,32,74c-8,3-8,11-8,11h52C76,85,76,77,68,74z"/><path fill="#f05b6c" d="M60.33,71.17L50,81.5L39.67,71.17c0.47-0.16,0.88-0.31,1.24-0.44c0.28-0.1,0.54-0.19,0.76-0.27	c0.55-0.19,0.97-0.61,1.17-1.12l6.81,6.81l7.36-7.35c0.01,0.08,0.03,0.15,0.04,0.22c0.15,0.66,0.62,1.21,1.28,1.44	c0.22,0.08,0.48,0.17,0.76,0.27C59.45,70.86,59.86,71.01,60.33,71.17z"/><rect width="9" height="3.5" x="57.5" y="81.5" fill="#f05b6c"/><path fill="#1f212b" d="M66.5,85.5h-9c-0.276,0-0.5-0.224-0.5-0.5v-3.5c0-0.276,0.224-0.5,0.5-0.5h9	c0.276,0,0.5,0.224,0.5,0.5V85C67,85.276,66.776,85.5,66.5,85.5z M58,84.5h8V82h-8V84.5z"/><path fill="#1f212b" d="M76,86H24c-0.552,0-1-0.447-1-1c0-0.087,0.099-8.73,8.649-11.937	c4.504-1.689,7.341-2.714,8.927-3.275l0.751-0.268c0.333-0.116,0.575-0.39,0.645-0.719C41.991,68.711,42,68.643,42,68.58v-2.506	c-4.242-2.913-8-7.61-8-10.074v-3.131c-1.781-0.508-2.329-2.404-2.82-4.106l-0.139-0.479C30.561,46.657,30,44.298,30,43	c0-2.771,4.461-2.985,4.97-3.001l0.062,1.999C33.667,42.043,32,42.514,32,43c0,0.852,0.403,2.835,0.959,4.717l0.143,0.491	C33.726,50.371,34.051,51,35,51c0.552,0,1,0.447,1,1v4c0,1.491,3.24,5.899,7.545,8.702C43.829,64.887,44,65.202,44,65.54v3.04	c0,0.206-0.023,0.408-0.072,0.639c-0.214,1.009-0.954,1.847-1.93,2.186l-0.75,0.268c-1.583,0.561-4.407,1.58-8.897,3.265	c-5.639,2.114-6.953,6.963-7.259,9.063h49.823c-0.29-2.102-1.576-6.93-7.267-9.063c-4.49-1.685-7.314-2.704-8.893-3.264	l-0.768-0.273c-0.961-0.334-1.682-1.143-1.913-2.158C56.024,69.005,56,68.787,56,68.58v-3.04c0-0.338,0.171-0.653,0.455-0.838	C60.76,61.899,64,57.491,64,56v-4c0-0.553,0.448-1,1-1c0.949,0,1.274-0.629,1.898-2.792l0.143-0.491C67.597,45.835,68,43.852,68,43	c0-0.486-1.667-0.956-3.031-1.001L65.03,40c0.509,0.016,4.97,0.229,4.97,3c0,1.298-0.561,3.657-1.041,5.283l-0.139,0.479	c-0.491,1.702-1.039,3.599-2.82,4.106V56c0,2.464-3.758,7.161-8,10.074v2.506c0,0.066,0.009,0.145,0.028,0.23	c0.074,0.325,0.311,0.594,0.63,0.705l0.77,0.273c1.582,0.561,4.419,1.585,8.923,3.274C76.901,76.27,77,84.913,77,85	C77,85.553,76.552,86,76,86z"/><path fill="#1f212b" d="M50,61c-4.696,0-7.724-2.23-7.85-2.325c-0.166-0.124-0.199-0.358-0.075-0.524	c0.124-0.165,0.358-0.2,0.525-0.076C42.629,58.097,45.565,60,50,60s7.371-1.903,7.4-1.925c0.167-0.124,0.401-0.089,0.525,0.076	c0.124,0.166,0.09,0.4-0.075,0.524C57.724,58.77,54.696,61,50,61z"/><path fill="#1f212b" d="M43,43c-0.799,0-1.482,0.589-1.803,1.435C41.378,44.178,41.662,44,42,44c0.552,0,1,0.448,1,1	c0,0.552-0.448,1-1,1c-0.502,0-0.899-0.376-0.971-0.857C41.015,45.26,41,45.378,41,45.5c0,1.381,0.895,2.5,2,2.5s2-1.119,2-2.5	C45,44.119,44.105,43,43,43z"/><path fill="#1f212b" d="M57,43c-0.799,0-1.482,0.589-1.803,1.435C55.378,44.178,55.662,44,56,44c0.552,0,1,0.448,1,1	c0,0.552-0.448,1-1,1c-0.502,0-0.899-0.376-0.971-0.857C55.015,45.26,55,45.378,55,45.5c0,1.381,0.895,2.5,2,2.5s2-1.119,2-2.5	C59,44.119,58.105,43,57,43z"/><path fill="#bb7a54" d="M49.943,15.5c-12.391,0-18.483,8.012-18.443,17.75c0.012,2.823,0.438,5.29,1.5,8.25h1.5	c0.567-6.048,2.949-10.99,10-11c1.585-0.002,3.408,0.421,5.5,1c2.082-0.584,3.906-1.006,5.5-1c7.022,0.028,9.434,4.963,10,11H67	c0.999-2.96,1.522-5.427,1.5-8.25C68.422,23.512,62.226,15.5,49.943,15.5z"/><path fill="#1f212b" d="M67,42h-1.5c-0.258,0-0.474-0.196-0.498-0.453C64.338,34.473,61.229,31.023,55.498,31	c-1.631-0.029-3.533,0.468-5.363,0.981c-0.087,0.025-0.181,0.025-0.268,0C47.737,31.393,46.011,31,44.511,31	c-0.003,0-0.007,0-0.011,0c-5.809,0.008-8.829,3.359-9.502,10.547C34.974,41.804,34.758,42,34.5,42H33	c-0.211,0-0.399-0.133-0.471-0.331c-1.06-2.954-1.517-5.471-1.529-8.417c-0.021-5.241,1.733-9.901,4.941-13.123	C39.283,16.773,44.125,15,49.943,15C61.432,15,68.912,22.162,69,33.246c0.021,2.703-0.42,5.141-1.526,8.414	C67.405,41.863,67.214,42,67,42z M65.952,41h0.688c0.984-2.989,1.38-5.256,1.36-7.746C67.917,22.772,60.829,16,49.943,16	c-5.547,0-10.144,1.672-13.294,4.835c-3.019,3.031-4.67,7.439-4.649,12.413c0.011,2.715,0.418,5.053,1.354,7.752h0.694	c0.813-7.392,4.235-10.991,10.451-11c0.003,0,0.008,0,0.012,0c1.58,0,3.341,0.391,5.488,0.981C51.847,30.467,53.778,30,55.468,30	c0.011,0,0.022,0,0.034,0C61.63,30.024,65.144,33.725,65.952,41z"/><path fill="#1f212b" d="M43,37c-1.915,0-3.834,0.117-5.711,0.426c-0.145,0-0.289,0.143-0.289,0.286	c0,0.143,0.145,0.286,0.289,0.286c0,0,7.237,0.429,9.553,1h0.145c0.145,0,0.145,0,0.289-0.143l0.724-1c0-0.143,0-0.214,0-0.357	C48,37.497,46,37,43,37z"/><path fill="#1f212b" d="M52,37.497c0,0.143,0,0.214,0,0.357l0.724,1c0.145,0.143,0.145,0.143,0.289,0.143h0.145	c2.316-0.571,9.553-1,9.553-1c0.145,0,0.289-0.143,0.289-0.286c0-0.143-0.145-0.286-0.289-0.286C60.834,37.117,58.915,37,57,37	C54,37,52,37.497,52,37.497z"/><path fill="#1f212b" d="M63,40c-6,0-8.626,1.528-10.634,2.444c-0.771,0.373-1.577,0.564-2.366,0.573	c-0.789-0.008-1.595-0.199-2.366-0.573C45.626,41.528,43,40,37,40c-2.5,0-4,0.5-4,0.5c0,2.5,1.5,10.499,9,10.499	c3.956,0,6.366-3.09,6.891-5.196C49.006,45.34,49.393,45,49.87,45h0.261c0.477,0,0.863,0.34,0.979,0.803	c0.525,2.106,2.936,5.196,6.891,5.196c7.5,0,9-7.999,9-10.499C67,40.5,65.5,40,63,40z M47.935,45.5	c-0.38,1.634-2.433,4.499-5.936,4.499c-5.32,0-6-5.374-6-7.624c0-0.567,0.25-1.369,1.625-1.369c4.261,0,6.644,0.988,8.375,1.78	c0.219,0.1,2,0.964,2,2.214C48,45.147,47.978,45.316,47.935,45.5z M58,49.999c-3.502,0-5.555-2.865-5.936-4.499	C52.022,45.316,52,45.147,52,45c0-1.25,1.78-2.114,2-2.214c1.731-0.792,4.114-1.78,8.375-1.78c1.375,0,1.625,0.802,1.625,1.369	C64,44.625,63.321,49.999,58,49.999z"/><path fill="#1f212b" d="M50,77c-0.128,0-0.256-0.049-0.354-0.146l-7.153-7.153c-0.195-0.195-0.195-0.512,0-0.707	s0.512-0.195,0.707,0l6.8,6.799l2.146-2.146c0.195-0.195,0.512-0.195,0.707,0s0.195,0.512,0,0.707l-2.5,2.5	C50.256,76.951,50.128,77,50,77z"/><path fill="#1f212b" d="M50,82c-0.128,0-0.256-0.049-0.354-0.146L39.333,71.54l0.707-0.707l9.96,9.96l9.975-9.974	l0.707,0.707L50.354,81.854C50.256,81.951,50.128,82,50,82z"/><path fill="#1f212b" d="M54.5,72.5c-0.128,0-0.256-0.049-0.354-0.146c-0.195-0.195-0.195-0.512,0-0.707l1-1	c0.195-0.195,0.512-0.195,0.707,0s0.195,0.512,0,0.707l-1,1C54.756,72.451,54.628,72.5,54.5,72.5z"/><path fill="#fefdef" d="M50,24.5c11.5,0,18,4.5,18,4.5l1.5-10.5c0,0-5.5-9-19.5-9s-19.5,9-19.5,9L32,29	C32,29,38.5,24.5,50,24.5"/><path fill="#1f212b" d="M68,29.5c-0.1,0-0.199-0.03-0.284-0.089C67.651,29.367,61.189,25,50,25s-17.651,4.367-17.716,4.411	c-0.143,0.099-0.325,0.115-0.484,0.047c-0.159-0.069-0.271-0.216-0.295-0.387l-1.5-10.5c-0.017-0.115,0.008-0.232,0.068-0.332	C30.13,18.147,35.883,9,50,9s19.87,9.147,19.927,9.239c0.061,0.099,0.085,0.216,0.068,0.332l-1.5,10.5	c-0.024,0.171-0.136,0.318-0.295,0.387C68.136,29.486,68.068,29.5,68,29.5z M50,24c9.564,0,15.662,3.032,17.613,4.17l1.365-9.553	C68.195,17.479,62.565,10,50,10c-12.594,0-18.199,7.479-18.979,8.617l1.365,9.554C34.338,27.032,40.436,24,50,24z"/><polygon fill="#f05b6c" points="53.5,15.5 51.5,15.5 51.5,13.5 48.5,13.5 48.5,15.5 46.5,15.5 46.5,18.5 48.5,18.5 48.5,20.5 51.5,20.5 51.5,18.5 53.5,18.5"/><path fill="#1f212b" d="M51.5,21h-3c-0.276,0-0.5-0.224-0.5-0.5V19h-1.5c-0.276,0-0.5-0.224-0.5-0.5v-3	c0-0.276,0.224-0.5,0.5-0.5H48v-1.5c0-0.276,0.224-0.5,0.5-0.5h3c0.276,0,0.5,0.224,0.5,0.5V15h1.5c0.276,0,0.5,0.224,0.5,0.5v3	c0,0.276-0.224,0.5-0.5,0.5H52v1.5C52,20.776,51.776,21,51.5,21z M49,20h2v-1.5c0-0.276,0.224-0.5,0.5-0.5H53v-2h-1.5	c-0.276,0-0.5-0.224-0.5-0.5V14h-2v1.5c0,0.276-0.224,0.5-0.5,0.5H47v2h1.5c0.276,0,0.5,0.224,0.5,0.5V20z"/></svg>