<svg xmlns="http://www.w3.org/2000/svg" viewBox="0 0 100 100" width="100px" height="100px"><path fill="#fdfcee" d="M31.402,14.55v18.962v0.954v14.16c-3.178-0.032-10.955-8.617-15.381-7.452 c-2.258,0.594-4.576,2.32-4.436,4.595c0.134,2.18,21.441,18.761,22.265,22.763l0.118,16.282h35.664V68.532v-0.667v-1.177V37.654 c0-2.633-2.252-5.493-4.885-5.493s-4.655,0.898-4.655,3.53l-0.034-2.432c0-2.633-2.154-4.787-4.787-4.787s-4.787,2.154-4.787,4.787 v-2.102c0-2.633-2.154-4.787-4.787-4.787c-2.099,0-3.874,1.379-4.515,3.269V14.55c0-2.518-2.06-4.579-4.579-4.579h-0.624 C33.463,9.971,31.402,12.032,31.402,14.55z"/><path fill="#1f212b" d="M69.633,85.815H33.968c-0.549,0-0.996-0.443-1-0.993l-0.117-16.167 c-0.576-2.011-7.99-8.683-12.919-13.118c-7.399-6.657-9.271-8.494-9.345-9.706c-0.177-2.882,2.561-4.935,5.18-5.623 c3.029-0.798,6.943,1.972,10.397,4.415c1.471,1.04,3.087,2.183,4.239,2.709V14.55c0-3.076,2.502-5.579,5.579-5.579h0.625 c3.076,0,5.579,2.503,5.579,5.579v12.029c0.986-0.765,2.212-1.207,3.515-1.207c2.506,0,4.645,1.602,5.448,3.834 c1.051-1.068,2.512-1.732,4.125-1.732c2.778,0,5.106,1.969,5.661,4.584c0.846-0.538,2.066-0.896,3.814-0.896 c3.314,0,5.885,3.49,5.885,6.493v47.16C70.633,85.367,70.185,85.815,69.633,85.815z M34.961,83.815h33.672v-46.16 c0-2.022-1.792-4.493-3.885-4.493c-3.655,0-3.655,1.838-3.655,2.53c0,0.55-0.443,0.996-0.993,1c-0.002,0-0.005,0-0.007,0 c-0.546,0-0.992-0.438-1-0.986l-0.034-2.432c0-2.102-1.699-3.8-3.787-3.8s-3.787,1.698-3.787,3.786c0,0.553-0.448,1-1,1 s-1-0.447-1-1v-2.102c0-2.088-1.699-3.786-3.787-3.786c-1.609,0-3.043,1.041-3.568,2.59c-0.158,0.463-0.625,0.75-1.11,0.665 c-0.483-0.079-0.837-0.497-0.837-0.986V14.55c0-1.974-1.605-3.579-3.579-3.579h-0.625c-1.973,0-3.579,1.605-3.579,3.579v34.075 c0,0.267-0.107,0.522-0.296,0.711c-0.19,0.188-0.472,0.279-0.713,0.289c-1.641-0.017-3.734-1.496-6.384-3.37 c-2.944-2.082-6.605-4.678-8.733-4.114c-1.882,0.495-3.735,1.846-3.696,3.486c0.488,1.043,5.03,5.13,8.69,8.423 c7.874,7.085,13.071,11.906,13.56,14.281c0.013,0.063,0.02,0.129,0.021,0.194L34.961,83.815z"/><path fill="#78a1d1" d="M34.895 68.139H68.655V83.86H34.895z"/><path fill="#1f212b" d="M60.687 68.522H33.866c-.276 0-.5-.224-.5-.5s.224-.5.5-.5h26.821c.276 0 .5.224.5.5S60.963 68.522 60.687 68.522zM40.56 62.013c-.276 0-.5-.224-.5-.5V42.166c0-.276.224-.5.5-.5s.5.224.5.5v19.347C41.06 61.789 40.836 62.013 40.56 62.013zM50.415 57.066c-.276 0-.5-.224-.5-.5v-14.4c0-.276.224-.5.5-.5s.5.224.5.5v14.399C50.915 56.842 50.692 57.066 50.415 57.066zM59.628 52.34c-.276 0-.5-.224-.5-.5v-9.674c0-.276.224-.5.5-.5s.5.224.5.5v9.674C60.128 52.116 59.904 52.34 59.628 52.34zM63.983 68.522h-1.766c-.276 0-.5-.224-.5-.5s.224-.5.5-.5h1.766c.276 0 .5.224.5.5S64.259 68.522 63.983 68.522zM65.925 68.522h-.334c-.276 0-.5-.224-.5-.5s.224-.5.5-.5h.334c.276 0 .5.224.5.5S66.201 68.522 65.925 68.522zM50.415 60.243c-.276 0-.5-.224-.5-.5v-1.687c0-.276.224-.5.5-.5s.5.224.5.5v1.687C50.915 60.02 50.692 60.243 50.415 60.243zM50.415 62.166c-.276 0-.5-.224-.5-.5v-.55c0-.276.224-.5.5-.5s.5.224.5.5v.55C50.915 61.943 50.692 62.166 50.415 62.166z"/><path fill="#657fbe" d="M62.217 74.182A2.413 2.413 0 1 0 62.217 79.008A2.413 2.413 0 1 0 62.217 74.182Z"/><path fill="#1f212b" d="M62.217,79.508c-1.606,0-2.913-1.307-2.913-2.913s1.307-2.913,2.913-2.913s2.913,1.307,2.913,2.913 S63.823,79.508,62.217,79.508z M62.217,74.682c-1.055,0-1.913,0.858-1.913,1.913s0.858,1.913,1.913,1.913s1.913-0.858,1.913-1.913 S63.272,74.682,62.217,74.682z"/><path fill="#25262f" d="M94,95c-0.256,0-0.512-0.098-0.707-0.293l-88-88c-0.391-0.391-0.391-1.023,0-1.414 s1.023-0.391,1.414,0l88,88c0.391,0.391,0.391,1.023,0,1.414C94.512,94.902,94.256,95,94,95z"/></svg>