<svg xmlns="http://www.w3.org/2000/svg" viewBox="0 0 100 100" width="100px" height="100px"><path fill="#d5d3c1" d="M66.575,87.882h-33c-6.6,0-12-5.4-12-12v-52c0-6.6,5.4-12,12-12h33c6.6,0,12,5.4,12,12v52C78.575,82.482,73.175,87.882,66.575,87.882z"/><path fill="#1f212b" d="M66.575,88.882h-33c-7.168,0-13-5.832-13-13v-52c0-7.168,5.832-13,13-13h33c7.168,0,13,5.832,13,13v52C79.575,83.05,73.743,88.882,66.575,88.882z M33.575,12.882c-6.065,0-11,4.935-11,11v52c0,6.065,4.935,11,11,11h33c6.065,0,11-4.935,11-11v-52c0-6.065-4.935-11-11-11H33.575z"/><path fill="#d5d3c1" d="M73.075,47.382v25.936c0,6.844-5.206,9.064-11.568,9.064H37.643c-6.362,0-11.568-2.095-11.568-8.939V26.495c0-6.844,3.093-9.113,9.456-9.113h26.544"/><path fill="#1f212b" d="M61.506,82.882H37.643c-7.896,0-12.068-3.264-12.068-9.438V26.495c0-6.738,2.978-9.613,9.956-9.613h26.544c0.276,0,0.5,0.224,0.5,0.5s-0.224,0.5-0.5,0.5H35.531c-6.445,0-8.956,2.415-8.956,8.613v46.948c0,5.6,3.724,8.438,11.068,8.438h23.863c7.345,0,11.068-2.882,11.068-8.564V47.382c0-0.276,0.224-0.5,0.5-0.5s0.5,0.224,0.5,0.5v25.936C73.575,79.574,69.402,82.882,61.506,82.882z"/><path fill="#1f212b" d="M73.075 44.882c-.276 0-.5-.224-.5-.5v-5c0-.276.224-.5.5-.5s.5.224.5.5v5C73.575 44.658 73.351 44.882 73.075 44.882zM73.075 37.882c-.276 0-.5-.224-.5-.5v-3c0-.276.224-.5.5-.5s.5.224.5.5v3C73.575 37.658 73.351 37.882 73.075 37.882z"/><path fill="#d5d3c1" d="M33.575 22.382A1.5 1.5 0 1 0 33.575 25.382A1.5 1.5 0 1 0 33.575 22.382Z"/><path fill="#1f212b" d="M33.575,25.882c-1.103,0-2-0.897-2-2s0.897-2,2-2s2,0.897,2,2S34.677,25.882,33.575,25.882z M33.575,22.882c-0.552,0-1,0.448-1,1s0.448,1,1,1s1-0.448,1-1S34.127,22.882,33.575,22.882z"/><path fill="#d5d3c1" d="M66.575 74.382A1.5 1.5 0 1 0 66.575 77.382A1.5 1.5 0 1 0 66.575 74.382Z"/><path fill="#1f212b" d="M66.575,77.882c-1.103,0-2-0.897-2-2s0.897-2,2-2s2,0.897,2,2S67.677,77.882,66.575,77.882z M66.575,74.882c-0.552,0-1,0.448-1,1s0.448,1,1,1s1-0.448,1-1S67.127,74.882,66.575,74.882z"/><path fill="#fdfcee" d="M54.575,61.107V28.6c0-2.045-1.673-3.718-3.718-3.718h-0.563c-2.045,0-3.718,1.673-3.718,3.718v32.506c-2.856,1.552-4.662,4.708-4.107,8.215c0.552,3.488,3.489,6.186,6.992,6.633c5.03,0.643,9.323-3.139,9.323-7.895C58.782,65.071,57.084,62.47,54.575,61.107z"/><path fill="#1f212b" d="M50.557,77.025c-0.406,0-0.815-0.026-1.225-0.078c-4.009-0.514-7.238-3.584-7.853-7.469c-0.565-3.574,1.032-7.021,4.095-8.945V28.601c0-2.602,2.117-4.719,4.719-4.719h0.562c2.602,0,4.719,2.117,4.719,4.719v31.934c2.609,1.646,4.207,4.479,4.207,7.525c0,2.53-1.106,4.956-3.034,6.653C55.045,76.212,52.84,77.025,50.557,77.025z M50.294,25.882c-1.499,0-2.719,1.22-2.719,2.719v32.506c0,0.366-0.2,0.704-0.522,0.879c-2.647,1.438-4.06,4.257-3.598,7.181c0.477,3.013,2.998,5.396,6.132,5.797c2.136,0.277,4.265-0.364,5.839-1.751c1.498-1.318,2.356-3.196,2.356-5.152c0-2.512-1.412-4.84-3.685-6.074c-0.322-0.175-0.522-0.513-0.522-0.879V28.601c0-1.499-1.22-2.719-2.719-2.719H50.294z"/><path fill="#1f212b" d="M50.075,65.882c-0.276,0-0.5-0.224-0.5-0.5v-33c0-0.276,0.224-0.5,0.5-0.5s0.5,0.224,0.5,0.5v33C50.575,65.658,50.351,65.882,50.075,65.882z"/><path fill="#ee538f" d="M50.575 65.382A2.5 2.5 0 1 0 50.575 70.382A2.5 2.5 0 1 0 50.575 65.382Z"/><path fill="#1f212b" d="M50.575 70.882c-1.654 0-3-1.346-3-3s1.346-3 3-3 3 1.346 3 3S52.229 70.882 50.575 70.882zM50.575 65.882c-1.103 0-2 .897-2 2s.897 2 2 2 2-.897 2-2S51.677 65.882 50.575 65.882zM54.075 46.882h-2c-.276 0-.5-.224-.5-.5s.224-.5.5-.5h2c.276 0 .5.224.5.5S54.351 46.882 54.075 46.882zM54.075 49.882h-2c-.276 0-.5-.224-.5-.5s.224-.5.5-.5h2c.276 0 .5.224.5.5S54.351 49.882 54.075 49.882zM54.075 52.882h-2c-.276 0-.5-.224-.5-.5s.224-.5.5-.5h2c.276 0 .5.224.5.5S54.351 52.882 54.075 52.882zM54.075 55.882h-2c-.276 0-.5-.224-.5-.5s.224-.5.5-.5h2c.276 0 .5.224.5.5S54.351 55.882 54.075 55.882zM54.075 36.882h-2c-.276 0-.5-.224-.5-.5s.224-.5.5-.5h2c.276 0 .5.224.5.5S54.351 36.882 54.075 36.882zM54.075 39.882h-2c-.276 0-.5-.224-.5-.5s.224-.5.5-.5h2c.276 0 .5.224.5.5S54.351 39.882 54.075 39.882zM54.075 42.882h-2c-.276 0-.5-.224-.5-.5s.224-.5.5-.5h2c.276 0 .5.224.5.5S54.351 42.882 54.075 42.882z"/></svg>