<svg xmlns="http://www.w3.org/2000/svg" viewBox="0 0 100 100" width="100px" height="100px"><path fill="#fefdef" d="M90,51.94V69c0,2.76-2.24,5-5,5H13c-0.55,0-1-0.45-1-1V26c0-2.76,2.24-5,5-5h48.44	c2.55,0,4.95,1.22,6.46,3.27l16.36,22.36C89.39,48.17,90,50.03,90,51.94z"/><path fill="#78cdd4" d="M88.16,46.5H61.5c-1.1,0-2-0.9-2-2v-13c0-1.1,0.9-2,2-2h3V29h10.86L88.16,46.5z"/><polygon fill="#f15b6c" points="86.5,53.5 90,53.5 90,58.5 12.5,58.5 12.5,53.5 74.5,53.5 74.5,53 86.5,53"/><path fill="#1f212b" d="M88.51,47H61.5c-1.38,0-2.5-1.12-2.5-2.5v-13c0-1.38,1.12-2.5,2.5-2.5h3c0.28,0,0.5,0.22,0.5,0.5	S64.78,30,64.5,30h-3c-0.83,0-1.5,0.67-1.5,1.5v13c0,0.83,0.67,1.5,1.5,1.5h26.3l0.46,0.63C88.35,46.75,88.43,46.87,88.51,47z"/><path fill="#f27c7c" d="M16.5,69.5h-4v-6h4c1.105,0,2,0.895,2,2v2C18.5,68.605,17.605,69.5,16.5,69.5z"/><path fill="#f27c7c" d="M85.5,63.5h4v6h-4c-1.105,0-2-0.895-2-2v-2C83.5,64.395,84.395,63.5,85.5,63.5z"/><path fill="#1f212b" d="M16.5,70h-4c-0.276,0-0.5-0.224-0.5-0.5v-6c0-0.276,0.224-0.5,0.5-0.5h4c1.379,0,2.5,1.121,2.5,2.5v2	C19,68.879,17.879,70,16.5,70z M13,69h3.5c0.827,0,1.5-0.673,1.5-1.5v-2c0-0.827-0.673-1.5-1.5-1.5H13V69z"/><path fill="#1f212b" d="M89.5,70h-4c-1.379,0-2.5-1.121-2.5-2.5v-2c0-1.379,1.121-2.5,2.5-2.5h4c0.276,0,0.5,0.224,0.5,0.5v6	C90,69.776,89.776,70,89.5,70z M85.5,64c-0.827,0-1.5,0.673-1.5,1.5v2c0,0.827,0.673,1.5,1.5,1.5H89v-5H85.5z"/><circle cx="29" cy="74" r="8.5" fill="#565fa1"/><path fill="#1f212b" d="M29,83c-4.963,0-9-4.037-9-9s4.037-9,9-9s9,4.037,9,9S33.963,83,29,83z M29,66c-4.411,0-8,3.589-8,8	s3.589,8,8,8s8-3.589,8-8S33.411,66,29,66z"/><circle cx="29" cy="74" r="3.5" fill="#ceccbe"/><path fill="#1f212b" d="M29,78c-2.206,0-4-1.794-4-4s1.794-4,4-4s4,1.794,4,4S31.206,78,29,78z M29,71c-1.654,0-3,1.346-3,3	s1.346,3,3,3s3-1.346,3-3S30.654,71,29,71z"/><path fill="#1f212b" d="M85.001,75H81.5v-2h3.501c2.204,0,3.998-1.795,3.999-4V51.942c0-1.712-0.534-3.346-1.545-4.726	L71.091,24.865C69.777,23.071,67.666,22,65.442,22H17c-2.206,0-4,1.794-4,4v47h7.5v2H13c-1.103,0-2-0.897-2-2V26	c0-3.309,2.691-6,6-6h48.442c2.858,0,5.573,1.377,7.262,3.684l16.364,22.352C90.332,47.76,91,49.803,91,51.942V69	C90.999,72.309,88.308,75,85.001,75z"/><rect width="27" height="2" x="37.5" y="73" fill="#1f212b"/><circle cx="73" cy="74" r="8.5" fill="#565fa1"/><path fill="#1f212b" d="M73,83c-4.963,0-9-4.037-9-9s4.037-9,9-9s9,4.037,9,9S77.963,83,73,83z M73,66c-4.411,0-8,3.589-8,8	s3.589,8,8,8s8-3.589,8-8S77.411,66,73,66z"/><circle cx="73" cy="74" r="3.5" fill="#ceccbe"/><path fill="#1f212b" d="M73,78c-2.206,0-4-1.794-4-4s1.794-4,4-4s4,1.794,4,4S75.206,78,73,78z M73,71c-1.654,0-3,1.346-3,3	s1.346,3,3,3s3-1.346,3-3S74.654,71,73,71z"/><path fill="#1f212b" d="M68.5,30h-2c-0.276,0-0.5-0.224-0.5-0.5s0.224-0.5,0.5-0.5h2c0.276,0,0.5,0.224,0.5,0.5	S68.776,30,68.5,30z"/><path fill="#1f212b" d="M71.5,30h-1c-0.276,0-0.5-0.224-0.5-0.5s0.224-0.5,0.5-0.5h1c0.276,0,0.5,0.224,0.5,0.5	S71.776,30,71.5,30z"/><circle cx="34.5" cy="38.5" r="10" fill="#f15b6c"/><polygon fill="#fefdef" points="40.5,36.5 36.5,36.5 36.5,32.5 32.5,32.5 32.5,36.5 28.5,36.5 28.5,40.5 32.5,40.5 32.5,44.5 36.5,44.5 36.5,40.5 40.5,40.5"/><path fill="#1f212b" d="M36.5,45h-4c-0.276,0-0.5-0.224-0.5-0.5V41h-3.5c-0.276,0-0.5-0.224-0.5-0.5v-4	c0-0.276,0.224-0.5,0.5-0.5H32v-3.5c0-0.276,0.224-0.5,0.5-0.5h4c0.276,0,0.5,0.224,0.5,0.5V36h3.5c0.276,0,0.5,0.224,0.5,0.5v4	c0,0.276-0.224,0.5-0.5,0.5H37v3.5C37,44.776,36.776,45,36.5,45z M33,44h3v-3.5c0-0.276,0.224-0.5,0.5-0.5H40v-3h-3.5	c-0.276,0-0.5-0.224-0.5-0.5V33h-3v3.5c0,0.276-0.224,0.5-0.5,0.5H29v3h3.5c0.276,0,0.5,0.224,0.5,0.5V44z"/><path fill="#1f212b" d="M34.5,49C28.71,49,24,44.29,24,38.5S28.71,28,34.5,28S45,32.71,45,38.5S40.29,49,34.5,49z M34.5,29	c-5.238,0-9.5,4.262-9.5,9.5s4.262,9.5,9.5,9.5s9.5-4.262,9.5-9.5S39.738,29,34.5,29z"/><path fill="#1f212b" d="M84.5,54h-1c-0.276,0-0.5-0.224-0.5-0.5s0.224-0.5,0.5-0.5h1c0.276,0,0.5,0.224,0.5,0.5	S84.776,54,84.5,54z"/><path fill="#1f212b" d="M81.5,54h-2c-0.276,0-0.5-0.224-0.5-0.5s0.224-0.5,0.5-0.5h2c0.276,0,0.5,0.224,0.5,0.5	S81.776,54,81.5,54z"/><path fill="#1f212b" d="M90,59H12.5c-0.276,0-0.5-0.224-0.5-0.5v-5c0-0.276,0.224-0.5,0.5-0.5h62c0.276,0,0.5,0.224,0.5,0.5	S74.776,54,74.5,54H13v4h76.5v-4h-3c-0.276,0-0.5-0.224-0.5-0.5s0.224-0.5,0.5-0.5H90c0.276,0,0.5,0.224,0.5,0.5v5	C90.5,58.776,90.276,59,90,59z"/><path fill="#f27c7c" d="M56.5,16.5c0,0.921,0,4,0,4h-6c0,0,0-2.343,0-4s1.343-3,3-3S56.5,14.843,56.5,16.5z"/><path fill="#1f212b" d="M56.5,21h-6c-0.276,0-0.5-0.224-0.5-0.5v-4c0-1.93,1.57-3.5,3.5-3.5s3.5,1.57,3.5,3.5v4	C57,20.776,56.776,21,56.5,21z M51,20h5v-3.5c0-1.379-1.121-2.5-2.5-2.5S51,15.121,51,16.5V20z"/></svg>